<?xml version="1.0" encoding="utf-8" standalone="no"?>
<!DOCTYPE svg PUBLIC "-//W3C//DTD SVG 1.1//EN"
  "http://www.w3.org/Graphics/SVG/1.1/DTD/svg11.dtd">
<svg xmlns:xlink="http://www.w3.org/1999/xlink" width="648pt" height="360pt" viewBox="0 0 648 360" xmlns="http://www.w3.org/2000/svg" version="1.1">
 <metadata>
  <rdf:RDF xmlns:dc="http://purl.org/dc/elements/1.1/" xmlns:cc="http://creativecommons.org/ns#" xmlns:rdf="http://www.w3.org/1999/02/22-rdf-syntax-ns#">
   <cc:Work>
    <dc:type rdf:resource="http://purl.org/dc/dcmitype/StillImage"/>
    <dc:date>2024-03-06T23:58:56.868181</dc:date>
    <dc:format>image/svg+xml</dc:format>
    <dc:creator>
     <cc:Agent>
      <dc:title>Matplotlib v3.8.0, https://matplotlib.org/</dc:title>
     </cc:Agent>
    </dc:creator>
   </cc:Work>
  </rdf:RDF>
 </metadata>
 <defs>
  <style type="text/css">*{stroke-linejoin: round; stroke-linecap: butt}</style>
 </defs>
 <g id="figure_1">
  <g id="patch_1">
   <path d="M 0 360 
L 648 360 
L 648 0 
L 0 0 
z
" style="fill: #ffffff"/>
  </g>
  <g id="axes_1">
   <g id="patch_2">
    <path d="M 44.66 318.04 
L 637.2 318.04 
L 637.2 25.44 
L 44.66 25.44 
z
" style="fill: #ffffff"/>
   </g>
   <g id="matplotlib.axis_1">
    <g id="xtick_1">
     <g id="line2d_1">
      <defs>
       <path id="m7833d624a8" d="M 0 0 
L 0 3.5 
" style="stroke: #000000; stroke-width: 0.8"/>
      </defs>
      <g>
       <use xlink:href="#m7833d624a8" x="71.593636" y="318.04" style="stroke: #000000; stroke-width: 0.8"/>
      </g>
     </g>
     <g id="text_1">
      <!-- 0 -->
      <g transform="translate(68.412386 332.638438) scale(0.1 -0.1)">
       <defs>
        <path id="DejaVuSans-30" d="M 2034 4250 
Q 1547 4250 1301 3770 
Q 1056 3291 1056 2328 
Q 1056 1369 1301 889 
Q 1547 409 2034 409 
Q 2525 409 2770 889 
Q 3016 1369 3016 2328 
Q 3016 3291 2770 3770 
Q 2525 4250 2034 4250 
z
M 2034 4750 
Q 2819 4750 3233 4129 
Q 3647 3509 3647 2328 
Q 3647 1150 3233 529 
Q 2819 -91 2034 -91 
Q 1250 -91 836 529 
Q 422 1150 422 2328 
Q 422 3509 836 4129 
Q 1250 4750 2034 4750 
z
" transform="scale(0.015625)"/>
       </defs>
       <use xlink:href="#DejaVuSans-30"/>
      </g>
     </g>
    </g>
    <g id="xtick_2">
     <g id="line2d_2">
      <g>
       <use xlink:href="#m7833d624a8" x="179.338956" y="318.04" style="stroke: #000000; stroke-width: 0.8"/>
      </g>
     </g>
     <g id="text_2">
      <!-- 2000 -->
      <g transform="translate(166.613956 332.638438) scale(0.1 -0.1)">
       <defs>
        <path id="DejaVuSans-32" d="M 1228 531 
L 3431 531 
L 3431 0 
L 469 0 
L 469 531 
Q 828 903 1448 1529 
Q 2069 2156 2228 2338 
Q 2531 2678 2651 2914 
Q 2772 3150 2772 3378 
Q 2772 3750 2511 3984 
Q 2250 4219 1831 4219 
Q 1534 4219 1204 4116 
Q 875 4013 500 3803 
L 500 4441 
Q 881 4594 1212 4672 
Q 1544 4750 1819 4750 
Q 2544 4750 2975 4387 
Q 3406 4025 3406 3419 
Q 3406 3131 3298 2873 
Q 3191 2616 2906 2266 
Q 2828 2175 2409 1742 
Q 1991 1309 1228 531 
z
" transform="scale(0.015625)"/>
       </defs>
       <use xlink:href="#DejaVuSans-32"/>
       <use xlink:href="#DejaVuSans-30" x="63.623047"/>
       <use xlink:href="#DejaVuSans-30" x="127.246094"/>
       <use xlink:href="#DejaVuSans-30" x="190.869141"/>
      </g>
     </g>
    </g>
    <g id="xtick_3">
     <g id="line2d_3">
      <g>
       <use xlink:href="#m7833d624a8" x="287.084276" y="318.04" style="stroke: #000000; stroke-width: 0.8"/>
      </g>
     </g>
     <g id="text_3">
      <!-- 4000 -->
      <g transform="translate(274.359276 332.638438) scale(0.1 -0.1)">
       <defs>
        <path id="DejaVuSans-34" d="M 2419 4116 
L 825 1625 
L 2419 1625 
L 2419 4116 
z
M 2253 4666 
L 3047 4666 
L 3047 1625 
L 3713 1625 
L 3713 1100 
L 3047 1100 
L 3047 0 
L 2419 0 
L 2419 1100 
L 313 1100 
L 313 1709 
L 2253 4666 
z
" transform="scale(0.015625)"/>
       </defs>
       <use xlink:href="#DejaVuSans-34"/>
       <use xlink:href="#DejaVuSans-30" x="63.623047"/>
       <use xlink:href="#DejaVuSans-30" x="127.246094"/>
       <use xlink:href="#DejaVuSans-30" x="190.869141"/>
      </g>
     </g>
    </g>
    <g id="xtick_4">
     <g id="line2d_4">
      <g>
       <use xlink:href="#m7833d624a8" x="394.829596" y="318.04" style="stroke: #000000; stroke-width: 0.8"/>
      </g>
     </g>
     <g id="text_4">
      <!-- 6000 -->
      <g transform="translate(382.104596 332.638438) scale(0.1 -0.1)">
       <defs>
        <path id="DejaVuSans-36" d="M 2113 2584 
Q 1688 2584 1439 2293 
Q 1191 2003 1191 1497 
Q 1191 994 1439 701 
Q 1688 409 2113 409 
Q 2538 409 2786 701 
Q 3034 994 3034 1497 
Q 3034 2003 2786 2293 
Q 2538 2584 2113 2584 
z
M 3366 4563 
L 3366 3988 
Q 3128 4100 2886 4159 
Q 2644 4219 2406 4219 
Q 1781 4219 1451 3797 
Q 1122 3375 1075 2522 
Q 1259 2794 1537 2939 
Q 1816 3084 2150 3084 
Q 2853 3084 3261 2657 
Q 3669 2231 3669 1497 
Q 3669 778 3244 343 
Q 2819 -91 2113 -91 
Q 1303 -91 875 529 
Q 447 1150 447 2328 
Q 447 3434 972 4092 
Q 1497 4750 2381 4750 
Q 2619 4750 2861 4703 
Q 3103 4656 3366 4563 
z
" transform="scale(0.015625)"/>
       </defs>
       <use xlink:href="#DejaVuSans-36"/>
       <use xlink:href="#DejaVuSans-30" x="63.623047"/>
       <use xlink:href="#DejaVuSans-30" x="127.246094"/>
       <use xlink:href="#DejaVuSans-30" x="190.869141"/>
      </g>
     </g>
    </g>
    <g id="xtick_5">
     <g id="line2d_5">
      <g>
       <use xlink:href="#m7833d624a8" x="502.574916" y="318.04" style="stroke: #000000; stroke-width: 0.8"/>
      </g>
     </g>
     <g id="text_5">
      <!-- 8000 -->
      <g transform="translate(489.849916 332.638438) scale(0.1 -0.1)">
       <defs>
        <path id="DejaVuSans-38" d="M 2034 2216 
Q 1584 2216 1326 1975 
Q 1069 1734 1069 1313 
Q 1069 891 1326 650 
Q 1584 409 2034 409 
Q 2484 409 2743 651 
Q 3003 894 3003 1313 
Q 3003 1734 2745 1975 
Q 2488 2216 2034 2216 
z
M 1403 2484 
Q 997 2584 770 2862 
Q 544 3141 544 3541 
Q 544 4100 942 4425 
Q 1341 4750 2034 4750 
Q 2731 4750 3128 4425 
Q 3525 4100 3525 3541 
Q 3525 3141 3298 2862 
Q 3072 2584 2669 2484 
Q 3125 2378 3379 2068 
Q 3634 1759 3634 1313 
Q 3634 634 3220 271 
Q 2806 -91 2034 -91 
Q 1263 -91 848 271 
Q 434 634 434 1313 
Q 434 1759 690 2068 
Q 947 2378 1403 2484 
z
M 1172 3481 
Q 1172 3119 1398 2916 
Q 1625 2713 2034 2713 
Q 2441 2713 2670 2916 
Q 2900 3119 2900 3481 
Q 2900 3844 2670 4047 
Q 2441 4250 2034 4250 
Q 1625 4250 1398 4047 
Q 1172 3844 1172 3481 
z
" transform="scale(0.015625)"/>
       </defs>
       <use xlink:href="#DejaVuSans-38"/>
       <use xlink:href="#DejaVuSans-30" x="63.623047"/>
       <use xlink:href="#DejaVuSans-30" x="127.246094"/>
       <use xlink:href="#DejaVuSans-30" x="190.869141"/>
      </g>
     </g>
    </g>
    <g id="xtick_6">
     <g id="line2d_6">
      <g>
       <use xlink:href="#m7833d624a8" x="610.320236" y="318.04" style="stroke: #000000; stroke-width: 0.8"/>
      </g>
     </g>
     <g id="text_6">
      <!-- 10000 -->
      <g transform="translate(594.413986 332.638438) scale(0.1 -0.1)">
       <defs>
        <path id="DejaVuSans-31" d="M 794 531 
L 1825 531 
L 1825 4091 
L 703 3866 
L 703 4441 
L 1819 4666 
L 2450 4666 
L 2450 531 
L 3481 531 
L 3481 0 
L 794 0 
L 794 531 
z
" transform="scale(0.015625)"/>
       </defs>
       <use xlink:href="#DejaVuSans-31"/>
       <use xlink:href="#DejaVuSans-30" x="63.623047"/>
       <use xlink:href="#DejaVuSans-30" x="127.246094"/>
       <use xlink:href="#DejaVuSans-30" x="190.869141"/>
       <use xlink:href="#DejaVuSans-30" x="254.492188"/>
      </g>
     </g>
    </g>
    <g id="text_7">
     <!-- Time -->
     <g transform="translate(328.696406 346.316563) scale(0.1 -0.1)">
      <defs>
       <path id="DejaVuSans-54" d="M -19 4666 
L 3928 4666 
L 3928 4134 
L 2272 4134 
L 2272 0 
L 1638 0 
L 1638 4134 
L -19 4134 
L -19 4666 
z
" transform="scale(0.015625)"/>
       <path id="DejaVuSans-69" d="M 603 3500 
L 1178 3500 
L 1178 0 
L 603 0 
L 603 3500 
z
M 603 4863 
L 1178 4863 
L 1178 4134 
L 603 4134 
L 603 4863 
z
" transform="scale(0.015625)"/>
       <path id="DejaVuSans-6d" d="M 3328 2828 
Q 3544 3216 3844 3400 
Q 4144 3584 4550 3584 
Q 5097 3584 5394 3201 
Q 5691 2819 5691 2113 
L 5691 0 
L 5113 0 
L 5113 2094 
Q 5113 2597 4934 2840 
Q 4756 3084 4391 3084 
Q 3944 3084 3684 2787 
Q 3425 2491 3425 1978 
L 3425 0 
L 2847 0 
L 2847 2094 
Q 2847 2600 2669 2842 
Q 2491 3084 2119 3084 
Q 1678 3084 1418 2786 
Q 1159 2488 1159 1978 
L 1159 0 
L 581 0 
L 581 3500 
L 1159 3500 
L 1159 2956 
Q 1356 3278 1631 3431 
Q 1906 3584 2284 3584 
Q 2666 3584 2933 3390 
Q 3200 3197 3328 2828 
z
" transform="scale(0.015625)"/>
       <path id="DejaVuSans-65" d="M 3597 1894 
L 3597 1613 
L 953 1613 
Q 991 1019 1311 708 
Q 1631 397 2203 397 
Q 2534 397 2845 478 
Q 3156 559 3463 722 
L 3463 178 
Q 3153 47 2828 -22 
Q 2503 -91 2169 -91 
Q 1331 -91 842 396 
Q 353 884 353 1716 
Q 353 2575 817 3079 
Q 1281 3584 2069 3584 
Q 2775 3584 3186 3129 
Q 3597 2675 3597 1894 
z
M 3022 2063 
Q 3016 2534 2758 2815 
Q 2500 3097 2075 3097 
Q 1594 3097 1305 2825 
Q 1016 2553 972 2059 
L 3022 2063 
z
" transform="scale(0.015625)"/>
      </defs>
      <use xlink:href="#DejaVuSans-54"/>
      <use xlink:href="#DejaVuSans-69" x="57.958984"/>
      <use xlink:href="#DejaVuSans-6d" x="85.742188"/>
      <use xlink:href="#DejaVuSans-65" x="183.154297"/>
     </g>
    </g>
   </g>
   <g id="matplotlib.axis_2">
    <g id="ytick_1">
     <g id="line2d_7">
      <defs>
       <path id="m2f7802d167" d="M 0 0 
L -3.5 0 
" style="stroke: #000000; stroke-width: 0.8"/>
      </defs>
      <g>
       <use xlink:href="#m2f7802d167" x="44.66" y="304.74" style="stroke: #000000; stroke-width: 0.8"/>
      </g>
     </g>
     <g id="text_8">
      <!-- 0 -->
      <g transform="translate(31.2975 308.539219) scale(0.1 -0.1)">
       <use xlink:href="#DejaVuSans-30"/>
      </g>
     </g>
    </g>
    <g id="ytick_2">
     <g id="line2d_8">
      <g>
       <use xlink:href="#m2f7802d167" x="44.66" y="257.24" style="stroke: #000000; stroke-width: 0.8"/>
      </g>
     </g>
     <g id="text_9">
      <!-- 5 -->
      <g transform="translate(31.2975 261.039219) scale(0.1 -0.1)">
       <defs>
        <path id="DejaVuSans-35" d="M 691 4666 
L 3169 4666 
L 3169 4134 
L 1269 4134 
L 1269 2991 
Q 1406 3038 1543 3061 
Q 1681 3084 1819 3084 
Q 2600 3084 3056 2656 
Q 3513 2228 3513 1497 
Q 3513 744 3044 326 
Q 2575 -91 1722 -91 
Q 1428 -91 1123 -41 
Q 819 9 494 109 
L 494 744 
Q 775 591 1075 516 
Q 1375 441 1709 441 
Q 2250 441 2565 725 
Q 2881 1009 2881 1497 
Q 2881 1984 2565 2268 
Q 2250 2553 1709 2553 
Q 1456 2553 1204 2497 
Q 953 2441 691 2322 
L 691 4666 
z
" transform="scale(0.015625)"/>
       </defs>
       <use xlink:href="#DejaVuSans-35"/>
      </g>
     </g>
    </g>
    <g id="ytick_3">
     <g id="line2d_9">
      <g>
       <use xlink:href="#m2f7802d167" x="44.66" y="209.74" style="stroke: #000000; stroke-width: 0.8"/>
      </g>
     </g>
     <g id="text_10">
      <!-- 10 -->
      <g transform="translate(24.935 213.539219) scale(0.1 -0.1)">
       <use xlink:href="#DejaVuSans-31"/>
       <use xlink:href="#DejaVuSans-30" x="63.623047"/>
      </g>
     </g>
    </g>
    <g id="ytick_4">
     <g id="line2d_10">
      <g>
       <use xlink:href="#m2f7802d167" x="44.66" y="162.24" style="stroke: #000000; stroke-width: 0.8"/>
      </g>
     </g>
     <g id="text_11">
      <!-- 15 -->
      <g transform="translate(24.935 166.039219) scale(0.1 -0.1)">
       <use xlink:href="#DejaVuSans-31"/>
       <use xlink:href="#DejaVuSans-35" x="63.623047"/>
      </g>
     </g>
    </g>
    <g id="ytick_5">
     <g id="line2d_11">
      <g>
       <use xlink:href="#m2f7802d167" x="44.66" y="114.74" style="stroke: #000000; stroke-width: 0.8"/>
      </g>
     </g>
     <g id="text_12">
      <!-- 20 -->
      <g transform="translate(24.935 118.539219) scale(0.1 -0.1)">
       <use xlink:href="#DejaVuSans-32"/>
       <use xlink:href="#DejaVuSans-30" x="63.623047"/>
      </g>
     </g>
    </g>
    <g id="ytick_6">
     <g id="line2d_12">
      <g>
       <use xlink:href="#m2f7802d167" x="44.66" y="67.24" style="stroke: #000000; stroke-width: 0.8"/>
      </g>
     </g>
     <g id="text_13">
      <!-- 25 -->
      <g transform="translate(24.935 71.039219) scale(0.1 -0.1)">
       <use xlink:href="#DejaVuSans-32"/>
       <use xlink:href="#DejaVuSans-35" x="63.623047"/>
      </g>
     </g>
    </g>
    <g id="text_14">
     <!-- Number of cars in the village -->
     <g transform="translate(18.855312 244.268906) rotate(-90) scale(0.1 -0.1)">
      <defs>
       <path id="DejaVuSans-4e" d="M 628 4666 
L 1478 4666 
L 3547 763 
L 3547 4666 
L 4159 4666 
L 4159 0 
L 3309 0 
L 1241 3903 
L 1241 0 
L 628 0 
L 628 4666 
z
" transform="scale(0.015625)"/>
       <path id="DejaVuSans-75" d="M 544 1381 
L 544 3500 
L 1119 3500 
L 1119 1403 
Q 1119 906 1312 657 
Q 1506 409 1894 409 
Q 2359 409 2629 706 
Q 2900 1003 2900 1516 
L 2900 3500 
L 3475 3500 
L 3475 0 
L 2900 0 
L 2900 538 
Q 2691 219 2414 64 
Q 2138 -91 1772 -91 
Q 1169 -91 856 284 
Q 544 659 544 1381 
z
M 1991 3584 
L 1991 3584 
z
" transform="scale(0.015625)"/>
       <path id="DejaVuSans-62" d="M 3116 1747 
Q 3116 2381 2855 2742 
Q 2594 3103 2138 3103 
Q 1681 3103 1420 2742 
Q 1159 2381 1159 1747 
Q 1159 1113 1420 752 
Q 1681 391 2138 391 
Q 2594 391 2855 752 
Q 3116 1113 3116 1747 
z
M 1159 2969 
Q 1341 3281 1617 3432 
Q 1894 3584 2278 3584 
Q 2916 3584 3314 3078 
Q 3713 2572 3713 1747 
Q 3713 922 3314 415 
Q 2916 -91 2278 -91 
Q 1894 -91 1617 61 
Q 1341 213 1159 525 
L 1159 0 
L 581 0 
L 581 4863 
L 1159 4863 
L 1159 2969 
z
" transform="scale(0.015625)"/>
       <path id="DejaVuSans-72" d="M 2631 2963 
Q 2534 3019 2420 3045 
Q 2306 3072 2169 3072 
Q 1681 3072 1420 2755 
Q 1159 2438 1159 1844 
L 1159 0 
L 581 0 
L 581 3500 
L 1159 3500 
L 1159 2956 
Q 1341 3275 1631 3429 
Q 1922 3584 2338 3584 
Q 2397 3584 2469 3576 
Q 2541 3569 2628 3553 
L 2631 2963 
z
" transform="scale(0.015625)"/>
       <path id="DejaVuSans-20" transform="scale(0.015625)"/>
       <path id="DejaVuSans-6f" d="M 1959 3097 
Q 1497 3097 1228 2736 
Q 959 2375 959 1747 
Q 959 1119 1226 758 
Q 1494 397 1959 397 
Q 2419 397 2687 759 
Q 2956 1122 2956 1747 
Q 2956 2369 2687 2733 
Q 2419 3097 1959 3097 
z
M 1959 3584 
Q 2709 3584 3137 3096 
Q 3566 2609 3566 1747 
Q 3566 888 3137 398 
Q 2709 -91 1959 -91 
Q 1206 -91 779 398 
Q 353 888 353 1747 
Q 353 2609 779 3096 
Q 1206 3584 1959 3584 
z
" transform="scale(0.015625)"/>
       <path id="DejaVuSans-66" d="M 2375 4863 
L 2375 4384 
L 1825 4384 
Q 1516 4384 1395 4259 
Q 1275 4134 1275 3809 
L 1275 3500 
L 2222 3500 
L 2222 3053 
L 1275 3053 
L 1275 0 
L 697 0 
L 697 3053 
L 147 3053 
L 147 3500 
L 697 3500 
L 697 3744 
Q 697 4328 969 4595 
Q 1241 4863 1831 4863 
L 2375 4863 
z
" transform="scale(0.015625)"/>
       <path id="DejaVuSans-63" d="M 3122 3366 
L 3122 2828 
Q 2878 2963 2633 3030 
Q 2388 3097 2138 3097 
Q 1578 3097 1268 2742 
Q 959 2388 959 1747 
Q 959 1106 1268 751 
Q 1578 397 2138 397 
Q 2388 397 2633 464 
Q 2878 531 3122 666 
L 3122 134 
Q 2881 22 2623 -34 
Q 2366 -91 2075 -91 
Q 1284 -91 818 406 
Q 353 903 353 1747 
Q 353 2603 823 3093 
Q 1294 3584 2113 3584 
Q 2378 3584 2631 3529 
Q 2884 3475 3122 3366 
z
" transform="scale(0.015625)"/>
       <path id="DejaVuSans-61" d="M 2194 1759 
Q 1497 1759 1228 1600 
Q 959 1441 959 1056 
Q 959 750 1161 570 
Q 1363 391 1709 391 
Q 2188 391 2477 730 
Q 2766 1069 2766 1631 
L 2766 1759 
L 2194 1759 
z
M 3341 1997 
L 3341 0 
L 2766 0 
L 2766 531 
Q 2569 213 2275 61 
Q 1981 -91 1556 -91 
Q 1019 -91 701 211 
Q 384 513 384 1019 
Q 384 1609 779 1909 
Q 1175 2209 1959 2209 
L 2766 2209 
L 2766 2266 
Q 2766 2663 2505 2880 
Q 2244 3097 1772 3097 
Q 1472 3097 1187 3025 
Q 903 2953 641 2809 
L 641 3341 
Q 956 3463 1253 3523 
Q 1550 3584 1831 3584 
Q 2591 3584 2966 3190 
Q 3341 2797 3341 1997 
z
" transform="scale(0.015625)"/>
       <path id="DejaVuSans-73" d="M 2834 3397 
L 2834 2853 
Q 2591 2978 2328 3040 
Q 2066 3103 1784 3103 
Q 1356 3103 1142 2972 
Q 928 2841 928 2578 
Q 928 2378 1081 2264 
Q 1234 2150 1697 2047 
L 1894 2003 
Q 2506 1872 2764 1633 
Q 3022 1394 3022 966 
Q 3022 478 2636 193 
Q 2250 -91 1575 -91 
Q 1294 -91 989 -36 
Q 684 19 347 128 
L 347 722 
Q 666 556 975 473 
Q 1284 391 1588 391 
Q 1994 391 2212 530 
Q 2431 669 2431 922 
Q 2431 1156 2273 1281 
Q 2116 1406 1581 1522 
L 1381 1569 
Q 847 1681 609 1914 
Q 372 2147 372 2553 
Q 372 3047 722 3315 
Q 1072 3584 1716 3584 
Q 2034 3584 2315 3537 
Q 2597 3491 2834 3397 
z
" transform="scale(0.015625)"/>
       <path id="DejaVuSans-6e" d="M 3513 2113 
L 3513 0 
L 2938 0 
L 2938 2094 
Q 2938 2591 2744 2837 
Q 2550 3084 2163 3084 
Q 1697 3084 1428 2787 
Q 1159 2491 1159 1978 
L 1159 0 
L 581 0 
L 581 3500 
L 1159 3500 
L 1159 2956 
Q 1366 3272 1645 3428 
Q 1925 3584 2291 3584 
Q 2894 3584 3203 3211 
Q 3513 2838 3513 2113 
z
" transform="scale(0.015625)"/>
       <path id="DejaVuSans-74" d="M 1172 4494 
L 1172 3500 
L 2356 3500 
L 2356 3053 
L 1172 3053 
L 1172 1153 
Q 1172 725 1289 603 
Q 1406 481 1766 481 
L 2356 481 
L 2356 0 
L 1766 0 
Q 1100 0 847 248 
Q 594 497 594 1153 
L 594 3053 
L 172 3053 
L 172 3500 
L 594 3500 
L 594 4494 
L 1172 4494 
z
" transform="scale(0.015625)"/>
       <path id="DejaVuSans-68" d="M 3513 2113 
L 3513 0 
L 2938 0 
L 2938 2094 
Q 2938 2591 2744 2837 
Q 2550 3084 2163 3084 
Q 1697 3084 1428 2787 
Q 1159 2491 1159 1978 
L 1159 0 
L 581 0 
L 581 4863 
L 1159 4863 
L 1159 2956 
Q 1366 3272 1645 3428 
Q 1925 3584 2291 3584 
Q 2894 3584 3203 3211 
Q 3513 2838 3513 2113 
z
" transform="scale(0.015625)"/>
       <path id="DejaVuSans-76" d="M 191 3500 
L 800 3500 
L 1894 563 
L 2988 3500 
L 3597 3500 
L 2284 0 
L 1503 0 
L 191 3500 
z
" transform="scale(0.015625)"/>
       <path id="DejaVuSans-6c" d="M 603 4863 
L 1178 4863 
L 1178 0 
L 603 0 
L 603 4863 
z
" transform="scale(0.015625)"/>
       <path id="DejaVuSans-67" d="M 2906 1791 
Q 2906 2416 2648 2759 
Q 2391 3103 1925 3103 
Q 1463 3103 1205 2759 
Q 947 2416 947 1791 
Q 947 1169 1205 825 
Q 1463 481 1925 481 
Q 2391 481 2648 825 
Q 2906 1169 2906 1791 
z
M 3481 434 
Q 3481 -459 3084 -895 
Q 2688 -1331 1869 -1331 
Q 1566 -1331 1297 -1286 
Q 1028 -1241 775 -1147 
L 775 -588 
Q 1028 -725 1275 -790 
Q 1522 -856 1778 -856 
Q 2344 -856 2625 -561 
Q 2906 -266 2906 331 
L 2906 616 
Q 2728 306 2450 153 
Q 2172 0 1784 0 
Q 1141 0 747 490 
Q 353 981 353 1791 
Q 353 2603 747 3093 
Q 1141 3584 1784 3584 
Q 2172 3584 2450 3431 
Q 2728 3278 2906 2969 
L 2906 3500 
L 3481 3500 
L 3481 434 
z
" transform="scale(0.015625)"/>
      </defs>
      <use xlink:href="#DejaVuSans-4e"/>
      <use xlink:href="#DejaVuSans-75" x="74.804688"/>
      <use xlink:href="#DejaVuSans-6d" x="138.183594"/>
      <use xlink:href="#DejaVuSans-62" x="235.595703"/>
      <use xlink:href="#DejaVuSans-65" x="299.072266"/>
      <use xlink:href="#DejaVuSans-72" x="360.595703"/>
      <use xlink:href="#DejaVuSans-20" x="401.708984"/>
      <use xlink:href="#DejaVuSans-6f" x="433.496094"/>
      <use xlink:href="#DejaVuSans-66" x="494.677734"/>
      <use xlink:href="#DejaVuSans-20" x="529.882812"/>
      <use xlink:href="#DejaVuSans-63" x="561.669922"/>
      <use xlink:href="#DejaVuSans-61" x="616.650391"/>
      <use xlink:href="#DejaVuSans-72" x="677.929688"/>
      <use xlink:href="#DejaVuSans-73" x="719.042969"/>
      <use xlink:href="#DejaVuSans-20" x="771.142578"/>
      <use xlink:href="#DejaVuSans-69" x="802.929688"/>
      <use xlink:href="#DejaVuSans-6e" x="830.712891"/>
      <use xlink:href="#DejaVuSans-20" x="894.091797"/>
      <use xlink:href="#DejaVuSans-74" x="925.878906"/>
      <use xlink:href="#DejaVuSans-68" x="965.087891"/>
      <use xlink:href="#DejaVuSans-65" x="1028.466797"/>
      <use xlink:href="#DejaVuSans-20" x="1089.990234"/>
      <use xlink:href="#DejaVuSans-76" x="1121.777344"/>
      <use xlink:href="#DejaVuSans-69" x="1180.957031"/>
      <use xlink:href="#DejaVuSans-6c" x="1208.740234"/>
      <use xlink:href="#DejaVuSans-6c" x="1236.523438"/>
      <use xlink:href="#DejaVuSans-61" x="1264.306641"/>
      <use xlink:href="#DejaVuSans-67" x="1325.585938"/>
      <use xlink:href="#DejaVuSans-65" x="1389.0625"/>
     </g>
    </g>
   </g>
   <g id="line2d_13">
    <path d="M 71.593636 304.74 
L 72.778835 304.74 
L 72.940453 295.24 
L 89.425487 295.24 
L 89.479359 304.74 
L 89.533232 295.24 
L 91.526521 295.24 
L 91.688139 304.74 
L 96.806041 304.74 
L 96.967659 295.24 
L 100.792618 295.24 
L 100.954236 285.74 
L 101.492963 285.74 
L 101.708453 266.74 
L 102.839779 266.74 
L 103.001397 276.24 
L 103.163015 276.24 
L 103.324633 266.74 
L 107.257337 266.74 
L 107.418955 257.24 
L 110.112588 257.24 
L 110.274206 266.74 
L 110.489697 266.74 
L 110.651315 257.24 
L 113.829802 257.24 
L 113.99142 247.74 
L 114.691764 247.74 
L 114.853382 238.24 
L 115.876963 238.24 
L 116.038581 228.74 
L 122.664918 228.74 
L 122.826536 238.24 
L 125.73566 238.24 
L 125.897278 247.74 
L 129.722236 247.74 
L 129.883854 238.24 
L 131.500034 238.24 
L 131.661652 228.74 
L 132.685233 228.74 
L 132.846851 219.24 
L 134.678521 219.24 
L 134.840139 209.74 
L 137.910881 209.74 
L 138.072499 219.24 
L 138.611225 219.24 
L 138.772843 209.74 
L 140.820004 209.74 
L 140.981622 219.24 
L 147.01536 219.24 
L 147.176978 228.74 
L 147.60796 228.74 
L 147.769578 238.24 
L 152.725862 238.24 
L 152.833608 228.74 
L 152.995226 238.24 
L 154.50366 238.24 
L 154.719151 219.24 
L 156.335331 219.24 
L 156.496949 228.74 
L 160.537398 228.74 
L 160.699016 238.24 
L 164.954956 238.24 
L 165.116574 228.74 
L 166.678881 228.74 
L 166.840499 238.24 
L 169.803496 238.24 
L 169.965114 228.74 
L 172.12002 228.74 
L 172.281638 219.24 
L 173.089728 219.24 
L 173.251346 209.74 
L 177.022432 209.74 
L 177.18405 200.24 
L 178.961848 200.24 
L 179.123466 190.74 
L 179.500574 190.74 
L 179.662192 181.24 
L 185.749803 181.24 
L 185.911421 171.74 
L 193.99232 171.74 
L 194.153938 181.24 
L 196.201099 181.24 
L 196.362717 190.74 
L 199.756694 190.74 
L 199.918312 181.24 
L 201.103511 181.24 
L 201.265129 190.74 
L 201.319002 190.74 
L 201.48062 200.24 
L 203.258417 200.24 
L 203.420035 209.74 
L 210.369609 209.74 
L 210.531226 219.24 
L 212.039661 219.24 
L 212.201279 228.74 
L 212.793878 228.74 
L 212.955496 238.24 
L 219.797324 238.24 
L 219.958942 247.74 
L 222.598702 247.74 
L 222.76032 257.24 
L 225.507826 257.24 
L 225.669444 266.74 
L 226.693024 266.74 
L 226.854642 276.24 
L 227.447242 276.24 
L 227.554987 285.74 
L 227.716605 276.24 
L 240.538298 276.24 
L 240.699916 285.74 
L 245.332965 285.74 
L 245.494583 295.24 
L 245.871691 295.24 
L 246.033309 285.74 
L 250.558613 285.74 
L 250.720231 276.24 
L 252.282538 276.24 
L 252.444156 266.74 
L 256.16137 266.74 
L 256.322987 257.24 
L 264.242268 257.24 
L 264.403886 266.74 
L 265.104231 266.74 
L 265.265849 257.24 
L 267.528501 257.24 
L 267.636246 266.74 
L 267.797864 257.24 
L 269.252426 257.24 
L 269.414044 247.74 
L 270.653115 247.74 
L 270.814733 257.24 
L 272.107677 257.24 
L 272.269295 247.74 
L 272.323167 247.74 
L 272.484785 257.24 
L 275.0168 257.24 
L 275.178418 247.74 
L 278.949505 247.74 
L 279.111123 257.24 
L 280.350194 257.24 
L 280.511812 247.74 
L 284.067407 247.74 
L 284.229025 238.24 
L 290.909235 238.24 
L 291.070853 228.74 
L 292.471542 228.74 
L 292.63316 219.24 
L 295.165175 219.24 
L 295.326793 228.74 
L 296.242629 228.74 
L 296.404247 219.24 
L 297.643318 219.24 
L 297.804936 209.74 
L 298.020426 209.74 
L 298.182044 200.24 
L 298.343662 200.24 
L 298.50528 190.74 
L 299.636606 190.74 
L 299.798224 181.24 
L 302.168621 181.24 
L 302.330239 171.74 
L 305.616471 171.74 
L 305.778089 162.24 
L 308.902704 162.24 
L 309.064322 171.74 
L 312.135063 171.74 
L 312.296681 162.24 
L 312.404427 162.24 
L 312.566045 171.74 
L 312.997026 171.74 
L 313.158644 181.24 
L 316.875857 181.24 
L 317.037475 190.74 
L 322.478614 190.74 
L 322.640232 181.24 
L 325.710974 181.24 
L 325.872592 171.74 
L 327.488771 171.74 
L 327.650389 181.24 
L 328.135243 181.24 
L 328.296861 190.74 
L 333.091528 190.74 
L 333.253146 181.24 
L 334.653835 181.24 
L 334.815453 190.74 
L 335.35418 190.74 
L 335.515798 181.24 
L 337.670704 181.24 
L 337.832322 190.74 
L 343.488951 190.74 
L 343.650569 181.24 
L 352.431813 181.24 
L 352.485686 171.74 
L 352.539558 181.24 
L 352.701176 181.24 
L 352.862794 171.74 
L 354.856083 171.74 
L 355.017701 181.24 
L 355.771918 181.24 
L 355.933536 171.74 
L 364.768652 171.74 
L 364.93027 162.24 
L 367.677776 162.24 
L 367.839394 152.74 
L 370.048173 152.74 
L 370.209791 162.24 
L 370.371409 152.74 
L 371.179499 152.74 
L 371.341117 143.24 
L 383.57021 143.24 
L 383.731828 152.74 
L 384.432173 152.74 
L 384.593791 143.24 
L 385.240263 143.24 
L 385.401881 133.74 
L 385.617371 133.74 
L 385.778989 143.24 
L 389.496203 143.24 
L 389.657821 152.74 
L 390.196548 152.74 
L 390.358166 162.24 
L 393.105671 162.24 
L 393.267289 171.74 
L 396.391903 171.74 
L 396.553521 181.24 
L 399.732008 181.24 
L 399.893626 190.74 
L 403.772458 190.74 
L 403.934076 200.24 
L 404.849911 200.24 
L 405.011529 209.74 
L 405.658001 209.74 
L 405.819619 219.24 
L 407.166435 219.24 
L 407.328053 228.74 
L 407.381926 228.74 
L 407.543544 219.24 
L 408.67487 219.24 
L 408.836488 209.74 
L 413.200173 209.74 
L 413.361791 200.24 
L 413.900518 200.24 
L 414.062136 190.74 
L 415.031844 190.74 
L 415.193462 181.24 
L 417.348368 181.24 
L 417.509986 171.74 
L 418.910675 171.74 
L 419.072293 162.24 
L 425.159904 162.24 
L 425.321522 152.74 
L 427.153192 152.74 
L 427.31481 162.24 
L 429.038735 162.24 
L 429.200353 171.74 
L 429.577462 171.74 
L 429.73908 162.24 
L 430.924279 162.24 
L 431.085896 152.74 
L 431.624623 152.74 
L 431.786241 162.24 
L 431.947859 162.24 
L 432.109477 171.74 
L 433.18693 171.74 
L 433.348548 181.24 
L 435.988309 181.24 
L 436.149927 171.74 
L 437.927724 171.74 
L 438.143215 152.74 
L 441.429447 152.74 
L 441.591065 143.24 
L 444.877297 143.24 
L 445.038915 152.74 
L 446.062496 152.74 
L 446.224114 162.24 
L 448.486766 162.24 
L 448.648384 152.74 
L 448.702256 152.74 
L 448.863874 162.24 
L 451.018781 162.24 
L 451.180399 171.74 
L 453.065942 171.74 
L 453.22756 181.24 
L 454.951485 181.24 
L 455.113103 171.74 
L 455.813447 171.74 
L 455.975065 162.24 
L 458.237717 162.24 
L 458.399335 152.74 
L 459.90777 152.74 
L 460.069388 143.24 
L 463.463365 143.24 
L 463.624983 152.74 
L 469.173867 152.74 
L 469.335485 162.24 
L 471.113283 162.24 
L 471.274901 171.74 
L 473.645298 171.74 
L 473.806916 162.24 
L 475.153732 162.24 
L 475.31535 171.74 
L 477.524129 171.74 
L 477.685747 181.24 
L 480.37938 181.24 
L 480.540998 190.74 
L 487.921553 190.74 
L 488.083171 200.24 
L 491.369403 200.24 
L 491.584894 219.24 
L 492.069748 219.24 
L 492.231366 228.74 
L 493.470437 228.74 
L 493.632055 219.24 
L 493.685927 219.24 
L 493.847545 228.74 
L 496.37956 228.74 
L 496.541178 238.24 
L 499.019321 238.24 
L 499.127066 247.74 
L 499.288684 238.24 
L 502.898152 238.24 
L 503.05977 228.74 
L 503.813987 228.74 
L 503.975605 238.24 
L 505.48404 238.24 
L 505.645658 247.74 
L 512.271995 247.74 
L 512.433613 257.24 
L 517.820879 257.24 
L 517.982497 266.74 
L 519.86804 266.74 
L 520.029658 257.24 
L 520.245149 276.24 
L 521.214857 276.24 
L 521.376475 285.74 
L 522.669418 285.74 
L 522.831036 276.24 
L 527.733449 276.24 
L 527.895067 285.74 
L 529.295756 285.74 
L 529.457374 295.24 
L 532.151007 295.24 
L 532.312625 285.74 
L 535.437239 285.74 
L 535.598857 276.24 
L 535.814348 276.24 
L 535.975966 266.74 
L 540.016415 266.74 
L 540.178033 276.24 
L 542.386812 276.24 
L 542.54843 266.74 
L 543.302647 266.74 
L 543.464265 257.24 
L 553.538453 257.24 
L 553.700071 266.74 
L 554.077179 266.74 
L 554.238797 257.24 
L 554.400415 257.24 
L 554.562033 266.74 
L 556.555322 266.74 
L 556.71694 276.24 
L 557.417284 276.24 
L 557.578902 285.74 
L 559.626063 285.74 
L 559.787681 276.24 
L 569.107651 276.24 
L 569.269269 285.74 
L 573.794573 285.74 
L 573.956191 276.24 
L 575.572371 276.24 
L 575.733989 266.74 
L 576.542078 266.74 
L 576.703696 257.24 
L 582.952925 257.24 
L 583.114543 247.74 
L 583.814888 247.74 
L 583.976506 238.24 
L 587.90921 238.24 
L 588.070828 228.74 
L 590.441225 228.74 
L 590.602843 219.24 
L 591.788041 219.24 
L 591.841914 228.74 
L 591.895787 219.24 
L 595.559127 219.24 
L 595.720745 209.74 
L 598.953105 209.74 
L 599.114723 219.24 
L 599.599577 219.24 
L 599.761195 209.74 
L 601.862229 209.74 
L 602.023847 200.24 
L 603.155173 200.24 
L 603.31679 209.74 
L 608.111457 209.74 
L 608.219203 200.24 
L 608.380821 209.74 
L 610.266364 209.74 
L 610.266364 209.74 
" clip-path="url(#p1f21ddd7c1)" style="fill: none; stroke: #1f77b4; stroke-opacity: 0.8; stroke-width: 1.5; stroke-linecap: square"/>
   </g>
   <g id="line2d_14">
    <path d="M 71.593636 304.74 
L 73.479179 304.74 
L 73.640797 295.24 
L 75.256977 295.24 
L 75.418595 285.74 
L 78.004483 285.74 
L 78.166101 295.24 
L 80.105517 295.24 
L 80.267135 304.74 
L 93.95079 304.74 
L 94.112408 295.24 
L 95.028243 295.24 
L 95.189861 304.74 
L 99.176438 304.74 
L 99.338056 295.24 
L 100.415509 295.24 
L 100.577127 285.74 
L 100.954236 285.74 
L 101.115854 276.24 
L 103.917232 276.24 
L 104.07885 266.74 
L 105.748903 266.74 
L 105.910521 276.24 
L 106.556993 276.24 
L 106.718611 266.74 
L 109.14288 266.74 
L 109.304498 276.24 
L 110.651315 276.24 
L 110.812933 266.74 
L 114.476274 266.74 
L 114.637892 257.24 
L 117.600888 257.24 
L 117.762506 247.74 
L 117.924124 257.24 
L 123.31139 257.24 
L 123.473008 266.74 
L 126.705368 266.74 
L 126.866986 257.24 
L 127.190221 257.24 
L 127.351839 247.74 
L 130.853562 247.74 
L 131.01518 257.24 
L 136.941173 257.24 
L 137.102791 266.74 
L 137.156664 266.74 
L 137.318282 257.24 
L 142.813293 257.24 
L 143.028784 276.24 
L 144.106237 276.24 
L 144.267855 285.74 
L 145.345308 285.74 
L 145.506926 276.24 
L 149.008649 276.24 
L 149.170267 285.74 
L 149.385757 285.74 
L 149.547375 295.24 
L 151.05581 295.24 
L 151.217428 285.74 
L 153.964933 285.74 
L 154.126551 295.24 
L 155.850477 295.24 
L 156.012095 304.74 
L 161.830342 304.74 
L 161.99196 295.24 
L 165.385937 295.24 
L 165.547555 304.74 
L 168.995406 304.74 
L 169.157024 295.24 
L 172.12002 295.24 
L 172.281638 304.74 
L 173.305218 304.74 
L 173.466836 295.24 
L 175.56787 295.24 
L 175.729488 304.74 
L 176.645323 304.74 
L 176.806941 295.24 
L 178.369248 295.24 
L 178.530866 304.74 
L 179.60832 304.74 
L 179.769938 295.24 
L 180.200919 295.24 
L 180.362537 304.74 
L 181.332245 304.74 
L 181.493863 295.24 
L 182.140335 295.24 
L 182.301953 285.74 
L 182.840679 285.74 
L 183.002297 276.24 
L 185.588185 276.24 
L 185.749803 266.74 
L 188.443436 266.74 
L 188.605054 257.24 
L 190.436724 257.24 
L 190.598342 266.74 
L 196.093354 266.74 
L 196.254972 257.24 
L 197.494043 257.24 
L 197.655661 247.74 
L 200.564784 247.74 
L 200.726402 257.24 
L 202.127092 257.24 
L 202.28871 266.74 
L 203.366163 266.74 
L 203.527781 257.24 
L 208.915047 257.24 
L 209.076665 247.74 
L 210.207991 247.74 
L 210.369609 257.24 
L 217.049818 257.24 
L 217.157564 247.74 
L 217.319182 257.24 
L 219.043107 257.24 
L 219.204725 266.74 
L 220.389923 266.74 
L 220.551541 257.24 
L 221.575122 257.24 
L 221.73674 266.74 
L 221.898358 257.24 
L 224.214882 257.24 
L 224.3765 266.74 
L 226.585279 266.74 
L 226.746897 276.24 
L 228.63244 276.24 
L 228.794058 266.74 
L 234.181324 266.74 
L 234.342942 276.24 
L 236.336231 276.24 
L 236.497849 285.74 
L 236.605594 285.74 
L 236.767212 276.24 
L 237.95241 276.24 
L 238.114028 285.74 
L 238.706628 285.74 
L 238.868246 276.24 
L 241.723497 276.24 
L 241.885115 285.74 
L 242.585459 285.74 
L 242.747077 295.24 
L 253.144501 295.24 
L 253.306119 285.74 
L 254.976171 285.74 
L 255.137789 295.24 
L 255.461025 295.24 
L 255.622643 285.74 
L 256.269115 285.74 
L 256.430733 295.24 
L 259.01662 295.24 
L 259.070493 285.74 
L 259.124366 295.24 
L 260.094074 295.24 
L 260.255692 304.74 
L 261.2254 304.74 
L 261.387018 295.24 
L 262.302853 295.24 
L 262.518343 276.24 
L 268.067227 276.24 
L 268.228845 285.74 
L 269.575662 285.74 
L 269.73728 295.24 
L 274.208711 295.24 
L 274.370329 285.74 
L 275.0168 285.74 
L 275.232291 304.74 
L 277.710433 304.74 
L 277.925924 285.74 
L 277.979797 285.74 
L 278.141415 295.24 
L 280.350194 295.24 
L 280.511812 285.74 
L 281.535392 285.74 
L 281.69701 295.24 
L 285.575842 295.24 
L 285.73746 304.74 
L 296.458119 304.74 
L 296.619737 295.24 
L 297.104591 295.24 
L 297.266209 285.74 
L 297.643318 285.74 
L 297.804936 295.24 
L 300.013715 295.24 
L 300.175333 304.74 
L 310.141775 304.74 
L 310.303393 295.24 
L 311.488591 295.24 
L 311.650209 304.74 
L 312.943153 304.74 
L 313.104771 295.24 
L 314.397715 295.24 
L 314.559333 285.74 
L 319.515618 285.74 
L 319.677236 295.24 
L 325.387738 295.24 
L 325.549356 285.74 
L 328.997206 285.74 
L 329.158824 295.24 
L 336.37776 295.24 
L 336.539378 304.74 
L 336.862614 304.74 
L 337.024232 295.24 
L 344.728023 295.24 
L 344.889641 285.74 
L 345.751603 285.74 
L 345.913221 276.24 
L 346.29033 276.24 
L 346.451948 285.74 
L 357.118734 285.74 
L 357.280352 276.24 
L 362.344382 276.24 
L 362.506 285.74 
L 363.206345 285.74 
L 363.367963 276.24 
L 367.031304 276.24 
L 367.246794 257.24 
L 368.270375 257.24 
L 368.431993 247.74 
L 370.425281 247.74 
L 370.586899 257.24 
L 371.179499 257.24 
L 371.341117 266.74 
L 372.041461 266.74 
L 372.203079 257.24 
L 375.704802 257.24 
L 375.86642 247.74 
L 376.997746 247.74 
L 377.159364 238.24 
L 377.320982 247.74 
L 380.176233 247.74 
L 380.337851 257.24 
L 385.940607 257.24 
L 386.102225 247.74 
L 390.519784 247.74 
L 390.681402 238.24 
L 391.543364 238.24 
L 391.704982 228.74 
L 392.836308 228.74 
L 392.997926 238.24 
L 394.883469 238.24 
L 395.045087 247.74 
L 398.008083 247.74 
L 398.169701 257.24 
L 407.759035 257.24 
L 407.920653 247.74 
L 416.270915 247.74 
L 416.432533 238.24 
L 417.079005 238.24 
L 417.240623 228.74 
L 420.742346 228.74 
L 420.903964 238.24 
L 423.543724 238.24 
L 423.705342 247.74 
L 432.540458 247.74 
L 432.702076 238.24 
L 433.133058 238.24 
L 433.294676 228.74 
L 442.075919 228.74 
L 442.237537 238.24 
L 443.31499 238.24 
L 443.476608 228.74 
L 445.900878 228.74 
L 446.062496 238.24 
L 446.978331 238.24 
L 447.139949 247.74 
L 447.894166 247.74 
L 448.055784 238.24 
L 448.325148 238.24 
L 448.486766 247.74 
L 455.651829 247.74 
L 455.813447 257.24 
L 456.352174 257.24 
L 456.567665 238.24 
L 459.31517 238.24 
L 459.476788 228.74 
L 462.170421 228.74 
L 462.332039 238.24 
L 464.109837 238.24 
L 464.271455 247.74 
L 467.988669 247.74 
L 468.150287 238.24 
L 469.173867 238.24 
L 469.335485 247.74 
L 471.167156 247.74 
L 471.328774 257.24 
L 474.29177 257.24 
L 474.453388 247.74 
L 474.615006 247.74 
L 474.776624 257.24 
L 477.362511 257.24 
L 477.524129 247.74 
L 478.332219 247.74 
L 478.493837 257.24 
L 478.817073 257.24 
L 478.978691 247.74 
L 480.217762 247.74 
L 480.37938 238.24 
L 482.588159 238.24 
L 482.749777 247.74 
L 482.857523 247.74 
L 483.019141 257.24 
L 485.012429 257.24 
L 485.174047 247.74 
L 486.359246 247.74 
L 486.520864 238.24 
L 487.813807 238.24 
L 488.029298 257.24 
L 489.160624 257.24 
L 489.322242 266.74 
L 490.615186 266.74 
L 490.776804 257.24 
L 499.719665 257.24 
L 499.881283 266.74 
L 505.861149 266.74 
L 506.022767 276.24 
L 508.985763 276.24 
L 509.147381 285.74 
L 512.325868 285.74 
L 512.541358 304.74 
L 524.554962 304.74 
L 524.71658 295.24 
L 526.871486 295.24 
L 527.033104 285.74 
L 527.194722 285.74 
L 527.35634 276.24 
L 528.649284 276.24 
L 528.810902 285.74 
L 531.720025 285.74 
L 531.935516 266.74 
L 532.743606 266.74 
L 532.905224 257.24 
L 535.544984 257.24 
L 535.706602 247.74 
L 535.86822 257.24 
L 538.29249 257.24 
L 538.346363 266.74 
L 538.400235 257.24 
L 541.524849 257.24 
L 541.686467 247.74 
L 542.332939 247.74 
L 542.494557 238.24 
L 544.056865 238.24 
L 544.218482 228.74 
L 548.959277 228.74 
L 549.120895 238.24 
L 555.747232 238.24 
L 555.90885 228.74 
L 561.99646 228.74 
L 562.158078 238.24 
L 568.245689 238.24 
L 568.407307 247.74 
L 570.562213 247.74 
L 570.723831 257.24 
L 571.31643 257.24 
L 571.478048 247.74 
L 577.080805 247.74 
L 577.242423 257.24 
L 579.666693 257.24 
L 579.828311 247.74 
L 586.239157 247.74 
L 586.400775 238.24 
L 586.616266 238.24 
L 586.831757 257.24 
L 587.262738 257.24 
L 587.424356 247.74 
L 592.380641 247.74 
L 592.542258 257.24 
L 594.320056 257.24 
L 594.481674 266.74 
L 600.892521 266.74 
L 601.054139 276.24 
L 604.071008 276.24 
L 604.232626 285.74 
L 607.195622 285.74 
L 607.35724 276.24 
L 610.266364 276.24 
L 610.266364 276.24 
" clip-path="url(#p1f21ddd7c1)" style="fill: none; stroke: #ff7f0e; stroke-opacity: 0.8; stroke-width: 1.5; stroke-linecap: square"/>
   </g>
   <g id="line2d_15">
    <path d="M 71.593636 304.74 
L 73.533052 304.74 
L 73.69467 295.24 
L 78.650955 295.24 
L 78.812573 285.74 
L 79.512917 285.74 
L 79.674535 276.24 
L 83.122386 276.24 
L 83.284004 266.74 
L 84.415329 266.74 
L 84.576947 276.24 
L 85.492783 276.24 
L 85.654401 285.74 
L 85.816019 285.74 
L 85.977637 276.24 
L 86.139255 276.24 
L 86.300873 285.74 
L 89.748723 285.74 
L 89.910341 295.24 
L 92.011375 295.24 
L 92.065247 285.74 
L 92.11912 295.24 
L 95.082116 295.24 
L 95.243734 285.74 
L 96.321187 285.74 
L 96.482805 295.24 
L 98.314476 295.24 
L 98.476094 304.74 
L 105.048558 304.74 
L 105.210176 295.24 
L 110.328079 295.24 
L 110.489697 285.74 
L 112.37524 285.74 
L 112.482985 276.24 
L 112.644603 285.74 
L 113.398821 285.74 
L 113.560438 295.24 
L 124.11948 295.24 
L 124.281098 304.74 
L 129.237383 304.74 
L 129.399001 295.24 
L 130.153218 295.24 
L 130.314836 285.74 
L 131.01518 285.74 
L 131.176798 295.24 
L 131.392289 295.24 
L 131.553907 285.74 
L 133.277832 285.74 
L 133.43945 276.24 
L 133.978177 276.24 
L 134.139795 266.74 
L 138.180244 266.74 
L 138.341862 257.24 
L 138.395735 257.24 
L 138.557353 247.74 
L 139.257697 247.74 
L 139.419315 257.24 
L 140.389023 257.24 
L 140.550641 266.74 
L 147.446342 266.74 
L 147.60796 257.24 
L 149.385757 257.24 
L 149.547375 247.74 
L 150.086102 247.74 
L 150.24772 238.24 
L 150.894192 238.24 
L 151.001937 228.74 
L 151.163555 238.24 
L 153.857188 238.24 
L 154.018806 228.74 
L 156.012095 228.74 
L 156.173713 219.24 
L 159.459945 219.24 
L 159.621563 228.74 
L 161.453233 228.74 
L 161.614851 219.24 
L 163.446522 219.24 
L 163.60814 228.74 
L 166.517263 228.74 
L 166.678881 238.24 
L 169.641878 238.24 
L 169.803496 228.74 
L 170.611585 228.74 
L 170.773203 238.24 
L 175.944979 238.24 
L 176.106597 228.74 
L 181.062881 228.74 
L 181.224499 238.24 
L 188.1202 238.24 
L 188.281818 247.74 
L 194.584919 247.74 
L 194.746537 257.24 
L 201.049638 257.24 
L 201.211256 247.74 
L 202.558073 247.74 
L 202.719691 238.24 
L 202.989054 238.24 
L 203.150672 247.74 
L 206.005923 247.74 
L 206.167541 238.24 
L 211.770298 238.24 
L 211.985788 219.24 
L 217.103691 219.24 
L 217.265309 228.74 
L 218.612125 228.74 
L 218.827616 209.74 
L 219.150852 209.74 
L 219.31247 200.24 
L 223.945519 200.24 
L 224.107137 209.74 
L 225.076845 209.74 
L 225.238463 219.24 
L 229.656021 219.24 
L 229.817639 228.74 
L 231.05671 228.74 
L 231.218328 238.24 
L 231.8648 238.24 
L 232.026418 228.74 
L 232.511272 228.74 
L 232.67289 219.24 
L 232.834508 219.24 
L 232.996126 228.74 
L 233.804216 228.74 
L 233.965834 238.24 
L 235.689759 238.24 
L 235.851377 228.74 
L 249.48116 228.74 
L 249.642778 238.24 
L 251.097339 238.24 
L 251.258957 228.74 
L 254.060336 228.74 
L 254.221954 238.24 
L 258.316276 238.24 
L 258.477894 228.74 
L 264.242268 228.74 
L 264.403886 219.24 
L 267.851737 219.24 
L 268.013355 228.74 
L 268.067227 228.74 
L 268.228845 219.24 
L 272.484785 219.24 
L 272.646403 209.74 
L 274.316456 209.74 
L 274.478074 219.24 
L 277.818179 219.24 
L 277.979797 209.74 
L 279.542104 209.74 
L 279.703722 219.24 
L 285.791332 219.24 
L 285.95295 209.74 
L 290.855363 209.74 
L 291.016981 200.24 
L 291.340216 200.24 
L 291.501834 209.74 
L 296.565864 209.74 
L 296.727482 200.24 
L 299.528861 200.24 
L 299.690479 190.74 
L 301.145041 190.74 
L 301.306659 200.24 
L 306.586179 200.24 
L 306.747797 190.74 
L 308.687213 190.74 
L 308.848831 181.24 
L 317.414584 181.24 
L 317.576202 171.74 
L 319.784981 171.74 
L 319.946599 181.24 
L 327.273281 181.24 
L 327.434899 190.74 
L 328.458479 190.74 
L 328.620097 181.24 
L 337.024232 181.24 
L 337.18585 190.74 
L 339.879483 190.74 
L 340.041101 181.24 
L 342.680861 181.24 
L 342.842479 190.74 
L 346.50582 190.74 
L 346.667438 200.24 
L 349.630435 200.24 
L 349.792053 190.74 
L 350.115289 190.74 
L 350.276907 181.24 
L 350.869506 181.24 
L 351.031124 190.74 
L 352.37794 190.74 
L 352.539558 200.24 
L 354.640592 200.24 
L 354.748337 209.74 
L 354.963828 190.74 
L 357.064862 190.74 
L 357.22648 200.24 
L 361.590165 200.24 
L 361.751783 190.74 
L 363.798944 190.74 
L 363.960562 200.24 
L 364.283798 200.24 
L 364.445416 209.74 
L 366.438705 209.74 
L 366.600322 200.24 
L 371.772098 200.24 
L 371.933716 209.74 
L 371.987588 209.74 
L 372.149206 219.24 
L 374.519604 219.24 
L 374.681221 209.74 
L 375.86642 209.74 
L 376.028038 219.24 
L 376.081911 219.24 
L 376.243529 209.74 
L 377.320982 209.74 
L 377.4826 219.24 
L 378.236817 219.24 
L 378.398435 228.74 
L 380.337851 228.74 
L 380.499469 219.24 
L 380.553341 219.24 
L 380.714959 209.74 
L 381.792413 209.74 
L 381.954031 219.24 
L 386.425461 219.24 
L 386.587079 209.74 
L 388.095514 209.74 
L 388.257132 200.24 
L 390.142675 200.24 
L 390.304293 190.74 
L 396.445776 190.74 
L 396.607394 200.24 
L 396.769012 200.24 
L 396.93063 209.74 
L 418.479694 209.74 
L 418.695185 190.74 
L 429.038735 190.74 
L 429.200353 200.24 
L 432.324968 200.24 
L 432.486586 190.74 
L 435.018601 190.74 
L 435.180219 181.24 
L 437.766106 181.24 
L 437.927724 171.74 
L 439.86714 171.74 
L 440.028758 162.24 
L 441.213957 162.24 
L 441.375575 152.74 
L 441.860428 152.74 
L 442.022046 143.24 
L 449.833582 143.24 
L 449.9952 133.74 
L 450.641672 133.74 
L 450.80329 143.24 
L 451.072653 143.24 
L 451.234271 133.74 
L 452.958196 133.74 
L 453.119814 143.24 
L 456.67541 143.24 
L 456.837028 133.74 
L 458.237717 133.74 
L 458.399335 124.24 
L 462.278167 124.24 
L 462.439785 114.74 
L 462.601403 114.74 
L 462.763021 105.24 
L 466.103125 105.24 
L 466.264743 114.74 
L 471.652009 114.74 
L 471.813627 105.24 
L 472.190736 105.24 
L 472.352354 114.74 
L 472.729463 114.74 
L 472.891081 124.24 
L 477.955111 124.24 
L 478.116729 133.74 
L 478.709328 133.74 
L 478.870946 124.24 
L 481.564579 124.24 
L 481.726197 114.74 
L 484.904684 114.74 
L 485.120174 133.74 
L 485.22792 133.74 
L 485.389538 124.24 
L 486.2515 124.24 
L 486.359246 133.74 
L 486.520864 124.24 
L 492.93171 124.24 
L 493.093328 114.74 
L 495.840834 114.74 
L 496.002452 124.24 
L 497.726377 124.24 
L 497.887995 114.74 
L 503.113643 114.74 
L 503.329134 95.74 
L 503.544624 95.74 
L 503.706242 86.24 
L 503.921733 86.24 
L 503.975605 76.74 
L 504.029478 86.24 
L 504.298841 86.24 
L 504.460459 95.74 
L 504.999186 95.74 
L 505.160804 86.24 
L 513.457194 86.24 
L 513.618812 95.74 
L 513.726557 95.74 
L 513.888175 86.24 
L 519.329314 86.24 
L 519.490932 95.74 
L 532.366497 95.74 
L 532.581988 76.74 
L 532.689733 76.74 
L 532.851351 67.24 
L 536.784055 67.24 
L 536.945673 57.74 
L 537.699891 57.74 
L 537.861509 48.24 
L 538.346363 48.24 
L 538.507981 38.74 
L 539.477688 38.74 
L 539.639306 48.24 
L 540.662887 48.24 
L 540.824505 57.74 
L 543.733629 57.74 
L 543.895247 67.24 
L 546.858243 67.24 
L 547.019861 57.74 
L 549.390258 57.74 
L 549.551876 67.24 
L 552.407127 67.24 
L 552.568745 76.74 
L 553.215217 76.74 
L 553.376835 86.24 
L 560.811262 86.24 
L 560.97288 95.74 
L 562.211951 95.74 
L 562.373569 105.24 
L 562.427442 105.24 
L 562.58906 114.74 
L 567.86858 114.74 
L 568.030198 105.24 
L 569.646378 105.24 
L 569.807996 95.74 
L 569.915741 95.74 
L 570.077359 86.24 
L 574.063936 86.24 
L 574.225554 76.74 
L 583.761015 76.74 
L 583.922633 86.24 
L 586.346903 86.24 
L 586.508521 95.74 
L 589.956371 95.74 
L 590.117989 86.24 
L 591.410933 86.24 
L 591.572551 76.74 
L 592.434513 76.74 
L 592.596131 86.24 
L 594.643292 86.24 
L 594.80491 95.74 
L 597.067562 95.74 
L 597.283053 114.74 
L 597.390798 114.74 
L 597.498543 124.24 
L 597.660161 114.74 
L 601.538993 114.74 
L 601.700611 105.24 
L 603.640026 105.24 
L 603.801644 114.74 
L 609.78151 114.74 
L 609.943128 124.24 
L 610.266364 124.24 
L 610.266364 124.24 
" clip-path="url(#p1f21ddd7c1)" style="fill: none; stroke: #2ca02c; stroke-opacity: 0.8; stroke-width: 1.5; stroke-linecap: square"/>
   </g>
   <g id="patch_3">
    <path d="M 44.66 318.04 
L 44.66 25.44 
" style="fill: none; stroke: #000000; stroke-width: 0.8; stroke-linejoin: miter; stroke-linecap: square"/>
   </g>
   <g id="patch_4">
    <path d="M 637.2 318.04 
L 637.2 25.44 
" style="fill: none; stroke: #000000; stroke-width: 0.8; stroke-linejoin: miter; stroke-linecap: square"/>
   </g>
   <g id="patch_5">
    <path d="M 44.66 318.04 
L 637.2 318.04 
" style="fill: none; stroke: #000000; stroke-width: 0.8; stroke-linejoin: miter; stroke-linecap: square"/>
   </g>
   <g id="patch_6">
    <path d="M 44.66 25.44 
L 637.2 25.44 
" style="fill: none; stroke: #000000; stroke-width: 0.8; stroke-linejoin: miter; stroke-linecap: square"/>
   </g>
   <g id="text_15">
    <!-- Fig. 1.1.1: Sample random walks -->
    <g transform="translate(44.66 19.44) scale(0.12 -0.12)">
     <defs>
      <path id="DejaVuSans-46" d="M 628 4666 
L 3309 4666 
L 3309 4134 
L 1259 4134 
L 1259 2759 
L 3109 2759 
L 3109 2228 
L 1259 2228 
L 1259 0 
L 628 0 
L 628 4666 
z
" transform="scale(0.015625)"/>
      <path id="DejaVuSans-2e" d="M 684 794 
L 1344 794 
L 1344 0 
L 684 0 
L 684 794 
z
" transform="scale(0.015625)"/>
      <path id="DejaVuSans-3a" d="M 750 794 
L 1409 794 
L 1409 0 
L 750 0 
L 750 794 
z
M 750 3309 
L 1409 3309 
L 1409 2516 
L 750 2516 
L 750 3309 
z
" transform="scale(0.015625)"/>
      <path id="DejaVuSans-53" d="M 3425 4513 
L 3425 3897 
Q 3066 4069 2747 4153 
Q 2428 4238 2131 4238 
Q 1616 4238 1336 4038 
Q 1056 3838 1056 3469 
Q 1056 3159 1242 3001 
Q 1428 2844 1947 2747 
L 2328 2669 
Q 3034 2534 3370 2195 
Q 3706 1856 3706 1288 
Q 3706 609 3251 259 
Q 2797 -91 1919 -91 
Q 1588 -91 1214 -16 
Q 841 59 441 206 
L 441 856 
Q 825 641 1194 531 
Q 1563 422 1919 422 
Q 2459 422 2753 634 
Q 3047 847 3047 1241 
Q 3047 1584 2836 1778 
Q 2625 1972 2144 2069 
L 1759 2144 
Q 1053 2284 737 2584 
Q 422 2884 422 3419 
Q 422 4038 858 4394 
Q 1294 4750 2059 4750 
Q 2388 4750 2728 4690 
Q 3069 4631 3425 4513 
z
" transform="scale(0.015625)"/>
      <path id="DejaVuSans-70" d="M 1159 525 
L 1159 -1331 
L 581 -1331 
L 581 3500 
L 1159 3500 
L 1159 2969 
Q 1341 3281 1617 3432 
Q 1894 3584 2278 3584 
Q 2916 3584 3314 3078 
Q 3713 2572 3713 1747 
Q 3713 922 3314 415 
Q 2916 -91 2278 -91 
Q 1894 -91 1617 61 
Q 1341 213 1159 525 
z
M 3116 1747 
Q 3116 2381 2855 2742 
Q 2594 3103 2138 3103 
Q 1681 3103 1420 2742 
Q 1159 2381 1159 1747 
Q 1159 1113 1420 752 
Q 1681 391 2138 391 
Q 2594 391 2855 752 
Q 3116 1113 3116 1747 
z
" transform="scale(0.015625)"/>
      <path id="DejaVuSans-64" d="M 2906 2969 
L 2906 4863 
L 3481 4863 
L 3481 0 
L 2906 0 
L 2906 525 
Q 2725 213 2448 61 
Q 2172 -91 1784 -91 
Q 1150 -91 751 415 
Q 353 922 353 1747 
Q 353 2572 751 3078 
Q 1150 3584 1784 3584 
Q 2172 3584 2448 3432 
Q 2725 3281 2906 2969 
z
M 947 1747 
Q 947 1113 1208 752 
Q 1469 391 1925 391 
Q 2381 391 2643 752 
Q 2906 1113 2906 1747 
Q 2906 2381 2643 2742 
Q 2381 3103 1925 3103 
Q 1469 3103 1208 2742 
Q 947 2381 947 1747 
z
" transform="scale(0.015625)"/>
      <path id="DejaVuSans-77" d="M 269 3500 
L 844 3500 
L 1563 769 
L 2278 3500 
L 2956 3500 
L 3675 769 
L 4391 3500 
L 4966 3500 
L 4050 0 
L 3372 0 
L 2619 2869 
L 1863 0 
L 1184 0 
L 269 3500 
z
" transform="scale(0.015625)"/>
      <path id="DejaVuSans-6b" d="M 581 4863 
L 1159 4863 
L 1159 1991 
L 2875 3500 
L 3609 3500 
L 1753 1863 
L 3688 0 
L 2938 0 
L 1159 1709 
L 1159 0 
L 581 0 
L 581 4863 
z
" transform="scale(0.015625)"/>
     </defs>
     <use xlink:href="#DejaVuSans-46"/>
     <use xlink:href="#DejaVuSans-69" x="50.269531"/>
     <use xlink:href="#DejaVuSans-67" x="78.052734"/>
     <use xlink:href="#DejaVuSans-2e" x="141.529297"/>
     <use xlink:href="#DejaVuSans-20" x="173.316406"/>
     <use xlink:href="#DejaVuSans-31" x="205.103516"/>
     <use xlink:href="#DejaVuSans-2e" x="268.726562"/>
     <use xlink:href="#DejaVuSans-31" x="300.513672"/>
     <use xlink:href="#DejaVuSans-2e" x="364.136719"/>
     <use xlink:href="#DejaVuSans-31" x="395.923828"/>
     <use xlink:href="#DejaVuSans-3a" x="459.546875"/>
     <use xlink:href="#DejaVuSans-20" x="493.238281"/>
     <use xlink:href="#DejaVuSans-53" x="525.025391"/>
     <use xlink:href="#DejaVuSans-61" x="588.501953"/>
     <use xlink:href="#DejaVuSans-6d" x="649.78125"/>
     <use xlink:href="#DejaVuSans-70" x="747.193359"/>
     <use xlink:href="#DejaVuSans-6c" x="810.669922"/>
     <use xlink:href="#DejaVuSans-65" x="838.453125"/>
     <use xlink:href="#DejaVuSans-20" x="899.976562"/>
     <use xlink:href="#DejaVuSans-72" x="931.763672"/>
     <use xlink:href="#DejaVuSans-61" x="972.876953"/>
     <use xlink:href="#DejaVuSans-6e" x="1034.15625"/>
     <use xlink:href="#DejaVuSans-64" x="1097.535156"/>
     <use xlink:href="#DejaVuSans-6f" x="1161.011719"/>
     <use xlink:href="#DejaVuSans-6d" x="1222.193359"/>
     <use xlink:href="#DejaVuSans-20" x="1319.605469"/>
     <use xlink:href="#DejaVuSans-77" x="1351.392578"/>
     <use xlink:href="#DejaVuSans-61" x="1433.179688"/>
     <use xlink:href="#DejaVuSans-6c" x="1494.458984"/>
     <use xlink:href="#DejaVuSans-6b" x="1522.242188"/>
     <use xlink:href="#DejaVuSans-73" x="1580.152344"/>
    </g>
   </g>
  </g>
 </g>
 <defs>
  <clipPath id="p1f21ddd7c1">
   <rect x="44.66" y="25.44" width="592.54" height="292.6"/>
  </clipPath>
 </defs>
</svg>
