<?xml version="1.0" encoding="utf-8" standalone="no"?>
<!DOCTYPE svg PUBLIC "-//W3C//DTD SVG 1.1//EN"
  "http://www.w3.org/Graphics/SVG/1.1/DTD/svg11.dtd">
<svg xmlns:xlink="http://www.w3.org/1999/xlink" width="648pt" height="360pt" viewBox="0 0 648 360" xmlns="http://www.w3.org/2000/svg" version="1.1">
 <metadata>
  <rdf:RDF xmlns:dc="http://purl.org/dc/elements/1.1/" xmlns:cc="http://creativecommons.org/ns#" xmlns:rdf="http://www.w3.org/1999/02/22-rdf-syntax-ns#">
   <cc:Work>
    <dc:type rdf:resource="http://purl.org/dc/dcmitype/StillImage"/>
    <dc:date>2025-07-08T09:47:55.517073</dc:date>
    <dc:format>image/svg+xml</dc:format>
    <dc:creator>
     <cc:Agent>
      <dc:title>Matplotlib v3.9.2, https://matplotlib.org/</dc:title>
     </cc:Agent>
    </dc:creator>
   </cc:Work>
  </rdf:RDF>
 </metadata>
 <defs>
  <style type="text/css">*{stroke-linejoin: round; stroke-linecap: butt}</style>
 </defs>
 <g id="figure_1">
  <g id="patch_1">
   <path d="M 0 360 
L 648 360 
L 648 0 
L 0 0 
z
" style="fill: #ffffff"/>
  </g>
  <g id="axes_1">
   <g id="patch_2">
    <path d="M 44.66 318.04 
L 637.2 318.04 
L 637.2 25.44 
L 44.66 25.44 
z
" style="fill: #ffffff"/>
   </g>
   <g id="matplotlib.axis_1">
    <g id="xtick_1">
     <g id="line2d_1">
      <defs>
       <path id="mfe7e282391" d="M 0 0 
L 0 3.5 
" style="stroke: #000000; stroke-width: 0.8"/>
      </defs>
      <g>
       <use xlink:href="#mfe7e282391" x="71.593636" y="318.04" style="stroke: #000000; stroke-width: 0.8"/>
      </g>
     </g>
     <g id="text_1">
      <!-- 0 -->
      <g transform="translate(68.412386 332.638438) scale(0.1 -0.1)">
       <defs>
        <path id="DejaVuSans-30" d="M 2034 4250 
Q 1547 4250 1301 3770 
Q 1056 3291 1056 2328 
Q 1056 1369 1301 889 
Q 1547 409 2034 409 
Q 2525 409 2770 889 
Q 3016 1369 3016 2328 
Q 3016 3291 2770 3770 
Q 2525 4250 2034 4250 
z
M 2034 4750 
Q 2819 4750 3233 4129 
Q 3647 3509 3647 2328 
Q 3647 1150 3233 529 
Q 2819 -91 2034 -91 
Q 1250 -91 836 529 
Q 422 1150 422 2328 
Q 422 3509 836 4129 
Q 1250 4750 2034 4750 
z
" transform="scale(0.015625)"/>
       </defs>
       <use xlink:href="#DejaVuSans-30"/>
      </g>
     </g>
    </g>
    <g id="xtick_2">
     <g id="line2d_2">
      <g>
       <use xlink:href="#mfe7e282391" x="179.338956" y="318.04" style="stroke: #000000; stroke-width: 0.8"/>
      </g>
     </g>
     <g id="text_2">
      <!-- 2000 -->
      <g transform="translate(166.613956 332.638438) scale(0.1 -0.1)">
       <defs>
        <path id="DejaVuSans-32" d="M 1228 531 
L 3431 531 
L 3431 0 
L 469 0 
L 469 531 
Q 828 903 1448 1529 
Q 2069 2156 2228 2338 
Q 2531 2678 2651 2914 
Q 2772 3150 2772 3378 
Q 2772 3750 2511 3984 
Q 2250 4219 1831 4219 
Q 1534 4219 1204 4116 
Q 875 4013 500 3803 
L 500 4441 
Q 881 4594 1212 4672 
Q 1544 4750 1819 4750 
Q 2544 4750 2975 4387 
Q 3406 4025 3406 3419 
Q 3406 3131 3298 2873 
Q 3191 2616 2906 2266 
Q 2828 2175 2409 1742 
Q 1991 1309 1228 531 
z
" transform="scale(0.015625)"/>
       </defs>
       <use xlink:href="#DejaVuSans-32"/>
       <use xlink:href="#DejaVuSans-30" x="63.623047"/>
       <use xlink:href="#DejaVuSans-30" x="127.246094"/>
       <use xlink:href="#DejaVuSans-30" x="190.869141"/>
      </g>
     </g>
    </g>
    <g id="xtick_3">
     <g id="line2d_3">
      <g>
       <use xlink:href="#mfe7e282391" x="287.084276" y="318.04" style="stroke: #000000; stroke-width: 0.8"/>
      </g>
     </g>
     <g id="text_3">
      <!-- 4000 -->
      <g transform="translate(274.359276 332.638438) scale(0.1 -0.1)">
       <defs>
        <path id="DejaVuSans-34" d="M 2419 4116 
L 825 1625 
L 2419 1625 
L 2419 4116 
z
M 2253 4666 
L 3047 4666 
L 3047 1625 
L 3713 1625 
L 3713 1100 
L 3047 1100 
L 3047 0 
L 2419 0 
L 2419 1100 
L 313 1100 
L 313 1709 
L 2253 4666 
z
" transform="scale(0.015625)"/>
       </defs>
       <use xlink:href="#DejaVuSans-34"/>
       <use xlink:href="#DejaVuSans-30" x="63.623047"/>
       <use xlink:href="#DejaVuSans-30" x="127.246094"/>
       <use xlink:href="#DejaVuSans-30" x="190.869141"/>
      </g>
     </g>
    </g>
    <g id="xtick_4">
     <g id="line2d_4">
      <g>
       <use xlink:href="#mfe7e282391" x="394.829596" y="318.04" style="stroke: #000000; stroke-width: 0.8"/>
      </g>
     </g>
     <g id="text_4">
      <!-- 6000 -->
      <g transform="translate(382.104596 332.638438) scale(0.1 -0.1)">
       <defs>
        <path id="DejaVuSans-36" d="M 2113 2584 
Q 1688 2584 1439 2293 
Q 1191 2003 1191 1497 
Q 1191 994 1439 701 
Q 1688 409 2113 409 
Q 2538 409 2786 701 
Q 3034 994 3034 1497 
Q 3034 2003 2786 2293 
Q 2538 2584 2113 2584 
z
M 3366 4563 
L 3366 3988 
Q 3128 4100 2886 4159 
Q 2644 4219 2406 4219 
Q 1781 4219 1451 3797 
Q 1122 3375 1075 2522 
Q 1259 2794 1537 2939 
Q 1816 3084 2150 3084 
Q 2853 3084 3261 2657 
Q 3669 2231 3669 1497 
Q 3669 778 3244 343 
Q 2819 -91 2113 -91 
Q 1303 -91 875 529 
Q 447 1150 447 2328 
Q 447 3434 972 4092 
Q 1497 4750 2381 4750 
Q 2619 4750 2861 4703 
Q 3103 4656 3366 4563 
z
" transform="scale(0.015625)"/>
       </defs>
       <use xlink:href="#DejaVuSans-36"/>
       <use xlink:href="#DejaVuSans-30" x="63.623047"/>
       <use xlink:href="#DejaVuSans-30" x="127.246094"/>
       <use xlink:href="#DejaVuSans-30" x="190.869141"/>
      </g>
     </g>
    </g>
    <g id="xtick_5">
     <g id="line2d_5">
      <g>
       <use xlink:href="#mfe7e282391" x="502.574916" y="318.04" style="stroke: #000000; stroke-width: 0.8"/>
      </g>
     </g>
     <g id="text_5">
      <!-- 8000 -->
      <g transform="translate(489.849916 332.638438) scale(0.1 -0.1)">
       <defs>
        <path id="DejaVuSans-38" d="M 2034 2216 
Q 1584 2216 1326 1975 
Q 1069 1734 1069 1313 
Q 1069 891 1326 650 
Q 1584 409 2034 409 
Q 2484 409 2743 651 
Q 3003 894 3003 1313 
Q 3003 1734 2745 1975 
Q 2488 2216 2034 2216 
z
M 1403 2484 
Q 997 2584 770 2862 
Q 544 3141 544 3541 
Q 544 4100 942 4425 
Q 1341 4750 2034 4750 
Q 2731 4750 3128 4425 
Q 3525 4100 3525 3541 
Q 3525 3141 3298 2862 
Q 3072 2584 2669 2484 
Q 3125 2378 3379 2068 
Q 3634 1759 3634 1313 
Q 3634 634 3220 271 
Q 2806 -91 2034 -91 
Q 1263 -91 848 271 
Q 434 634 434 1313 
Q 434 1759 690 2068 
Q 947 2378 1403 2484 
z
M 1172 3481 
Q 1172 3119 1398 2916 
Q 1625 2713 2034 2713 
Q 2441 2713 2670 2916 
Q 2900 3119 2900 3481 
Q 2900 3844 2670 4047 
Q 2441 4250 2034 4250 
Q 1625 4250 1398 4047 
Q 1172 3844 1172 3481 
z
" transform="scale(0.015625)"/>
       </defs>
       <use xlink:href="#DejaVuSans-38"/>
       <use xlink:href="#DejaVuSans-30" x="63.623047"/>
       <use xlink:href="#DejaVuSans-30" x="127.246094"/>
       <use xlink:href="#DejaVuSans-30" x="190.869141"/>
      </g>
     </g>
    </g>
    <g id="xtick_6">
     <g id="line2d_6">
      <g>
       <use xlink:href="#mfe7e282391" x="610.320236" y="318.04" style="stroke: #000000; stroke-width: 0.8"/>
      </g>
     </g>
     <g id="text_6">
      <!-- 10000 -->
      <g transform="translate(594.413986 332.638438) scale(0.1 -0.1)">
       <defs>
        <path id="DejaVuSans-31" d="M 794 531 
L 1825 531 
L 1825 4091 
L 703 3866 
L 703 4441 
L 1819 4666 
L 2450 4666 
L 2450 531 
L 3481 531 
L 3481 0 
L 794 0 
L 794 531 
z
" transform="scale(0.015625)"/>
       </defs>
       <use xlink:href="#DejaVuSans-31"/>
       <use xlink:href="#DejaVuSans-30" x="63.623047"/>
       <use xlink:href="#DejaVuSans-30" x="127.246094"/>
       <use xlink:href="#DejaVuSans-30" x="190.869141"/>
       <use xlink:href="#DejaVuSans-30" x="254.492188"/>
      </g>
     </g>
    </g>
    <g id="text_7">
     <!-- Time -->
     <g transform="translate(328.696406 346.316563) scale(0.1 -0.1)">
      <defs>
       <path id="DejaVuSans-54" d="M -19 4666 
L 3928 4666 
L 3928 4134 
L 2272 4134 
L 2272 0 
L 1638 0 
L 1638 4134 
L -19 4134 
L -19 4666 
z
" transform="scale(0.015625)"/>
       <path id="DejaVuSans-69" d="M 603 3500 
L 1178 3500 
L 1178 0 
L 603 0 
L 603 3500 
z
M 603 4863 
L 1178 4863 
L 1178 4134 
L 603 4134 
L 603 4863 
z
" transform="scale(0.015625)"/>
       <path id="DejaVuSans-6d" d="M 3328 2828 
Q 3544 3216 3844 3400 
Q 4144 3584 4550 3584 
Q 5097 3584 5394 3201 
Q 5691 2819 5691 2113 
L 5691 0 
L 5113 0 
L 5113 2094 
Q 5113 2597 4934 2840 
Q 4756 3084 4391 3084 
Q 3944 3084 3684 2787 
Q 3425 2491 3425 1978 
L 3425 0 
L 2847 0 
L 2847 2094 
Q 2847 2600 2669 2842 
Q 2491 3084 2119 3084 
Q 1678 3084 1418 2786 
Q 1159 2488 1159 1978 
L 1159 0 
L 581 0 
L 581 3500 
L 1159 3500 
L 1159 2956 
Q 1356 3278 1631 3431 
Q 1906 3584 2284 3584 
Q 2666 3584 2933 3390 
Q 3200 3197 3328 2828 
z
" transform="scale(0.015625)"/>
       <path id="DejaVuSans-65" d="M 3597 1894 
L 3597 1613 
L 953 1613 
Q 991 1019 1311 708 
Q 1631 397 2203 397 
Q 2534 397 2845 478 
Q 3156 559 3463 722 
L 3463 178 
Q 3153 47 2828 -22 
Q 2503 -91 2169 -91 
Q 1331 -91 842 396 
Q 353 884 353 1716 
Q 353 2575 817 3079 
Q 1281 3584 2069 3584 
Q 2775 3584 3186 3129 
Q 3597 2675 3597 1894 
z
M 3022 2063 
Q 3016 2534 2758 2815 
Q 2500 3097 2075 3097 
Q 1594 3097 1305 2825 
Q 1016 2553 972 2059 
L 3022 2063 
z
" transform="scale(0.015625)"/>
      </defs>
      <use xlink:href="#DejaVuSans-54"/>
      <use xlink:href="#DejaVuSans-69" x="57.958984"/>
      <use xlink:href="#DejaVuSans-6d" x="85.742188"/>
      <use xlink:href="#DejaVuSans-65" x="183.154297"/>
     </g>
    </g>
   </g>
   <g id="matplotlib.axis_2">
    <g id="ytick_1">
     <g id="line2d_7">
      <defs>
       <path id="m2874712007" d="M 0 0 
L -3.5 0 
" style="stroke: #000000; stroke-width: 0.8"/>
      </defs>
      <g>
       <use xlink:href="#m2874712007" x="44.66" y="304.74" style="stroke: #000000; stroke-width: 0.8"/>
      </g>
     </g>
     <g id="text_8">
      <!-- 0 -->
      <g transform="translate(31.2975 308.539219) scale(0.1 -0.1)">
       <use xlink:href="#DejaVuSans-30"/>
      </g>
     </g>
    </g>
    <g id="ytick_2">
     <g id="line2d_8">
      <g>
       <use xlink:href="#m2874712007" x="44.66" y="263.816923" style="stroke: #000000; stroke-width: 0.8"/>
      </g>
     </g>
     <g id="text_9">
      <!-- 2 -->
      <g transform="translate(31.2975 267.616142) scale(0.1 -0.1)">
       <use xlink:href="#DejaVuSans-32"/>
      </g>
     </g>
    </g>
    <g id="ytick_3">
     <g id="line2d_9">
      <g>
       <use xlink:href="#m2874712007" x="44.66" y="222.893846" style="stroke: #000000; stroke-width: 0.8"/>
      </g>
     </g>
     <g id="text_10">
      <!-- 4 -->
      <g transform="translate(31.2975 226.693065) scale(0.1 -0.1)">
       <use xlink:href="#DejaVuSans-34"/>
      </g>
     </g>
    </g>
    <g id="ytick_4">
     <g id="line2d_10">
      <g>
       <use xlink:href="#m2874712007" x="44.66" y="181.970769" style="stroke: #000000; stroke-width: 0.8"/>
      </g>
     </g>
     <g id="text_11">
      <!-- 6 -->
      <g transform="translate(31.2975 185.769988) scale(0.1 -0.1)">
       <use xlink:href="#DejaVuSans-36"/>
      </g>
     </g>
    </g>
    <g id="ytick_5">
     <g id="line2d_11">
      <g>
       <use xlink:href="#m2874712007" x="44.66" y="141.047692" style="stroke: #000000; stroke-width: 0.8"/>
      </g>
     </g>
     <g id="text_12">
      <!-- 8 -->
      <g transform="translate(31.2975 144.846911) scale(0.1 -0.1)">
       <use xlink:href="#DejaVuSans-38"/>
      </g>
     </g>
    </g>
    <g id="ytick_6">
     <g id="line2d_12">
      <g>
       <use xlink:href="#m2874712007" x="44.66" y="100.124615" style="stroke: #000000; stroke-width: 0.8"/>
      </g>
     </g>
     <g id="text_13">
      <!-- 10 -->
      <g transform="translate(24.935 103.923834) scale(0.1 -0.1)">
       <use xlink:href="#DejaVuSans-31"/>
       <use xlink:href="#DejaVuSans-30" x="63.623047"/>
      </g>
     </g>
    </g>
    <g id="ytick_7">
     <g id="line2d_13">
      <g>
       <use xlink:href="#m2874712007" x="44.66" y="59.201538" style="stroke: #000000; stroke-width: 0.8"/>
      </g>
     </g>
     <g id="text_14">
      <!-- 12 -->
      <g transform="translate(24.935 63.000757) scale(0.1 -0.1)">
       <use xlink:href="#DejaVuSans-31"/>
       <use xlink:href="#DejaVuSans-32" x="63.623047"/>
      </g>
     </g>
    </g>
    <g id="text_15">
     <!-- Number of cars in the village -->
     <g transform="translate(18.855312 244.268906) rotate(-90) scale(0.1 -0.1)">
      <defs>
       <path id="DejaVuSans-4e" d="M 628 4666 
L 1478 4666 
L 3547 763 
L 3547 4666 
L 4159 4666 
L 4159 0 
L 3309 0 
L 1241 3903 
L 1241 0 
L 628 0 
L 628 4666 
z
" transform="scale(0.015625)"/>
       <path id="DejaVuSans-75" d="M 544 1381 
L 544 3500 
L 1119 3500 
L 1119 1403 
Q 1119 906 1312 657 
Q 1506 409 1894 409 
Q 2359 409 2629 706 
Q 2900 1003 2900 1516 
L 2900 3500 
L 3475 3500 
L 3475 0 
L 2900 0 
L 2900 538 
Q 2691 219 2414 64 
Q 2138 -91 1772 -91 
Q 1169 -91 856 284 
Q 544 659 544 1381 
z
M 1991 3584 
L 1991 3584 
z
" transform="scale(0.015625)"/>
       <path id="DejaVuSans-62" d="M 3116 1747 
Q 3116 2381 2855 2742 
Q 2594 3103 2138 3103 
Q 1681 3103 1420 2742 
Q 1159 2381 1159 1747 
Q 1159 1113 1420 752 
Q 1681 391 2138 391 
Q 2594 391 2855 752 
Q 3116 1113 3116 1747 
z
M 1159 2969 
Q 1341 3281 1617 3432 
Q 1894 3584 2278 3584 
Q 2916 3584 3314 3078 
Q 3713 2572 3713 1747 
Q 3713 922 3314 415 
Q 2916 -91 2278 -91 
Q 1894 -91 1617 61 
Q 1341 213 1159 525 
L 1159 0 
L 581 0 
L 581 4863 
L 1159 4863 
L 1159 2969 
z
" transform="scale(0.015625)"/>
       <path id="DejaVuSans-72" d="M 2631 2963 
Q 2534 3019 2420 3045 
Q 2306 3072 2169 3072 
Q 1681 3072 1420 2755 
Q 1159 2438 1159 1844 
L 1159 0 
L 581 0 
L 581 3500 
L 1159 3500 
L 1159 2956 
Q 1341 3275 1631 3429 
Q 1922 3584 2338 3584 
Q 2397 3584 2469 3576 
Q 2541 3569 2628 3553 
L 2631 2963 
z
" transform="scale(0.015625)"/>
       <path id="DejaVuSans-20" transform="scale(0.015625)"/>
       <path id="DejaVuSans-6f" d="M 1959 3097 
Q 1497 3097 1228 2736 
Q 959 2375 959 1747 
Q 959 1119 1226 758 
Q 1494 397 1959 397 
Q 2419 397 2687 759 
Q 2956 1122 2956 1747 
Q 2956 2369 2687 2733 
Q 2419 3097 1959 3097 
z
M 1959 3584 
Q 2709 3584 3137 3096 
Q 3566 2609 3566 1747 
Q 3566 888 3137 398 
Q 2709 -91 1959 -91 
Q 1206 -91 779 398 
Q 353 888 353 1747 
Q 353 2609 779 3096 
Q 1206 3584 1959 3584 
z
" transform="scale(0.015625)"/>
       <path id="DejaVuSans-66" d="M 2375 4863 
L 2375 4384 
L 1825 4384 
Q 1516 4384 1395 4259 
Q 1275 4134 1275 3809 
L 1275 3500 
L 2222 3500 
L 2222 3053 
L 1275 3053 
L 1275 0 
L 697 0 
L 697 3053 
L 147 3053 
L 147 3500 
L 697 3500 
L 697 3744 
Q 697 4328 969 4595 
Q 1241 4863 1831 4863 
L 2375 4863 
z
" transform="scale(0.015625)"/>
       <path id="DejaVuSans-63" d="M 3122 3366 
L 3122 2828 
Q 2878 2963 2633 3030 
Q 2388 3097 2138 3097 
Q 1578 3097 1268 2742 
Q 959 2388 959 1747 
Q 959 1106 1268 751 
Q 1578 397 2138 397 
Q 2388 397 2633 464 
Q 2878 531 3122 666 
L 3122 134 
Q 2881 22 2623 -34 
Q 2366 -91 2075 -91 
Q 1284 -91 818 406 
Q 353 903 353 1747 
Q 353 2603 823 3093 
Q 1294 3584 2113 3584 
Q 2378 3584 2631 3529 
Q 2884 3475 3122 3366 
z
" transform="scale(0.015625)"/>
       <path id="DejaVuSans-61" d="M 2194 1759 
Q 1497 1759 1228 1600 
Q 959 1441 959 1056 
Q 959 750 1161 570 
Q 1363 391 1709 391 
Q 2188 391 2477 730 
Q 2766 1069 2766 1631 
L 2766 1759 
L 2194 1759 
z
M 3341 1997 
L 3341 0 
L 2766 0 
L 2766 531 
Q 2569 213 2275 61 
Q 1981 -91 1556 -91 
Q 1019 -91 701 211 
Q 384 513 384 1019 
Q 384 1609 779 1909 
Q 1175 2209 1959 2209 
L 2766 2209 
L 2766 2266 
Q 2766 2663 2505 2880 
Q 2244 3097 1772 3097 
Q 1472 3097 1187 3025 
Q 903 2953 641 2809 
L 641 3341 
Q 956 3463 1253 3523 
Q 1550 3584 1831 3584 
Q 2591 3584 2966 3190 
Q 3341 2797 3341 1997 
z
" transform="scale(0.015625)"/>
       <path id="DejaVuSans-73" d="M 2834 3397 
L 2834 2853 
Q 2591 2978 2328 3040 
Q 2066 3103 1784 3103 
Q 1356 3103 1142 2972 
Q 928 2841 928 2578 
Q 928 2378 1081 2264 
Q 1234 2150 1697 2047 
L 1894 2003 
Q 2506 1872 2764 1633 
Q 3022 1394 3022 966 
Q 3022 478 2636 193 
Q 2250 -91 1575 -91 
Q 1294 -91 989 -36 
Q 684 19 347 128 
L 347 722 
Q 666 556 975 473 
Q 1284 391 1588 391 
Q 1994 391 2212 530 
Q 2431 669 2431 922 
Q 2431 1156 2273 1281 
Q 2116 1406 1581 1522 
L 1381 1569 
Q 847 1681 609 1914 
Q 372 2147 372 2553 
Q 372 3047 722 3315 
Q 1072 3584 1716 3584 
Q 2034 3584 2315 3537 
Q 2597 3491 2834 3397 
z
" transform="scale(0.015625)"/>
       <path id="DejaVuSans-6e" d="M 3513 2113 
L 3513 0 
L 2938 0 
L 2938 2094 
Q 2938 2591 2744 2837 
Q 2550 3084 2163 3084 
Q 1697 3084 1428 2787 
Q 1159 2491 1159 1978 
L 1159 0 
L 581 0 
L 581 3500 
L 1159 3500 
L 1159 2956 
Q 1366 3272 1645 3428 
Q 1925 3584 2291 3584 
Q 2894 3584 3203 3211 
Q 3513 2838 3513 2113 
z
" transform="scale(0.015625)"/>
       <path id="DejaVuSans-74" d="M 1172 4494 
L 1172 3500 
L 2356 3500 
L 2356 3053 
L 1172 3053 
L 1172 1153 
Q 1172 725 1289 603 
Q 1406 481 1766 481 
L 2356 481 
L 2356 0 
L 1766 0 
Q 1100 0 847 248 
Q 594 497 594 1153 
L 594 3053 
L 172 3053 
L 172 3500 
L 594 3500 
L 594 4494 
L 1172 4494 
z
" transform="scale(0.015625)"/>
       <path id="DejaVuSans-68" d="M 3513 2113 
L 3513 0 
L 2938 0 
L 2938 2094 
Q 2938 2591 2744 2837 
Q 2550 3084 2163 3084 
Q 1697 3084 1428 2787 
Q 1159 2491 1159 1978 
L 1159 0 
L 581 0 
L 581 4863 
L 1159 4863 
L 1159 2956 
Q 1366 3272 1645 3428 
Q 1925 3584 2291 3584 
Q 2894 3584 3203 3211 
Q 3513 2838 3513 2113 
z
" transform="scale(0.015625)"/>
       <path id="DejaVuSans-76" d="M 191 3500 
L 800 3500 
L 1894 563 
L 2988 3500 
L 3597 3500 
L 2284 0 
L 1503 0 
L 191 3500 
z
" transform="scale(0.015625)"/>
       <path id="DejaVuSans-6c" d="M 603 4863 
L 1178 4863 
L 1178 0 
L 603 0 
L 603 4863 
z
" transform="scale(0.015625)"/>
       <path id="DejaVuSans-67" d="M 2906 1791 
Q 2906 2416 2648 2759 
Q 2391 3103 1925 3103 
Q 1463 3103 1205 2759 
Q 947 2416 947 1791 
Q 947 1169 1205 825 
Q 1463 481 1925 481 
Q 2391 481 2648 825 
Q 2906 1169 2906 1791 
z
M 3481 434 
Q 3481 -459 3084 -895 
Q 2688 -1331 1869 -1331 
Q 1566 -1331 1297 -1286 
Q 1028 -1241 775 -1147 
L 775 -588 
Q 1028 -725 1275 -790 
Q 1522 -856 1778 -856 
Q 2344 -856 2625 -561 
Q 2906 -266 2906 331 
L 2906 616 
Q 2728 306 2450 153 
Q 2172 0 1784 0 
Q 1141 0 747 490 
Q 353 981 353 1791 
Q 353 2603 747 3093 
Q 1141 3584 1784 3584 
Q 2172 3584 2450 3431 
Q 2728 3278 2906 2969 
L 2906 3500 
L 3481 3500 
L 3481 434 
z
" transform="scale(0.015625)"/>
      </defs>
      <use xlink:href="#DejaVuSans-4e"/>
      <use xlink:href="#DejaVuSans-75" x="74.804688"/>
      <use xlink:href="#DejaVuSans-6d" x="138.183594"/>
      <use xlink:href="#DejaVuSans-62" x="235.595703"/>
      <use xlink:href="#DejaVuSans-65" x="299.072266"/>
      <use xlink:href="#DejaVuSans-72" x="360.595703"/>
      <use xlink:href="#DejaVuSans-20" x="401.708984"/>
      <use xlink:href="#DejaVuSans-6f" x="433.496094"/>
      <use xlink:href="#DejaVuSans-66" x="494.677734"/>
      <use xlink:href="#DejaVuSans-20" x="529.882812"/>
      <use xlink:href="#DejaVuSans-63" x="561.669922"/>
      <use xlink:href="#DejaVuSans-61" x="616.650391"/>
      <use xlink:href="#DejaVuSans-72" x="677.929688"/>
      <use xlink:href="#DejaVuSans-73" x="719.042969"/>
      <use xlink:href="#DejaVuSans-20" x="771.142578"/>
      <use xlink:href="#DejaVuSans-69" x="802.929688"/>
      <use xlink:href="#DejaVuSans-6e" x="830.712891"/>
      <use xlink:href="#DejaVuSans-20" x="894.091797"/>
      <use xlink:href="#DejaVuSans-74" x="925.878906"/>
      <use xlink:href="#DejaVuSans-68" x="965.087891"/>
      <use xlink:href="#DejaVuSans-65" x="1028.466797"/>
      <use xlink:href="#DejaVuSans-20" x="1089.990234"/>
      <use xlink:href="#DejaVuSans-76" x="1121.777344"/>
      <use xlink:href="#DejaVuSans-69" x="1180.957031"/>
      <use xlink:href="#DejaVuSans-6c" x="1208.740234"/>
      <use xlink:href="#DejaVuSans-6c" x="1236.523438"/>
      <use xlink:href="#DejaVuSans-61" x="1264.306641"/>
      <use xlink:href="#DejaVuSans-67" x="1325.585938"/>
      <use xlink:href="#DejaVuSans-65" x="1389.0625"/>
     </g>
    </g>
   </g>
   <g id="line2d_14">
    <path d="M 71.593636 304.74 
L 75.580213 304.74 
L 75.741831 284.278462 
L 77.14252 284.278462 
L 77.304138 304.74 
L 85.43891 304.74 
L 85.600528 284.278462 
L 86.462491 284.278462 
L 86.624109 304.74 
L 89.69485 304.74 
L 89.856468 284.278462 
L 93.034955 284.278462 
L 93.196573 263.816923 
L 95.513097 263.816923 
L 95.674715 284.278462 
L 97.560258 284.278462 
L 97.721876 304.74 
L 108.658026 304.74 
L 108.819644 284.278462 
L 111.136169 284.278462 
L 111.297787 263.816923 
L 115.499854 263.816923 
L 115.661472 284.278462 
L 117.169907 284.278462 
L 117.331525 263.816923 
L 127.513457 263.816923 
L 127.675075 243.355385 
L 129.722236 243.355385 
L 129.883854 263.816923 
L 132.739105 263.816923 
L 132.900723 243.355385 
L 137.210536 243.355385 
L 137.372154 263.816923 
L 141.574222 263.816923 
L 141.73584 243.355385 
L 143.729128 243.355385 
L 143.890746 222.893846 
L 145.075945 222.893846 
L 145.237563 202.432308 
L 148.63154 202.432308 
L 148.793158 181.970769 
L 154.719151 181.970769 
L 154.880769 161.509231 
L 157.035675 161.509231 
L 157.197293 141.047692 
L 158.867346 141.047692 
L 159.028964 161.509231 
L 160.268035 161.509231 
L 160.429653 141.047692 
L 160.968379 141.047692 
L 161.129997 161.509231 
L 164.362357 161.509231 
L 164.523975 181.970769 
L 167.002117 181.970769 
L 167.163735 202.432308 
L 167.486971 202.432308 
L 167.648589 181.970769 
L 168.133443 181.970769 
L 168.348934 141.047692 
L 170.018986 141.047692 
L 170.180604 161.509231 
L 174.490417 161.509231 
L 174.652035 181.970769 
L 176.483705 181.970769 
L 176.645323 161.509231 
L 176.968559 161.509231 
L 177.130177 181.970769 
L 186.935001 181.970769 
L 187.096619 202.432308 
L 187.689219 202.432308 
L 187.850837 181.970769 
L 188.658927 181.970769 
L 188.820545 202.432308 
L 188.874417 202.432308 
L 189.036035 181.970769 
L 189.574762 181.970769 
L 189.73638 202.432308 
L 190.167361 202.432308 
L 190.328979 222.893846 
L 195.123646 222.893846 
L 195.285264 243.355385 
L 197.494043 243.355385 
L 197.655661 263.816923 
L 203.204545 263.816923 
L 203.366163 284.278462 
L 204.820725 284.278462 
L 204.982343 304.74 
L 220.336051 304.74 
L 220.497669 284.278462 
L 221.575122 284.278462 
L 221.73674 263.816923 
L 222.059976 263.816923 
L 222.221594 243.355385 
L 223.676156 243.355385 
L 223.837774 263.816923 
L 226.423661 263.816923 
L 226.585279 284.278462 
L 229.656021 284.278462 
L 229.817639 263.816923 
L 230.464111 263.816923 
L 230.625729 243.355385 
L 230.787347 263.816923 
L 231.05671 263.816923 
L 231.218328 243.355385 
L 232.67289 243.355385 
L 232.834508 222.893846 
L 233.911961 222.893846 
L 234.073579 243.355385 
L 234.28907 243.355385 
L 234.450688 263.816923 
L 235.043287 263.816923 
L 235.204905 243.355385 
L 243.01644 243.355385 
L 243.178058 222.893846 
L 244.848111 222.893846 
L 245.009729 243.355385 
L 245.22522 243.355385 
L 245.386838 222.893846 
L 249.104051 222.893846 
L 249.319542 263.816923 
L 254.76068 263.816923 
L 254.976171 304.74 
L 259.932456 304.74 
L 260.094074 284.278462 
L 265.804576 284.278462 
L 265.966194 263.816923 
L 266.882029 263.816923 
L 267.043647 284.278462 
L 269.683407 284.278462 
L 269.845025 263.816923 
L 271.56895 263.816923 
L 271.730568 284.278462 
L 274.80131 284.278462 
L 274.962928 304.74 
L 275.124546 284.278462 
L 281.535392 284.278462 
L 281.69701 304.74 
L 289.023692 304.74 
L 289.18531 284.278462 
L 292.309924 284.278462 
L 292.471542 263.816923 
L 295.434539 263.816923 
L 295.596157 284.278462 
L 295.973265 284.278462 
L 296.134883 263.816923 
L 301.198913 263.816923 
L 301.360531 284.278462 
L 302.060876 284.278462 
L 302.222494 263.816923 
L 307.178779 263.816923 
L 307.340396 243.355385 
L 311.434719 243.355385 
L 311.596337 263.816923 
L 317.091348 263.816923 
L 317.306839 222.893846 
L 322.424741 222.893846 
L 322.586359 243.355385 
L 326.141955 243.355385 
L 326.303573 263.816923 
L 326.572936 263.816923 
L 326.734554 284.278462 
L 328.296861 284.278462 
L 328.458479 263.816923 
L 329.535932 263.816923 
L 329.69755 243.355385 
L 332.876037 243.355385 
L 333.037655 263.816923 
L 336.700996 263.816923 
L 336.862614 243.355385 
L 340.687573 243.355385 
L 340.849191 263.816923 
L 345.320622 263.816923 
L 345.48224 243.355385 
L 346.236457 243.355385 
L 346.398075 263.816923 
L 348.499109 263.816923 
L 348.660727 243.355385 
L 349.414944 243.355385 
L 349.576562 222.893846 
L 349.684307 222.893846 
L 349.845925 243.355385 
L 353.724757 243.355385 
L 353.886375 222.893846 
L 363.152472 222.893846 
L 363.31409 202.432308 
L 372.310824 202.432308 
L 372.472442 222.893846 
L 376.243529 222.893846 
L 376.405147 243.355385 
L 379.583634 243.355385 
L 379.745252 222.893846 
L 380.768832 222.893846 
L 380.93045 202.432308 
L 387.395169 202.432308 
L 387.556787 222.893846 
L 408.082271 222.893846 
L 408.297761 263.816923 
L 409.267469 263.816923 
L 409.429087 284.278462 
L 409.806196 284.278462 
L 409.967814 263.816923 
L 410.452668 263.816923 
L 410.614286 243.355385 
L 411.745612 243.355385 
L 411.90723 222.893846 
L 412.499829 222.893846 
L 412.661447 243.355385 
L 415.947679 243.355385 
L 416.109297 263.816923 
L 418.371949 263.816923 
L 418.533567 284.278462 
L 419.503275 284.278462 
L 419.664893 304.74 
L 421.065582 304.74 
L 421.2272 284.278462 
L 421.765926 284.278462 
L 421.927544 304.74 
L 423.05887 304.74 
L 423.220488 284.278462 
L 427.745792 284.278462 
L 427.90741 304.74 
L 428.823245 304.74 
L 428.984863 284.278462 
L 436.042181 284.278462 
L 436.203799 304.74 
L 437.22738 304.74 
L 437.388998 284.278462 
L 437.44287 284.278462 
L 437.604488 263.816923 
L 438.03547 263.816923 
L 438.197088 284.278462 
L 441.213957 284.278462 
L 441.375575 263.816923 
L 441.968174 263.816923 
L 442.129792 243.355385 
L 444.554061 243.355385 
L 444.715679 263.816923 
L 451.503635 263.816923 
L 451.665253 284.278462 
L 451.988489 284.278462 
L 452.150107 304.74 
L 453.389178 304.74 
L 453.550796 284.278462 
L 454.03565 284.278462 
L 454.197268 304.74 
L 454.789867 304.74 
L 454.951485 284.278462 
L 460.446496 284.278462 
L 460.608114 263.816923 
L 462.54753 263.816923 
L 462.709148 243.355385 
L 463.678856 243.355385 
L 463.840474 222.893846 
L 464.810182 222.893846 
L 464.9718 243.355385 
L 467.449942 243.355385 
L 467.61156 222.893846 
L 470.790047 222.893846 
L 471.005538 263.816923 
L 471.921373 263.816923 
L 472.082991 284.278462 
L 474.453388 284.278462 
L 474.615006 304.74 
L 490.130332 304.74 
L 490.29195 284.278462 
L 490.615186 284.278462 
L 490.776804 263.816923 
L 490.884549 263.816923 
L 491.046167 243.355385 
L 501.712954 243.355385 
L 501.874572 263.816923 
L 503.221388 263.816923 
L 503.383006 284.278462 
L 505.430167 284.278462 
L 505.591785 263.816923 
L 509.686107 263.816923 
L 509.847725 243.355385 
L 510.332579 243.355385 
L 510.494197 222.893846 
L 512.756849 222.893846 
L 512.918467 243.355385 
L 514.103666 243.355385 
L 514.265284 263.816923 
L 516.689553 263.816923 
L 516.851171 243.355385 
L 518.898332 243.355385 
L 519.05995 222.893846 
L 519.167696 222.893846 
L 519.329314 243.355385 
L 520.67613 243.355385 
L 520.837748 222.893846 
L 526.171141 222.893846 
L 526.332759 243.355385 
L 530.642572 243.355385 
L 530.80419 263.816923 
L 532.151007 263.816923 
L 532.312625 243.355385 
L 533.282333 243.355385 
L 533.44395 263.816923 
L 533.713314 263.816923 
L 533.874932 243.355385 
L 537.699891 243.355385 
L 537.861509 222.893846 
L 543.895247 222.893846 
L 544.056865 243.355385 
L 544.3801 243.355385 
L 544.541718 263.816923 
L 544.918827 263.816923 
L 545.080445 243.355385 
L 545.242063 243.355385 
L 545.403681 222.893846 
L 549.22864 222.893846 
L 549.390258 202.432308 
L 550.306093 202.432308 
L 550.467711 181.970769 
L 551.545164 181.970769 
L 551.706782 161.509231 
L 553.430707 161.509231 
L 553.592325 181.970769 
L 556.501449 181.970769 
L 556.663067 161.509231 
L 557.74052 161.509231 
L 557.902138 181.970769 
L 562.481314 181.970769 
L 562.642932 161.509231 
L 566.952745 161.509231 
L 567.114363 141.047692 
L 570.346723 141.047692 
L 570.508341 120.586154 
L 571.262558 120.586154 
L 571.424176 100.124615 
L 572.12452 100.124615 
L 572.286138 79.663077 
L 581.390618 79.663077 
L 581.552236 100.124615 
L 583.86876 100.124615 
L 584.030378 120.586154 
L 586.831757 120.586154 
L 586.993375 141.047692 
L 588.501809 141.047692 
L 588.663427 120.586154 
L 590.441225 120.586154 
L 590.602843 100.124615 
L 591.788041 100.124615 
L 591.949659 79.663077 
L 592.596131 79.663077 
L 592.757749 100.124615 
L 593.027112 100.124615 
L 593.18873 79.663077 
L 593.99682 79.663077 
L 594.158438 59.201538 
L 609.889255 59.201538 
L 610.050873 38.74 
L 610.266364 38.74 
L 610.266364 38.74 
" clip-path="url(#p661b79a0f7)" style="fill: none; stroke: #1f77b4; stroke-opacity: 0.8; stroke-width: 1.5; stroke-linecap: square"/>
   </g>
   <g id="line2d_15">
    <path d="M 71.593636 304.74 
L 73.425307 304.74 
L 73.586925 284.278462 
L 75.741831 284.278462 
L 75.903449 304.74 
L 77.14252 304.74 
L 77.304138 284.278462 
L 78.327719 284.278462 
L 78.489337 263.816923 
L 79.997771 263.816923 
L 80.159389 243.355385 
L 81.829442 243.355385 
L 81.99106 263.816923 
L 83.661112 263.816923 
L 83.82273 243.355385 
L 87.378326 243.355385 
L 87.539944 222.893846 
L 91.957502 222.893846 
L 92.11912 243.355385 
L 97.829622 243.355385 
L 97.99124 263.816923 
L 100.738745 263.816923 
L 100.900363 284.278462 
L 104.67145 284.278462 
L 104.833068 263.816923 
L 106.449247 263.816923 
L 106.610865 243.355385 
L 106.664738 243.355385 
L 106.826356 222.893846 
L 106.987974 222.893846 
L 107.149592 243.355385 
L 107.688319 243.355385 
L 107.849937 222.893846 
L 118.516723 222.893846 
L 118.678341 202.432308 
L 119.324813 202.432308 
L 119.486431 222.893846 
L 121.964573 222.893846 
L 122.126191 202.432308 
L 125.627914 202.432308 
L 125.789532 222.893846 
L 126.489877 222.893846 
L 126.651495 243.355385 
L 126.813113 243.355385 
L 126.974731 222.893846 
L 136.67181 222.893846 
L 136.833428 202.432308 
L 137.318282 202.432308 
L 137.4799 222.893846 
L 137.533772 222.893846 
L 137.69539 202.432308 
L 138.018626 202.432308 
L 138.180244 222.893846 
L 140.281278 222.893846 
L 140.442896 202.432308 
L 141.304858 202.432308 
L 141.466476 222.893846 
L 141.574222 222.893846 
L 141.73584 202.432308 
L 142.54393 202.432308 
L 142.705548 222.893846 
L 143.998491 222.893846 
L 144.160109 202.432308 
L 144.752709 202.432308 
L 144.914327 222.893846 
L 146.261143 222.893846 
L 146.422761 202.432308 
L 146.692124 202.432308 
L 146.853742 222.893846 
L 149.924484 222.893846 
L 150.086102 243.355385 
L 150.463211 243.355385 
L 150.624829 222.893846 
L 155.527241 222.893846 
L 155.688859 243.355385 
L 159.56769 243.355385 
L 159.729308 263.816923 
L 163.177158 263.816923 
L 163.338776 243.355385 
L 170.234477 243.355385 
L 170.396095 222.893846 
L 172.12002 222.893846 
L 172.281638 243.355385 
L 172.658747 243.355385 
L 172.820364 263.816923 
L 173.251346 263.816923 
L 173.412964 284.278462 
L 176.806941 284.278462 
L 176.968559 304.74 
L 183.702642 304.74 
L 183.86426 284.278462 
L 184.349114 284.278462 
L 184.510732 263.816923 
L 188.497309 263.816923 
L 188.658927 243.355385 
L 189.089908 243.355385 
L 189.251526 222.893846 
L 190.221234 222.893846 
L 190.382852 202.432308 
L 198.032769 202.432308 
L 198.194387 222.893846 
L 199.379586 222.893846 
L 199.541204 243.355385 
L 202.073219 243.355385 
L 202.234837 222.893846 
L 203.366163 222.893846 
L 203.527781 243.355385 
L 206.275286 243.355385 
L 206.436904 263.816923 
L 207.083376 263.816923 
L 207.244994 284.278462 
L 209.453773 284.278462 
L 209.615391 304.74 
L 216.187856 304.74 
L 216.349474 284.278462 
L 217.373054 284.278462 
L 217.534672 304.74 
L 238.221774 304.74 
L 238.383392 284.278462 
L 240.322807 284.278462 
L 240.484425 304.74 
L 252.875137 304.74 
L 253.036755 284.278462 
L 268.605954 284.278462 
L 268.767572 263.816923 
L 270.922478 263.816923 
L 271.084096 243.355385 
L 272.592531 243.355385 
L 272.754149 222.893846 
L 274.262583 222.893846 
L 274.424201 243.355385 
L 281.158284 243.355385 
L 281.319902 263.816923 
L 285.252606 263.816923 
L 285.414224 284.278462 
L 285.73746 284.278462 
L 285.899078 263.816923 
L 286.653295 263.816923 
L 286.814913 284.278462 
L 288.969819 284.278462 
L 289.131437 304.74 
L 296.134883 304.74 
L 296.296501 284.278462 
L 303.299947 284.278462 
L 303.461565 263.816923 
L 306.963288 263.816923 
L 307.124906 243.355385 
L 308.202359 243.355385 
L 308.363977 222.893846 
L 319.030764 222.893846 
L 319.192382 202.432308 
L 322.370869 202.432308 
L 322.532487 222.893846 
L 323.987048 222.893846 
L 324.148666 202.432308 
L 327.973625 202.432308 
L 328.135243 222.893846 
L 330.50564 222.893846 
L 330.667258 243.355385 
L 333.307019 243.355385 
L 333.468637 263.816923 
L 336.916487 263.816923 
L 337.078105 284.278462 
L 337.455213 284.278462 
L 337.616831 304.74 
L 338.371049 304.74 
L 338.586539 263.816923 
L 345.374494 263.816923 
L 345.536112 243.355385 
L 351.138869 243.355385 
L 351.300487 222.893846 
L 353.455393 222.893846 
L 353.617011 202.432308 
L 353.832502 202.432308 
L 353.99412 222.893846 
L 355.394809 222.893846 
L 355.556427 243.355385 
L 355.933536 243.355385 
L 356.095154 263.816923 
L 358.142315 263.816923 
L 358.303933 243.355385 
L 359.112023 243.355385 
L 359.273641 263.816923 
L 362.398255 263.816923 
L 362.559873 284.278462 
L 363.906689 284.278462 
L 364.068307 263.816923 
L 367.192922 263.816923 
L 367.35454 243.355385 
L 369.778809 243.355385 
L 369.940427 263.816923 
L 375.112203 263.816923 
L 375.273821 284.278462 
L 376.566765 284.278462 
L 376.728383 304.74 
L 384.647664 304.74 
L 384.809282 284.278462 
L 388.580368 284.278462 
L 388.741986 263.816923 
L 391.166255 263.816923 
L 391.327873 284.278462 
L 393.590525 284.278462 
L 393.752143 304.74 
L 405.334765 304.74 
L 405.496383 284.278462 
L 405.765746 284.278462 
L 405.927364 263.816923 
L 409.159724 263.816923 
L 409.321342 284.278462 
L 421.550436 284.278462 
L 421.712054 263.816923 
L 422.681762 263.816923 
L 422.84338 243.355385 
L 423.435979 243.355385 
L 423.597597 263.816923 
L 425.267649 263.816923 
L 425.429267 243.355385 
L 435.772818 243.355385 
L 435.934436 263.816923 
L 436.796398 263.816923 
L 436.958016 284.278462 
L 441.48332 284.278462 
L 441.644938 263.816923 
L 442.453028 263.816923 
L 442.614646 243.355385 
L 445.954751 243.355385 
L 446.116369 222.893846 
L 450.80329 222.893846 
L 450.964908 202.432308 
L 457.968354 202.432308 
L 458.129972 181.970769 
L 462.332039 181.970769 
L 462.493657 202.432308 
L 463.732728 202.432308 
L 463.894346 222.893846 
L 467.072833 222.893846 
L 467.234451 243.355385 
L 486.466991 243.355385 
L 486.628609 222.893846 
L 487.275081 222.893846 
L 487.436699 202.432308 
L 490.561313 202.432308 
L 490.722931 222.893846 
L 494.386272 222.893846 
L 494.54789 243.355385 
L 495.248235 243.355385 
L 495.409853 263.816923 
L 503.113643 263.816923 
L 503.275261 243.355385 
L 506.830856 243.355385 
L 506.992474 222.893846 
L 512.37974 222.893846 
L 512.541358 243.355385 
L 512.595231 243.355385 
L 512.649104 222.893846 
L 512.702976 243.355385 
L 519.275441 243.355385 
L 519.437059 222.893846 
L 520.891621 222.893846 
L 521.053239 243.355385 
L 521.861329 243.355385 
L 522.022947 263.816923 
L 522.723291 263.816923 
L 522.884909 284.278462 
L 523.423636 284.278462 
L 523.585254 263.816923 
L 526.278887 263.816923 
L 526.440505 284.278462 
L 530.103846 284.278462 
L 530.265464 304.74 
L 530.858063 304.74 
L 531.019681 284.278462 
L 536.730183 284.278462 
L 536.891801 304.74 
L 538.669599 304.74 
L 538.885089 263.816923 
L 539.477688 263.816923 
L 539.639306 243.355385 
L 542.117449 243.355385 
L 542.279067 222.893846 
L 547.774078 222.893846 
L 547.935696 243.355385 
L 549.982857 243.355385 
L 550.144475 222.893846 
L 551.545164 222.893846 
L 551.706782 243.355385 
L 553.753943 243.355385 
L 553.915561 263.816923 
L 554.077179 243.355385 
L 557.094048 243.355385 
L 557.255666 263.816923 
L 562.696805 263.816923 
L 562.858423 243.355385 
L 563.343277 243.355385 
L 563.504895 222.893846 
L 567.86858 222.893846 
L 568.030198 202.432308 
L 569.700251 202.432308 
L 569.861869 222.893846 
L 569.915741 222.893846 
L 570.077359 202.432308 
L 575.195262 202.432308 
L 575.35688 181.970769 
L 578.750858 181.970769 
L 578.912476 202.432308 
L 583.114543 202.432308 
L 583.276161 181.970769 
L 585.323322 181.970769 
L 585.48494 202.432308 
L 590.926079 202.432308 
L 591.087697 181.970769 
L 591.734169 181.970769 
L 591.895787 202.432308 
L 597.875652 202.432308 
L 598.03727 222.893846 
L 602.993555 222.893846 
L 603.155173 202.432308 
L 603.478408 202.432308 
L 603.640026 222.893846 
L 603.963262 222.893846 
L 604.12488 243.355385 
L 607.464985 243.355385 
L 607.626603 222.893846 
L 610.266364 222.893846 
L 610.266364 222.893846 
" clip-path="url(#p661b79a0f7)" style="fill: none; stroke: #ff7f0e; stroke-opacity: 0.8; stroke-width: 1.5; stroke-linecap: square"/>
   </g>
   <g id="line2d_16">
    <path d="M 71.593636 304.74 
L 85.061801 304.74 
L 85.223419 284.278462 
L 87.324453 284.278462 
L 87.486071 304.74 
L 88.455779 304.74 
L 88.617397 284.278462 
L 89.479359 284.278462 
L 89.640977 304.74 
L 96.752169 304.74 
L 96.913787 284.278462 
L 99.176438 284.278462 
L 99.338056 304.74 
L 110.597442 304.74 
L 110.75906 284.278462 
L 112.806221 284.278462 
L 112.967839 304.74 
L 113.506566 304.74 
L 113.668184 284.278462 
L 113.829802 304.74 
L 120.132903 304.74 
L 120.294521 284.278462 
L 121.102611 284.278462 
L 121.264229 263.816923 
L 124.765952 263.816923 
L 124.92757 284.278462 
L 125.14306 284.278462 
L 125.304678 263.816923 
L 127.244094 263.816923 
L 127.405712 284.278462 
L 131.01518 284.278462 
L 131.176798 263.816923 
L 131.715525 263.816923 
L 131.877143 284.278462 
L 137.426027 284.278462 
L 137.587645 263.816923 
L 139.149952 263.816923 
L 139.257697 284.278462 
L 139.419315 263.816923 
L 141.14324 263.816923 
L 141.304858 243.355385 
L 146.907615 243.355385 
L 147.069233 263.816923 
L 148.63154 263.816923 
L 148.793158 243.355385 
L 149.008649 243.355385 
L 149.170267 222.893846 
L 152.07939 222.893846 
L 152.241008 202.432308 
L 157.73602 202.432308 
L 157.897638 181.970769 
L 159.890926 181.970769 
L 160.052544 202.432308 
L 161.076125 202.432308 
L 161.237743 181.970769 
L 162.045832 181.970769 
L 162.20745 202.432308 
L 162.584559 202.432308 
L 162.746177 181.970769 
L 163.177158 181.970769 
L 163.338776 161.509231 
L 163.985248 161.509231 
L 164.146866 141.047692 
L 166.571136 141.047692 
L 166.732754 161.509231 
L 176.914687 161.509231 
L 177.076305 181.970769 
L 177.237923 181.970769 
L 177.399541 202.432308 
L 186.557893 202.432308 
L 186.719511 222.893846 
L 186.988874 222.893846 
L 187.150492 202.432308 
L 188.227945 202.432308 
L 188.389563 222.893846 
L 201.426747 222.893846 
L 201.588365 243.355385 
L 210.207991 243.355385 
L 210.369609 222.893846 
L 222.059976 222.893846 
L 222.221594 243.355385 
L 223.56841 243.355385 
L 223.730028 263.816923 
L 228.309204 263.816923 
L 228.470822 243.355385 
L 232.026418 243.355385 
L 232.188036 222.893846 
L 232.834508 222.893846 
L 232.996126 243.355385 
L 235.258777 243.355385 
L 235.420395 222.893846 
L 237.144321 222.893846 
L 237.305939 243.355385 
L 241.130897 243.355385 
L 241.292515 263.816923 
L 247.649489 263.816923 
L 247.811107 243.355385 
L 249.265669 243.355385 
L 249.427287 222.893846 
L 252.228665 222.893846 
L 252.390283 202.432308 
L 254.275826 202.432308 
L 254.437444 222.893846 
L 263.380306 222.893846 
L 263.541924 202.432308 
L 266.989774 202.432308 
L 267.151392 222.893846 
L 275.878763 222.893846 
L 276.040381 202.432308 
L 277.602688 202.432308 
L 277.764306 181.970769 
L 278.680141 181.970769 
L 278.841759 161.509231 
L 280.134703 161.509231 
L 280.296321 141.047692 
L 281.643138 141.047692 
L 281.804756 120.586154 
L 286.114568 120.586154 
L 286.276186 141.047692 
L 290.478254 141.047692 
L 290.639872 161.509231 
L 292.902524 161.509231 
L 293.064142 181.970769 
L 293.979977 181.970769 
L 294.141595 161.509231 
L 294.680321 161.509231 
L 294.841939 141.047692 
L 301.037295 141.047692 
L 301.198913 120.586154 
L 301.95313 120.586154 
L 302.114748 100.124615 
L 303.623183 100.124615 
L 303.784801 79.663077 
L 309.656921 79.663077 
L 309.818539 59.201538 
L 309.926284 59.201538 
L 310.087902 79.663077 
L 314.50546 79.663077 
L 314.667078 100.124615 
L 315.09806 100.124615 
L 315.31355 59.201538 
L 316.391003 59.201538 
L 316.552621 79.663077 
L 320.215962 79.663077 
L 320.37758 100.124615 
L 321.508906 100.124615 
L 321.670524 120.586154 
L 323.60994 120.586154 
L 323.771558 141.047692 
L 325.764846 141.047692 
L 325.980337 181.970769 
L 327.05779 181.970769 
L 327.219408 202.432308 
L 327.273281 202.432308 
L 327.434899 181.970769 
L 331.367603 181.970769 
L 331.529221 202.432308 
L 332.175693 202.432308 
L 332.337311 222.893846 
L 333.576382 222.893846 
L 333.738 243.355385 
L 344.350914 243.355385 
L 344.512532 263.816923 
L 347.31391 263.816923 
L 347.475528 284.278462 
L 348.445236 284.278462 
L 348.606854 263.816923 
L 354.047993 263.816923 
L 354.209611 284.278462 
L 357.388098 284.278462 
L 357.549716 263.816923 
L 363.31409 263.816923 
L 363.475708 284.278462 
L 364.607034 284.278462 
L 364.768652 263.816923 
L 367.516158 263.816923 
L 367.677776 284.278462 
L 368.216502 284.278462 
L 368.37812 304.74 
L 370.748517 304.74 
L 370.910135 284.278462 
L 371.341117 284.278462 
L 371.502735 263.816923 
L 376.243529 263.816923 
L 376.405147 243.355385 
L 380.12236 243.355385 
L 380.283978 222.893846 
L 380.337851 222.893846 
L 380.499469 243.355385 
L 382.169521 243.355385 
L 382.331139 222.893846 
L 384.001192 222.893846 
L 384.16281 202.432308 
L 395.152832 202.432308 
L 395.31445 222.893846 
L 399.57039 222.893846 
L 399.732008 202.432308 
L 404.311184 202.432308 
L 404.472802 222.893846 
L 405.388638 222.893846 
L 405.604128 263.816923 
L 406.2506 263.816923 
L 406.412218 243.355385 
L 407.974525 243.355385 
L 408.136143 222.893846 
L 410.560413 222.893846 
L 410.722031 243.355385 
L 412.823065 243.355385 
L 412.984683 263.816923 
L 413.254046 263.816923 
L 413.415664 284.278462 
L 414.277627 284.278462 
L 414.439245 304.74 
L 414.977971 304.74 
L 415.139589 284.278462 
L 415.893806 284.278462 
L 416.055424 304.74 
L 418.156458 304.74 
L 418.318076 284.278462 
L 420.311365 284.278462 
L 420.472982 263.816923 
L 421.2272 263.816923 
L 421.388818 284.278462 
L 421.496563 284.278462 
L 421.658181 304.74 
L 435.988309 304.74 
L 436.149927 284.278462 
L 438.466451 284.278462 
L 438.628069 263.816923 
L 439.759395 263.816923 
L 439.921013 243.355385 
L 444.554061 243.355385 
L 444.715679 222.893846 
L 451.61138 222.893846 
L 451.772998 243.355385 
L 452.581088 243.355385 
L 452.742706 222.893846 
L 462.54753 222.893846 
L 462.709148 202.432308 
L 465.99538 202.432308 
L 466.156998 181.970769 
L 469.281612 181.970769 
L 469.44323 202.432308 
L 472.837208 202.432308 
L 472.998826 222.893846 
L 474.50726 222.893846 
L 474.668878 202.432308 
L 476.446676 202.432308 
L 476.608294 181.970769 
L 478.655455 181.970769 
L 478.817073 161.509231 
L 481.564579 161.509231 
L 481.726197 141.047692 
L 484.689193 141.047692 
L 484.850811 120.586154 
L 485.658901 120.586154 
L 485.820519 100.124615 
L 486.143755 100.124615 
L 486.305373 120.586154 
L 489.753223 120.586154 
L 489.914841 141.047692 
L 494.978871 141.047692 
L 495.140489 161.509231 
L 495.625343 161.509231 
L 495.786961 181.970769 
L 496.756669 181.970769 
L 496.918287 161.509231 
L 506.238257 161.509231 
L 506.399875 141.047692 
L 515.881463 141.047692 
L 516.043081 120.586154 
L 516.096954 120.586154 
L 516.258572 141.047692 
L 520.191276 141.047692 
L 520.352894 120.586154 
L 522.884909 120.586154 
L 523.046527 141.047692 
L 532.689733 141.047692 
L 532.851351 120.586154 
L 533.659441 120.586154 
L 533.821059 141.047692 
L 534.03655 141.047692 
L 534.198168 161.509231 
L 535.760475 161.509231 
L 535.922093 181.970769 
L 541.309359 181.970769 
L 541.470977 161.509231 
L 546.58888 161.509231 
L 546.750498 141.047692 
L 547.396969 141.047692 
L 547.558587 161.509231 
L 548.097314 161.509231 
L 548.258932 181.970769 
L 549.336385 181.970769 
L 549.498003 202.432308 
L 550.952565 202.432308 
L 551.114183 181.970769 
L 559.787681 181.970769 
L 559.949299 161.509231 
L 561.942588 161.509231 
L 562.104206 141.047692 
L 563.343277 141.047692 
L 563.504895 161.509231 
L 563.61264 161.509231 
L 563.774258 181.970769 
L 564.366857 181.970769 
L 564.528475 161.509231 
L 566.521764 161.509231 
L 566.683382 181.970769 
L 572.71712 181.970769 
L 572.878738 202.432308 
L 575.303007 202.432308 
L 575.464625 181.970769 
L 581.444491 181.970769 
L 581.606109 202.432308 
L 581.929344 202.432308 
L 582.090962 222.893846 
L 583.330034 222.893846 
L 583.491652 202.432308 
L 587.10112 202.432308 
L 587.262738 181.970769 
L 591.734169 181.970769 
L 591.895787 161.509231 
L 594.050693 161.509231 
L 594.212311 141.047692 
L 595.559127 141.047692 
L 595.720745 161.509231 
L 597.498543 161.509231 
L 597.660161 141.047692 
L 597.821779 161.509231 
L 597.983397 161.509231 
L 598.145015 141.047692 
L 601.862229 141.047692 
L 602.023847 120.586154 
L 609.242783 120.586154 
L 609.404401 141.047692 
L 610.266364 141.047692 
L 610.266364 141.047692 
" clip-path="url(#p661b79a0f7)" style="fill: none; stroke: #2ca02c; stroke-opacity: 0.8; stroke-width: 1.5; stroke-linecap: square"/>
   </g>
   <g id="patch_3">
    <path d="M 44.66 318.04 
L 44.66 25.44 
" style="fill: none; stroke: #000000; stroke-width: 0.8; stroke-linejoin: miter; stroke-linecap: square"/>
   </g>
   <g id="patch_4">
    <path d="M 637.2 318.04 
L 637.2 25.44 
" style="fill: none; stroke: #000000; stroke-width: 0.8; stroke-linejoin: miter; stroke-linecap: square"/>
   </g>
   <g id="patch_5">
    <path d="M 44.66 318.04 
L 637.2 318.04 
" style="fill: none; stroke: #000000; stroke-width: 0.8; stroke-linejoin: miter; stroke-linecap: square"/>
   </g>
   <g id="patch_6">
    <path d="M 44.66 25.44 
L 637.2 25.44 
" style="fill: none; stroke: #000000; stroke-width: 0.8; stroke-linejoin: miter; stroke-linecap: square"/>
   </g>
   <g id="text_16">
    <!-- Fig. 1.1.1: Sample random walks -->
    <g transform="translate(44.66 19.44) scale(0.12 -0.12)">
     <defs>
      <path id="DejaVuSans-46" d="M 628 4666 
L 3309 4666 
L 3309 4134 
L 1259 4134 
L 1259 2759 
L 3109 2759 
L 3109 2228 
L 1259 2228 
L 1259 0 
L 628 0 
L 628 4666 
z
" transform="scale(0.015625)"/>
      <path id="DejaVuSans-2e" d="M 684 794 
L 1344 794 
L 1344 0 
L 684 0 
L 684 794 
z
" transform="scale(0.015625)"/>
      <path id="DejaVuSans-3a" d="M 750 794 
L 1409 794 
L 1409 0 
L 750 0 
L 750 794 
z
M 750 3309 
L 1409 3309 
L 1409 2516 
L 750 2516 
L 750 3309 
z
" transform="scale(0.015625)"/>
      <path id="DejaVuSans-53" d="M 3425 4513 
L 3425 3897 
Q 3066 4069 2747 4153 
Q 2428 4238 2131 4238 
Q 1616 4238 1336 4038 
Q 1056 3838 1056 3469 
Q 1056 3159 1242 3001 
Q 1428 2844 1947 2747 
L 2328 2669 
Q 3034 2534 3370 2195 
Q 3706 1856 3706 1288 
Q 3706 609 3251 259 
Q 2797 -91 1919 -91 
Q 1588 -91 1214 -16 
Q 841 59 441 206 
L 441 856 
Q 825 641 1194 531 
Q 1563 422 1919 422 
Q 2459 422 2753 634 
Q 3047 847 3047 1241 
Q 3047 1584 2836 1778 
Q 2625 1972 2144 2069 
L 1759 2144 
Q 1053 2284 737 2584 
Q 422 2884 422 3419 
Q 422 4038 858 4394 
Q 1294 4750 2059 4750 
Q 2388 4750 2728 4690 
Q 3069 4631 3425 4513 
z
" transform="scale(0.015625)"/>
      <path id="DejaVuSans-70" d="M 1159 525 
L 1159 -1331 
L 581 -1331 
L 581 3500 
L 1159 3500 
L 1159 2969 
Q 1341 3281 1617 3432 
Q 1894 3584 2278 3584 
Q 2916 3584 3314 3078 
Q 3713 2572 3713 1747 
Q 3713 922 3314 415 
Q 2916 -91 2278 -91 
Q 1894 -91 1617 61 
Q 1341 213 1159 525 
z
M 3116 1747 
Q 3116 2381 2855 2742 
Q 2594 3103 2138 3103 
Q 1681 3103 1420 2742 
Q 1159 2381 1159 1747 
Q 1159 1113 1420 752 
Q 1681 391 2138 391 
Q 2594 391 2855 752 
Q 3116 1113 3116 1747 
z
" transform="scale(0.015625)"/>
      <path id="DejaVuSans-64" d="M 2906 2969 
L 2906 4863 
L 3481 4863 
L 3481 0 
L 2906 0 
L 2906 525 
Q 2725 213 2448 61 
Q 2172 -91 1784 -91 
Q 1150 -91 751 415 
Q 353 922 353 1747 
Q 353 2572 751 3078 
Q 1150 3584 1784 3584 
Q 2172 3584 2448 3432 
Q 2725 3281 2906 2969 
z
M 947 1747 
Q 947 1113 1208 752 
Q 1469 391 1925 391 
Q 2381 391 2643 752 
Q 2906 1113 2906 1747 
Q 2906 2381 2643 2742 
Q 2381 3103 1925 3103 
Q 1469 3103 1208 2742 
Q 947 2381 947 1747 
z
" transform="scale(0.015625)"/>
      <path id="DejaVuSans-77" d="M 269 3500 
L 844 3500 
L 1563 769 
L 2278 3500 
L 2956 3500 
L 3675 769 
L 4391 3500 
L 4966 3500 
L 4050 0 
L 3372 0 
L 2619 2869 
L 1863 0 
L 1184 0 
L 269 3500 
z
" transform="scale(0.015625)"/>
      <path id="DejaVuSans-6b" d="M 581 4863 
L 1159 4863 
L 1159 1991 
L 2875 3500 
L 3609 3500 
L 1753 1863 
L 3688 0 
L 2938 0 
L 1159 1709 
L 1159 0 
L 581 0 
L 581 4863 
z
" transform="scale(0.015625)"/>
     </defs>
     <use xlink:href="#DejaVuSans-46"/>
     <use xlink:href="#DejaVuSans-69" x="50.269531"/>
     <use xlink:href="#DejaVuSans-67" x="78.052734"/>
     <use xlink:href="#DejaVuSans-2e" x="141.529297"/>
     <use xlink:href="#DejaVuSans-20" x="173.316406"/>
     <use xlink:href="#DejaVuSans-31" x="205.103516"/>
     <use xlink:href="#DejaVuSans-2e" x="268.726562"/>
     <use xlink:href="#DejaVuSans-31" x="300.513672"/>
     <use xlink:href="#DejaVuSans-2e" x="364.136719"/>
     <use xlink:href="#DejaVuSans-31" x="395.923828"/>
     <use xlink:href="#DejaVuSans-3a" x="459.546875"/>
     <use xlink:href="#DejaVuSans-20" x="493.238281"/>
     <use xlink:href="#DejaVuSans-53" x="525.025391"/>
     <use xlink:href="#DejaVuSans-61" x="588.501953"/>
     <use xlink:href="#DejaVuSans-6d" x="649.78125"/>
     <use xlink:href="#DejaVuSans-70" x="747.193359"/>
     <use xlink:href="#DejaVuSans-6c" x="810.669922"/>
     <use xlink:href="#DejaVuSans-65" x="838.453125"/>
     <use xlink:href="#DejaVuSans-20" x="899.976562"/>
     <use xlink:href="#DejaVuSans-72" x="931.763672"/>
     <use xlink:href="#DejaVuSans-61" x="972.876953"/>
     <use xlink:href="#DejaVuSans-6e" x="1034.15625"/>
     <use xlink:href="#DejaVuSans-64" x="1097.535156"/>
     <use xlink:href="#DejaVuSans-6f" x="1161.011719"/>
     <use xlink:href="#DejaVuSans-6d" x="1222.193359"/>
     <use xlink:href="#DejaVuSans-20" x="1319.605469"/>
     <use xlink:href="#DejaVuSans-77" x="1351.392578"/>
     <use xlink:href="#DejaVuSans-61" x="1433.179688"/>
     <use xlink:href="#DejaVuSans-6c" x="1494.458984"/>
     <use xlink:href="#DejaVuSans-6b" x="1522.242188"/>
     <use xlink:href="#DejaVuSans-73" x="1580.152344"/>
    </g>
   </g>
  </g>
 </g>
 <defs>
  <clipPath id="p661b79a0f7">
   <rect x="44.66" y="25.44" width="592.54" height="292.6"/>
  </clipPath>
 </defs>
</svg>
