<?xml version="1.0" encoding="utf-8" standalone="no"?>
<!DOCTYPE svg PUBLIC "-//W3C//DTD SVG 1.1//EN"
  "http://www.w3.org/Graphics/SVG/1.1/DTD/svg11.dtd">
<svg xmlns:xlink="http://www.w3.org/1999/xlink" width="720pt" height="288pt" viewBox="0 0 720 288" xmlns="http://www.w3.org/2000/svg" version="1.1">
 <metadata>
  <rdf:RDF xmlns:dc="http://purl.org/dc/elements/1.1/" xmlns:cc="http://creativecommons.org/ns#" xmlns:rdf="http://www.w3.org/1999/02/22-rdf-syntax-ns#">
   <cc:Work>
    <dc:type rdf:resource="http://purl.org/dc/dcmitype/StillImage"/>
    <dc:date>2025-07-23T19:15:49.864759</dc:date>
    <dc:format>image/svg+xml</dc:format>
    <dc:creator>
     <cc:Agent>
      <dc:title>Matplotlib v3.9.2, https://matplotlib.org/</dc:title>
     </cc:Agent>
    </dc:creator>
   </cc:Work>
  </rdf:RDF>
 </metadata>
 <defs>
  <style type="text/css">*{stroke-linejoin: round; stroke-linecap: butt}</style>
 </defs>
 <g id="figure_1">
  <g id="patch_1">
   <path d="M 0 288 
L 720 288 
L 720 0 
L 0 0 
z
" style="fill: #ffffff"/>
  </g>
  <g id="axes_1">
   <g id="patch_2">
    <path d="M 54.2 246.04 
L 349.613182 246.04 
L 349.613182 31.44 
L 54.2 31.44 
z
" style="fill: #ffffff"/>
   </g>
   <g id="matplotlib.axis_1">
    <g id="xtick_1">
     <g id="line2d_1">
      <defs>
       <path id="m3439ba689d" d="M 0 0 
L 0 3.5 
" style="stroke: #000000; stroke-width: 0.8"/>
      </defs>
      <g>
       <use xlink:href="#m3439ba689d" x="67.627872" y="246.04" style="stroke: #000000; stroke-width: 0.8"/>
      </g>
     </g>
     <g id="text_1">
      <!-- 0 -->
      <g transform="translate(64.446622 260.638438) scale(0.1 -0.1)">
       <defs>
        <path id="DejaVuSans-30" d="M 2034 4250 
Q 1547 4250 1301 3770 
Q 1056 3291 1056 2328 
Q 1056 1369 1301 889 
Q 1547 409 2034 409 
Q 2525 409 2770 889 
Q 3016 1369 3016 2328 
Q 3016 3291 2770 3770 
Q 2525 4250 2034 4250 
z
M 2034 4750 
Q 2819 4750 3233 4129 
Q 3647 3509 3647 2328 
Q 3647 1150 3233 529 
Q 2819 -91 2034 -91 
Q 1250 -91 836 529 
Q 422 1150 422 2328 
Q 422 3509 836 4129 
Q 1250 4750 2034 4750 
z
" transform="scale(0.015625)"/>
       </defs>
       <use xlink:href="#DejaVuSans-30"/>
      </g>
     </g>
    </g>
    <g id="xtick_2">
     <g id="line2d_2">
      <g>
       <use xlink:href="#m3439ba689d" x="127.307303" y="246.04" style="stroke: #000000; stroke-width: 0.8"/>
      </g>
     </g>
     <g id="text_2">
      <!-- 2 -->
      <g transform="translate(124.126053 260.638438) scale(0.1 -0.1)">
       <defs>
        <path id="DejaVuSans-32" d="M 1228 531 
L 3431 531 
L 3431 0 
L 469 0 
L 469 531 
Q 828 903 1448 1529 
Q 2069 2156 2228 2338 
Q 2531 2678 2651 2914 
Q 2772 3150 2772 3378 
Q 2772 3750 2511 3984 
Q 2250 4219 1831 4219 
Q 1534 4219 1204 4116 
Q 875 4013 500 3803 
L 500 4441 
Q 881 4594 1212 4672 
Q 1544 4750 1819 4750 
Q 2544 4750 2975 4387 
Q 3406 4025 3406 3419 
Q 3406 3131 3298 2873 
Q 3191 2616 2906 2266 
Q 2828 2175 2409 1742 
Q 1991 1309 1228 531 
z
" transform="scale(0.015625)"/>
       </defs>
       <use xlink:href="#DejaVuSans-32"/>
      </g>
     </g>
    </g>
    <g id="xtick_3">
     <g id="line2d_3">
      <g>
       <use xlink:href="#m3439ba689d" x="186.986733" y="246.04" style="stroke: #000000; stroke-width: 0.8"/>
      </g>
     </g>
     <g id="text_3">
      <!-- 4 -->
      <g transform="translate(183.805483 260.638438) scale(0.1 -0.1)">
       <defs>
        <path id="DejaVuSans-34" d="M 2419 4116 
L 825 1625 
L 2419 1625 
L 2419 4116 
z
M 2253 4666 
L 3047 4666 
L 3047 1625 
L 3713 1625 
L 3713 1100 
L 3047 1100 
L 3047 0 
L 2419 0 
L 2419 1100 
L 313 1100 
L 313 1709 
L 2253 4666 
z
" transform="scale(0.015625)"/>
       </defs>
       <use xlink:href="#DejaVuSans-34"/>
      </g>
     </g>
    </g>
    <g id="xtick_4">
     <g id="line2d_4">
      <g>
       <use xlink:href="#m3439ba689d" x="246.666164" y="246.04" style="stroke: #000000; stroke-width: 0.8"/>
      </g>
     </g>
     <g id="text_4">
      <!-- 6 -->
      <g transform="translate(243.484914 260.638438) scale(0.1 -0.1)">
       <defs>
        <path id="DejaVuSans-36" d="M 2113 2584 
Q 1688 2584 1439 2293 
Q 1191 2003 1191 1497 
Q 1191 994 1439 701 
Q 1688 409 2113 409 
Q 2538 409 2786 701 
Q 3034 994 3034 1497 
Q 3034 2003 2786 2293 
Q 2538 2584 2113 2584 
z
M 3366 4563 
L 3366 3988 
Q 3128 4100 2886 4159 
Q 2644 4219 2406 4219 
Q 1781 4219 1451 3797 
Q 1122 3375 1075 2522 
Q 1259 2794 1537 2939 
Q 1816 3084 2150 3084 
Q 2853 3084 3261 2657 
Q 3669 2231 3669 1497 
Q 3669 778 3244 343 
Q 2819 -91 2113 -91 
Q 1303 -91 875 529 
Q 447 1150 447 2328 
Q 447 3434 972 4092 
Q 1497 4750 2381 4750 
Q 2619 4750 2861 4703 
Q 3103 4656 3366 4563 
z
" transform="scale(0.015625)"/>
       </defs>
       <use xlink:href="#DejaVuSans-36"/>
      </g>
     </g>
    </g>
    <g id="xtick_5">
     <g id="line2d_5">
      <g>
       <use xlink:href="#m3439ba689d" x="306.345595" y="246.04" style="stroke: #000000; stroke-width: 0.8"/>
      </g>
     </g>
     <g id="text_5">
      <!-- 8 -->
      <g transform="translate(303.164345 260.638438) scale(0.1 -0.1)">
       <defs>
        <path id="DejaVuSans-38" d="M 2034 2216 
Q 1584 2216 1326 1975 
Q 1069 1734 1069 1313 
Q 1069 891 1326 650 
Q 1584 409 2034 409 
Q 2484 409 2743 651 
Q 3003 894 3003 1313 
Q 3003 1734 2745 1975 
Q 2488 2216 2034 2216 
z
M 1403 2484 
Q 997 2584 770 2862 
Q 544 3141 544 3541 
Q 544 4100 942 4425 
Q 1341 4750 2034 4750 
Q 2731 4750 3128 4425 
Q 3525 4100 3525 3541 
Q 3525 3141 3298 2862 
Q 3072 2584 2669 2484 
Q 3125 2378 3379 2068 
Q 3634 1759 3634 1313 
Q 3634 634 3220 271 
Q 2806 -91 2034 -91 
Q 1263 -91 848 271 
Q 434 634 434 1313 
Q 434 1759 690 2068 
Q 947 2378 1403 2484 
z
M 1172 3481 
Q 1172 3119 1398 2916 
Q 1625 2713 2034 2713 
Q 2441 2713 2670 2916 
Q 2900 3119 2900 3481 
Q 2900 3844 2670 4047 
Q 2441 4250 2034 4250 
Q 1625 4250 1398 4047 
Q 1172 3844 1172 3481 
z
" transform="scale(0.015625)"/>
       </defs>
       <use xlink:href="#DejaVuSans-38"/>
      </g>
     </g>
    </g>
    <g id="text_6">
     <!-- Station number -->
     <g transform="translate(163.027685 274.316562) scale(0.1 -0.1)">
      <defs>
       <path id="DejaVuSans-53" d="M 3425 4513 
L 3425 3897 
Q 3066 4069 2747 4153 
Q 2428 4238 2131 4238 
Q 1616 4238 1336 4038 
Q 1056 3838 1056 3469 
Q 1056 3159 1242 3001 
Q 1428 2844 1947 2747 
L 2328 2669 
Q 3034 2534 3370 2195 
Q 3706 1856 3706 1288 
Q 3706 609 3251 259 
Q 2797 -91 1919 -91 
Q 1588 -91 1214 -16 
Q 841 59 441 206 
L 441 856 
Q 825 641 1194 531 
Q 1563 422 1919 422 
Q 2459 422 2753 634 
Q 3047 847 3047 1241 
Q 3047 1584 2836 1778 
Q 2625 1972 2144 2069 
L 1759 2144 
Q 1053 2284 737 2584 
Q 422 2884 422 3419 
Q 422 4038 858 4394 
Q 1294 4750 2059 4750 
Q 2388 4750 2728 4690 
Q 3069 4631 3425 4513 
z
" transform="scale(0.015625)"/>
       <path id="DejaVuSans-74" d="M 1172 4494 
L 1172 3500 
L 2356 3500 
L 2356 3053 
L 1172 3053 
L 1172 1153 
Q 1172 725 1289 603 
Q 1406 481 1766 481 
L 2356 481 
L 2356 0 
L 1766 0 
Q 1100 0 847 248 
Q 594 497 594 1153 
L 594 3053 
L 172 3053 
L 172 3500 
L 594 3500 
L 594 4494 
L 1172 4494 
z
" transform="scale(0.015625)"/>
       <path id="DejaVuSans-61" d="M 2194 1759 
Q 1497 1759 1228 1600 
Q 959 1441 959 1056 
Q 959 750 1161 570 
Q 1363 391 1709 391 
Q 2188 391 2477 730 
Q 2766 1069 2766 1631 
L 2766 1759 
L 2194 1759 
z
M 3341 1997 
L 3341 0 
L 2766 0 
L 2766 531 
Q 2569 213 2275 61 
Q 1981 -91 1556 -91 
Q 1019 -91 701 211 
Q 384 513 384 1019 
Q 384 1609 779 1909 
Q 1175 2209 1959 2209 
L 2766 2209 
L 2766 2266 
Q 2766 2663 2505 2880 
Q 2244 3097 1772 3097 
Q 1472 3097 1187 3025 
Q 903 2953 641 2809 
L 641 3341 
Q 956 3463 1253 3523 
Q 1550 3584 1831 3584 
Q 2591 3584 2966 3190 
Q 3341 2797 3341 1997 
z
" transform="scale(0.015625)"/>
       <path id="DejaVuSans-69" d="M 603 3500 
L 1178 3500 
L 1178 0 
L 603 0 
L 603 3500 
z
M 603 4863 
L 1178 4863 
L 1178 4134 
L 603 4134 
L 603 4863 
z
" transform="scale(0.015625)"/>
       <path id="DejaVuSans-6f" d="M 1959 3097 
Q 1497 3097 1228 2736 
Q 959 2375 959 1747 
Q 959 1119 1226 758 
Q 1494 397 1959 397 
Q 2419 397 2687 759 
Q 2956 1122 2956 1747 
Q 2956 2369 2687 2733 
Q 2419 3097 1959 3097 
z
M 1959 3584 
Q 2709 3584 3137 3096 
Q 3566 2609 3566 1747 
Q 3566 888 3137 398 
Q 2709 -91 1959 -91 
Q 1206 -91 779 398 
Q 353 888 353 1747 
Q 353 2609 779 3096 
Q 1206 3584 1959 3584 
z
" transform="scale(0.015625)"/>
       <path id="DejaVuSans-6e" d="M 3513 2113 
L 3513 0 
L 2938 0 
L 2938 2094 
Q 2938 2591 2744 2837 
Q 2550 3084 2163 3084 
Q 1697 3084 1428 2787 
Q 1159 2491 1159 1978 
L 1159 0 
L 581 0 
L 581 3500 
L 1159 3500 
L 1159 2956 
Q 1366 3272 1645 3428 
Q 1925 3584 2291 3584 
Q 2894 3584 3203 3211 
Q 3513 2838 3513 2113 
z
" transform="scale(0.015625)"/>
       <path id="DejaVuSans-20" transform="scale(0.015625)"/>
       <path id="DejaVuSans-75" d="M 544 1381 
L 544 3500 
L 1119 3500 
L 1119 1403 
Q 1119 906 1312 657 
Q 1506 409 1894 409 
Q 2359 409 2629 706 
Q 2900 1003 2900 1516 
L 2900 3500 
L 3475 3500 
L 3475 0 
L 2900 0 
L 2900 538 
Q 2691 219 2414 64 
Q 2138 -91 1772 -91 
Q 1169 -91 856 284 
Q 544 659 544 1381 
z
M 1991 3584 
L 1991 3584 
z
" transform="scale(0.015625)"/>
       <path id="DejaVuSans-6d" d="M 3328 2828 
Q 3544 3216 3844 3400 
Q 4144 3584 4550 3584 
Q 5097 3584 5394 3201 
Q 5691 2819 5691 2113 
L 5691 0 
L 5113 0 
L 5113 2094 
Q 5113 2597 4934 2840 
Q 4756 3084 4391 3084 
Q 3944 3084 3684 2787 
Q 3425 2491 3425 1978 
L 3425 0 
L 2847 0 
L 2847 2094 
Q 2847 2600 2669 2842 
Q 2491 3084 2119 3084 
Q 1678 3084 1418 2786 
Q 1159 2488 1159 1978 
L 1159 0 
L 581 0 
L 581 3500 
L 1159 3500 
L 1159 2956 
Q 1356 3278 1631 3431 
Q 1906 3584 2284 3584 
Q 2666 3584 2933 3390 
Q 3200 3197 3328 2828 
z
" transform="scale(0.015625)"/>
       <path id="DejaVuSans-62" d="M 3116 1747 
Q 3116 2381 2855 2742 
Q 2594 3103 2138 3103 
Q 1681 3103 1420 2742 
Q 1159 2381 1159 1747 
Q 1159 1113 1420 752 
Q 1681 391 2138 391 
Q 2594 391 2855 752 
Q 3116 1113 3116 1747 
z
M 1159 2969 
Q 1341 3281 1617 3432 
Q 1894 3584 2278 3584 
Q 2916 3584 3314 3078 
Q 3713 2572 3713 1747 
Q 3713 922 3314 415 
Q 2916 -91 2278 -91 
Q 1894 -91 1617 61 
Q 1341 213 1159 525 
L 1159 0 
L 581 0 
L 581 4863 
L 1159 4863 
L 1159 2969 
z
" transform="scale(0.015625)"/>
       <path id="DejaVuSans-65" d="M 3597 1894 
L 3597 1613 
L 953 1613 
Q 991 1019 1311 708 
Q 1631 397 2203 397 
Q 2534 397 2845 478 
Q 3156 559 3463 722 
L 3463 178 
Q 3153 47 2828 -22 
Q 2503 -91 2169 -91 
Q 1331 -91 842 396 
Q 353 884 353 1716 
Q 353 2575 817 3079 
Q 1281 3584 2069 3584 
Q 2775 3584 3186 3129 
Q 3597 2675 3597 1894 
z
M 3022 2063 
Q 3016 2534 2758 2815 
Q 2500 3097 2075 3097 
Q 1594 3097 1305 2825 
Q 1016 2553 972 2059 
L 3022 2063 
z
" transform="scale(0.015625)"/>
       <path id="DejaVuSans-72" d="M 2631 2963 
Q 2534 3019 2420 3045 
Q 2306 3072 2169 3072 
Q 1681 3072 1420 2755 
Q 1159 2438 1159 1844 
L 1159 0 
L 581 0 
L 581 3500 
L 1159 3500 
L 1159 2956 
Q 1341 3275 1631 3429 
Q 1922 3584 2338 3584 
Q 2397 3584 2469 3576 
Q 2541 3569 2628 3553 
L 2631 2963 
z
" transform="scale(0.015625)"/>
      </defs>
      <use xlink:href="#DejaVuSans-53"/>
      <use xlink:href="#DejaVuSans-74" x="63.476562"/>
      <use xlink:href="#DejaVuSans-61" x="102.685547"/>
      <use xlink:href="#DejaVuSans-74" x="163.964844"/>
      <use xlink:href="#DejaVuSans-69" x="203.173828"/>
      <use xlink:href="#DejaVuSans-6f" x="230.957031"/>
      <use xlink:href="#DejaVuSans-6e" x="292.138672"/>
      <use xlink:href="#DejaVuSans-20" x="355.517578"/>
      <use xlink:href="#DejaVuSans-6e" x="387.304688"/>
      <use xlink:href="#DejaVuSans-75" x="450.683594"/>
      <use xlink:href="#DejaVuSans-6d" x="514.0625"/>
      <use xlink:href="#DejaVuSans-62" x="611.474609"/>
      <use xlink:href="#DejaVuSans-65" x="674.951172"/>
      <use xlink:href="#DejaVuSans-72" x="736.474609"/>
     </g>
    </g>
   </g>
   <g id="matplotlib.axis_2">
    <g id="ytick_1">
     <g id="line2d_6">
      <defs>
       <path id="mdbd0231dde" d="M 0 0 
L -3.5 0 
" style="stroke: #000000; stroke-width: 0.8"/>
      </defs>
      <g>
       <use xlink:href="#mdbd0231dde" x="54.2" y="237.109445" style="stroke: #000000; stroke-width: 0.8"/>
      </g>
     </g>
     <g id="text_7">
      <!-- 0.00 -->
      <g transform="translate(24.934375 240.908664) scale(0.1 -0.1)">
       <defs>
        <path id="DejaVuSans-2e" d="M 684 794 
L 1344 794 
L 1344 0 
L 684 0 
L 684 794 
z
" transform="scale(0.015625)"/>
       </defs>
       <use xlink:href="#DejaVuSans-30"/>
       <use xlink:href="#DejaVuSans-2e" x="63.623047"/>
       <use xlink:href="#DejaVuSans-30" x="95.410156"/>
       <use xlink:href="#DejaVuSans-30" x="159.033203"/>
      </g>
     </g>
    </g>
    <g id="ytick_2">
     <g id="line2d_7">
      <g>
       <use xlink:href="#mdbd0231dde" x="54.2" y="195.909905" style="stroke: #000000; stroke-width: 0.8"/>
      </g>
     </g>
     <g id="text_8">
      <!-- 0.05 -->
      <g transform="translate(24.934375 199.709124) scale(0.1 -0.1)">
       <defs>
        <path id="DejaVuSans-35" d="M 691 4666 
L 3169 4666 
L 3169 4134 
L 1269 4134 
L 1269 2991 
Q 1406 3038 1543 3061 
Q 1681 3084 1819 3084 
Q 2600 3084 3056 2656 
Q 3513 2228 3513 1497 
Q 3513 744 3044 326 
Q 2575 -91 1722 -91 
Q 1428 -91 1123 -41 
Q 819 9 494 109 
L 494 744 
Q 775 591 1075 516 
Q 1375 441 1709 441 
Q 2250 441 2565 725 
Q 2881 1009 2881 1497 
Q 2881 1984 2565 2268 
Q 2250 2553 1709 2553 
Q 1456 2553 1204 2497 
Q 953 2441 691 2322 
L 691 4666 
z
" transform="scale(0.015625)"/>
       </defs>
       <use xlink:href="#DejaVuSans-30"/>
       <use xlink:href="#DejaVuSans-2e" x="63.623047"/>
       <use xlink:href="#DejaVuSans-30" x="95.410156"/>
       <use xlink:href="#DejaVuSans-35" x="159.033203"/>
      </g>
     </g>
    </g>
    <g id="ytick_3">
     <g id="line2d_8">
      <g>
       <use xlink:href="#mdbd0231dde" x="54.2" y="154.710364" style="stroke: #000000; stroke-width: 0.8"/>
      </g>
     </g>
     <g id="text_9">
      <!-- 0.10 -->
      <g transform="translate(24.934375 158.509583) scale(0.1 -0.1)">
       <defs>
        <path id="DejaVuSans-31" d="M 794 531 
L 1825 531 
L 1825 4091 
L 703 3866 
L 703 4441 
L 1819 4666 
L 2450 4666 
L 2450 531 
L 3481 531 
L 3481 0 
L 794 0 
L 794 531 
z
" transform="scale(0.015625)"/>
       </defs>
       <use xlink:href="#DejaVuSans-30"/>
       <use xlink:href="#DejaVuSans-2e" x="63.623047"/>
       <use xlink:href="#DejaVuSans-31" x="95.410156"/>
       <use xlink:href="#DejaVuSans-30" x="159.033203"/>
      </g>
     </g>
    </g>
    <g id="ytick_4">
     <g id="line2d_9">
      <g>
       <use xlink:href="#mdbd0231dde" x="54.2" y="113.510824" style="stroke: #000000; stroke-width: 0.8"/>
      </g>
     </g>
     <g id="text_10">
      <!-- 0.15 -->
      <g transform="translate(24.934375 117.310043) scale(0.1 -0.1)">
       <use xlink:href="#DejaVuSans-30"/>
       <use xlink:href="#DejaVuSans-2e" x="63.623047"/>
       <use xlink:href="#DejaVuSans-31" x="95.410156"/>
       <use xlink:href="#DejaVuSans-35" x="159.033203"/>
      </g>
     </g>
    </g>
    <g id="ytick_5">
     <g id="line2d_10">
      <g>
       <use xlink:href="#mdbd0231dde" x="54.2" y="72.311283" style="stroke: #000000; stroke-width: 0.8"/>
      </g>
     </g>
     <g id="text_11">
      <!-- 0.20 -->
      <g transform="translate(24.934375 76.110502) scale(0.1 -0.1)">
       <use xlink:href="#DejaVuSans-30"/>
       <use xlink:href="#DejaVuSans-2e" x="63.623047"/>
       <use xlink:href="#DejaVuSans-32" x="95.410156"/>
       <use xlink:href="#DejaVuSans-30" x="159.033203"/>
      </g>
     </g>
    </g>
    <g id="text_12">
     <!-- Relative demand -->
     <g transform="translate(18.854688 181.02125) rotate(-90) scale(0.1 -0.1)">
      <defs>
       <path id="DejaVuSans-52" d="M 2841 2188 
Q 3044 2119 3236 1894 
Q 3428 1669 3622 1275 
L 4263 0 
L 3584 0 
L 2988 1197 
Q 2756 1666 2539 1819 
Q 2322 1972 1947 1972 
L 1259 1972 
L 1259 0 
L 628 0 
L 628 4666 
L 2053 4666 
Q 2853 4666 3247 4331 
Q 3641 3997 3641 3322 
Q 3641 2881 3436 2590 
Q 3231 2300 2841 2188 
z
M 1259 4147 
L 1259 2491 
L 2053 2491 
Q 2509 2491 2742 2702 
Q 2975 2913 2975 3322 
Q 2975 3731 2742 3939 
Q 2509 4147 2053 4147 
L 1259 4147 
z
" transform="scale(0.015625)"/>
       <path id="DejaVuSans-6c" d="M 603 4863 
L 1178 4863 
L 1178 0 
L 603 0 
L 603 4863 
z
" transform="scale(0.015625)"/>
       <path id="DejaVuSans-76" d="M 191 3500 
L 800 3500 
L 1894 563 
L 2988 3500 
L 3597 3500 
L 2284 0 
L 1503 0 
L 191 3500 
z
" transform="scale(0.015625)"/>
       <path id="DejaVuSans-64" d="M 2906 2969 
L 2906 4863 
L 3481 4863 
L 3481 0 
L 2906 0 
L 2906 525 
Q 2725 213 2448 61 
Q 2172 -91 1784 -91 
Q 1150 -91 751 415 
Q 353 922 353 1747 
Q 353 2572 751 3078 
Q 1150 3584 1784 3584 
Q 2172 3584 2448 3432 
Q 2725 3281 2906 2969 
z
M 947 1747 
Q 947 1113 1208 752 
Q 1469 391 1925 391 
Q 2381 391 2643 752 
Q 2906 1113 2906 1747 
Q 2906 2381 2643 2742 
Q 2381 3103 1925 3103 
Q 1469 3103 1208 2742 
Q 947 2381 947 1747 
z
" transform="scale(0.015625)"/>
      </defs>
      <use xlink:href="#DejaVuSans-52"/>
      <use xlink:href="#DejaVuSans-65" x="64.982422"/>
      <use xlink:href="#DejaVuSans-6c" x="126.505859"/>
      <use xlink:href="#DejaVuSans-61" x="154.289062"/>
      <use xlink:href="#DejaVuSans-74" x="215.568359"/>
      <use xlink:href="#DejaVuSans-69" x="254.777344"/>
      <use xlink:href="#DejaVuSans-76" x="282.560547"/>
      <use xlink:href="#DejaVuSans-65" x="341.740234"/>
      <use xlink:href="#DejaVuSans-20" x="403.263672"/>
      <use xlink:href="#DejaVuSans-64" x="435.050781"/>
      <use xlink:href="#DejaVuSans-65" x="498.527344"/>
      <use xlink:href="#DejaVuSans-6d" x="560.050781"/>
      <use xlink:href="#DejaVuSans-61" x="657.462891"/>
      <use xlink:href="#DejaVuSans-6e" x="718.742188"/>
      <use xlink:href="#DejaVuSans-64" x="782.121094"/>
     </g>
    </g>
   </g>
   <g id="line2d_11">
    <path d="M 67.627872 72.311283 
L 97.467587 88.791099 
L 127.307303 105.270916 
L 157.147018 121.750732 
L 186.986733 138.230548 
L 216.826449 154.710364 
L 246.666164 171.190181 
L 276.505879 187.669997 
L 306.345595 204.149813 
L 336.18531 220.629629 
" clip-path="url(#pf3a41e879a)" style="fill: none; stroke: #1f77b4; stroke-opacity: 0.1; stroke-width: 1.5; stroke-linecap: square"/>
   </g>
   <g id="line2d_12">
    <path d="M 67.627872 72.311283 
L 97.467587 88.791099 
L 127.307303 105.270916 
L 157.147018 121.750732 
L 186.986733 138.230548 
L 216.826449 154.710364 
L 246.666164 171.190181 
L 276.505879 187.669997 
L 306.345595 204.149813 
L 336.18531 220.629629 
" clip-path="url(#pf3a41e879a)" style="fill: none; stroke: #1f77b4; stroke-opacity: 0.1; stroke-width: 1.5; stroke-linecap: square"/>
   </g>
   <g id="line2d_13">
    <path d="M 67.627872 75.357999 
L 97.467587 91.945322 
L 127.307303 102.65755 
L 157.147018 121.811701 
L 186.986733 130.88055 
L 216.826449 152.143055 
L 246.666164 173.716291 
L 276.505879 192.337195 
L 306.345595 200.966549 
L 336.18531 219.445211 
" clip-path="url(#pf3a41e879a)" style="fill: none; stroke: #1f77b4; stroke-opacity: 0.1; stroke-width: 1.5; stroke-linecap: square"/>
   </g>
   <g id="line2d_14">
    <path d="M 67.627872 69.77123 
L 97.467587 93.915767 
L 127.307303 102.900061 
L 157.147018 122.088863 
L 186.986733 132.869326 
L 216.826449 147.345199 
L 246.666164 177.079105 
L 276.505879 194.257671 
L 306.345595 206.713908 
L 336.18531 222.418862 
" clip-path="url(#pf3a41e879a)" style="fill: none; stroke: #1f77b4; stroke-opacity: 0.1; stroke-width: 1.5; stroke-linecap: square"/>
   </g>
   <g id="line2d_15">
    <path d="M 67.627872 70.657378 
L 97.467587 91.008161 
L 127.307303 98.768772 
L 157.147018 119.423114 
L 186.986733 139.346173 
L 216.826449 148.999975 
L 246.666164 181.851848 
L 276.505879 194.34421 
L 306.345595 207.292961 
L 336.18531 222.089082 
" clip-path="url(#pf3a41e879a)" style="fill: none; stroke: #1f77b4; stroke-opacity: 0.1; stroke-width: 1.5; stroke-linecap: square"/>
   </g>
   <g id="line2d_16">
    <path d="M 67.627872 74.6776 
L 97.467587 93.695913 
L 127.307303 101.677766 
L 157.147018 120.748657 
L 186.986733 138.334729 
L 216.826449 150.362538 
L 246.666164 180.57378 
L 276.505879 195.566677 
L 306.345595 214.044525 
L 336.18531 230.33884 
" clip-path="url(#pf3a41e879a)" style="fill: none; stroke: #1f77b4; stroke-opacity: 0.1; stroke-width: 1.5; stroke-linecap: square"/>
   </g>
   <g id="line2d_17">
    <path d="M 67.627872 79.243381 
L 97.467587 93.404563 
L 127.307303 100.284533 
L 157.147018 118.221743 
L 186.986733 135.721697 
L 216.826449 145.112691 
L 246.666164 187.287726 
L 276.505879 200.959412 
L 306.345595 211.554049 
L 336.18531 232.267479 
" clip-path="url(#pf3a41e879a)" style="fill: none; stroke: #1f77b4; stroke-opacity: 0.1; stroke-width: 1.5; stroke-linecap: square"/>
   </g>
   <g id="line2d_18">
    <path d="M 67.627872 74.495287 
L 97.467587 90.316191 
L 127.307303 99.723166 
L 157.147018 116.303321 
L 186.986733 138.878589 
L 216.826449 148.184417 
L 246.666164 187.328 
L 276.505879 203.849481 
L 306.345595 214.978198 
L 336.18531 236.285455 
" clip-path="url(#pf3a41e879a)" style="fill: none; stroke: #1f77b4; stroke-opacity: 0.1; stroke-width: 1.5; stroke-linecap: square"/>
   </g>
   <g id="line2d_19">
    <path d="M 67.627872 76.036494 
L 97.467587 96.054147 
L 127.307303 105.609884 
L 157.147018 114.038143 
L 186.986733 140.560687 
L 216.826449 146.26377 
L 246.666164 181.315052 
L 276.505879 204.131907 
L 306.345595 217.127471 
L 336.18531 236.285455 
" clip-path="url(#pf3a41e879a)" style="fill: none; stroke: #1f77b4; stroke-opacity: 0.1; stroke-width: 1.5; stroke-linecap: square"/>
   </g>
   <g id="line2d_20">
    <path d="M 67.627872 71.890732 
L 97.467587 91.658258 
L 127.307303 105.75491 
L 157.147018 116.663019 
L 186.986733 139.056224 
L 216.826449 144.331721 
L 246.666164 179.149968 
L 276.505879 201.810174 
L 306.345595 210.857291 
L 336.18531 233.463999 
" clip-path="url(#pf3a41e879a)" style="fill: none; stroke: #1f77b4; stroke-opacity: 0.1; stroke-width: 1.5; stroke-linecap: square"/>
   </g>
   <g id="line2d_21">
    <path d="M 67.627872 66.121054 
L 97.467587 89.024701 
L 127.307303 103.318175 
L 157.147018 118.651718 
L 186.986733 136.871776 
L 216.826449 139.69017 
L 246.666164 184.110801 
L 276.505879 201.47541 
L 306.345595 207.685873 
L 336.18531 236.285455 
" clip-path="url(#pf3a41e879a)" style="fill: none; stroke: #1f77b4; stroke-opacity: 0.1; stroke-width: 1.5; stroke-linecap: square"/>
   </g>
   <g id="line2d_22">
    <path d="M 67.627872 64.838272 
L 97.467587 92.78198 
L 127.307303 103.707796 
L 157.147018 120.50683 
L 186.986733 136.893063 
L 216.826449 138.069082 
L 246.666164 192.290886 
L 276.505879 203.202662 
L 306.345595 211.125037 
L 336.18531 236.285455 
" clip-path="url(#pf3a41e879a)" style="fill: none; stroke: #1f77b4; stroke-opacity: 0.1; stroke-width: 1.5; stroke-linecap: square"/>
   </g>
   <g id="line2d_23">
    <path d="M 67.627872 57.752158 
L 97.467587 94.401526 
L 127.307303 105.256221 
L 157.147018 122.348503 
L 186.986733 138.525705 
L 216.826449 140.509354 
L 246.666164 187.934735 
L 276.505879 204.141686 
L 306.345595 212.755599 
L 336.18531 236.285455 
" clip-path="url(#pf3a41e879a)" style="fill: none; stroke: #1f77b4; stroke-opacity: 0.1; stroke-width: 1.5; stroke-linecap: square"/>
   </g>
   <g id="line2d_24">
    <path d="M 67.627872 57.069257 
L 97.467587 92.337926 
L 127.307303 110.212573 
L 157.147018 125.778995 
L 186.986733 138.564183 
L 216.826449 139.586022 
L 246.666164 194.113232 
L 276.505879 209.996678 
L 306.345595 216.93363 
L 336.18531 233.36072 
" clip-path="url(#pf3a41e879a)" style="fill: none; stroke: #1f77b4; stroke-opacity: 0.1; stroke-width: 1.5; stroke-linecap: square"/>
   </g>
   <g id="line2d_25">
    <path d="M 67.627872 61.178257 
L 97.467587 91.049037 
L 127.307303 110.883964 
L 157.147018 127.930265 
L 186.986733 139.245443 
L 216.826449 144.744164 
L 246.666164 200.806416 
L 276.505879 210.811629 
L 306.345595 219.634316 
L 336.18531 233.281026 
" clip-path="url(#pf3a41e879a)" style="fill: none; stroke: #1f77b4; stroke-opacity: 0.1; stroke-width: 1.5; stroke-linecap: square"/>
   </g>
   <g id="line2d_26">
    <path d="M 67.627872 64.123648 
L 97.467587 84.252256 
L 127.307303 106.813162 
L 157.147018 123.948876 
L 186.986733 132.136249 
L 216.826449 134.822506 
L 246.666164 199.847844 
L 276.505879 214.240457 
L 306.345595 219.717282 
L 336.18531 236.285455 
" clip-path="url(#pf3a41e879a)" style="fill: none; stroke: #1f77b4; stroke-opacity: 0.1; stroke-width: 1.5; stroke-linecap: square"/>
   </g>
   <g id="line2d_27">
    <path d="M 67.627872 63.981973 
L 97.467587 88.938618 
L 127.307303 105.204343 
L 157.147018 126.319587 
L 186.986733 132.005397 
L 216.826449 134.133498 
L 246.666164 206.192581 
L 276.505879 219.452435 
L 306.345595 220.958835 
L 336.18531 236.285455 
" clip-path="url(#pf3a41e879a)" style="fill: none; stroke: #1f77b4; stroke-opacity: 0.1; stroke-width: 1.5; stroke-linecap: square"/>
   </g>
   <g id="line2d_28">
    <path d="M 67.627872 63.989246 
L 97.467587 91.559769 
L 127.307303 104.77915 
L 157.147018 119.466537 
L 186.986733 131.605781 
L 216.826449 135.680315 
L 246.666164 209.015637 
L 276.505879 218.460976 
L 306.345595 221.389458 
L 336.18531 236.285455 
" clip-path="url(#pf3a41e879a)" style="fill: none; stroke: #1f77b4; stroke-opacity: 0.1; stroke-width: 1.5; stroke-linecap: square"/>
   </g>
   <g id="line2d_29">
    <path d="M 67.627872 64.465094 
L 97.467587 89.297617 
L 127.307303 103.347366 
L 157.147018 122.813125 
L 186.986733 132.228897 
L 216.826449 136.65652 
L 246.666164 212.735685 
L 276.505879 221.334749 
L 306.345595 223.043732 
L 336.18531 236.285455 
" clip-path="url(#pf3a41e879a)" style="fill: none; stroke: #1f77b4; stroke-opacity: 0.1; stroke-width: 1.5; stroke-linecap: square"/>
   </g>
   <g id="line2d_30">
    <path d="M 67.627872 67.611662 
L 97.467587 90.162592 
L 127.307303 108.779495 
L 157.147018 119.636701 
L 186.986733 134.73117 
L 216.826449 139.595628 
L 246.666164 212.177075 
L 276.505879 226.109639 
L 306.345595 227.599204 
L 336.18531 235.743472 
" clip-path="url(#pf3a41e879a)" style="fill: none; stroke: #1f77b4; stroke-opacity: 0.1; stroke-width: 1.5; stroke-linecap: square"/>
   </g>
   <g id="line2d_31">
    <path d="M 67.627872 69.946012 
L 97.467587 89.273092 
L 127.307303 111.319446 
L 157.147018 120.148529 
L 186.986733 135.715789 
L 216.826449 139.148903 
L 246.666164 215.119402 
L 276.505879 229.699432 
L 306.345595 231.479103 
L 336.18531 236.285455 
" clip-path="url(#pf3a41e879a)" style="fill: none; stroke: #1f77b4; stroke-opacity: 0.1; stroke-width: 1.5; stroke-linecap: square"/>
   </g>
   <g id="line2d_32">
    <path d="M 67.627872 74.387984 
L 97.467587 92.513438 
L 127.307303 110.143041 
L 157.147018 122.084472 
L 186.986733 130.74844 
L 216.826449 138.505754 
L 246.666164 218.064981 
L 276.505879 229.908526 
L 306.345595 233.882279 
L 336.18531 236.285455 
" clip-path="url(#pf3a41e879a)" style="fill: none; stroke: #1f77b4; stroke-opacity: 0.1; stroke-width: 1.5; stroke-linecap: square"/>
   </g>
   <g id="line2d_33">
    <path d="M 67.627872 70.424241 
L 97.467587 91.219335 
L 127.307303 107.924483 
L 157.147018 123.985117 
L 186.986733 132.808916 
L 216.826449 137.879352 
L 246.666164 218.658406 
L 276.505879 232.105334 
L 306.345595 236.285455 
L 336.18531 236.285455 
" clip-path="url(#pf3a41e879a)" style="fill: none; stroke: #1f77b4; stroke-opacity: 0.1; stroke-width: 1.5; stroke-linecap: square"/>
   </g>
   <g id="line2d_34">
    <path d="M 67.627872 66.62923 
L 97.467587 89.254779 
L 127.307303 103.207766 
L 157.147018 122.47795 
L 186.986733 133.354644 
L 216.826449 142.419383 
L 246.666164 216.155935 
L 276.505879 225.544355 
L 306.345595 234.876013 
L 336.18531 236.285455 
" clip-path="url(#pf3a41e879a)" style="fill: none; stroke: #1f77b4; stroke-opacity: 0.1; stroke-width: 1.5; stroke-linecap: square"/>
   </g>
   <g id="line2d_35">
    <path d="M 67.627872 68.415663 
L 97.467587 89.036072 
L 127.307303 100.228424 
L 157.147018 124.176306 
L 186.986733 131.757682 
L 216.826449 139.578158 
L 246.666164 214.385762 
L 276.505879 228.219735 
L 306.345595 235.202959 
L 336.18531 236.285455 
" clip-path="url(#pf3a41e879a)" style="fill: none; stroke: #1f77b4; stroke-opacity: 0.1; stroke-width: 1.5; stroke-linecap: square"/>
   </g>
   <g id="line2d_36">
    <path d="M 67.627872 68.074069 
L 97.467587 91.879971 
L 127.307303 95.727751 
L 157.147018 125.614888 
L 186.986733 134.492639 
L 216.826449 146.006216 
L 246.666164 216.004311 
L 276.505879 228.453307 
L 306.345595 235.609521 
L 336.18531 236.285455 
" clip-path="url(#pf3a41e879a)" style="fill: none; stroke: #1f77b4; stroke-opacity: 0.1; stroke-width: 1.5; stroke-linecap: square"/>
   </g>
   <g id="line2d_37">
    <path d="M 67.627872 65.671453 
L 97.467587 88.569358 
L 127.307303 89.647126 
L 157.147018 129.325163 
L 186.986733 133.837972 
L 216.826449 143.471114 
L 246.666164 219.259909 
L 276.505879 226.634033 
L 306.345595 235.271554 
L 336.18531 236.285455 
" clip-path="url(#pf3a41e879a)" style="fill: none; stroke: #1f77b4; stroke-opacity: 0.1; stroke-width: 1.5; stroke-linecap: square"/>
   </g>
   <g id="line2d_38">
    <path d="M 67.627872 55.531751 
L 97.467587 86.96678 
L 127.307303 88.148143 
L 157.147018 130.54732 
L 186.986733 134.547557 
L 216.826449 139.676836 
L 246.666164 216.575211 
L 276.505879 226.905838 
L 306.345595 231.971785 
L 336.18531 236.285455 
" clip-path="url(#pf3a41e879a)" style="fill: none; stroke: #1f77b4; stroke-opacity: 0.1; stroke-width: 1.5; stroke-linecap: square"/>
   </g>
   <g id="line2d_39">
    <path d="M 67.627872 57.867073 
L 97.467587 88.444809 
L 127.307303 89.717201 
L 157.147018 127.346111 
L 186.986733 130.397909 
L 216.826449 143.545451 
L 246.666164 219.746947 
L 276.505879 226.142372 
L 306.345595 229.802755 
L 336.18531 236.285455 
" clip-path="url(#pf3a41e879a)" style="fill: none; stroke: #1f77b4; stroke-opacity: 0.1; stroke-width: 1.5; stroke-linecap: square"/>
   </g>
   <g id="line2d_40">
    <path d="M 67.627872 58.564317 
L 97.467587 84.569099 
L 127.307303 91.4722 
L 157.147018 124.378255 
L 186.986733 127.416702 
L 216.826449 149.420511 
L 246.666164 214.711017 
L 276.505879 228.896379 
L 306.345595 232.421771 
L 336.18531 236.285455 
" clip-path="url(#pf3a41e879a)" style="fill: none; stroke: #1f77b4; stroke-opacity: 0.1; stroke-width: 1.5; stroke-linecap: square"/>
   </g>
   <g id="line2d_41">
    <path d="M 67.627872 56.981834 
L 97.467587 88.03734 
L 127.307303 99.074456 
L 157.147018 125.365659 
L 186.986733 136.645648 
L 216.826449 153.542363 
L 246.666164 215.565621 
L 276.505879 230.252075 
L 306.345595 233.368319 
L 336.18531 236.285455 
" clip-path="url(#pf3a41e879a)" style="fill: none; stroke: #1f77b4; stroke-opacity: 0.1; stroke-width: 1.5; stroke-linecap: square"/>
   </g>
   <g id="line2d_42">
    <path d="M 67.627872 56.921826 
L 97.467587 91.418338 
L 127.307303 105.633414 
L 157.147018 123.106176 
L 186.986733 135.270511 
L 216.826449 152.266045 
L 246.666164 216.818663 
L 276.505879 234.326811 
L 306.345595 236.285455 
L 336.18531 236.285455 
" clip-path="url(#pf3a41e879a)" style="fill: none; stroke: #1f77b4; stroke-opacity: 0.1; stroke-width: 1.5; stroke-linecap: square"/>
   </g>
   <g id="line2d_43">
    <path d="M 67.627872 55.05887 
L 97.467587 93.032289 
L 127.307303 109.022438 
L 157.147018 120.968796 
L 186.986733 135.436469 
L 216.826449 158.063169 
L 246.666164 220.155628 
L 276.505879 236.285455 
L 306.345595 236.285455 
L 336.18531 236.285455 
" clip-path="url(#pf3a41e879a)" style="fill: none; stroke: #1f77b4; stroke-opacity: 0.1; stroke-width: 1.5; stroke-linecap: square"/>
   </g>
   <g id="line2d_44">
    <path d="M 67.627872 52.057571 
L 97.467587 85.28041 
L 127.307303 108.650104 
L 157.147018 128.658353 
L 186.986733 136.163931 
L 216.826449 162.105789 
L 246.666164 220.362408 
L 276.505879 233.710772 
L 306.345595 234.806113 
L 336.18531 236.285455 
" clip-path="url(#pf3a41e879a)" style="fill: none; stroke: #1f77b4; stroke-opacity: 0.1; stroke-width: 1.5; stroke-linecap: square"/>
   </g>
   <g id="line2d_45">
    <path d="M 67.627872 65.950063 
L 97.467587 88.758939 
L 127.307303 107.680085 
L 157.147018 126.43833 
L 186.986733 132.611973 
L 216.826449 157.998929 
L 246.666164 216.108764 
L 276.505879 234.282278 
L 306.345595 235.545784 
L 336.18531 236.285455 
" clip-path="url(#pf3a41e879a)" style="fill: none; stroke: #1f77b4; stroke-opacity: 0.1; stroke-width: 1.5; stroke-linecap: square"/>
   </g>
   <g id="line2d_46">
    <path d="M 67.627872 58.344823 
L 97.467587 87.085989 
L 127.307303 104.251272 
L 157.147018 127.449898 
L 186.986733 130.759582 
L 216.826449 162.158129 
L 246.666164 216.133759 
L 276.505879 235.175948 
L 306.345595 236.285455 
L 336.18531 236.285455 
" clip-path="url(#pf3a41e879a)" style="fill: none; stroke: #1f77b4; stroke-opacity: 0.1; stroke-width: 1.5; stroke-linecap: square"/>
   </g>
   <g id="line2d_47">
    <path d="M 67.627872 52.078868 
L 97.467587 86.806979 
L 127.307303 106.042138 
L 157.147018 133.839216 
L 186.986733 137.59694 
L 216.826449 168.000158 
L 246.666164 214.387275 
L 276.505879 236.285455 
L 306.345595 236.285455 
L 336.18531 236.285455 
" clip-path="url(#pf3a41e879a)" style="fill: none; stroke: #1f77b4; stroke-opacity: 0.1; stroke-width: 1.5; stroke-linecap: square"/>
   </g>
   <g id="line2d_48">
    <path d="M 67.627872 46.688816 
L 97.467587 88.670211 
L 127.307303 103.925785 
L 157.147018 133.715267 
L 186.986733 147.322006 
L 216.826449 170.887694 
L 246.666164 204.484293 
L 276.505879 234.84816 
L 306.345595 236.285455 
L 336.18531 236.285455 
" clip-path="url(#pf3a41e879a)" style="fill: none; stroke: #1f77b4; stroke-opacity: 0.1; stroke-width: 1.5; stroke-linecap: square"/>
   </g>
   <g id="line2d_49">
    <path d="M 67.627872 44.314986 
L 97.467587 88.62809 
L 127.307303 106.942363 
L 157.147018 133.894572 
L 186.986733 147.467014 
L 216.826449 176.27608 
L 246.666164 208.148789 
L 276.505879 236.285455 
L 306.345595 236.285455 
L 336.18531 236.285455 
" clip-path="url(#pf3a41e879a)" style="fill: none; stroke: #1f77b4; stroke-opacity: 0.1; stroke-width: 1.5; stroke-linecap: square"/>
   </g>
   <g id="line2d_50">
    <path d="M 67.627872 41.194545 
L 97.467587 92.89175 
L 127.307303 105.568916 
L 157.147018 137.200229 
L 186.986733 145.264333 
L 216.826449 176.75733 
L 246.666164 210.713732 
L 276.505879 233.920729 
L 306.345595 235.728883 
L 336.18531 236.285455 
" clip-path="url(#pf3a41e879a)" style="fill: none; stroke: #1f77b4; stroke-opacity: 0.1; stroke-width: 1.5; stroke-linecap: square"/>
   </g>
   <g id="line2d_51">
    <path d="M 67.627872 46.353026 
L 97.467587 88.263652 
L 127.307303 105.608278 
L 157.147018 139.30748 
L 186.986733 146.862185 
L 216.826449 180.884318 
L 246.666164 216.977551 
L 276.505879 232.738366 
L 306.345595 235.450598 
L 336.18531 236.285455 
" clip-path="url(#pf3a41e879a)" style="fill: none; stroke: #1f77b4; stroke-opacity: 0.1; stroke-width: 1.5; stroke-linecap: square"/>
   </g>
   <g id="line2d_52">
    <path d="M 67.627872 42.467766 
L 97.467587 89.282538 
L 127.307303 106.438996 
L 157.147018 140.314804 
L 186.986733 145.459174 
L 216.826449 179.868073 
L 246.666164 210.547487 
L 276.505879 234.51191 
L 306.345595 235.868026 
L 336.18531 236.285455 
" clip-path="url(#pf3a41e879a)" style="fill: none; stroke: #1f77b4; stroke-opacity: 0.1; stroke-width: 1.5; stroke-linecap: square"/>
   </g>
   <g id="line2d_53">
    <path d="M 67.627872 43.507864 
L 97.467587 88.807788 
L 127.307303 107.253294 
L 157.147018 137.97709 
L 186.986733 140.258706 
L 216.826449 181.071991 
L 246.666164 201.791892 
L 276.505879 236.285455 
L 306.345595 236.285455 
L 336.18531 236.285455 
" clip-path="url(#pf3a41e879a)" style="fill: none; stroke: #1f77b4; stroke-opacity: 0.1; stroke-width: 1.5; stroke-linecap: square"/>
   </g>
   <g id="line2d_54">
    <path d="M 67.627872 49.782509 
L 97.467587 89.934768 
L 127.307303 115.292402 
L 157.147018 135.215993 
L 186.986733 137.667724 
L 216.826449 189.534653 
L 246.666164 203.637167 
L 276.505879 236.285455 
L 306.345595 236.285455 
L 336.18531 236.285455 
" clip-path="url(#pf3a41e879a)" style="fill: none; stroke: #1f77b4; stroke-opacity: 0.1; stroke-width: 1.5; stroke-linecap: square"/>
   </g>
   <g id="line2d_55">
    <path d="M 67.627872 50.180016 
L 97.467587 93.791705 
L 127.307303 115.580317 
L 157.147018 132.979122 
L 186.986733 142.970061 
L 216.826449 192.386221 
L 246.666164 202.549006 
L 276.505879 228.314852 
L 306.345595 234.137173 
L 336.18531 236.285455 
" clip-path="url(#pf3a41e879a)" style="fill: none; stroke: #1f77b4; stroke-opacity: 0.1; stroke-width: 1.5; stroke-linecap: square"/>
   </g>
   <g id="line2d_56">
    <path d="M 67.627872 47.435442 
L 97.467587 102.693222 
L 127.307303 119.637064 
L 157.147018 136.02584 
L 186.986733 143.721488 
L 216.826449 196.526734 
L 246.666164 206.027355 
L 276.505879 233.063032 
L 306.345595 235.873017 
L 336.18531 236.285455 
" clip-path="url(#pf3a41e879a)" style="fill: none; stroke: #1f77b4; stroke-opacity: 0.1; stroke-width: 1.5; stroke-linecap: square"/>
   </g>
   <g id="line2d_57">
    <path d="M 67.627872 54.046572 
L 97.467587 101.65732 
L 127.307303 118.188994 
L 157.147018 140.203451 
L 186.986733 144.708574 
L 216.826449 196.947764 
L 246.666164 204.651113 
L 276.505879 231.441522 
L 306.345595 234.020592 
L 336.18531 236.285455 
" clip-path="url(#pf3a41e879a)" style="fill: none; stroke: #1f77b4; stroke-opacity: 0.1; stroke-width: 1.5; stroke-linecap: square"/>
   </g>
   <g id="line2d_58">
    <path d="M 67.627872 57.105721 
L 97.467587 101.398461 
L 127.307303 115.366876 
L 157.147018 141.012204 
L 186.986733 146.829126 
L 216.826449 198.193746 
L 246.666164 206.100426 
L 276.505879 233.122028 
L 306.345595 235.153023 
L 336.18531 236.285455 
" clip-path="url(#pf3a41e879a)" style="fill: none; stroke: #1f77b4; stroke-opacity: 0.1; stroke-width: 1.5; stroke-linecap: square"/>
   </g>
   <g id="line2d_59">
    <path d="M 67.627872 55.350943 
L 97.467587 96.57455 
L 127.307303 116.483772 
L 157.147018 139.126036 
L 186.986733 143.518332 
L 216.826449 196.74866 
L 246.666164 203.985426 
L 276.505879 231.540315 
L 306.345595 234.586808 
L 336.18531 236.285455 
" clip-path="url(#pf3a41e879a)" style="fill: none; stroke: #1f77b4; stroke-opacity: 0.1; stroke-width: 1.5; stroke-linecap: square"/>
   </g>
   <g id="line2d_60">
    <path d="M 67.627872 49.726312 
L 97.467587 92.706282 
L 127.307303 115.886197 
L 157.147018 145.76914 
L 186.986733 145.876027 
L 216.826449 193.754546 
L 246.666164 201.16905 
L 276.505879 234.863298 
L 306.345595 236.285455 
L 336.18531 236.285455 
" clip-path="url(#pf3a41e879a)" style="fill: none; stroke: #1f77b4; stroke-opacity: 0.1; stroke-width: 1.5; stroke-linecap: square"/>
   </g>
   <g id="line2d_61">
    <path d="M 67.627872 49.726312 
L 97.467587 92.706282 
L 127.307303 115.886197 
L 157.147018 145.76914 
L 186.986733 145.876027 
L 216.826449 193.754546 
L 246.666164 201.16905 
L 276.505879 234.863298 
L 306.345595 236.285455 
L 336.18531 236.285455 
" clip-path="url(#pf3a41e879a)" style="fill: none; stroke: #000000; stroke-width: 1.5; stroke-linecap: square"/>
    <defs>
     <path id="m02b1377b8f" d="M 0 1.5 
C 0.397805 1.5 0.77937 1.341951 1.06066 1.06066 
C 1.341951 0.77937 1.5 0.397805 1.5 0 
C 1.5 -0.397805 1.341951 -0.77937 1.06066 -1.06066 
C 0.77937 -1.341951 0.397805 -1.5 0 -1.5 
C -0.397805 -1.5 -0.77937 -1.341951 -1.06066 -1.06066 
C -1.341951 -0.77937 -1.5 -0.397805 -1.5 0 
C -1.5 0.397805 -1.341951 0.77937 -1.06066 1.06066 
C -0.77937 1.341951 -0.397805 1.5 0 1.5 
z
" style="stroke: #000000"/>
    </defs>
    <g clip-path="url(#pf3a41e879a)">
     <use xlink:href="#m02b1377b8f" x="67.627872" y="49.726312" style="stroke: #000000"/>
     <use xlink:href="#m02b1377b8f" x="97.467587" y="92.706282" style="stroke: #000000"/>
     <use xlink:href="#m02b1377b8f" x="127.307303" y="115.886197" style="stroke: #000000"/>
     <use xlink:href="#m02b1377b8f" x="157.147018" y="145.76914" style="stroke: #000000"/>
     <use xlink:href="#m02b1377b8f" x="186.986733" y="145.876027" style="stroke: #000000"/>
     <use xlink:href="#m02b1377b8f" x="216.826449" y="193.754546" style="stroke: #000000"/>
     <use xlink:href="#m02b1377b8f" x="246.666164" y="201.16905" style="stroke: #000000"/>
     <use xlink:href="#m02b1377b8f" x="276.505879" y="234.863298" style="stroke: #000000"/>
     <use xlink:href="#m02b1377b8f" x="306.345595" y="236.285455" style="stroke: #000000"/>
     <use xlink:href="#m02b1377b8f" x="336.18531" y="236.285455" style="stroke: #000000"/>
    </g>
   </g>
   <g id="patch_3">
    <path d="M 54.2 246.04 
L 54.2 31.44 
" style="fill: none; stroke: #000000; stroke-width: 0.8; stroke-linejoin: miter; stroke-linecap: square"/>
   </g>
   <g id="patch_4">
    <path d="M 349.613182 246.04 
L 349.613182 31.44 
" style="fill: none; stroke: #000000; stroke-width: 0.8; stroke-linejoin: miter; stroke-linecap: square"/>
   </g>
   <g id="patch_5">
    <path d="M 54.2 246.04 
L 349.613182 246.04 
" style="fill: none; stroke: #000000; stroke-width: 0.8; stroke-linejoin: miter; stroke-linecap: square"/>
   </g>
   <g id="patch_6">
    <path d="M 54.2 31.44 
L 349.613182 31.44 
" style="fill: none; stroke: #000000; stroke-width: 0.8; stroke-linejoin: miter; stroke-linecap: square"/>
   </g>
   <g id="text_13">
    <!-- Fig. 2.4.5: Reverse-engineering demand distribution that most benefits from relocations -->
    <g transform="translate(54.2 19.44) scale(0.12 -0.12)">
     <defs>
      <path id="DejaVuSans-46" d="M 628 4666 
L 3309 4666 
L 3309 4134 
L 1259 4134 
L 1259 2759 
L 3109 2759 
L 3109 2228 
L 1259 2228 
L 1259 0 
L 628 0 
L 628 4666 
z
" transform="scale(0.015625)"/>
      <path id="DejaVuSans-67" d="M 2906 1791 
Q 2906 2416 2648 2759 
Q 2391 3103 1925 3103 
Q 1463 3103 1205 2759 
Q 947 2416 947 1791 
Q 947 1169 1205 825 
Q 1463 481 1925 481 
Q 2391 481 2648 825 
Q 2906 1169 2906 1791 
z
M 3481 434 
Q 3481 -459 3084 -895 
Q 2688 -1331 1869 -1331 
Q 1566 -1331 1297 -1286 
Q 1028 -1241 775 -1147 
L 775 -588 
Q 1028 -725 1275 -790 
Q 1522 -856 1778 -856 
Q 2344 -856 2625 -561 
Q 2906 -266 2906 331 
L 2906 616 
Q 2728 306 2450 153 
Q 2172 0 1784 0 
Q 1141 0 747 490 
Q 353 981 353 1791 
Q 353 2603 747 3093 
Q 1141 3584 1784 3584 
Q 2172 3584 2450 3431 
Q 2728 3278 2906 2969 
L 2906 3500 
L 3481 3500 
L 3481 434 
z
" transform="scale(0.015625)"/>
      <path id="DejaVuSans-3a" d="M 750 794 
L 1409 794 
L 1409 0 
L 750 0 
L 750 794 
z
M 750 3309 
L 1409 3309 
L 1409 2516 
L 750 2516 
L 750 3309 
z
" transform="scale(0.015625)"/>
      <path id="DejaVuSans-73" d="M 2834 3397 
L 2834 2853 
Q 2591 2978 2328 3040 
Q 2066 3103 1784 3103 
Q 1356 3103 1142 2972 
Q 928 2841 928 2578 
Q 928 2378 1081 2264 
Q 1234 2150 1697 2047 
L 1894 2003 
Q 2506 1872 2764 1633 
Q 3022 1394 3022 966 
Q 3022 478 2636 193 
Q 2250 -91 1575 -91 
Q 1294 -91 989 -36 
Q 684 19 347 128 
L 347 722 
Q 666 556 975 473 
Q 1284 391 1588 391 
Q 1994 391 2212 530 
Q 2431 669 2431 922 
Q 2431 1156 2273 1281 
Q 2116 1406 1581 1522 
L 1381 1569 
Q 847 1681 609 1914 
Q 372 2147 372 2553 
Q 372 3047 722 3315 
Q 1072 3584 1716 3584 
Q 2034 3584 2315 3537 
Q 2597 3491 2834 3397 
z
" transform="scale(0.015625)"/>
      <path id="DejaVuSans-2d" d="M 313 2009 
L 1997 2009 
L 1997 1497 
L 313 1497 
L 313 2009 
z
" transform="scale(0.015625)"/>
      <path id="DejaVuSans-68" d="M 3513 2113 
L 3513 0 
L 2938 0 
L 2938 2094 
Q 2938 2591 2744 2837 
Q 2550 3084 2163 3084 
Q 1697 3084 1428 2787 
Q 1159 2491 1159 1978 
L 1159 0 
L 581 0 
L 581 4863 
L 1159 4863 
L 1159 2956 
Q 1366 3272 1645 3428 
Q 1925 3584 2291 3584 
Q 2894 3584 3203 3211 
Q 3513 2838 3513 2113 
z
" transform="scale(0.015625)"/>
      <path id="DejaVuSans-66" d="M 2375 4863 
L 2375 4384 
L 1825 4384 
Q 1516 4384 1395 4259 
Q 1275 4134 1275 3809 
L 1275 3500 
L 2222 3500 
L 2222 3053 
L 1275 3053 
L 1275 0 
L 697 0 
L 697 3053 
L 147 3053 
L 147 3500 
L 697 3500 
L 697 3744 
Q 697 4328 969 4595 
Q 1241 4863 1831 4863 
L 2375 4863 
z
" transform="scale(0.015625)"/>
      <path id="DejaVuSans-63" d="M 3122 3366 
L 3122 2828 
Q 2878 2963 2633 3030 
Q 2388 3097 2138 3097 
Q 1578 3097 1268 2742 
Q 959 2388 959 1747 
Q 959 1106 1268 751 
Q 1578 397 2138 397 
Q 2388 397 2633 464 
Q 2878 531 3122 666 
L 3122 134 
Q 2881 22 2623 -34 
Q 2366 -91 2075 -91 
Q 1284 -91 818 406 
Q 353 903 353 1747 
Q 353 2603 823 3093 
Q 1294 3584 2113 3584 
Q 2378 3584 2631 3529 
Q 2884 3475 3122 3366 
z
" transform="scale(0.015625)"/>
     </defs>
     <use xlink:href="#DejaVuSans-46"/>
     <use xlink:href="#DejaVuSans-69" x="50.269531"/>
     <use xlink:href="#DejaVuSans-67" x="78.052734"/>
     <use xlink:href="#DejaVuSans-2e" x="141.529297"/>
     <use xlink:href="#DejaVuSans-20" x="173.316406"/>
     <use xlink:href="#DejaVuSans-32" x="205.103516"/>
     <use xlink:href="#DejaVuSans-2e" x="268.726562"/>
     <use xlink:href="#DejaVuSans-34" x="300.513672"/>
     <use xlink:href="#DejaVuSans-2e" x="364.136719"/>
     <use xlink:href="#DejaVuSans-35" x="395.923828"/>
     <use xlink:href="#DejaVuSans-3a" x="459.546875"/>
     <use xlink:href="#DejaVuSans-20" x="493.238281"/>
     <use xlink:href="#DejaVuSans-52" x="525.025391"/>
     <use xlink:href="#DejaVuSans-65" x="590.007812"/>
     <use xlink:href="#DejaVuSans-76" x="651.53125"/>
     <use xlink:href="#DejaVuSans-65" x="710.710938"/>
     <use xlink:href="#DejaVuSans-72" x="772.234375"/>
     <use xlink:href="#DejaVuSans-73" x="813.347656"/>
     <use xlink:href="#DejaVuSans-65" x="865.447266"/>
     <use xlink:href="#DejaVuSans-2d" x="926.970703"/>
     <use xlink:href="#DejaVuSans-65" x="963.054688"/>
     <use xlink:href="#DejaVuSans-6e" x="1024.578125"/>
     <use xlink:href="#DejaVuSans-67" x="1087.957031"/>
     <use xlink:href="#DejaVuSans-69" x="1151.433594"/>
     <use xlink:href="#DejaVuSans-6e" x="1179.216797"/>
     <use xlink:href="#DejaVuSans-65" x="1242.595703"/>
     <use xlink:href="#DejaVuSans-65" x="1304.119141"/>
     <use xlink:href="#DejaVuSans-72" x="1365.642578"/>
     <use xlink:href="#DejaVuSans-69" x="1406.755859"/>
     <use xlink:href="#DejaVuSans-6e" x="1434.539062"/>
     <use xlink:href="#DejaVuSans-67" x="1497.917969"/>
     <use xlink:href="#DejaVuSans-20" x="1561.394531"/>
     <use xlink:href="#DejaVuSans-64" x="1593.181641"/>
     <use xlink:href="#DejaVuSans-65" x="1656.658203"/>
     <use xlink:href="#DejaVuSans-6d" x="1718.181641"/>
     <use xlink:href="#DejaVuSans-61" x="1815.59375"/>
     <use xlink:href="#DejaVuSans-6e" x="1876.873047"/>
     <use xlink:href="#DejaVuSans-64" x="1940.251953"/>
     <use xlink:href="#DejaVuSans-20" x="2003.728516"/>
     <use xlink:href="#DejaVuSans-64" x="2035.515625"/>
     <use xlink:href="#DejaVuSans-69" x="2098.992188"/>
     <use xlink:href="#DejaVuSans-73" x="2126.775391"/>
     <use xlink:href="#DejaVuSans-74" x="2178.875"/>
     <use xlink:href="#DejaVuSans-72" x="2218.083984"/>
     <use xlink:href="#DejaVuSans-69" x="2259.197266"/>
     <use xlink:href="#DejaVuSans-62" x="2286.980469"/>
     <use xlink:href="#DejaVuSans-75" x="2350.457031"/>
     <use xlink:href="#DejaVuSans-74" x="2413.835938"/>
     <use xlink:href="#DejaVuSans-69" x="2453.044922"/>
     <use xlink:href="#DejaVuSans-6f" x="2480.828125"/>
     <use xlink:href="#DejaVuSans-6e" x="2542.009766"/>
     <use xlink:href="#DejaVuSans-20" x="2605.388672"/>
     <use xlink:href="#DejaVuSans-74" x="2637.175781"/>
     <use xlink:href="#DejaVuSans-68" x="2676.384766"/>
     <use xlink:href="#DejaVuSans-61" x="2739.763672"/>
     <use xlink:href="#DejaVuSans-74" x="2801.042969"/>
     <use xlink:href="#DejaVuSans-20" x="2840.251953"/>
     <use xlink:href="#DejaVuSans-6d" x="2872.039062"/>
     <use xlink:href="#DejaVuSans-6f" x="2969.451172"/>
     <use xlink:href="#DejaVuSans-73" x="3030.632812"/>
     <use xlink:href="#DejaVuSans-74" x="3082.732422"/>
     <use xlink:href="#DejaVuSans-20" x="3121.941406"/>
     <use xlink:href="#DejaVuSans-62" x="3153.728516"/>
     <use xlink:href="#DejaVuSans-65" x="3217.205078"/>
     <use xlink:href="#DejaVuSans-6e" x="3278.728516"/>
     <use xlink:href="#DejaVuSans-65" x="3342.107422"/>
     <use xlink:href="#DejaVuSans-66" x="3403.630859"/>
     <use xlink:href="#DejaVuSans-69" x="3438.835938"/>
     <use xlink:href="#DejaVuSans-74" x="3466.619141"/>
     <use xlink:href="#DejaVuSans-73" x="3505.828125"/>
     <use xlink:href="#DejaVuSans-20" x="3557.927734"/>
     <use xlink:href="#DejaVuSans-66" x="3589.714844"/>
     <use xlink:href="#DejaVuSans-72" x="3624.919922"/>
     <use xlink:href="#DejaVuSans-6f" x="3663.783203"/>
     <use xlink:href="#DejaVuSans-6d" x="3724.964844"/>
     <use xlink:href="#DejaVuSans-20" x="3822.376953"/>
     <use xlink:href="#DejaVuSans-72" x="3854.164062"/>
     <use xlink:href="#DejaVuSans-65" x="3893.027344"/>
     <use xlink:href="#DejaVuSans-6c" x="3954.550781"/>
     <use xlink:href="#DejaVuSans-6f" x="3982.333984"/>
     <use xlink:href="#DejaVuSans-63" x="4043.515625"/>
     <use xlink:href="#DejaVuSans-61" x="4098.496094"/>
     <use xlink:href="#DejaVuSans-74" x="4159.775391"/>
     <use xlink:href="#DejaVuSans-69" x="4198.984375"/>
     <use xlink:href="#DejaVuSans-6f" x="4226.767578"/>
     <use xlink:href="#DejaVuSans-6e" x="4287.949219"/>
     <use xlink:href="#DejaVuSans-73" x="4351.328125"/>
    </g>
   </g>
  </g>
  <g id="axes_2">
   <g id="patch_7">
    <path d="M 413.786818 246.04 
L 709.2 246.04 
L 709.2 31.44 
L 413.786818 31.44 
z
" style="fill: #ffffff"/>
   </g>
   <g id="matplotlib.axis_3">
    <g id="xtick_6">
     <g id="line2d_62">
      <g>
       <use xlink:href="#m3439ba689d" x="427.21469" y="246.04" style="stroke: #000000; stroke-width: 0.8"/>
      </g>
     </g>
     <g id="text_14">
      <!-- 0 -->
      <g transform="translate(424.03344 260.638438) scale(0.1 -0.1)">
       <use xlink:href="#DejaVuSans-30"/>
      </g>
     </g>
    </g>
    <g id="xtick_7">
     <g id="line2d_63">
      <g>
       <use xlink:href="#m3439ba689d" x="482.02233" y="246.04" style="stroke: #000000; stroke-width: 0.8"/>
      </g>
     </g>
     <g id="text_15">
      <!-- 10 -->
      <g transform="translate(475.65983 260.638438) scale(0.1 -0.1)">
       <use xlink:href="#DejaVuSans-31"/>
       <use xlink:href="#DejaVuSans-30" x="63.623047"/>
      </g>
     </g>
    </g>
    <g id="xtick_8">
     <g id="line2d_64">
      <g>
       <use xlink:href="#m3439ba689d" x="536.829971" y="246.04" style="stroke: #000000; stroke-width: 0.8"/>
      </g>
     </g>
     <g id="text_16">
      <!-- 20 -->
      <g transform="translate(530.467471 260.638438) scale(0.1 -0.1)">
       <use xlink:href="#DejaVuSans-32"/>
       <use xlink:href="#DejaVuSans-30" x="63.623047"/>
      </g>
     </g>
    </g>
    <g id="xtick_9">
     <g id="line2d_65">
      <g>
       <use xlink:href="#m3439ba689d" x="591.637611" y="246.04" style="stroke: #000000; stroke-width: 0.8"/>
      </g>
     </g>
     <g id="text_17">
      <!-- 30 -->
      <g transform="translate(585.275111 260.638438) scale(0.1 -0.1)">
       <defs>
        <path id="DejaVuSans-33" d="M 2597 2516 
Q 3050 2419 3304 2112 
Q 3559 1806 3559 1356 
Q 3559 666 3084 287 
Q 2609 -91 1734 -91 
Q 1441 -91 1130 -33 
Q 819 25 488 141 
L 488 750 
Q 750 597 1062 519 
Q 1375 441 1716 441 
Q 2309 441 2620 675 
Q 2931 909 2931 1356 
Q 2931 1769 2642 2001 
Q 2353 2234 1838 2234 
L 1294 2234 
L 1294 2753 
L 1863 2753 
Q 2328 2753 2575 2939 
Q 2822 3125 2822 3475 
Q 2822 3834 2567 4026 
Q 2313 4219 1838 4219 
Q 1578 4219 1281 4162 
Q 984 4106 628 3988 
L 628 4550 
Q 988 4650 1302 4700 
Q 1616 4750 1894 4750 
Q 2613 4750 3031 4423 
Q 3450 4097 3450 3541 
Q 3450 3153 3228 2886 
Q 3006 2619 2597 2516 
z
" transform="scale(0.015625)"/>
       </defs>
       <use xlink:href="#DejaVuSans-33"/>
       <use xlink:href="#DejaVuSans-30" x="63.623047"/>
      </g>
     </g>
    </g>
    <g id="xtick_10">
     <g id="line2d_66">
      <g>
       <use xlink:href="#m3439ba689d" x="646.445252" y="246.04" style="stroke: #000000; stroke-width: 0.8"/>
      </g>
     </g>
     <g id="text_18">
      <!-- 40 -->
      <g transform="translate(640.082752 260.638438) scale(0.1 -0.1)">
       <use xlink:href="#DejaVuSans-34"/>
       <use xlink:href="#DejaVuSans-30" x="63.623047"/>
      </g>
     </g>
    </g>
    <g id="xtick_11">
     <g id="line2d_67">
      <g>
       <use xlink:href="#m3439ba689d" x="701.252892" y="246.04" style="stroke: #000000; stroke-width: 0.8"/>
      </g>
     </g>
     <g id="text_19">
      <!-- 50 -->
      <g transform="translate(694.890392 260.638438) scale(0.1 -0.1)">
       <use xlink:href="#DejaVuSans-35"/>
       <use xlink:href="#DejaVuSans-30" x="63.623047"/>
      </g>
     </g>
    </g>
    <g id="text_20">
     <!-- Iteration -->
     <g transform="translate(540.284815 274.316562) scale(0.1 -0.1)">
      <defs>
       <path id="DejaVuSans-49" d="M 628 4666 
L 1259 4666 
L 1259 0 
L 628 0 
L 628 4666 
z
" transform="scale(0.015625)"/>
      </defs>
      <use xlink:href="#DejaVuSans-49"/>
      <use xlink:href="#DejaVuSans-74" x="29.492188"/>
      <use xlink:href="#DejaVuSans-65" x="68.701172"/>
      <use xlink:href="#DejaVuSans-72" x="130.224609"/>
      <use xlink:href="#DejaVuSans-61" x="171.337891"/>
      <use xlink:href="#DejaVuSans-74" x="232.617188"/>
      <use xlink:href="#DejaVuSans-69" x="271.826172"/>
      <use xlink:href="#DejaVuSans-6f" x="299.609375"/>
      <use xlink:href="#DejaVuSans-6e" x="360.791016"/>
     </g>
    </g>
   </g>
   <g id="matplotlib.axis_4">
    <g id="ytick_6">
     <g id="line2d_68">
      <g>
       <use xlink:href="#mdbd0231dde" x="413.786818" y="224.034508" style="stroke: #000000; stroke-width: 0.8"/>
      </g>
     </g>
     <g id="text_21">
      <!-- −10 -->
      <g transform="translate(385.682131 227.833726) scale(0.1 -0.1)">
       <defs>
        <path id="DejaVuSans-2212" d="M 678 2272 
L 4684 2272 
L 4684 1741 
L 678 1741 
L 678 2272 
z
" transform="scale(0.015625)"/>
       </defs>
       <use xlink:href="#DejaVuSans-2212"/>
       <use xlink:href="#DejaVuSans-31" x="83.789062"/>
       <use xlink:href="#DejaVuSans-30" x="147.412109"/>
      </g>
     </g>
    </g>
    <g id="ytick_7">
     <g id="line2d_69">
      <g>
       <use xlink:href="#mdbd0231dde" x="413.786818" y="195.725345" style="stroke: #000000; stroke-width: 0.8"/>
      </g>
     </g>
     <g id="text_22">
      <!-- 0 -->
      <g transform="translate(400.424318 199.524564) scale(0.1 -0.1)">
       <use xlink:href="#DejaVuSans-30"/>
      </g>
     </g>
    </g>
    <g id="ytick_8">
     <g id="line2d_70">
      <g>
       <use xlink:href="#mdbd0231dde" x="413.786818" y="167.416183" style="stroke: #000000; stroke-width: 0.8"/>
      </g>
     </g>
     <g id="text_23">
      <!-- 10 -->
      <g transform="translate(394.061818 171.215402) scale(0.1 -0.1)">
       <use xlink:href="#DejaVuSans-31"/>
       <use xlink:href="#DejaVuSans-30" x="63.623047"/>
      </g>
     </g>
    </g>
    <g id="ytick_9">
     <g id="line2d_71">
      <g>
       <use xlink:href="#mdbd0231dde" x="413.786818" y="139.107021" style="stroke: #000000; stroke-width: 0.8"/>
      </g>
     </g>
     <g id="text_24">
      <!-- 20 -->
      <g transform="translate(394.061818 142.90624) scale(0.1 -0.1)">
       <use xlink:href="#DejaVuSans-32"/>
       <use xlink:href="#DejaVuSans-30" x="63.623047"/>
      </g>
     </g>
    </g>
    <g id="ytick_10">
     <g id="line2d_72">
      <g>
       <use xlink:href="#mdbd0231dde" x="413.786818" y="110.797859" style="stroke: #000000; stroke-width: 0.8"/>
      </g>
     </g>
     <g id="text_25">
      <!-- 30 -->
      <g transform="translate(394.061818 114.597077) scale(0.1 -0.1)">
       <use xlink:href="#DejaVuSans-33"/>
       <use xlink:href="#DejaVuSans-30" x="63.623047"/>
      </g>
     </g>
    </g>
    <g id="ytick_11">
     <g id="line2d_73">
      <g>
       <use xlink:href="#mdbd0231dde" x="413.786818" y="82.488696" style="stroke: #000000; stroke-width: 0.8"/>
      </g>
     </g>
     <g id="text_26">
      <!-- 40 -->
      <g transform="translate(394.061818 86.287915) scale(0.1 -0.1)">
       <use xlink:href="#DejaVuSans-34"/>
       <use xlink:href="#DejaVuSans-30" x="63.623047"/>
      </g>
     </g>
    </g>
    <g id="ytick_12">
     <g id="line2d_74">
      <g>
       <use xlink:href="#mdbd0231dde" x="413.786818" y="54.179534" style="stroke: #000000; stroke-width: 0.8"/>
      </g>
     </g>
     <g id="text_27">
      <!-- 50 -->
      <g transform="translate(394.061818 57.978753) scale(0.1 -0.1)">
       <use xlink:href="#DejaVuSans-35"/>
       <use xlink:href="#DejaVuSans-30" x="63.623047"/>
      </g>
     </g>
    </g>
    <g id="text_28">
     <!-- CM2/day with and without relocations -->
     <g transform="translate(379.602443 233.237656) rotate(-90) scale(0.1 -0.1)">
      <defs>
       <path id="DejaVuSans-43" d="M 4122 4306 
L 4122 3641 
Q 3803 3938 3442 4084 
Q 3081 4231 2675 4231 
Q 1875 4231 1450 3742 
Q 1025 3253 1025 2328 
Q 1025 1406 1450 917 
Q 1875 428 2675 428 
Q 3081 428 3442 575 
Q 3803 722 4122 1019 
L 4122 359 
Q 3791 134 3420 21 
Q 3050 -91 2638 -91 
Q 1578 -91 968 557 
Q 359 1206 359 2328 
Q 359 3453 968 4101 
Q 1578 4750 2638 4750 
Q 3056 4750 3426 4639 
Q 3797 4528 4122 4306 
z
" transform="scale(0.015625)"/>
       <path id="DejaVuSans-4d" d="M 628 4666 
L 1569 4666 
L 2759 1491 
L 3956 4666 
L 4897 4666 
L 4897 0 
L 4281 0 
L 4281 4097 
L 3078 897 
L 2444 897 
L 1241 4097 
L 1241 0 
L 628 0 
L 628 4666 
z
" transform="scale(0.015625)"/>
       <path id="DejaVuSans-2f" d="M 1625 4666 
L 2156 4666 
L 531 -594 
L 0 -594 
L 1625 4666 
z
" transform="scale(0.015625)"/>
       <path id="DejaVuSans-79" d="M 2059 -325 
Q 1816 -950 1584 -1140 
Q 1353 -1331 966 -1331 
L 506 -1331 
L 506 -850 
L 844 -850 
Q 1081 -850 1212 -737 
Q 1344 -625 1503 -206 
L 1606 56 
L 191 3500 
L 800 3500 
L 1894 763 
L 2988 3500 
L 3597 3500 
L 2059 -325 
z
" transform="scale(0.015625)"/>
       <path id="DejaVuSans-77" d="M 269 3500 
L 844 3500 
L 1563 769 
L 2278 3500 
L 2956 3500 
L 3675 769 
L 4391 3500 
L 4966 3500 
L 4050 0 
L 3372 0 
L 2619 2869 
L 1863 0 
L 1184 0 
L 269 3500 
z
" transform="scale(0.015625)"/>
      </defs>
      <use xlink:href="#DejaVuSans-43"/>
      <use xlink:href="#DejaVuSans-4d" x="69.824219"/>
      <use xlink:href="#DejaVuSans-32" x="156.103516"/>
      <use xlink:href="#DejaVuSans-2f" x="219.726562"/>
      <use xlink:href="#DejaVuSans-64" x="253.417969"/>
      <use xlink:href="#DejaVuSans-61" x="316.894531"/>
      <use xlink:href="#DejaVuSans-79" x="378.173828"/>
      <use xlink:href="#DejaVuSans-20" x="437.353516"/>
      <use xlink:href="#DejaVuSans-77" x="469.140625"/>
      <use xlink:href="#DejaVuSans-69" x="550.927734"/>
      <use xlink:href="#DejaVuSans-74" x="578.710938"/>
      <use xlink:href="#DejaVuSans-68" x="617.919922"/>
      <use xlink:href="#DejaVuSans-20" x="681.298828"/>
      <use xlink:href="#DejaVuSans-61" x="713.085938"/>
      <use xlink:href="#DejaVuSans-6e" x="774.365234"/>
      <use xlink:href="#DejaVuSans-64" x="837.744141"/>
      <use xlink:href="#DejaVuSans-20" x="901.220703"/>
      <use xlink:href="#DejaVuSans-77" x="933.007812"/>
      <use xlink:href="#DejaVuSans-69" x="1014.794922"/>
      <use xlink:href="#DejaVuSans-74" x="1042.578125"/>
      <use xlink:href="#DejaVuSans-68" x="1081.787109"/>
      <use xlink:href="#DejaVuSans-6f" x="1145.166016"/>
      <use xlink:href="#DejaVuSans-75" x="1206.347656"/>
      <use xlink:href="#DejaVuSans-74" x="1269.726562"/>
      <use xlink:href="#DejaVuSans-20" x="1308.935547"/>
      <use xlink:href="#DejaVuSans-72" x="1340.722656"/>
      <use xlink:href="#DejaVuSans-65" x="1379.585938"/>
      <use xlink:href="#DejaVuSans-6c" x="1441.109375"/>
      <use xlink:href="#DejaVuSans-6f" x="1468.892578"/>
      <use xlink:href="#DejaVuSans-63" x="1530.074219"/>
      <use xlink:href="#DejaVuSans-61" x="1585.054688"/>
      <use xlink:href="#DejaVuSans-74" x="1646.333984"/>
      <use xlink:href="#DejaVuSans-69" x="1685.542969"/>
      <use xlink:href="#DejaVuSans-6f" x="1713.326172"/>
      <use xlink:href="#DejaVuSans-6e" x="1774.507812"/>
      <use xlink:href="#DejaVuSans-73" x="1837.886719"/>
     </g>
    </g>
   </g>
   <g id="line2d_75">
    <path d="M 427.21469 139.93056 
L 432.695454 150.918231 
L 438.176218 161.846775 
L 443.656982 158.237313 
L 449.137746 149.72947 
L 454.61851 151.958823 
L 460.099274 149.702533 
L 465.580038 165.12214 
L 471.060802 165.112485 
L 476.541566 160.144229 
L 482.02233 140.193889 
L 487.503095 137.355365 
L 492.983859 152.148458 
L 498.464623 177.455638 
L 503.945387 145.411012 
L 509.426151 133.250182 
L 514.906915 141.528367 
L 520.387679 133.813213 
L 525.868443 154.553889 
L 531.349207 129.141584 
L 536.829971 199.747259 
L 542.310735 157.08867 
L 547.791499 143.43797 
L 553.272263 156.082233 
L 558.753027 144.796564 
L 564.233791 127.953256 
L 569.714555 144.266732 
L 575.195319 172.681859 
L 580.676083 158.891569 
L 586.156847 168.352599 
L 591.637611 158.825361 
L 597.118375 141.764995 
L 602.599139 128.094656 
L 608.079903 169.937994 
L 613.560667 144.723004 
L 619.041432 141.508988 
L 624.522196 164.152646 
L 630.00296 129.845221 
L 635.483724 236.285455 
L 640.964488 141.223115 
L 646.445252 145.06393 
L 651.926016 130.999384 
L 657.40678 135.845679 
L 662.887544 141.55078 
L 668.368308 126.04199 
L 673.849072 151.25703 
L 679.329836 190.923348 
L 684.8106 110.936508 
L 690.291364 156.538602 
L 695.772128 166.673604 
" clip-path="url(#pd3bb080971)" style="fill: none; stroke: #1f77b4; stroke-opacity: 0.3; stroke-width: 1.5; stroke-linecap: square"/>
   </g>
   <g id="line2d_76">
    <path d="M 427.21469 193.54554 
L 432.695454 199.162326 
L 438.176218 211.745516 
L 443.656982 174.949641 
L 449.137746 193.601605 
L 454.61851 167.239481 
L 460.099274 201.208641 
L 465.580038 163.186635 
L 471.060802 162.583222 
L 476.541566 182.018652 
L 482.02233 172.146002 
L 487.503095 138.717113 
L 492.983859 135.077512 
L 498.464623 145.6183 
L 503.945387 147.206075 
L 509.426151 154.143962 
L 514.906915 131.737763 
L 520.387679 150.825743 
L 525.868443 102.994677 
L 531.349207 151.897415 
L 536.829971 88.435167 
L 542.310735 134.002672 
L 547.791499 108.881053 
L 553.272263 91.132736 
L 558.753027 93.918016 
L 564.233791 90.049784 
L 569.714555 98.324623 
L 575.195319 98.696629 
L 580.676083 83.366577 
L 586.156847 76.013012 
L 591.637611 115.70199 
L 597.118375 116.101869 
L 602.599139 78.917633 
L 608.079903 75.925032 
L 613.560667 95.641026 
L 619.041432 132.923572 
L 624.522196 64.666518 
L 630.00296 111.117488 
L 635.483724 64.619114 
L 640.964488 52.51974 
L 646.445252 41.194545 
L 651.926016 74.85293 
L 657.40678 86.508684 
L 662.887544 88.079107 
L 668.368308 103.725677 
L 673.849072 89.405023 
L 679.329836 67.572541 
L 684.8106 58.712152 
L 690.291364 117.438797 
L 695.772128 119.355532 
" clip-path="url(#pd3bb080971)" style="fill: none; stroke: #ff7f0e; stroke-opacity: 0.3; stroke-width: 1.5; stroke-linecap: square"/>
   </g>
   <g id="line2d_77">
    <g clip-path="url(#pd3bb080971)">
     <use xlink:href="#m02b1377b8f" x="427.21469" y="139.93056" style="stroke: #000000"/>
     <use xlink:href="#m02b1377b8f" x="432.695454" y="150.918231" style="stroke: #000000"/>
     <use xlink:href="#m02b1377b8f" x="438.176218" y="161.846775" style="stroke: #000000"/>
     <use xlink:href="#m02b1377b8f" x="443.656982" y="158.237313" style="stroke: #000000"/>
     <use xlink:href="#m02b1377b8f" x="449.137746" y="149.72947" style="stroke: #000000"/>
     <use xlink:href="#m02b1377b8f" x="454.61851" y="151.958823" style="stroke: #000000"/>
     <use xlink:href="#m02b1377b8f" x="460.099274" y="149.702533" style="stroke: #000000"/>
     <use xlink:href="#m02b1377b8f" x="465.580038" y="165.12214" style="stroke: #000000"/>
     <use xlink:href="#m02b1377b8f" x="471.060802" y="165.112485" style="stroke: #000000"/>
     <use xlink:href="#m02b1377b8f" x="476.541566" y="160.144229" style="stroke: #000000"/>
     <use xlink:href="#m02b1377b8f" x="482.02233" y="140.193889" style="stroke: #000000"/>
     <use xlink:href="#m02b1377b8f" x="487.503095" y="137.355365" style="stroke: #000000"/>
     <use xlink:href="#m02b1377b8f" x="492.983859" y="152.148458" style="stroke: #000000"/>
     <use xlink:href="#m02b1377b8f" x="498.464623" y="177.455638" style="stroke: #000000"/>
     <use xlink:href="#m02b1377b8f" x="503.945387" y="145.411012" style="stroke: #000000"/>
     <use xlink:href="#m02b1377b8f" x="509.426151" y="133.250182" style="stroke: #000000"/>
     <use xlink:href="#m02b1377b8f" x="514.906915" y="141.528367" style="stroke: #000000"/>
     <use xlink:href="#m02b1377b8f" x="520.387679" y="133.813213" style="stroke: #000000"/>
     <use xlink:href="#m02b1377b8f" x="525.868443" y="154.553889" style="stroke: #000000"/>
     <use xlink:href="#m02b1377b8f" x="531.349207" y="129.141584" style="stroke: #000000"/>
     <use xlink:href="#m02b1377b8f" x="536.829971" y="199.747259" style="stroke: #000000"/>
     <use xlink:href="#m02b1377b8f" x="542.310735" y="157.08867" style="stroke: #000000"/>
     <use xlink:href="#m02b1377b8f" x="547.791499" y="143.43797" style="stroke: #000000"/>
     <use xlink:href="#m02b1377b8f" x="553.272263" y="156.082233" style="stroke: #000000"/>
     <use xlink:href="#m02b1377b8f" x="558.753027" y="144.796564" style="stroke: #000000"/>
     <use xlink:href="#m02b1377b8f" x="564.233791" y="127.953256" style="stroke: #000000"/>
     <use xlink:href="#m02b1377b8f" x="569.714555" y="144.266732" style="stroke: #000000"/>
     <use xlink:href="#m02b1377b8f" x="575.195319" y="172.681859" style="stroke: #000000"/>
     <use xlink:href="#m02b1377b8f" x="580.676083" y="158.891569" style="stroke: #000000"/>
     <use xlink:href="#m02b1377b8f" x="586.156847" y="168.352599" style="stroke: #000000"/>
     <use xlink:href="#m02b1377b8f" x="591.637611" y="158.825361" style="stroke: #000000"/>
     <use xlink:href="#m02b1377b8f" x="597.118375" y="141.764995" style="stroke: #000000"/>
     <use xlink:href="#m02b1377b8f" x="602.599139" y="128.094656" style="stroke: #000000"/>
     <use xlink:href="#m02b1377b8f" x="608.079903" y="169.937994" style="stroke: #000000"/>
     <use xlink:href="#m02b1377b8f" x="613.560667" y="144.723004" style="stroke: #000000"/>
     <use xlink:href="#m02b1377b8f" x="619.041432" y="141.508988" style="stroke: #000000"/>
     <use xlink:href="#m02b1377b8f" x="624.522196" y="164.152646" style="stroke: #000000"/>
     <use xlink:href="#m02b1377b8f" x="630.00296" y="129.845221" style="stroke: #000000"/>
     <use xlink:href="#m02b1377b8f" x="635.483724" y="236.285455" style="stroke: #000000"/>
     <use xlink:href="#m02b1377b8f" x="640.964488" y="141.223115" style="stroke: #000000"/>
     <use xlink:href="#m02b1377b8f" x="646.445252" y="145.06393" style="stroke: #000000"/>
     <use xlink:href="#m02b1377b8f" x="651.926016" y="130.999384" style="stroke: #000000"/>
     <use xlink:href="#m02b1377b8f" x="657.40678" y="135.845679" style="stroke: #000000"/>
     <use xlink:href="#m02b1377b8f" x="662.887544" y="141.55078" style="stroke: #000000"/>
     <use xlink:href="#m02b1377b8f" x="668.368308" y="126.04199" style="stroke: #000000"/>
     <use xlink:href="#m02b1377b8f" x="673.849072" y="151.25703" style="stroke: #000000"/>
     <use xlink:href="#m02b1377b8f" x="679.329836" y="190.923348" style="stroke: #000000"/>
     <use xlink:href="#m02b1377b8f" x="684.8106" y="110.936508" style="stroke: #000000"/>
     <use xlink:href="#m02b1377b8f" x="690.291364" y="156.538602" style="stroke: #000000"/>
     <use xlink:href="#m02b1377b8f" x="695.772128" y="166.673604" style="stroke: #000000"/>
    </g>
   </g>
   <g id="line2d_78">
    <g clip-path="url(#pd3bb080971)">
     <use xlink:href="#m02b1377b8f" x="427.21469" y="193.54554" style="stroke: #000000"/>
     <use xlink:href="#m02b1377b8f" x="432.695454" y="199.162326" style="stroke: #000000"/>
     <use xlink:href="#m02b1377b8f" x="438.176218" y="211.745516" style="stroke: #000000"/>
     <use xlink:href="#m02b1377b8f" x="443.656982" y="174.949641" style="stroke: #000000"/>
     <use xlink:href="#m02b1377b8f" x="449.137746" y="193.601605" style="stroke: #000000"/>
     <use xlink:href="#m02b1377b8f" x="454.61851" y="167.239481" style="stroke: #000000"/>
     <use xlink:href="#m02b1377b8f" x="460.099274" y="201.208641" style="stroke: #000000"/>
     <use xlink:href="#m02b1377b8f" x="465.580038" y="163.186635" style="stroke: #000000"/>
     <use xlink:href="#m02b1377b8f" x="471.060802" y="162.583222" style="stroke: #000000"/>
     <use xlink:href="#m02b1377b8f" x="476.541566" y="182.018652" style="stroke: #000000"/>
     <use xlink:href="#m02b1377b8f" x="482.02233" y="172.146002" style="stroke: #000000"/>
     <use xlink:href="#m02b1377b8f" x="487.503095" y="138.717113" style="stroke: #000000"/>
     <use xlink:href="#m02b1377b8f" x="492.983859" y="135.077512" style="stroke: #000000"/>
     <use xlink:href="#m02b1377b8f" x="498.464623" y="145.6183" style="stroke: #000000"/>
     <use xlink:href="#m02b1377b8f" x="503.945387" y="147.206075" style="stroke: #000000"/>
     <use xlink:href="#m02b1377b8f" x="509.426151" y="154.143962" style="stroke: #000000"/>
     <use xlink:href="#m02b1377b8f" x="514.906915" y="131.737763" style="stroke: #000000"/>
     <use xlink:href="#m02b1377b8f" x="520.387679" y="150.825743" style="stroke: #000000"/>
     <use xlink:href="#m02b1377b8f" x="525.868443" y="102.994677" style="stroke: #000000"/>
     <use xlink:href="#m02b1377b8f" x="531.349207" y="151.897415" style="stroke: #000000"/>
     <use xlink:href="#m02b1377b8f" x="536.829971" y="88.435167" style="stroke: #000000"/>
     <use xlink:href="#m02b1377b8f" x="542.310735" y="134.002672" style="stroke: #000000"/>
     <use xlink:href="#m02b1377b8f" x="547.791499" y="108.881053" style="stroke: #000000"/>
     <use xlink:href="#m02b1377b8f" x="553.272263" y="91.132736" style="stroke: #000000"/>
     <use xlink:href="#m02b1377b8f" x="558.753027" y="93.918016" style="stroke: #000000"/>
     <use xlink:href="#m02b1377b8f" x="564.233791" y="90.049784" style="stroke: #000000"/>
     <use xlink:href="#m02b1377b8f" x="569.714555" y="98.324623" style="stroke: #000000"/>
     <use xlink:href="#m02b1377b8f" x="575.195319" y="98.696629" style="stroke: #000000"/>
     <use xlink:href="#m02b1377b8f" x="580.676083" y="83.366577" style="stroke: #000000"/>
     <use xlink:href="#m02b1377b8f" x="586.156847" y="76.013012" style="stroke: #000000"/>
     <use xlink:href="#m02b1377b8f" x="591.637611" y="115.70199" style="stroke: #000000"/>
     <use xlink:href="#m02b1377b8f" x="597.118375" y="116.101869" style="stroke: #000000"/>
     <use xlink:href="#m02b1377b8f" x="602.599139" y="78.917633" style="stroke: #000000"/>
     <use xlink:href="#m02b1377b8f" x="608.079903" y="75.925032" style="stroke: #000000"/>
     <use xlink:href="#m02b1377b8f" x="613.560667" y="95.641026" style="stroke: #000000"/>
     <use xlink:href="#m02b1377b8f" x="619.041432" y="132.923572" style="stroke: #000000"/>
     <use xlink:href="#m02b1377b8f" x="624.522196" y="64.666518" style="stroke: #000000"/>
     <use xlink:href="#m02b1377b8f" x="630.00296" y="111.117488" style="stroke: #000000"/>
     <use xlink:href="#m02b1377b8f" x="635.483724" y="64.619114" style="stroke: #000000"/>
     <use xlink:href="#m02b1377b8f" x="640.964488" y="52.51974" style="stroke: #000000"/>
     <use xlink:href="#m02b1377b8f" x="646.445252" y="41.194545" style="stroke: #000000"/>
     <use xlink:href="#m02b1377b8f" x="651.926016" y="74.85293" style="stroke: #000000"/>
     <use xlink:href="#m02b1377b8f" x="657.40678" y="86.508684" style="stroke: #000000"/>
     <use xlink:href="#m02b1377b8f" x="662.887544" y="88.079107" style="stroke: #000000"/>
     <use xlink:href="#m02b1377b8f" x="668.368308" y="103.725677" style="stroke: #000000"/>
     <use xlink:href="#m02b1377b8f" x="673.849072" y="89.405023" style="stroke: #000000"/>
     <use xlink:href="#m02b1377b8f" x="679.329836" y="67.572541" style="stroke: #000000"/>
     <use xlink:href="#m02b1377b8f" x="684.8106" y="58.712152" style="stroke: #000000"/>
     <use xlink:href="#m02b1377b8f" x="690.291364" y="117.438797" style="stroke: #000000"/>
     <use xlink:href="#m02b1377b8f" x="695.772128" y="119.355532" style="stroke: #000000"/>
    </g>
   </g>
   <g id="patch_8">
    <path d="M 413.786818 246.04 
L 413.786818 31.44 
" style="fill: none; stroke: #000000; stroke-width: 0.8; stroke-linejoin: miter; stroke-linecap: square"/>
   </g>
   <g id="patch_9">
    <path d="M 709.2 246.04 
L 709.2 31.44 
" style="fill: none; stroke: #000000; stroke-width: 0.8; stroke-linejoin: miter; stroke-linecap: square"/>
   </g>
   <g id="patch_10">
    <path d="M 413.786818 246.04 
L 709.2 246.04 
" style="fill: none; stroke: #000000; stroke-width: 0.8; stroke-linejoin: miter; stroke-linecap: square"/>
   </g>
   <g id="patch_11">
    <path d="M 413.786818 31.44 
L 709.2 31.44 
" style="fill: none; stroke: #000000; stroke-width: 0.8; stroke-linejoin: miter; stroke-linecap: square"/>
   </g>
   <g id="legend_1">
    <g id="patch_12">
     <path d="M 420.786818 68.79625 
L 524.491506 68.79625 
Q 526.491506 68.79625 526.491506 66.79625 
L 526.491506 38.44 
Q 526.491506 36.44 524.491506 36.44 
L 420.786818 36.44 
Q 418.786818 36.44 418.786818 38.44 
L 418.786818 66.79625 
Q 418.786818 68.79625 420.786818 68.79625 
z
" style="fill: #ffffff; opacity: 0.8; stroke: #cccccc; stroke-linejoin: miter"/>
    </g>
    <g id="line2d_79">
     <path d="M 422.786818 44.538437 
L 432.786818 44.538437 
L 442.786818 44.538437 
" style="fill: none; stroke: #1f77b4; stroke-opacity: 0.3; stroke-width: 1.5; stroke-linecap: square"/>
    </g>
    <g id="text_29">
     <!-- No relocations -->
     <g transform="translate(450.786818 48.038437) scale(0.1 -0.1)">
      <defs>
       <path id="DejaVuSans-4e" d="M 628 4666 
L 1478 4666 
L 3547 763 
L 3547 4666 
L 4159 4666 
L 4159 0 
L 3309 0 
L 1241 3903 
L 1241 0 
L 628 0 
L 628 4666 
z
" transform="scale(0.015625)"/>
      </defs>
      <use xlink:href="#DejaVuSans-4e"/>
      <use xlink:href="#DejaVuSans-6f" x="74.804688"/>
      <use xlink:href="#DejaVuSans-20" x="135.986328"/>
      <use xlink:href="#DejaVuSans-72" x="167.773438"/>
      <use xlink:href="#DejaVuSans-65" x="206.636719"/>
      <use xlink:href="#DejaVuSans-6c" x="268.160156"/>
      <use xlink:href="#DejaVuSans-6f" x="295.943359"/>
      <use xlink:href="#DejaVuSans-63" x="357.125"/>
      <use xlink:href="#DejaVuSans-61" x="412.105469"/>
      <use xlink:href="#DejaVuSans-74" x="473.384766"/>
      <use xlink:href="#DejaVuSans-69" x="512.59375"/>
      <use xlink:href="#DejaVuSans-6f" x="540.376953"/>
      <use xlink:href="#DejaVuSans-6e" x="601.558594"/>
      <use xlink:href="#DejaVuSans-73" x="664.9375"/>
     </g>
    </g>
    <g id="line2d_80">
     <path d="M 422.786818 59.216562 
L 432.786818 59.216562 
L 442.786818 59.216562 
" style="fill: none; stroke: #ff7f0e; stroke-opacity: 0.3; stroke-width: 1.5; stroke-linecap: square"/>
    </g>
    <g id="text_30">
     <!-- Relocations -->
     <g transform="translate(450.786818 62.716562) scale(0.1 -0.1)">
      <use xlink:href="#DejaVuSans-52"/>
      <use xlink:href="#DejaVuSans-65" x="64.982422"/>
      <use xlink:href="#DejaVuSans-6c" x="126.505859"/>
      <use xlink:href="#DejaVuSans-6f" x="154.289062"/>
      <use xlink:href="#DejaVuSans-63" x="215.470703"/>
      <use xlink:href="#DejaVuSans-61" x="270.451172"/>
      <use xlink:href="#DejaVuSans-74" x="331.730469"/>
      <use xlink:href="#DejaVuSans-69" x="370.939453"/>
      <use xlink:href="#DejaVuSans-6f" x="398.722656"/>
      <use xlink:href="#DejaVuSans-6e" x="459.904297"/>
      <use xlink:href="#DejaVuSans-73" x="523.283203"/>
     </g>
    </g>
   </g>
  </g>
 </g>
 <defs>
  <clipPath id="pf3a41e879a">
   <rect x="54.2" y="31.44" width="295.413182" height="214.6"/>
  </clipPath>
  <clipPath id="pd3bb080971">
   <rect x="413.786818" y="31.44" width="295.413182" height="214.6"/>
  </clipPath>
 </defs>
</svg>
