<?xml version="1.0" encoding="utf-8" standalone="no"?>
<!DOCTYPE svg PUBLIC "-//W3C//DTD SVG 1.1//EN"
  "http://www.w3.org/Graphics/SVG/1.1/DTD/svg11.dtd">
<svg xmlns:xlink="http://www.w3.org/1999/xlink" width="720pt" height="216pt" viewBox="0 0 720 216" xmlns="http://www.w3.org/2000/svg" version="1.1">
 <metadata>
  <rdf:RDF xmlns:dc="http://purl.org/dc/elements/1.1/" xmlns:cc="http://creativecommons.org/ns#" xmlns:rdf="http://www.w3.org/1999/02/22-rdf-syntax-ns#">
   <cc:Work>
    <dc:type rdf:resource="http://purl.org/dc/dcmitype/StillImage"/>
    <dc:date>2025-10-14T19:42:30.962658</dc:date>
    <dc:format>image/svg+xml</dc:format>
    <dc:creator>
     <cc:Agent>
      <dc:title>Matplotlib v3.9.2, https://matplotlib.org/</dc:title>
     </cc:Agent>
    </dc:creator>
   </cc:Work>
  </rdf:RDF>
 </metadata>
 <defs>
  <style type="text/css">*{stroke-linejoin: round; stroke-linecap: butt}</style>
 </defs>
 <g id="figure_1">
  <g id="patch_1">
   <path d="M 0 216 
L 720 216 
L 720 0 
L 0 0 
z
" style="fill: #ffffff"/>
  </g>
  <g id="axes_1">
   <g id="patch_2">
    <path d="M 90 101.52 
L 648 101.52 
L 648 25.92 
L 90 25.92 
z
" style="fill: #ffffff"/>
   </g>
   <g id="matplotlib.axis_1"/>
   <g id="matplotlib.axis_2">
    <g id="ytick_1">
     <g id="line2d_1">
      <path d="M 90 101.52 
L 648 101.52 
" clip-path="url(#p7daad8c96d)" style="fill: none; stroke: #b0b0b0; stroke-opacity: 0.1; stroke-width: 0.8; stroke-linecap: square"/>
     </g>
     <g id="line2d_2">
      <defs>
       <path id="mb3d5018a25" d="M 0 0 
L -3.5 0 
" style="stroke: #000000; stroke-width: 0.8"/>
      </defs>
      <g>
       <use xlink:href="#mb3d5018a25" x="90" y="101.52" style="stroke: #000000; stroke-width: 0.8"/>
      </g>
     </g>
     <g id="text_1">
      <!-- 0 -->
      <g transform="translate(76.6375 105.319219) scale(0.1 -0.1)">
       <defs>
        <path id="DejaVuSans-30" d="M 2034 4250 
Q 1547 4250 1301 3770 
Q 1056 3291 1056 2328 
Q 1056 1369 1301 889 
Q 1547 409 2034 409 
Q 2525 409 2770 889 
Q 3016 1369 3016 2328 
Q 3016 3291 2770 3770 
Q 2525 4250 2034 4250 
z
M 2034 4750 
Q 2819 4750 3233 4129 
Q 3647 3509 3647 2328 
Q 3647 1150 3233 529 
Q 2819 -91 2034 -91 
Q 1250 -91 836 529 
Q 422 1150 422 2328 
Q 422 3509 836 4129 
Q 1250 4750 2034 4750 
z
" transform="scale(0.015625)"/>
       </defs>
       <use xlink:href="#DejaVuSans-30"/>
      </g>
     </g>
    </g>
    <g id="ytick_2">
     <g id="line2d_3">
      <path d="M 90 65.52 
L 648 65.52 
" clip-path="url(#p7daad8c96d)" style="fill: none; stroke: #b0b0b0; stroke-opacity: 0.1; stroke-width: 0.8; stroke-linecap: square"/>
     </g>
     <g id="line2d_4">
      <g>
       <use xlink:href="#mb3d5018a25" x="90" y="65.52" style="stroke: #000000; stroke-width: 0.8"/>
      </g>
     </g>
     <g id="text_2">
      <!-- 10 -->
      <g transform="translate(70.275 69.319219) scale(0.1 -0.1)">
       <defs>
        <path id="DejaVuSans-31" d="M 794 531 
L 1825 531 
L 1825 4091 
L 703 3866 
L 703 4441 
L 1819 4666 
L 2450 4666 
L 2450 531 
L 3481 531 
L 3481 0 
L 794 0 
L 794 531 
z
" transform="scale(0.015625)"/>
       </defs>
       <use xlink:href="#DejaVuSans-31"/>
       <use xlink:href="#DejaVuSans-30" x="63.623047"/>
      </g>
     </g>
    </g>
    <g id="ytick_3">
     <g id="line2d_5">
      <path d="M 90 29.52 
L 648 29.52 
" clip-path="url(#p7daad8c96d)" style="fill: none; stroke: #b0b0b0; stroke-opacity: 0.1; stroke-width: 0.8; stroke-linecap: square"/>
     </g>
     <g id="line2d_6">
      <g>
       <use xlink:href="#mb3d5018a25" x="90" y="29.52" style="stroke: #000000; stroke-width: 0.8"/>
      </g>
     </g>
     <g id="text_3">
      <!-- 20 -->
      <g transform="translate(70.275 33.319219) scale(0.1 -0.1)">
       <defs>
        <path id="DejaVuSans-32" d="M 1228 531 
L 3431 531 
L 3431 0 
L 469 0 
L 469 531 
Q 828 903 1448 1529 
Q 2069 2156 2228 2338 
Q 2531 2678 2651 2914 
Q 2772 3150 2772 3378 
Q 2772 3750 2511 3984 
Q 2250 4219 1831 4219 
Q 1534 4219 1204 4116 
Q 875 4013 500 3803 
L 500 4441 
Q 881 4594 1212 4672 
Q 1544 4750 1819 4750 
Q 2544 4750 2975 4387 
Q 3406 4025 3406 3419 
Q 3406 3131 3298 2873 
Q 3191 2616 2906 2266 
Q 2828 2175 2409 1742 
Q 1991 1309 1228 531 
z
" transform="scale(0.015625)"/>
       </defs>
       <use xlink:href="#DejaVuSans-32"/>
       <use xlink:href="#DejaVuSans-30" x="63.623047"/>
      </g>
     </g>
    </g>
    <g id="text_4">
     <!-- Idle time -->
     <g transform="translate(64.195312 85.72) rotate(-90) scale(0.1 -0.1)">
      <defs>
       <path id="DejaVuSans-49" d="M 628 4666 
L 1259 4666 
L 1259 0 
L 628 0 
L 628 4666 
z
" transform="scale(0.015625)"/>
       <path id="DejaVuSans-64" d="M 2906 2969 
L 2906 4863 
L 3481 4863 
L 3481 0 
L 2906 0 
L 2906 525 
Q 2725 213 2448 61 
Q 2172 -91 1784 -91 
Q 1150 -91 751 415 
Q 353 922 353 1747 
Q 353 2572 751 3078 
Q 1150 3584 1784 3584 
Q 2172 3584 2448 3432 
Q 2725 3281 2906 2969 
z
M 947 1747 
Q 947 1113 1208 752 
Q 1469 391 1925 391 
Q 2381 391 2643 752 
Q 2906 1113 2906 1747 
Q 2906 2381 2643 2742 
Q 2381 3103 1925 3103 
Q 1469 3103 1208 2742 
Q 947 2381 947 1747 
z
" transform="scale(0.015625)"/>
       <path id="DejaVuSans-6c" d="M 603 4863 
L 1178 4863 
L 1178 0 
L 603 0 
L 603 4863 
z
" transform="scale(0.015625)"/>
       <path id="DejaVuSans-65" d="M 3597 1894 
L 3597 1613 
L 953 1613 
Q 991 1019 1311 708 
Q 1631 397 2203 397 
Q 2534 397 2845 478 
Q 3156 559 3463 722 
L 3463 178 
Q 3153 47 2828 -22 
Q 2503 -91 2169 -91 
Q 1331 -91 842 396 
Q 353 884 353 1716 
Q 353 2575 817 3079 
Q 1281 3584 2069 3584 
Q 2775 3584 3186 3129 
Q 3597 2675 3597 1894 
z
M 3022 2063 
Q 3016 2534 2758 2815 
Q 2500 3097 2075 3097 
Q 1594 3097 1305 2825 
Q 1016 2553 972 2059 
L 3022 2063 
z
" transform="scale(0.015625)"/>
       <path id="DejaVuSans-20" transform="scale(0.015625)"/>
       <path id="DejaVuSans-74" d="M 1172 4494 
L 1172 3500 
L 2356 3500 
L 2356 3053 
L 1172 3053 
L 1172 1153 
Q 1172 725 1289 603 
Q 1406 481 1766 481 
L 2356 481 
L 2356 0 
L 1766 0 
Q 1100 0 847 248 
Q 594 497 594 1153 
L 594 3053 
L 172 3053 
L 172 3500 
L 594 3500 
L 594 4494 
L 1172 4494 
z
" transform="scale(0.015625)"/>
       <path id="DejaVuSans-69" d="M 603 3500 
L 1178 3500 
L 1178 0 
L 603 0 
L 603 3500 
z
M 603 4863 
L 1178 4863 
L 1178 4134 
L 603 4134 
L 603 4863 
z
" transform="scale(0.015625)"/>
       <path id="DejaVuSans-6d" d="M 3328 2828 
Q 3544 3216 3844 3400 
Q 4144 3584 4550 3584 
Q 5097 3584 5394 3201 
Q 5691 2819 5691 2113 
L 5691 0 
L 5113 0 
L 5113 2094 
Q 5113 2597 4934 2840 
Q 4756 3084 4391 3084 
Q 3944 3084 3684 2787 
Q 3425 2491 3425 1978 
L 3425 0 
L 2847 0 
L 2847 2094 
Q 2847 2600 2669 2842 
Q 2491 3084 2119 3084 
Q 1678 3084 1418 2786 
Q 1159 2488 1159 1978 
L 1159 0 
L 581 0 
L 581 3500 
L 1159 3500 
L 1159 2956 
Q 1356 3278 1631 3431 
Q 1906 3584 2284 3584 
Q 2666 3584 2933 3390 
Q 3200 3197 3328 2828 
z
" transform="scale(0.015625)"/>
      </defs>
      <use xlink:href="#DejaVuSans-49"/>
      <use xlink:href="#DejaVuSans-64" x="29.492188"/>
      <use xlink:href="#DejaVuSans-6c" x="92.96875"/>
      <use xlink:href="#DejaVuSans-65" x="120.751953"/>
      <use xlink:href="#DejaVuSans-20" x="182.275391"/>
      <use xlink:href="#DejaVuSans-74" x="214.0625"/>
      <use xlink:href="#DejaVuSans-69" x="253.271484"/>
      <use xlink:href="#DejaVuSans-6d" x="281.054688"/>
      <use xlink:href="#DejaVuSans-65" x="378.466797"/>
     </g>
    </g>
   </g>
   <g id="line2d_7">
    <path d="M 115.363636 65.520012 
L 140.843088 65.601487 
L 143.159402 65.700789 
L 145.475716 65.919587 
L 147.79203 66.395893 
L 150.108344 67.406068 
L 152.424658 69.434748 
L 154.740971 73.096504 
L 157.057285 78.589495 
L 159.373599 84.904184 
L 161.689913 90.279429 
L 164.006227 84.904184 
L 166.32254 78.589495 
L 168.638854 73.096504 
L 170.955168 69.434748 
L 173.271482 67.406068 
L 175.587796 66.395893 
L 177.90411 65.919587 
L 180.220423 65.700789 
L 184.853051 65.556666 
L 201.067248 65.520137 
L 233.495641 65.609617 
L 235.811955 65.718825 
L 238.128269 65.959451 
L 240.444583 66.483275 
L 242.760897 67.594228 
L 245.07721 69.825294 
L 247.393524 73.852358 
L 249.709838 79.893346 
L 252.026152 86.838007 
L 254.342466 92.749502 
L 256.65878 84.904184 
L 258.975093 72.131478 
L 261.291407 69.352733 
L 263.607721 67.500357 
L 265.924035 66.474107 
L 268.240349 65.963089 
L 270.556663 65.722139 
L 275.18929 65.561222 
L 289.087173 65.52034 
L 326.148194 65.611258 
L 328.464508 65.722467 
L 330.780822 65.967499 
L 333.097136 66.500917 
L 335.41345 67.632216 
L 337.729763 69.904144 
L 340.046077 74.004962 
L 342.362391 80.156589 
L 344.678705 87.228439 
L 346.995019 93.248201 
L 349.311333 86.838007 
L 351.627646 78.589495 
L 353.94396 69.352733 
L 356.260274 57.919258 
L 358.576588 61.858074 
L 360.892902 63.819395 
L 363.209215 64.744175 
L 365.525529 65.168986 
L 370.158157 65.44881 
L 379.423412 65.517095 
L 418.800747 65.611589 
L 421.117061 65.723202 
L 423.433375 65.969124 
L 425.749689 66.504479 
L 428.066002 67.639886 
L 430.382316 69.920064 
L 432.69863 74.035773 
L 435.014944 80.209737 
L 437.331258 87.307266 
L 439.647572 93.348887 
L 441.963885 87.228439 
L 444.280199 79.893346 
L 446.596513 73.096504 
L 451.229141 61.858074 
L 453.545455 53.201611 
L 455.861768 59.900286 
L 458.178082 62.977416 
L 460.494396 64.373978 
L 462.81071 65.004336 
L 465.127024 65.288151 
L 469.759651 65.473171 
L 483.657534 65.519621 
L 511.4533 65.611656 
L 513.769614 65.72335 
L 516.085928 65.969452 
L 518.402242 66.505198 
L 520.718555 67.641435 
L 523.034869 69.923278 
L 525.351183 74.041993 
L 527.667497 80.220467 
L 529.983811 87.323181 
L 532.300125 93.369215 
L 534.616438 87.307266 
L 536.932752 80.156589 
L 539.249066 73.852358 
L 541.56538 69.434748 
L 543.881694 66.474107 
L 546.198007 63.819395 
L 548.514321 59.900286 
L 550.830635 52.122502 
L 553.146949 59.481329 
L 555.463263 62.80284 
L 557.779577 64.298331 
L 560.09589 64.970913 
L 562.412204 65.273248 
L 567.044832 65.470177 
L 578.626401 65.519087 
L 622.636364 65.52 
L 622.636364 65.52 
" clip-path="url(#p7daad8c96d)" style="fill: none; stroke: #8c564b; stroke-width: 1.5; stroke-linecap: square"/>
   </g>
   <g id="patch_3">
    <path d="M 90 101.52 
L 90 25.92 
" style="fill: none; stroke: #000000; stroke-width: 0.8; stroke-linejoin: miter; stroke-linecap: square"/>
   </g>
   <g id="patch_4">
    <path d="M 648 101.52 
L 648 25.92 
" style="fill: none; stroke: #000000; stroke-width: 0.8; stroke-linejoin: miter; stroke-linecap: square"/>
   </g>
   <g id="patch_5">
    <path d="M 90 101.52 
L 648 101.52 
" style="fill: none; stroke: #000000; stroke-width: 0.8; stroke-linejoin: miter; stroke-linecap: square"/>
   </g>
   <g id="patch_6">
    <path d="M 90 25.92 
L 648 25.92 
" style="fill: none; stroke: #000000; stroke-width: 0.8; stroke-linejoin: miter; stroke-linecap: square"/>
   </g>
   <g id="text_5">
    <!-- Figure 2.8.1b. Blurred demand and parked cars -->
    <g transform="translate(90 15.92) scale(0.12 -0.12)">
     <defs>
      <path id="DejaVuSans-46" d="M 628 4666 
L 3309 4666 
L 3309 4134 
L 1259 4134 
L 1259 2759 
L 3109 2759 
L 3109 2228 
L 1259 2228 
L 1259 0 
L 628 0 
L 628 4666 
z
" transform="scale(0.015625)"/>
      <path id="DejaVuSans-67" d="M 2906 1791 
Q 2906 2416 2648 2759 
Q 2391 3103 1925 3103 
Q 1463 3103 1205 2759 
Q 947 2416 947 1791 
Q 947 1169 1205 825 
Q 1463 481 1925 481 
Q 2391 481 2648 825 
Q 2906 1169 2906 1791 
z
M 3481 434 
Q 3481 -459 3084 -895 
Q 2688 -1331 1869 -1331 
Q 1566 -1331 1297 -1286 
Q 1028 -1241 775 -1147 
L 775 -588 
Q 1028 -725 1275 -790 
Q 1522 -856 1778 -856 
Q 2344 -856 2625 -561 
Q 2906 -266 2906 331 
L 2906 616 
Q 2728 306 2450 153 
Q 2172 0 1784 0 
Q 1141 0 747 490 
Q 353 981 353 1791 
Q 353 2603 747 3093 
Q 1141 3584 1784 3584 
Q 2172 3584 2450 3431 
Q 2728 3278 2906 2969 
L 2906 3500 
L 3481 3500 
L 3481 434 
z
" transform="scale(0.015625)"/>
      <path id="DejaVuSans-75" d="M 544 1381 
L 544 3500 
L 1119 3500 
L 1119 1403 
Q 1119 906 1312 657 
Q 1506 409 1894 409 
Q 2359 409 2629 706 
Q 2900 1003 2900 1516 
L 2900 3500 
L 3475 3500 
L 3475 0 
L 2900 0 
L 2900 538 
Q 2691 219 2414 64 
Q 2138 -91 1772 -91 
Q 1169 -91 856 284 
Q 544 659 544 1381 
z
M 1991 3584 
L 1991 3584 
z
" transform="scale(0.015625)"/>
      <path id="DejaVuSans-72" d="M 2631 2963 
Q 2534 3019 2420 3045 
Q 2306 3072 2169 3072 
Q 1681 3072 1420 2755 
Q 1159 2438 1159 1844 
L 1159 0 
L 581 0 
L 581 3500 
L 1159 3500 
L 1159 2956 
Q 1341 3275 1631 3429 
Q 1922 3584 2338 3584 
Q 2397 3584 2469 3576 
Q 2541 3569 2628 3553 
L 2631 2963 
z
" transform="scale(0.015625)"/>
      <path id="DejaVuSans-2e" d="M 684 794 
L 1344 794 
L 1344 0 
L 684 0 
L 684 794 
z
" transform="scale(0.015625)"/>
      <path id="DejaVuSans-38" d="M 2034 2216 
Q 1584 2216 1326 1975 
Q 1069 1734 1069 1313 
Q 1069 891 1326 650 
Q 1584 409 2034 409 
Q 2484 409 2743 651 
Q 3003 894 3003 1313 
Q 3003 1734 2745 1975 
Q 2488 2216 2034 2216 
z
M 1403 2484 
Q 997 2584 770 2862 
Q 544 3141 544 3541 
Q 544 4100 942 4425 
Q 1341 4750 2034 4750 
Q 2731 4750 3128 4425 
Q 3525 4100 3525 3541 
Q 3525 3141 3298 2862 
Q 3072 2584 2669 2484 
Q 3125 2378 3379 2068 
Q 3634 1759 3634 1313 
Q 3634 634 3220 271 
Q 2806 -91 2034 -91 
Q 1263 -91 848 271 
Q 434 634 434 1313 
Q 434 1759 690 2068 
Q 947 2378 1403 2484 
z
M 1172 3481 
Q 1172 3119 1398 2916 
Q 1625 2713 2034 2713 
Q 2441 2713 2670 2916 
Q 2900 3119 2900 3481 
Q 2900 3844 2670 4047 
Q 2441 4250 2034 4250 
Q 1625 4250 1398 4047 
Q 1172 3844 1172 3481 
z
" transform="scale(0.015625)"/>
      <path id="DejaVuSans-62" d="M 3116 1747 
Q 3116 2381 2855 2742 
Q 2594 3103 2138 3103 
Q 1681 3103 1420 2742 
Q 1159 2381 1159 1747 
Q 1159 1113 1420 752 
Q 1681 391 2138 391 
Q 2594 391 2855 752 
Q 3116 1113 3116 1747 
z
M 1159 2969 
Q 1341 3281 1617 3432 
Q 1894 3584 2278 3584 
Q 2916 3584 3314 3078 
Q 3713 2572 3713 1747 
Q 3713 922 3314 415 
Q 2916 -91 2278 -91 
Q 1894 -91 1617 61 
Q 1341 213 1159 525 
L 1159 0 
L 581 0 
L 581 4863 
L 1159 4863 
L 1159 2969 
z
" transform="scale(0.015625)"/>
      <path id="DejaVuSans-42" d="M 1259 2228 
L 1259 519 
L 2272 519 
Q 2781 519 3026 730 
Q 3272 941 3272 1375 
Q 3272 1813 3026 2020 
Q 2781 2228 2272 2228 
L 1259 2228 
z
M 1259 4147 
L 1259 2741 
L 2194 2741 
Q 2656 2741 2882 2914 
Q 3109 3088 3109 3444 
Q 3109 3797 2882 3972 
Q 2656 4147 2194 4147 
L 1259 4147 
z
M 628 4666 
L 2241 4666 
Q 2963 4666 3353 4366 
Q 3744 4066 3744 3513 
Q 3744 3084 3544 2831 
Q 3344 2578 2956 2516 
Q 3422 2416 3680 2098 
Q 3938 1781 3938 1306 
Q 3938 681 3513 340 
Q 3088 0 2303 0 
L 628 0 
L 628 4666 
z
" transform="scale(0.015625)"/>
      <path id="DejaVuSans-61" d="M 2194 1759 
Q 1497 1759 1228 1600 
Q 959 1441 959 1056 
Q 959 750 1161 570 
Q 1363 391 1709 391 
Q 2188 391 2477 730 
Q 2766 1069 2766 1631 
L 2766 1759 
L 2194 1759 
z
M 3341 1997 
L 3341 0 
L 2766 0 
L 2766 531 
Q 2569 213 2275 61 
Q 1981 -91 1556 -91 
Q 1019 -91 701 211 
Q 384 513 384 1019 
Q 384 1609 779 1909 
Q 1175 2209 1959 2209 
L 2766 2209 
L 2766 2266 
Q 2766 2663 2505 2880 
Q 2244 3097 1772 3097 
Q 1472 3097 1187 3025 
Q 903 2953 641 2809 
L 641 3341 
Q 956 3463 1253 3523 
Q 1550 3584 1831 3584 
Q 2591 3584 2966 3190 
Q 3341 2797 3341 1997 
z
" transform="scale(0.015625)"/>
      <path id="DejaVuSans-6e" d="M 3513 2113 
L 3513 0 
L 2938 0 
L 2938 2094 
Q 2938 2591 2744 2837 
Q 2550 3084 2163 3084 
Q 1697 3084 1428 2787 
Q 1159 2491 1159 1978 
L 1159 0 
L 581 0 
L 581 3500 
L 1159 3500 
L 1159 2956 
Q 1366 3272 1645 3428 
Q 1925 3584 2291 3584 
Q 2894 3584 3203 3211 
Q 3513 2838 3513 2113 
z
" transform="scale(0.015625)"/>
      <path id="DejaVuSans-70" d="M 1159 525 
L 1159 -1331 
L 581 -1331 
L 581 3500 
L 1159 3500 
L 1159 2969 
Q 1341 3281 1617 3432 
Q 1894 3584 2278 3584 
Q 2916 3584 3314 3078 
Q 3713 2572 3713 1747 
Q 3713 922 3314 415 
Q 2916 -91 2278 -91 
Q 1894 -91 1617 61 
Q 1341 213 1159 525 
z
M 3116 1747 
Q 3116 2381 2855 2742 
Q 2594 3103 2138 3103 
Q 1681 3103 1420 2742 
Q 1159 2381 1159 1747 
Q 1159 1113 1420 752 
Q 1681 391 2138 391 
Q 2594 391 2855 752 
Q 3116 1113 3116 1747 
z
" transform="scale(0.015625)"/>
      <path id="DejaVuSans-6b" d="M 581 4863 
L 1159 4863 
L 1159 1991 
L 2875 3500 
L 3609 3500 
L 1753 1863 
L 3688 0 
L 2938 0 
L 1159 1709 
L 1159 0 
L 581 0 
L 581 4863 
z
" transform="scale(0.015625)"/>
      <path id="DejaVuSans-63" d="M 3122 3366 
L 3122 2828 
Q 2878 2963 2633 3030 
Q 2388 3097 2138 3097 
Q 1578 3097 1268 2742 
Q 959 2388 959 1747 
Q 959 1106 1268 751 
Q 1578 397 2138 397 
Q 2388 397 2633 464 
Q 2878 531 3122 666 
L 3122 134 
Q 2881 22 2623 -34 
Q 2366 -91 2075 -91 
Q 1284 -91 818 406 
Q 353 903 353 1747 
Q 353 2603 823 3093 
Q 1294 3584 2113 3584 
Q 2378 3584 2631 3529 
Q 2884 3475 3122 3366 
z
" transform="scale(0.015625)"/>
      <path id="DejaVuSans-73" d="M 2834 3397 
L 2834 2853 
Q 2591 2978 2328 3040 
Q 2066 3103 1784 3103 
Q 1356 3103 1142 2972 
Q 928 2841 928 2578 
Q 928 2378 1081 2264 
Q 1234 2150 1697 2047 
L 1894 2003 
Q 2506 1872 2764 1633 
Q 3022 1394 3022 966 
Q 3022 478 2636 193 
Q 2250 -91 1575 -91 
Q 1294 -91 989 -36 
Q 684 19 347 128 
L 347 722 
Q 666 556 975 473 
Q 1284 391 1588 391 
Q 1994 391 2212 530 
Q 2431 669 2431 922 
Q 2431 1156 2273 1281 
Q 2116 1406 1581 1522 
L 1381 1569 
Q 847 1681 609 1914 
Q 372 2147 372 2553 
Q 372 3047 722 3315 
Q 1072 3584 1716 3584 
Q 2034 3584 2315 3537 
Q 2597 3491 2834 3397 
z
" transform="scale(0.015625)"/>
     </defs>
     <use xlink:href="#DejaVuSans-46"/>
     <use xlink:href="#DejaVuSans-69" x="50.269531"/>
     <use xlink:href="#DejaVuSans-67" x="78.052734"/>
     <use xlink:href="#DejaVuSans-75" x="141.529297"/>
     <use xlink:href="#DejaVuSans-72" x="204.908203"/>
     <use xlink:href="#DejaVuSans-65" x="243.771484"/>
     <use xlink:href="#DejaVuSans-20" x="305.294922"/>
     <use xlink:href="#DejaVuSans-32" x="337.082031"/>
     <use xlink:href="#DejaVuSans-2e" x="400.705078"/>
     <use xlink:href="#DejaVuSans-38" x="432.492188"/>
     <use xlink:href="#DejaVuSans-2e" x="496.115234"/>
     <use xlink:href="#DejaVuSans-31" x="527.902344"/>
     <use xlink:href="#DejaVuSans-62" x="591.525391"/>
     <use xlink:href="#DejaVuSans-2e" x="655.001953"/>
     <use xlink:href="#DejaVuSans-20" x="686.789062"/>
     <use xlink:href="#DejaVuSans-42" x="718.576172"/>
     <use xlink:href="#DejaVuSans-6c" x="787.179688"/>
     <use xlink:href="#DejaVuSans-75" x="814.962891"/>
     <use xlink:href="#DejaVuSans-72" x="878.341797"/>
     <use xlink:href="#DejaVuSans-72" x="917.705078"/>
     <use xlink:href="#DejaVuSans-65" x="956.568359"/>
     <use xlink:href="#DejaVuSans-64" x="1018.091797"/>
     <use xlink:href="#DejaVuSans-20" x="1081.568359"/>
     <use xlink:href="#DejaVuSans-64" x="1113.355469"/>
     <use xlink:href="#DejaVuSans-65" x="1176.832031"/>
     <use xlink:href="#DejaVuSans-6d" x="1238.355469"/>
     <use xlink:href="#DejaVuSans-61" x="1335.767578"/>
     <use xlink:href="#DejaVuSans-6e" x="1397.046875"/>
     <use xlink:href="#DejaVuSans-64" x="1460.425781"/>
     <use xlink:href="#DejaVuSans-20" x="1523.902344"/>
     <use xlink:href="#DejaVuSans-61" x="1555.689453"/>
     <use xlink:href="#DejaVuSans-6e" x="1616.96875"/>
     <use xlink:href="#DejaVuSans-64" x="1680.347656"/>
     <use xlink:href="#DejaVuSans-20" x="1743.824219"/>
     <use xlink:href="#DejaVuSans-70" x="1775.611328"/>
     <use xlink:href="#DejaVuSans-61" x="1839.087891"/>
     <use xlink:href="#DejaVuSans-72" x="1900.367188"/>
     <use xlink:href="#DejaVuSans-6b" x="1941.480469"/>
     <use xlink:href="#DejaVuSans-65" x="1995.765625"/>
     <use xlink:href="#DejaVuSans-64" x="2057.289062"/>
     <use xlink:href="#DejaVuSans-20" x="2120.765625"/>
     <use xlink:href="#DejaVuSans-63" x="2152.552734"/>
     <use xlink:href="#DejaVuSans-61" x="2207.533203"/>
     <use xlink:href="#DejaVuSans-72" x="2268.8125"/>
     <use xlink:href="#DejaVuSans-73" x="2309.925781"/>
    </g>
   </g>
   <g id="legend_1">
    <g id="patch_7">
     <path d="M 97 59.795937 
L 222.665625 59.795937 
Q 224.665625 59.795937 224.665625 57.795937 
L 224.665625 32.92 
Q 224.665625 30.92 222.665625 30.92 
L 97 30.92 
Q 95 30.92 95 32.92 
L 95 57.795937 
Q 95 59.795937 97 59.795937 
z
" style="fill: #ffffff; opacity: 0.8; stroke: #cccccc; stroke-linejoin: miter"/>
    </g>
    <g id="line2d_8">
     <path d="M 99 45.657187 
L 109 45.657187 
L 119 45.657187 
" style="fill: none; stroke: #8c564b; stroke-width: 1.5; stroke-linecap: square"/>
    </g>
    <g id="text_6">
     <!-- Expected idle time -->
     <g transform="translate(127 42.518438) scale(0.1 -0.1)">
      <defs>
       <path id="DejaVuSans-45" d="M 628 4666 
L 3578 4666 
L 3578 4134 
L 1259 4134 
L 1259 2753 
L 3481 2753 
L 3481 2222 
L 1259 2222 
L 1259 531 
L 3634 531 
L 3634 0 
L 628 0 
L 628 4666 
z
" transform="scale(0.015625)"/>
       <path id="DejaVuSans-78" d="M 3513 3500 
L 2247 1797 
L 3578 0 
L 2900 0 
L 1881 1375 
L 863 0 
L 184 0 
L 1544 1831 
L 300 3500 
L 978 3500 
L 1906 2253 
L 2834 3500 
L 3513 3500 
z
" transform="scale(0.015625)"/>
      </defs>
      <use xlink:href="#DejaVuSans-45"/>
      <use xlink:href="#DejaVuSans-78" x="63.183594"/>
      <use xlink:href="#DejaVuSans-70" x="122.363281"/>
      <use xlink:href="#DejaVuSans-65" x="185.839844"/>
      <use xlink:href="#DejaVuSans-63" x="247.363281"/>
      <use xlink:href="#DejaVuSans-74" x="302.34375"/>
      <use xlink:href="#DejaVuSans-65" x="341.552734"/>
      <use xlink:href="#DejaVuSans-64" x="403.076172"/>
      <use xlink:href="#DejaVuSans-20" x="466.552734"/>
      <use xlink:href="#DejaVuSans-69" x="498.339844"/>
      <use xlink:href="#DejaVuSans-64" x="526.123047"/>
      <use xlink:href="#DejaVuSans-6c" x="589.599609"/>
      <use xlink:href="#DejaVuSans-65" x="617.382812"/>
      <use xlink:href="#DejaVuSans-20" x="678.90625"/>
      <use xlink:href="#DejaVuSans-74" x="710.693359"/>
      <use xlink:href="#DejaVuSans-69" x="749.902344"/>
      <use xlink:href="#DejaVuSans-6d" x="777.685547"/>
      <use xlink:href="#DejaVuSans-65" x="875.097656"/>
     </g>
     <!-- after relocation -->
     <g transform="translate(127 53.71625) scale(0.1 -0.1)">
      <defs>
       <path id="DejaVuSans-66" d="M 2375 4863 
L 2375 4384 
L 1825 4384 
Q 1516 4384 1395 4259 
Q 1275 4134 1275 3809 
L 1275 3500 
L 2222 3500 
L 2222 3053 
L 1275 3053 
L 1275 0 
L 697 0 
L 697 3053 
L 147 3053 
L 147 3500 
L 697 3500 
L 697 3744 
Q 697 4328 969 4595 
Q 1241 4863 1831 4863 
L 2375 4863 
z
" transform="scale(0.015625)"/>
       <path id="DejaVuSans-6f" d="M 1959 3097 
Q 1497 3097 1228 2736 
Q 959 2375 959 1747 
Q 959 1119 1226 758 
Q 1494 397 1959 397 
Q 2419 397 2687 759 
Q 2956 1122 2956 1747 
Q 2956 2369 2687 2733 
Q 2419 3097 1959 3097 
z
M 1959 3584 
Q 2709 3584 3137 3096 
Q 3566 2609 3566 1747 
Q 3566 888 3137 398 
Q 2709 -91 1959 -91 
Q 1206 -91 779 398 
Q 353 888 353 1747 
Q 353 2609 779 3096 
Q 1206 3584 1959 3584 
z
" transform="scale(0.015625)"/>
      </defs>
      <use xlink:href="#DejaVuSans-61"/>
      <use xlink:href="#DejaVuSans-66" x="61.279297"/>
      <use xlink:href="#DejaVuSans-74" x="94.734375"/>
      <use xlink:href="#DejaVuSans-65" x="133.943359"/>
      <use xlink:href="#DejaVuSans-72" x="195.466797"/>
      <use xlink:href="#DejaVuSans-20" x="236.580078"/>
      <use xlink:href="#DejaVuSans-72" x="268.367188"/>
      <use xlink:href="#DejaVuSans-65" x="307.230469"/>
      <use xlink:href="#DejaVuSans-6c" x="368.753906"/>
      <use xlink:href="#DejaVuSans-6f" x="396.537109"/>
      <use xlink:href="#DejaVuSans-63" x="457.71875"/>
      <use xlink:href="#DejaVuSans-61" x="512.699219"/>
      <use xlink:href="#DejaVuSans-74" x="573.978516"/>
      <use xlink:href="#DejaVuSans-69" x="613.1875"/>
      <use xlink:href="#DejaVuSans-6f" x="640.970703"/>
      <use xlink:href="#DejaVuSans-6e" x="702.152344"/>
     </g>
    </g>
   </g>
  </g>
  <g id="axes_2">
   <g id="patch_8">
    <path d="M 90 192.24 
L 648 192.24 
L 648 116.64 
L 90 116.64 
z
" style="fill: #ffffff"/>
   </g>
   <g id="matplotlib.axis_3"/>
   <g id="matplotlib.axis_4">
    <g id="ytick_4">
     <g id="line2d_9">
      <path d="M 90 188.803636 
L 648 188.803636 
" clip-path="url(#p60ac460a91)" style="fill: none; stroke: #b0b0b0; stroke-opacity: 0.1; stroke-width: 0.8; stroke-linecap: square"/>
     </g>
     <g id="line2d_10">
      <g>
       <use xlink:href="#mb3d5018a25" x="90" y="188.803636" style="stroke: #000000; stroke-width: 0.8"/>
      </g>
     </g>
     <g id="text_7">
      <!-- 0.0 -->
      <g transform="translate(67.096875 192.602855) scale(0.1 -0.1)">
       <use xlink:href="#DejaVuSans-30"/>
       <use xlink:href="#DejaVuSans-2e" x="63.623047"/>
       <use xlink:href="#DejaVuSans-30" x="95.410156"/>
      </g>
     </g>
    </g>
    <g id="ytick_5">
     <g id="line2d_11">
      <path d="M 90 157.702091 
L 648 157.702091 
" clip-path="url(#p60ac460a91)" style="fill: none; stroke: #b0b0b0; stroke-opacity: 0.1; stroke-width: 0.8; stroke-linecap: square"/>
     </g>
     <g id="line2d_12">
      <g>
       <use xlink:href="#mb3d5018a25" x="90" y="157.702091" style="stroke: #000000; stroke-width: 0.8"/>
      </g>
     </g>
     <g id="text_8">
      <!-- 0.2 -->
      <g transform="translate(67.096875 161.501309) scale(0.1 -0.1)">
       <use xlink:href="#DejaVuSans-30"/>
       <use xlink:href="#DejaVuSans-2e" x="63.623047"/>
       <use xlink:href="#DejaVuSans-32" x="95.410156"/>
      </g>
     </g>
    </g>
    <g id="ytick_6">
     <g id="line2d_13">
      <path d="M 90 126.600545 
L 648 126.600545 
" clip-path="url(#p60ac460a91)" style="fill: none; stroke: #b0b0b0; stroke-opacity: 0.1; stroke-width: 0.8; stroke-linecap: square"/>
     </g>
     <g id="line2d_14">
      <g>
       <use xlink:href="#mb3d5018a25" x="90" y="126.600545" style="stroke: #000000; stroke-width: 0.8"/>
      </g>
     </g>
     <g id="text_9">
      <!-- 0.4 -->
      <g transform="translate(67.096875 130.399764) scale(0.1 -0.1)">
       <defs>
        <path id="DejaVuSans-34" d="M 2419 4116 
L 825 1625 
L 2419 1625 
L 2419 4116 
z
M 2253 4666 
L 3047 4666 
L 3047 1625 
L 3713 1625 
L 3713 1100 
L 3047 1100 
L 3047 0 
L 2419 0 
L 2419 1100 
L 313 1100 
L 313 1709 
L 2253 4666 
z
" transform="scale(0.015625)"/>
       </defs>
       <use xlink:href="#DejaVuSans-30"/>
       <use xlink:href="#DejaVuSans-2e" x="63.623047"/>
       <use xlink:href="#DejaVuSans-34" x="95.410156"/>
      </g>
     </g>
    </g>
    <g id="text_10">
     <!-- 1D map -->
     <g transform="translate(61.017187 174.168906) rotate(-90) scale(0.1 -0.1)">
      <defs>
       <path id="DejaVuSans-44" d="M 1259 4147 
L 1259 519 
L 2022 519 
Q 2988 519 3436 956 
Q 3884 1394 3884 2338 
Q 3884 3275 3436 3711 
Q 2988 4147 2022 4147 
L 1259 4147 
z
M 628 4666 
L 1925 4666 
Q 3281 4666 3915 4102 
Q 4550 3538 4550 2338 
Q 4550 1131 3912 565 
Q 3275 0 1925 0 
L 628 0 
L 628 4666 
z
" transform="scale(0.015625)"/>
      </defs>
      <use xlink:href="#DejaVuSans-31"/>
      <use xlink:href="#DejaVuSans-44" x="63.623047"/>
      <use xlink:href="#DejaVuSans-20" x="140.625"/>
      <use xlink:href="#DejaVuSans-6d" x="172.412109"/>
      <use xlink:href="#DejaVuSans-61" x="269.824219"/>
      <use xlink:href="#DejaVuSans-70" x="331.103516"/>
     </g>
    </g>
   </g>
   <g id="line2d_15">
    <path d="M 115.363636 173.252858 
L 115.363636 173.25285 
L 143.159402 173.164508 
L 143.159402 173.056224 
L 145.475716 173.056224 
L 145.475716 172.815234 
L 147.79203 172.815234 
L 147.79203 172.278902 
L 150.108344 172.278902 
L 150.108344 171.085272 
L 152.424658 171.085272 
L 152.424658 168.4288 
L 154.740971 168.4288 
L 154.740971 162.516713 
L 157.057285 162.516713 
L 157.057285 149.359122 
L 159.373599 149.359122 
L 159.373599 120.076364 
L 161.689913 120.076364 
L 161.689913 149.359122 
L 164.006227 149.359122 
L 164.006227 162.516713 
L 166.32254 162.516713 
L 166.32254 168.4288 
L 168.638854 168.4288 
L 168.638854 171.085272 
L 170.955168 171.085272 
L 170.955168 172.278902 
L 173.271482 172.278902 
L 173.271482 172.815234 
L 175.587796 172.815234 
L 175.587796 173.056224 
L 180.220423 173.164508 
L 180.220423 173.213163 
L 235.811955 173.164508 
L 235.811955 173.056224 
L 238.128269 173.056224 
L 238.128269 172.815234 
L 240.444583 172.815234 
L 240.444583 172.278902 
L 242.760897 172.278902 
L 242.760897 171.085272 
L 245.07721 171.085272 
L 245.07721 168.4288 
L 247.393524 168.4288 
L 247.393524 162.516713 
L 249.709838 162.516713 
L 249.709838 149.359122 
L 252.026152 149.359122 
L 252.026152 120.076364 
L 254.342466 120.076364 
L 254.342466 149.359122 
L 256.65878 149.359122 
L 256.65878 162.516713 
L 258.975093 162.516713 
L 258.975093 168.4288 
L 261.291407 168.4288 
L 261.291407 171.085272 
L 263.607721 171.085272 
L 263.607721 172.278902 
L 265.924035 172.278902 
L 265.924035 172.815234 
L 268.240349 172.815234 
L 268.240349 173.056224 
L 272.872976 173.164508 
L 272.872976 173.213163 
L 328.464508 173.164508 
L 328.464508 173.056224 
L 330.780822 173.056224 
L 330.780822 172.815234 
L 333.097136 172.815234 
L 333.097136 172.278902 
L 335.41345 172.278902 
L 335.41345 171.085272 
L 337.729763 171.085272 
L 337.729763 168.4288 
L 340.046077 168.4288 
L 340.046077 162.516713 
L 342.362391 162.516713 
L 342.362391 149.359122 
L 344.678705 149.359122 
L 344.678705 120.076364 
L 346.995019 120.076364 
L 346.995019 149.359122 
L 349.311333 149.359122 
L 349.311333 162.516713 
L 351.627646 162.516713 
L 351.627646 168.4288 
L 353.94396 168.4288 
L 353.94396 171.085272 
L 356.260274 171.085272 
L 356.260274 172.278902 
L 358.576588 172.278902 
L 358.576588 172.815234 
L 360.892902 172.815234 
L 360.892902 173.056224 
L 365.525529 173.164508 
L 365.525529 173.213163 
L 421.117061 173.164508 
L 421.117061 173.056224 
L 423.433375 173.056224 
L 423.433375 172.815234 
L 425.749689 172.815234 
L 425.749689 172.278902 
L 428.066002 172.278902 
L 428.066002 171.085272 
L 430.382316 171.085272 
L 430.382316 168.4288 
L 432.69863 168.4288 
L 432.69863 162.516713 
L 435.014944 162.516713 
L 435.014944 149.359122 
L 437.331258 149.359122 
L 437.331258 120.076364 
L 439.647572 120.076364 
L 439.647572 149.359122 
L 441.963885 149.359122 
L 441.963885 162.516713 
L 444.280199 162.516713 
L 444.280199 168.4288 
L 446.596513 168.4288 
L 446.596513 171.085272 
L 448.912827 171.085272 
L 448.912827 172.278902 
L 451.229141 172.278902 
L 451.229141 172.815234 
L 453.545455 172.815234 
L 453.545455 173.056224 
L 458.178082 173.164508 
L 458.178082 173.213163 
L 513.769614 173.164508 
L 513.769614 173.056224 
L 516.085928 173.056224 
L 516.085928 172.815234 
L 518.402242 172.815234 
L 518.402242 172.278902 
L 520.718555 172.278902 
L 520.718555 171.085272 
L 523.034869 171.085272 
L 523.034869 168.4288 
L 525.351183 168.4288 
L 525.351183 162.516713 
L 527.667497 162.516713 
L 527.667497 149.359122 
L 529.983811 149.359122 
L 529.983811 120.076364 
L 532.300125 120.076364 
L 532.300125 149.359122 
L 534.616438 149.359122 
L 534.616438 162.516713 
L 536.932752 162.516713 
L 536.932752 168.4288 
L 539.249066 168.4288 
L 539.249066 171.085272 
L 541.56538 171.085272 
L 541.56538 172.278902 
L 543.881694 172.278902 
L 543.881694 172.815234 
L 546.198007 172.815234 
L 546.198007 173.056224 
L 550.830635 173.164508 
L 550.830635 173.213163 
L 622.636364 173.252864 
L 622.636364 173.252864 
" clip-path="url(#p60ac460a91)" style="fill: none; stroke: #ff7f0e; stroke-width: 1.5; stroke-linecap: square"/>
   </g>
   <g id="line2d_16">
    <path d="M 115.363636 188.80363 
L 115.363636 188.803622 
L 143.159402 188.705463 
L 143.159402 188.585148 
L 145.475716 188.585148 
L 145.475716 188.317382 
L 147.79203 188.317382 
L 147.79203 187.721457 
L 150.108344 187.721457 
L 150.108344 186.395202 
L 152.424658 186.395202 
L 152.424658 183.443566 
L 154.740971 183.443566 
L 154.740971 176.874581 
L 157.057285 176.874581 
L 157.057285 162.255035 
L 159.373599 162.255035 
L 159.373599 129.718636 
L 161.689913 129.718636 
L 161.689913 162.255035 
L 164.006227 162.255035 
L 164.006227 176.874581 
L 166.32254 176.874581 
L 166.32254 183.443566 
L 168.638854 183.443566 
L 168.638854 186.395202 
L 170.955168 186.395202 
L 170.955168 187.721457 
L 173.271482 187.721457 
L 173.271482 188.317382 
L 175.587796 188.317382 
L 175.587796 188.585148 
L 177.90411 188.585148 
L 177.90411 188.705463 
L 240.444583 188.705463 
L 240.444583 188.585148 
L 242.760897 188.585148 
L 242.760897 188.317382 
L 245.07721 188.317382 
L 245.07721 187.721457 
L 247.393524 187.721457 
L 247.393524 186.395202 
L 249.709838 186.395202 
L 249.709838 183.443566 
L 252.026152 183.443566 
L 252.026152 176.874581 
L 254.342466 176.874581 
L 254.342466 162.255035 
L 256.65878 162.255035 
L 256.65878 129.718636 
L 258.975093 129.718636 
L 258.975093 162.255035 
L 261.291407 162.255035 
L 261.291407 176.874581 
L 263.607721 176.874581 
L 263.607721 183.443566 
L 265.924035 183.443566 
L 265.924035 186.395202 
L 268.240349 186.395202 
L 268.240349 187.721457 
L 270.556663 187.721457 
L 270.556663 188.317382 
L 272.872976 188.317382 
L 272.872976 188.585148 
L 275.18929 188.585148 
L 275.18929 188.705463 
L 337.729763 188.705463 
L 337.729763 188.585148 
L 340.046077 188.585148 
L 340.046077 188.317382 
L 342.362391 188.317382 
L 342.362391 187.721457 
L 344.678705 187.721457 
L 344.678705 186.395202 
L 346.995019 186.395202 
L 346.995019 183.443566 
L 349.311333 183.443566 
L 349.311333 176.874581 
L 351.627646 176.874581 
L 351.627646 162.255035 
L 353.94396 162.255035 
L 353.94396 129.718636 
L 356.260274 129.718636 
L 356.260274 162.255035 
L 358.576588 162.255035 
L 358.576588 176.874581 
L 360.892902 176.874581 
L 360.892902 183.443566 
L 363.209215 183.443566 
L 363.209215 186.395202 
L 365.525529 186.395202 
L 365.525529 187.721457 
L 367.841843 187.721457 
L 367.841843 188.317382 
L 370.158157 188.317382 
L 370.158157 188.585148 
L 372.474471 188.585148 
L 372.474471 188.705463 
L 435.014944 188.705463 
L 435.014944 188.585148 
L 437.331258 188.585148 
L 437.331258 188.317382 
L 439.647572 188.317382 
L 439.647572 187.721457 
L 441.963885 187.721457 
L 441.963885 186.395202 
L 444.280199 186.395202 
L 444.280199 183.443566 
L 446.596513 183.443566 
L 446.596513 176.874581 
L 448.912827 176.874581 
L 448.912827 162.255035 
L 451.229141 162.255035 
L 451.229141 129.718636 
L 453.545455 129.718636 
L 453.545455 162.255035 
L 455.861768 162.255035 
L 455.861768 176.874581 
L 458.178082 176.874581 
L 458.178082 183.443566 
L 460.494396 183.443566 
L 460.494396 186.395202 
L 462.81071 186.395202 
L 462.81071 187.721457 
L 465.127024 187.721457 
L 465.127024 188.317382 
L 467.443337 188.317382 
L 467.443337 188.585148 
L 469.759651 188.585148 
L 469.759651 188.705463 
L 532.300125 188.705463 
L 532.300125 188.585148 
L 534.616438 188.585148 
L 534.616438 188.317382 
L 536.932752 188.317382 
L 536.932752 187.721457 
L 539.249066 187.721457 
L 539.249066 186.395202 
L 541.56538 186.395202 
L 541.56538 183.443566 
L 543.881694 183.443566 
L 543.881694 176.874581 
L 546.198007 176.874581 
L 546.198007 162.255035 
L 548.514321 162.255035 
L 548.514321 129.718636 
L 550.830635 129.718636 
L 550.830635 162.255035 
L 553.146949 162.255035 
L 553.146949 176.874581 
L 555.463263 176.874581 
L 555.463263 183.443566 
L 557.779577 183.443566 
L 557.779577 186.395202 
L 560.09589 186.395202 
L 560.09589 187.721457 
L 562.412204 187.721457 
L 562.412204 188.317382 
L 564.728518 188.317382 
L 564.728518 188.585148 
L 567.044832 188.585148 
L 567.044832 188.705463 
L 622.636364 188.803636 
L 622.636364 188.803636 
" clip-path="url(#p60ac460a91)" style="fill: none; stroke: #1f77b4; stroke-width: 1.5; stroke-linecap: square"/>
   </g>
   <g id="patch_9">
    <path d="M 90 192.24 
L 90 116.64 
" style="fill: none; stroke: #000000; stroke-width: 0.8; stroke-linejoin: miter; stroke-linecap: square"/>
   </g>
   <g id="patch_10">
    <path d="M 648 192.24 
L 648 116.64 
" style="fill: none; stroke: #000000; stroke-width: 0.8; stroke-linejoin: miter; stroke-linecap: square"/>
   </g>
   <g id="patch_11">
    <path d="M 90 192.24 
L 648 192.24 
" style="fill: none; stroke: #000000; stroke-width: 0.8; stroke-linejoin: miter; stroke-linecap: square"/>
   </g>
   <g id="patch_12">
    <path d="M 90 116.64 
L 648 116.64 
" style="fill: none; stroke: #000000; stroke-width: 0.8; stroke-linejoin: miter; stroke-linecap: square"/>
   </g>
   <g id="legend_2">
    <g id="patch_13">
     <path d="M 566.592188 153.99625 
L 641 153.99625 
Q 643 153.99625 643 151.99625 
L 643 123.64 
Q 643 121.64 641 121.64 
L 566.592188 121.64 
Q 564.592188 121.64 564.592188 123.64 
L 564.592188 151.99625 
Q 564.592188 153.99625 566.592188 153.99625 
z
" style="fill: #ffffff; opacity: 0.8; stroke: #cccccc; stroke-linejoin: miter"/>
    </g>
    <g id="line2d_17">
     <path d="M 568.592188 129.738438 
L 568.592188 129.738438 
L 578.592188 129.738438 
L 578.592188 129.738438 
L 588.592188 129.738438 
" style="fill: none; stroke: #ff7f0e; stroke-width: 1.5; stroke-linecap: square"/>
    </g>
    <g id="text_11">
     <!-- Demand -->
     <g transform="translate(596.592188 133.238438) scale(0.1 -0.1)">
      <use xlink:href="#DejaVuSans-44"/>
      <use xlink:href="#DejaVuSans-65" x="77.001953"/>
      <use xlink:href="#DejaVuSans-6d" x="138.525391"/>
      <use xlink:href="#DejaVuSans-61" x="235.9375"/>
      <use xlink:href="#DejaVuSans-6e" x="297.216797"/>
      <use xlink:href="#DejaVuSans-64" x="360.595703"/>
     </g>
    </g>
    <g id="line2d_18">
     <path d="M 568.592188 144.416562 
L 568.592188 144.416562 
L 578.592188 144.416562 
L 578.592188 144.416562 
L 588.592188 144.416562 
" style="fill: none; stroke: #1f77b4; stroke-width: 1.5; stroke-linecap: square"/>
    </g>
    <g id="text_12">
     <!-- N cars -->
     <g transform="translate(596.592188 147.916562) scale(0.1 -0.1)">
      <defs>
       <path id="DejaVuSans-4e" d="M 628 4666 
L 1478 4666 
L 3547 763 
L 3547 4666 
L 4159 4666 
L 4159 0 
L 3309 0 
L 1241 3903 
L 1241 0 
L 628 0 
L 628 4666 
z
" transform="scale(0.015625)"/>
      </defs>
      <use xlink:href="#DejaVuSans-4e"/>
      <use xlink:href="#DejaVuSans-20" x="74.804688"/>
      <use xlink:href="#DejaVuSans-63" x="106.591797"/>
      <use xlink:href="#DejaVuSans-61" x="161.572266"/>
      <use xlink:href="#DejaVuSans-72" x="222.851562"/>
      <use xlink:href="#DejaVuSans-73" x="263.964844"/>
     </g>
    </g>
   </g>
  </g>
 </g>
 <defs>
  <clipPath id="p7daad8c96d">
   <rect x="90" y="25.92" width="558" height="75.6"/>
  </clipPath>
  <clipPath id="p60ac460a91">
   <rect x="90" y="116.64" width="558" height="75.6"/>
  </clipPath>
 </defs>
</svg>
