<?xml version="1.0" encoding="utf-8" standalone="no"?>
<!DOCTYPE svg PUBLIC "-//W3C//DTD SVG 1.1//EN"
  "http://www.w3.org/Graphics/SVG/1.1/DTD/svg11.dtd">
<svg xmlns:xlink="http://www.w3.org/1999/xlink" width="792pt" height="288pt" viewBox="0 0 792 288" xmlns="http://www.w3.org/2000/svg" version="1.1">
 <metadata>
  <rdf:RDF xmlns:dc="http://purl.org/dc/elements/1.1/" xmlns:cc="http://creativecommons.org/ns#" xmlns:rdf="http://www.w3.org/1999/02/22-rdf-syntax-ns#">
   <cc:Work>
    <dc:type rdf:resource="http://purl.org/dc/dcmitype/StillImage"/>
    <dc:date>2024-03-14T23:43:19.401948</dc:date>
    <dc:format>image/svg+xml</dc:format>
    <dc:creator>
     <cc:Agent>
      <dc:title>Matplotlib v3.8.0, https://matplotlib.org/</dc:title>
     </cc:Agent>
    </dc:creator>
   </cc:Work>
  </rdf:RDF>
 </metadata>
 <defs>
  <style type="text/css">*{stroke-linejoin: round; stroke-linecap: butt}</style>
 </defs>
 <g id="figure_1">
  <g id="patch_1">
   <path d="M 0 288 
L 792 288 
L 792 0 
L 0 0 
z
" style="fill: #ffffff"/>
  </g>
  <g id="axes_1">
   <g id="patch_2">
    <path d="M 53.03 245.93875 
L 393.345 245.93875 
L 393.345 26.88 
L 53.03 26.88 
z
" style="fill: #ffffff"/>
   </g>
   <g id="matplotlib.axis_1">
    <g id="xtick_1">
     <g id="line2d_1">
      <path d="M 68.498864 245.93875 
L 68.498864 26.88 
" clip-path="url(#pa3f26a8128)" style="fill: none; stroke: #b0b0b0; stroke-opacity: 0.1; stroke-width: 0.8; stroke-linecap: square"/>
     </g>
     <g id="line2d_2">
      <defs>
       <path id="mab4a20631a" d="M 0 0 
L 0 3.5 
" style="stroke: #000000; stroke-width: 0.8"/>
      </defs>
      <g>
       <use xlink:href="#mab4a20631a" x="68.498864" y="245.93875" style="stroke: #000000; stroke-width: 0.8"/>
      </g>
     </g>
     <g id="text_1">
      <!-- 1 -->
      <g transform="translate(65.317614 260.537188) scale(0.1 -0.1)">
       <defs>
        <path id="DejaVuSans-31" d="M 794 531 
L 1825 531 
L 1825 4091 
L 703 3866 
L 703 4441 
L 1819 4666 
L 2450 4666 
L 2450 531 
L 3481 531 
L 3481 0 
L 794 0 
L 794 531 
z
" transform="scale(0.015625)"/>
       </defs>
       <use xlink:href="#DejaVuSans-31"/>
      </g>
     </g>
    </g>
    <g id="xtick_2">
     <g id="line2d_3">
      <path d="M 112.695617 245.93875 
L 112.695617 26.88 
" clip-path="url(#pa3f26a8128)" style="fill: none; stroke: #b0b0b0; stroke-opacity: 0.1; stroke-width: 0.8; stroke-linecap: square"/>
     </g>
     <g id="line2d_4">
      <g>
       <use xlink:href="#mab4a20631a" x="112.695617" y="245.93875" style="stroke: #000000; stroke-width: 0.8"/>
      </g>
     </g>
     <g id="text_2">
      <!-- 2 -->
      <g transform="translate(109.514367 260.537188) scale(0.1 -0.1)">
       <defs>
        <path id="DejaVuSans-32" d="M 1228 531 
L 3431 531 
L 3431 0 
L 469 0 
L 469 531 
Q 828 903 1448 1529 
Q 2069 2156 2228 2338 
Q 2531 2678 2651 2914 
Q 2772 3150 2772 3378 
Q 2772 3750 2511 3984 
Q 2250 4219 1831 4219 
Q 1534 4219 1204 4116 
Q 875 4013 500 3803 
L 500 4441 
Q 881 4594 1212 4672 
Q 1544 4750 1819 4750 
Q 2544 4750 2975 4387 
Q 3406 4025 3406 3419 
Q 3406 3131 3298 2873 
Q 3191 2616 2906 2266 
Q 2828 2175 2409 1742 
Q 1991 1309 1228 531 
z
" transform="scale(0.015625)"/>
       </defs>
       <use xlink:href="#DejaVuSans-32"/>
      </g>
     </g>
    </g>
    <g id="xtick_3">
     <g id="line2d_5">
      <path d="M 156.89237 245.93875 
L 156.89237 26.88 
" clip-path="url(#pa3f26a8128)" style="fill: none; stroke: #b0b0b0; stroke-opacity: 0.1; stroke-width: 0.8; stroke-linecap: square"/>
     </g>
     <g id="line2d_6">
      <g>
       <use xlink:href="#mab4a20631a" x="156.89237" y="245.93875" style="stroke: #000000; stroke-width: 0.8"/>
      </g>
     </g>
     <g id="text_3">
      <!-- 3 -->
      <g transform="translate(153.71112 260.537188) scale(0.1 -0.1)">
       <defs>
        <path id="DejaVuSans-33" d="M 2597 2516 
Q 3050 2419 3304 2112 
Q 3559 1806 3559 1356 
Q 3559 666 3084 287 
Q 2609 -91 1734 -91 
Q 1441 -91 1130 -33 
Q 819 25 488 141 
L 488 750 
Q 750 597 1062 519 
Q 1375 441 1716 441 
Q 2309 441 2620 675 
Q 2931 909 2931 1356 
Q 2931 1769 2642 2001 
Q 2353 2234 1838 2234 
L 1294 2234 
L 1294 2753 
L 1863 2753 
Q 2328 2753 2575 2939 
Q 2822 3125 2822 3475 
Q 2822 3834 2567 4026 
Q 2313 4219 1838 4219 
Q 1578 4219 1281 4162 
Q 984 4106 628 3988 
L 628 4550 
Q 988 4650 1302 4700 
Q 1616 4750 1894 4750 
Q 2613 4750 3031 4423 
Q 3450 4097 3450 3541 
Q 3450 3153 3228 2886 
Q 3006 2619 2597 2516 
z
" transform="scale(0.015625)"/>
       </defs>
       <use xlink:href="#DejaVuSans-33"/>
      </g>
     </g>
    </g>
    <g id="xtick_4">
     <g id="line2d_7">
      <path d="M 201.089123 245.93875 
L 201.089123 26.88 
" clip-path="url(#pa3f26a8128)" style="fill: none; stroke: #b0b0b0; stroke-opacity: 0.1; stroke-width: 0.8; stroke-linecap: square"/>
     </g>
     <g id="line2d_8">
      <g>
       <use xlink:href="#mab4a20631a" x="201.089123" y="245.93875" style="stroke: #000000; stroke-width: 0.8"/>
      </g>
     </g>
     <g id="text_4">
      <!-- 4 -->
      <g transform="translate(197.907873 260.537188) scale(0.1 -0.1)">
       <defs>
        <path id="DejaVuSans-34" d="M 2419 4116 
L 825 1625 
L 2419 1625 
L 2419 4116 
z
M 2253 4666 
L 3047 4666 
L 3047 1625 
L 3713 1625 
L 3713 1100 
L 3047 1100 
L 3047 0 
L 2419 0 
L 2419 1100 
L 313 1100 
L 313 1709 
L 2253 4666 
z
" transform="scale(0.015625)"/>
       </defs>
       <use xlink:href="#DejaVuSans-34"/>
      </g>
     </g>
    </g>
    <g id="xtick_5">
     <g id="line2d_9">
      <path d="M 245.285877 245.93875 
L 245.285877 26.88 
" clip-path="url(#pa3f26a8128)" style="fill: none; stroke: #b0b0b0; stroke-opacity: 0.1; stroke-width: 0.8; stroke-linecap: square"/>
     </g>
     <g id="line2d_10">
      <g>
       <use xlink:href="#mab4a20631a" x="245.285877" y="245.93875" style="stroke: #000000; stroke-width: 0.8"/>
      </g>
     </g>
     <g id="text_5">
      <!-- 5 -->
      <g transform="translate(242.104627 260.537188) scale(0.1 -0.1)">
       <defs>
        <path id="DejaVuSans-35" d="M 691 4666 
L 3169 4666 
L 3169 4134 
L 1269 4134 
L 1269 2991 
Q 1406 3038 1543 3061 
Q 1681 3084 1819 3084 
Q 2600 3084 3056 2656 
Q 3513 2228 3513 1497 
Q 3513 744 3044 326 
Q 2575 -91 1722 -91 
Q 1428 -91 1123 -41 
Q 819 9 494 109 
L 494 744 
Q 775 591 1075 516 
Q 1375 441 1709 441 
Q 2250 441 2565 725 
Q 2881 1009 2881 1497 
Q 2881 1984 2565 2268 
Q 2250 2553 1709 2553 
Q 1456 2553 1204 2497 
Q 953 2441 691 2322 
L 691 4666 
z
" transform="scale(0.015625)"/>
       </defs>
       <use xlink:href="#DejaVuSans-35"/>
      </g>
     </g>
    </g>
    <g id="xtick_6">
     <g id="line2d_11">
      <path d="M 289.48263 245.93875 
L 289.48263 26.88 
" clip-path="url(#pa3f26a8128)" style="fill: none; stroke: #b0b0b0; stroke-opacity: 0.1; stroke-width: 0.8; stroke-linecap: square"/>
     </g>
     <g id="line2d_12">
      <g>
       <use xlink:href="#mab4a20631a" x="289.48263" y="245.93875" style="stroke: #000000; stroke-width: 0.8"/>
      </g>
     </g>
     <g id="text_6">
      <!-- 6 -->
      <g transform="translate(286.30138 260.537188) scale(0.1 -0.1)">
       <defs>
        <path id="DejaVuSans-36" d="M 2113 2584 
Q 1688 2584 1439 2293 
Q 1191 2003 1191 1497 
Q 1191 994 1439 701 
Q 1688 409 2113 409 
Q 2538 409 2786 701 
Q 3034 994 3034 1497 
Q 3034 2003 2786 2293 
Q 2538 2584 2113 2584 
z
M 3366 4563 
L 3366 3988 
Q 3128 4100 2886 4159 
Q 2644 4219 2406 4219 
Q 1781 4219 1451 3797 
Q 1122 3375 1075 2522 
Q 1259 2794 1537 2939 
Q 1816 3084 2150 3084 
Q 2853 3084 3261 2657 
Q 3669 2231 3669 1497 
Q 3669 778 3244 343 
Q 2819 -91 2113 -91 
Q 1303 -91 875 529 
Q 447 1150 447 2328 
Q 447 3434 972 4092 
Q 1497 4750 2381 4750 
Q 2619 4750 2861 4703 
Q 3103 4656 3366 4563 
z
" transform="scale(0.015625)"/>
       </defs>
       <use xlink:href="#DejaVuSans-36"/>
      </g>
     </g>
    </g>
    <g id="xtick_7">
     <g id="line2d_13">
      <path d="M 333.679383 245.93875 
L 333.679383 26.88 
" clip-path="url(#pa3f26a8128)" style="fill: none; stroke: #b0b0b0; stroke-opacity: 0.1; stroke-width: 0.8; stroke-linecap: square"/>
     </g>
     <g id="line2d_14">
      <g>
       <use xlink:href="#mab4a20631a" x="333.679383" y="245.93875" style="stroke: #000000; stroke-width: 0.8"/>
      </g>
     </g>
     <g id="text_7">
      <!-- 7 -->
      <g transform="translate(330.498133 260.537188) scale(0.1 -0.1)">
       <defs>
        <path id="DejaVuSans-37" d="M 525 4666 
L 3525 4666 
L 3525 4397 
L 1831 0 
L 1172 0 
L 2766 4134 
L 525 4134 
L 525 4666 
z
" transform="scale(0.015625)"/>
       </defs>
       <use xlink:href="#DejaVuSans-37"/>
      </g>
     </g>
    </g>
    <g id="xtick_8">
     <g id="line2d_15">
      <path d="M 377.876136 245.93875 
L 377.876136 26.88 
" clip-path="url(#pa3f26a8128)" style="fill: none; stroke: #b0b0b0; stroke-opacity: 0.1; stroke-width: 0.8; stroke-linecap: square"/>
     </g>
     <g id="line2d_16">
      <g>
       <use xlink:href="#mab4a20631a" x="377.876136" y="245.93875" style="stroke: #000000; stroke-width: 0.8"/>
      </g>
     </g>
     <g id="text_8">
      <!-- 8 -->
      <g transform="translate(374.694886 260.537188) scale(0.1 -0.1)">
       <defs>
        <path id="DejaVuSans-38" d="M 2034 2216 
Q 1584 2216 1326 1975 
Q 1069 1734 1069 1313 
Q 1069 891 1326 650 
Q 1584 409 2034 409 
Q 2484 409 2743 651 
Q 3003 894 3003 1313 
Q 3003 1734 2745 1975 
Q 2488 2216 2034 2216 
z
M 1403 2484 
Q 997 2584 770 2862 
Q 544 3141 544 3541 
Q 544 4100 942 4425 
Q 1341 4750 2034 4750 
Q 2731 4750 3128 4425 
Q 3525 4100 3525 3541 
Q 3525 3141 3298 2862 
Q 3072 2584 2669 2484 
Q 3125 2378 3379 2068 
Q 3634 1759 3634 1313 
Q 3634 634 3220 271 
Q 2806 -91 2034 -91 
Q 1263 -91 848 271 
Q 434 634 434 1313 
Q 434 1759 690 2068 
Q 947 2378 1403 2484 
z
M 1172 3481 
Q 1172 3119 1398 2916 
Q 1625 2713 2034 2713 
Q 2441 2713 2670 2916 
Q 2900 3119 2900 3481 
Q 2900 3844 2670 4047 
Q 2441 4250 2034 4250 
Q 1625 4250 1398 4047 
Q 1172 3844 1172 3481 
z
" transform="scale(0.015625)"/>
       </defs>
       <use xlink:href="#DejaVuSans-38"/>
      </g>
     </g>
    </g>
    <g id="text_9">
     <!-- Max N_cars in the hub -->
     <g transform="translate(167.504687 274.215312) scale(0.1 -0.1)">
      <defs>
       <path id="DejaVuSans-4d" d="M 628 4666 
L 1569 4666 
L 2759 1491 
L 3956 4666 
L 4897 4666 
L 4897 0 
L 4281 0 
L 4281 4097 
L 3078 897 
L 2444 897 
L 1241 4097 
L 1241 0 
L 628 0 
L 628 4666 
z
" transform="scale(0.015625)"/>
       <path id="DejaVuSans-61" d="M 2194 1759 
Q 1497 1759 1228 1600 
Q 959 1441 959 1056 
Q 959 750 1161 570 
Q 1363 391 1709 391 
Q 2188 391 2477 730 
Q 2766 1069 2766 1631 
L 2766 1759 
L 2194 1759 
z
M 3341 1997 
L 3341 0 
L 2766 0 
L 2766 531 
Q 2569 213 2275 61 
Q 1981 -91 1556 -91 
Q 1019 -91 701 211 
Q 384 513 384 1019 
Q 384 1609 779 1909 
Q 1175 2209 1959 2209 
L 2766 2209 
L 2766 2266 
Q 2766 2663 2505 2880 
Q 2244 3097 1772 3097 
Q 1472 3097 1187 3025 
Q 903 2953 641 2809 
L 641 3341 
Q 956 3463 1253 3523 
Q 1550 3584 1831 3584 
Q 2591 3584 2966 3190 
Q 3341 2797 3341 1997 
z
" transform="scale(0.015625)"/>
       <path id="DejaVuSans-78" d="M 3513 3500 
L 2247 1797 
L 3578 0 
L 2900 0 
L 1881 1375 
L 863 0 
L 184 0 
L 1544 1831 
L 300 3500 
L 978 3500 
L 1906 2253 
L 2834 3500 
L 3513 3500 
z
" transform="scale(0.015625)"/>
       <path id="DejaVuSans-20" transform="scale(0.015625)"/>
       <path id="DejaVuSans-4e" d="M 628 4666 
L 1478 4666 
L 3547 763 
L 3547 4666 
L 4159 4666 
L 4159 0 
L 3309 0 
L 1241 3903 
L 1241 0 
L 628 0 
L 628 4666 
z
" transform="scale(0.015625)"/>
       <path id="DejaVuSans-5f" d="M 3263 -1063 
L 3263 -1509 
L -63 -1509 
L -63 -1063 
L 3263 -1063 
z
" transform="scale(0.015625)"/>
       <path id="DejaVuSans-63" d="M 3122 3366 
L 3122 2828 
Q 2878 2963 2633 3030 
Q 2388 3097 2138 3097 
Q 1578 3097 1268 2742 
Q 959 2388 959 1747 
Q 959 1106 1268 751 
Q 1578 397 2138 397 
Q 2388 397 2633 464 
Q 2878 531 3122 666 
L 3122 134 
Q 2881 22 2623 -34 
Q 2366 -91 2075 -91 
Q 1284 -91 818 406 
Q 353 903 353 1747 
Q 353 2603 823 3093 
Q 1294 3584 2113 3584 
Q 2378 3584 2631 3529 
Q 2884 3475 3122 3366 
z
" transform="scale(0.015625)"/>
       <path id="DejaVuSans-72" d="M 2631 2963 
Q 2534 3019 2420 3045 
Q 2306 3072 2169 3072 
Q 1681 3072 1420 2755 
Q 1159 2438 1159 1844 
L 1159 0 
L 581 0 
L 581 3500 
L 1159 3500 
L 1159 2956 
Q 1341 3275 1631 3429 
Q 1922 3584 2338 3584 
Q 2397 3584 2469 3576 
Q 2541 3569 2628 3553 
L 2631 2963 
z
" transform="scale(0.015625)"/>
       <path id="DejaVuSans-73" d="M 2834 3397 
L 2834 2853 
Q 2591 2978 2328 3040 
Q 2066 3103 1784 3103 
Q 1356 3103 1142 2972 
Q 928 2841 928 2578 
Q 928 2378 1081 2264 
Q 1234 2150 1697 2047 
L 1894 2003 
Q 2506 1872 2764 1633 
Q 3022 1394 3022 966 
Q 3022 478 2636 193 
Q 2250 -91 1575 -91 
Q 1294 -91 989 -36 
Q 684 19 347 128 
L 347 722 
Q 666 556 975 473 
Q 1284 391 1588 391 
Q 1994 391 2212 530 
Q 2431 669 2431 922 
Q 2431 1156 2273 1281 
Q 2116 1406 1581 1522 
L 1381 1569 
Q 847 1681 609 1914 
Q 372 2147 372 2553 
Q 372 3047 722 3315 
Q 1072 3584 1716 3584 
Q 2034 3584 2315 3537 
Q 2597 3491 2834 3397 
z
" transform="scale(0.015625)"/>
       <path id="DejaVuSans-69" d="M 603 3500 
L 1178 3500 
L 1178 0 
L 603 0 
L 603 3500 
z
M 603 4863 
L 1178 4863 
L 1178 4134 
L 603 4134 
L 603 4863 
z
" transform="scale(0.015625)"/>
       <path id="DejaVuSans-6e" d="M 3513 2113 
L 3513 0 
L 2938 0 
L 2938 2094 
Q 2938 2591 2744 2837 
Q 2550 3084 2163 3084 
Q 1697 3084 1428 2787 
Q 1159 2491 1159 1978 
L 1159 0 
L 581 0 
L 581 3500 
L 1159 3500 
L 1159 2956 
Q 1366 3272 1645 3428 
Q 1925 3584 2291 3584 
Q 2894 3584 3203 3211 
Q 3513 2838 3513 2113 
z
" transform="scale(0.015625)"/>
       <path id="DejaVuSans-74" d="M 1172 4494 
L 1172 3500 
L 2356 3500 
L 2356 3053 
L 1172 3053 
L 1172 1153 
Q 1172 725 1289 603 
Q 1406 481 1766 481 
L 2356 481 
L 2356 0 
L 1766 0 
Q 1100 0 847 248 
Q 594 497 594 1153 
L 594 3053 
L 172 3053 
L 172 3500 
L 594 3500 
L 594 4494 
L 1172 4494 
z
" transform="scale(0.015625)"/>
       <path id="DejaVuSans-68" d="M 3513 2113 
L 3513 0 
L 2938 0 
L 2938 2094 
Q 2938 2591 2744 2837 
Q 2550 3084 2163 3084 
Q 1697 3084 1428 2787 
Q 1159 2491 1159 1978 
L 1159 0 
L 581 0 
L 581 4863 
L 1159 4863 
L 1159 2956 
Q 1366 3272 1645 3428 
Q 1925 3584 2291 3584 
Q 2894 3584 3203 3211 
Q 3513 2838 3513 2113 
z
" transform="scale(0.015625)"/>
       <path id="DejaVuSans-65" d="M 3597 1894 
L 3597 1613 
L 953 1613 
Q 991 1019 1311 708 
Q 1631 397 2203 397 
Q 2534 397 2845 478 
Q 3156 559 3463 722 
L 3463 178 
Q 3153 47 2828 -22 
Q 2503 -91 2169 -91 
Q 1331 -91 842 396 
Q 353 884 353 1716 
Q 353 2575 817 3079 
Q 1281 3584 2069 3584 
Q 2775 3584 3186 3129 
Q 3597 2675 3597 1894 
z
M 3022 2063 
Q 3016 2534 2758 2815 
Q 2500 3097 2075 3097 
Q 1594 3097 1305 2825 
Q 1016 2553 972 2059 
L 3022 2063 
z
" transform="scale(0.015625)"/>
       <path id="DejaVuSans-75" d="M 544 1381 
L 544 3500 
L 1119 3500 
L 1119 1403 
Q 1119 906 1312 657 
Q 1506 409 1894 409 
Q 2359 409 2629 706 
Q 2900 1003 2900 1516 
L 2900 3500 
L 3475 3500 
L 3475 0 
L 2900 0 
L 2900 538 
Q 2691 219 2414 64 
Q 2138 -91 1772 -91 
Q 1169 -91 856 284 
Q 544 659 544 1381 
z
M 1991 3584 
L 1991 3584 
z
" transform="scale(0.015625)"/>
       <path id="DejaVuSans-62" d="M 3116 1747 
Q 3116 2381 2855 2742 
Q 2594 3103 2138 3103 
Q 1681 3103 1420 2742 
Q 1159 2381 1159 1747 
Q 1159 1113 1420 752 
Q 1681 391 2138 391 
Q 2594 391 2855 752 
Q 3116 1113 3116 1747 
z
M 1159 2969 
Q 1341 3281 1617 3432 
Q 1894 3584 2278 3584 
Q 2916 3584 3314 3078 
Q 3713 2572 3713 1747 
Q 3713 922 3314 415 
Q 2916 -91 2278 -91 
Q 1894 -91 1617 61 
Q 1341 213 1159 525 
L 1159 0 
L 581 0 
L 581 4863 
L 1159 4863 
L 1159 2969 
z
" transform="scale(0.015625)"/>
      </defs>
      <use xlink:href="#DejaVuSans-4d"/>
      <use xlink:href="#DejaVuSans-61" x="86.279297"/>
      <use xlink:href="#DejaVuSans-78" x="147.558594"/>
      <use xlink:href="#DejaVuSans-20" x="206.738281"/>
      <use xlink:href="#DejaVuSans-4e" x="238.525391"/>
      <use xlink:href="#DejaVuSans-5f" x="313.330078"/>
      <use xlink:href="#DejaVuSans-63" x="363.330078"/>
      <use xlink:href="#DejaVuSans-61" x="418.310547"/>
      <use xlink:href="#DejaVuSans-72" x="479.589844"/>
      <use xlink:href="#DejaVuSans-73" x="520.703125"/>
      <use xlink:href="#DejaVuSans-20" x="572.802734"/>
      <use xlink:href="#DejaVuSans-69" x="604.589844"/>
      <use xlink:href="#DejaVuSans-6e" x="632.373047"/>
      <use xlink:href="#DejaVuSans-20" x="695.751953"/>
      <use xlink:href="#DejaVuSans-74" x="727.539062"/>
      <use xlink:href="#DejaVuSans-68" x="766.748047"/>
      <use xlink:href="#DejaVuSans-65" x="830.126953"/>
      <use xlink:href="#DejaVuSans-20" x="891.650391"/>
      <use xlink:href="#DejaVuSans-68" x="923.4375"/>
      <use xlink:href="#DejaVuSans-75" x="986.816406"/>
      <use xlink:href="#DejaVuSans-62" x="1050.195312"/>
     </g>
    </g>
   </g>
   <g id="matplotlib.axis_2">
    <g id="ytick_1">
     <g id="line2d_17">
      <path d="M 53.03 221.33857 
L 393.345 221.33857 
" clip-path="url(#pa3f26a8128)" style="fill: none; stroke: #b0b0b0; stroke-opacity: 0.1; stroke-width: 0.8; stroke-linecap: square"/>
     </g>
     <g id="line2d_18">
      <defs>
       <path id="m1ed07fc58c" d="M 0 0 
L -3.5 0 
" style="stroke: #000000; stroke-width: 0.8"/>
      </defs>
      <g>
       <use xlink:href="#m1ed07fc58c" x="53.03" y="221.33857" style="stroke: #000000; stroke-width: 0.8"/>
      </g>
     </g>
     <g id="text_10">
      <!-- −60 -->
      <g transform="translate(24.925313 225.137788) scale(0.1 -0.1)">
       <defs>
        <path id="DejaVuSans-2212" d="M 678 2272 
L 4684 2272 
L 4684 1741 
L 678 1741 
L 678 2272 
z
" transform="scale(0.015625)"/>
        <path id="DejaVuSans-30" d="M 2034 4250 
Q 1547 4250 1301 3770 
Q 1056 3291 1056 2328 
Q 1056 1369 1301 889 
Q 1547 409 2034 409 
Q 2525 409 2770 889 
Q 3016 1369 3016 2328 
Q 3016 3291 2770 3770 
Q 2525 4250 2034 4250 
z
M 2034 4750 
Q 2819 4750 3233 4129 
Q 3647 3509 3647 2328 
Q 3647 1150 3233 529 
Q 2819 -91 2034 -91 
Q 1250 -91 836 529 
Q 422 1150 422 2328 
Q 422 3509 836 4129 
Q 1250 4750 2034 4750 
z
" transform="scale(0.015625)"/>
       </defs>
       <use xlink:href="#DejaVuSans-2212"/>
       <use xlink:href="#DejaVuSans-36" x="83.789062"/>
       <use xlink:href="#DejaVuSans-30" x="147.412109"/>
      </g>
     </g>
    </g>
    <g id="ytick_2">
     <g id="line2d_19">
      <path d="M 53.03 194.981233 
L 393.345 194.981233 
" clip-path="url(#pa3f26a8128)" style="fill: none; stroke: #b0b0b0; stroke-opacity: 0.1; stroke-width: 0.8; stroke-linecap: square"/>
     </g>
     <g id="line2d_20">
      <g>
       <use xlink:href="#m1ed07fc58c" x="53.03" y="194.981233" style="stroke: #000000; stroke-width: 0.8"/>
      </g>
     </g>
     <g id="text_11">
      <!-- −50 -->
      <g transform="translate(24.925313 198.780452) scale(0.1 -0.1)">
       <use xlink:href="#DejaVuSans-2212"/>
       <use xlink:href="#DejaVuSans-35" x="83.789062"/>
       <use xlink:href="#DejaVuSans-30" x="147.412109"/>
      </g>
     </g>
    </g>
    <g id="ytick_3">
     <g id="line2d_21">
      <path d="M 53.03 168.623897 
L 393.345 168.623897 
" clip-path="url(#pa3f26a8128)" style="fill: none; stroke: #b0b0b0; stroke-opacity: 0.1; stroke-width: 0.8; stroke-linecap: square"/>
     </g>
     <g id="line2d_22">
      <g>
       <use xlink:href="#m1ed07fc58c" x="53.03" y="168.623897" style="stroke: #000000; stroke-width: 0.8"/>
      </g>
     </g>
     <g id="text_12">
      <!-- −40 -->
      <g transform="translate(24.925313 172.423116) scale(0.1 -0.1)">
       <use xlink:href="#DejaVuSans-2212"/>
       <use xlink:href="#DejaVuSans-34" x="83.789062"/>
       <use xlink:href="#DejaVuSans-30" x="147.412109"/>
      </g>
     </g>
    </g>
    <g id="ytick_4">
     <g id="line2d_23">
      <path d="M 53.03 142.266561 
L 393.345 142.266561 
" clip-path="url(#pa3f26a8128)" style="fill: none; stroke: #b0b0b0; stroke-opacity: 0.1; stroke-width: 0.8; stroke-linecap: square"/>
     </g>
     <g id="line2d_24">
      <g>
       <use xlink:href="#m1ed07fc58c" x="53.03" y="142.266561" style="stroke: #000000; stroke-width: 0.8"/>
      </g>
     </g>
     <g id="text_13">
      <!-- −30 -->
      <g transform="translate(24.925313 146.06578) scale(0.1 -0.1)">
       <use xlink:href="#DejaVuSans-2212"/>
       <use xlink:href="#DejaVuSans-33" x="83.789062"/>
       <use xlink:href="#DejaVuSans-30" x="147.412109"/>
      </g>
     </g>
    </g>
    <g id="ytick_5">
     <g id="line2d_25">
      <path d="M 53.03 115.909225 
L 393.345 115.909225 
" clip-path="url(#pa3f26a8128)" style="fill: none; stroke: #b0b0b0; stroke-opacity: 0.1; stroke-width: 0.8; stroke-linecap: square"/>
     </g>
     <g id="line2d_26">
      <g>
       <use xlink:href="#m1ed07fc58c" x="53.03" y="115.909225" style="stroke: #000000; stroke-width: 0.8"/>
      </g>
     </g>
     <g id="text_14">
      <!-- −20 -->
      <g transform="translate(24.925313 119.708443) scale(0.1 -0.1)">
       <use xlink:href="#DejaVuSans-2212"/>
       <use xlink:href="#DejaVuSans-32" x="83.789062"/>
       <use xlink:href="#DejaVuSans-30" x="147.412109"/>
      </g>
     </g>
    </g>
    <g id="ytick_6">
     <g id="line2d_27">
      <path d="M 53.03 89.551888 
L 393.345 89.551888 
" clip-path="url(#pa3f26a8128)" style="fill: none; stroke: #b0b0b0; stroke-opacity: 0.1; stroke-width: 0.8; stroke-linecap: square"/>
     </g>
     <g id="line2d_28">
      <g>
       <use xlink:href="#m1ed07fc58c" x="53.03" y="89.551888" style="stroke: #000000; stroke-width: 0.8"/>
      </g>
     </g>
     <g id="text_15">
      <!-- −10 -->
      <g transform="translate(24.925313 93.351107) scale(0.1 -0.1)">
       <use xlink:href="#DejaVuSans-2212"/>
       <use xlink:href="#DejaVuSans-31" x="83.789062"/>
       <use xlink:href="#DejaVuSans-30" x="147.412109"/>
      </g>
     </g>
    </g>
    <g id="ytick_7">
     <g id="line2d_29">
      <path d="M 53.03 63.194552 
L 393.345 63.194552 
" clip-path="url(#pa3f26a8128)" style="fill: none; stroke: #b0b0b0; stroke-opacity: 0.1; stroke-width: 0.8; stroke-linecap: square"/>
     </g>
     <g id="line2d_30">
      <g>
       <use xlink:href="#m1ed07fc58c" x="53.03" y="63.194552" style="stroke: #000000; stroke-width: 0.8"/>
      </g>
     </g>
     <g id="text_16">
      <!-- 0 -->
      <g transform="translate(39.6675 66.993771) scale(0.1 -0.1)">
       <use xlink:href="#DejaVuSans-30"/>
      </g>
     </g>
    </g>
    <g id="ytick_8">
     <g id="line2d_31">
      <path d="M 53.03 36.837216 
L 393.345 36.837216 
" clip-path="url(#pa3f26a8128)" style="fill: none; stroke: #b0b0b0; stroke-opacity: 0.1; stroke-width: 0.8; stroke-linecap: square"/>
     </g>
     <g id="line2d_32">
      <g>
       <use xlink:href="#m1ed07fc58c" x="53.03" y="36.837216" style="stroke: #000000; stroke-width: 0.8"/>
      </g>
     </g>
     <g id="text_17">
      <!-- 10 -->
      <g transform="translate(33.305 40.636435) scale(0.1 -0.1)">
       <use xlink:href="#DejaVuSans-31"/>
       <use xlink:href="#DejaVuSans-30" x="63.623047"/>
      </g>
     </g>
    </g>
    <g id="text_18">
     <!-- Total CM2 profit, €/day -->
     <g transform="translate(18.845625 192.778125) rotate(-90) scale(0.1 -0.1)">
      <defs>
       <path id="DejaVuSans-54" d="M -19 4666 
L 3928 4666 
L 3928 4134 
L 2272 4134 
L 2272 0 
L 1638 0 
L 1638 4134 
L -19 4134 
L -19 4666 
z
" transform="scale(0.015625)"/>
       <path id="DejaVuSans-6f" d="M 1959 3097 
Q 1497 3097 1228 2736 
Q 959 2375 959 1747 
Q 959 1119 1226 758 
Q 1494 397 1959 397 
Q 2419 397 2687 759 
Q 2956 1122 2956 1747 
Q 2956 2369 2687 2733 
Q 2419 3097 1959 3097 
z
M 1959 3584 
Q 2709 3584 3137 3096 
Q 3566 2609 3566 1747 
Q 3566 888 3137 398 
Q 2709 -91 1959 -91 
Q 1206 -91 779 398 
Q 353 888 353 1747 
Q 353 2609 779 3096 
Q 1206 3584 1959 3584 
z
" transform="scale(0.015625)"/>
       <path id="DejaVuSans-6c" d="M 603 4863 
L 1178 4863 
L 1178 0 
L 603 0 
L 603 4863 
z
" transform="scale(0.015625)"/>
       <path id="DejaVuSans-43" d="M 4122 4306 
L 4122 3641 
Q 3803 3938 3442 4084 
Q 3081 4231 2675 4231 
Q 1875 4231 1450 3742 
Q 1025 3253 1025 2328 
Q 1025 1406 1450 917 
Q 1875 428 2675 428 
Q 3081 428 3442 575 
Q 3803 722 4122 1019 
L 4122 359 
Q 3791 134 3420 21 
Q 3050 -91 2638 -91 
Q 1578 -91 968 557 
Q 359 1206 359 2328 
Q 359 3453 968 4101 
Q 1578 4750 2638 4750 
Q 3056 4750 3426 4639 
Q 3797 4528 4122 4306 
z
" transform="scale(0.015625)"/>
       <path id="DejaVuSans-70" d="M 1159 525 
L 1159 -1331 
L 581 -1331 
L 581 3500 
L 1159 3500 
L 1159 2969 
Q 1341 3281 1617 3432 
Q 1894 3584 2278 3584 
Q 2916 3584 3314 3078 
Q 3713 2572 3713 1747 
Q 3713 922 3314 415 
Q 2916 -91 2278 -91 
Q 1894 -91 1617 61 
Q 1341 213 1159 525 
z
M 3116 1747 
Q 3116 2381 2855 2742 
Q 2594 3103 2138 3103 
Q 1681 3103 1420 2742 
Q 1159 2381 1159 1747 
Q 1159 1113 1420 752 
Q 1681 391 2138 391 
Q 2594 391 2855 752 
Q 3116 1113 3116 1747 
z
" transform="scale(0.015625)"/>
       <path id="DejaVuSans-66" d="M 2375 4863 
L 2375 4384 
L 1825 4384 
Q 1516 4384 1395 4259 
Q 1275 4134 1275 3809 
L 1275 3500 
L 2222 3500 
L 2222 3053 
L 1275 3053 
L 1275 0 
L 697 0 
L 697 3053 
L 147 3053 
L 147 3500 
L 697 3500 
L 697 3744 
Q 697 4328 969 4595 
Q 1241 4863 1831 4863 
L 2375 4863 
z
" transform="scale(0.015625)"/>
       <path id="DejaVuSans-2c" d="M 750 794 
L 1409 794 
L 1409 256 
L 897 -744 
L 494 -744 
L 750 256 
L 750 794 
z
" transform="scale(0.015625)"/>
       <path id="DejaVuSans-20ac" d="M 3647 4306 
L 3647 3641 
Q 3363 3969 3098 4109 
Q 2834 4250 2516 4250 
Q 2025 4250 1709 3937 
Q 1394 3625 1294 3041 
L 3097 3041 
L 2925 2656 
L 1244 2656 
Q 1238 2581 1236 2509 
Q 1234 2438 1234 2328 
Q 1234 2228 1236 2156 
Q 1238 2084 1244 2009 
L 2638 2009 
L 2463 1625 
L 1294 1625 
Q 1394 1041 1709 725 
Q 2025 409 2516 409 
Q 2834 409 3098 550 
Q 3363 691 3647 1019 
L 3647 359 
Q 3369 134 3080 21 
Q 2791 -91 2491 -91 
Q 1750 -91 1267 362 
Q 784 816 659 1625 
L 0 1625 
L 172 2009 
L 606 2009 
Q 606 2081 604 2154 
Q 603 2228 603 2328 
Q 603 2438 604 2511 
Q 606 2584 606 2656 
L 0 2656 
L 172 3041 
L 659 3041 
Q 784 3844 1268 4297 
Q 1753 4750 2491 4750 
Q 2797 4750 3086 4639 
Q 3375 4528 3647 4306 
z
" transform="scale(0.015625)"/>
       <path id="DejaVuSans-2f" d="M 1625 4666 
L 2156 4666 
L 531 -594 
L 0 -594 
L 1625 4666 
z
" transform="scale(0.015625)"/>
       <path id="DejaVuSans-64" d="M 2906 2969 
L 2906 4863 
L 3481 4863 
L 3481 0 
L 2906 0 
L 2906 525 
Q 2725 213 2448 61 
Q 2172 -91 1784 -91 
Q 1150 -91 751 415 
Q 353 922 353 1747 
Q 353 2572 751 3078 
Q 1150 3584 1784 3584 
Q 2172 3584 2448 3432 
Q 2725 3281 2906 2969 
z
M 947 1747 
Q 947 1113 1208 752 
Q 1469 391 1925 391 
Q 2381 391 2643 752 
Q 2906 1113 2906 1747 
Q 2906 2381 2643 2742 
Q 2381 3103 1925 3103 
Q 1469 3103 1208 2742 
Q 947 2381 947 1747 
z
" transform="scale(0.015625)"/>
       <path id="DejaVuSans-79" d="M 2059 -325 
Q 1816 -950 1584 -1140 
Q 1353 -1331 966 -1331 
L 506 -1331 
L 506 -850 
L 844 -850 
Q 1081 -850 1212 -737 
Q 1344 -625 1503 -206 
L 1606 56 
L 191 3500 
L 800 3500 
L 1894 763 
L 2988 3500 
L 3597 3500 
L 2059 -325 
z
" transform="scale(0.015625)"/>
      </defs>
      <use xlink:href="#DejaVuSans-54"/>
      <use xlink:href="#DejaVuSans-6f" x="44.083984"/>
      <use xlink:href="#DejaVuSans-74" x="105.265625"/>
      <use xlink:href="#DejaVuSans-61" x="144.474609"/>
      <use xlink:href="#DejaVuSans-6c" x="205.753906"/>
      <use xlink:href="#DejaVuSans-20" x="233.537109"/>
      <use xlink:href="#DejaVuSans-43" x="265.324219"/>
      <use xlink:href="#DejaVuSans-4d" x="335.148438"/>
      <use xlink:href="#DejaVuSans-32" x="421.427734"/>
      <use xlink:href="#DejaVuSans-20" x="485.050781"/>
      <use xlink:href="#DejaVuSans-70" x="516.837891"/>
      <use xlink:href="#DejaVuSans-72" x="580.314453"/>
      <use xlink:href="#DejaVuSans-6f" x="619.177734"/>
      <use xlink:href="#DejaVuSans-66" x="680.359375"/>
      <use xlink:href="#DejaVuSans-69" x="715.564453"/>
      <use xlink:href="#DejaVuSans-74" x="743.347656"/>
      <use xlink:href="#DejaVuSans-2c" x="782.556641"/>
      <use xlink:href="#DejaVuSans-20" x="814.34375"/>
      <use xlink:href="#DejaVuSans-20ac" x="846.130859"/>
      <use xlink:href="#DejaVuSans-2f" x="909.753906"/>
      <use xlink:href="#DejaVuSans-64" x="943.445312"/>
      <use xlink:href="#DejaVuSans-61" x="1006.921875"/>
      <use xlink:href="#DejaVuSans-79" x="1068.201172"/>
     </g>
    </g>
   </g>
   <g id="line2d_33">
    <path d="M 68.498864 155.445229 
L 112.695617 71.980331 
L 156.89237 43.42655 
L 201.089123 36.837216 
L 245.285877 41.230105 
L 289.48263 51.898551 
L 333.679383 66.489219 
L 377.876136 83.694703 
" clip-path="url(#pa3f26a8128)" style="fill: none; stroke: #1f77b4; stroke-width: 1.5; stroke-linecap: square"/>
    <defs>
     <path id="ma5410f84bc" d="M 0 1.5 
C 0.397805 1.5 0.77937 1.341951 1.06066 1.06066 
C 1.341951 0.77937 1.5 0.397805 1.5 0 
C 1.5 -0.397805 1.341951 -0.77937 1.06066 -1.06066 
C 0.77937 -1.341951 0.397805 -1.5 0 -1.5 
C -0.397805 -1.5 -0.77937 -1.341951 -1.06066 -1.06066 
C -1.341951 -0.77937 -1.5 -0.397805 -1.5 0 
C -1.5 0.397805 -1.341951 0.77937 -1.06066 1.06066 
C -0.77937 1.341951 -0.397805 1.5 0 1.5 
z
" style="stroke: #1f77b4"/>
    </defs>
    <g clip-path="url(#pa3f26a8128)">
     <use xlink:href="#ma5410f84bc" x="68.498864" y="155.445229" style="fill: #1f77b4; stroke: #1f77b4"/>
     <use xlink:href="#ma5410f84bc" x="112.695617" y="71.980331" style="fill: #1f77b4; stroke: #1f77b4"/>
     <use xlink:href="#ma5410f84bc" x="156.89237" y="43.42655" style="fill: #1f77b4; stroke: #1f77b4"/>
     <use xlink:href="#ma5410f84bc" x="201.089123" y="36.837216" style="fill: #1f77b4; stroke: #1f77b4"/>
     <use xlink:href="#ma5410f84bc" x="245.285877" y="41.230105" style="fill: #1f77b4; stroke: #1f77b4"/>
     <use xlink:href="#ma5410f84bc" x="289.48263" y="51.898551" style="fill: #1f77b4; stroke: #1f77b4"/>
     <use xlink:href="#ma5410f84bc" x="333.679383" y="66.489219" style="fill: #1f77b4; stroke: #1f77b4"/>
     <use xlink:href="#ma5410f84bc" x="377.876136" y="83.694703" style="fill: #1f77b4; stroke: #1f77b4"/>
    </g>
   </g>
   <g id="line2d_34">
    <path d="M 68.498864 142.266561 
L 112.695617 80.76611 
L 156.89237 63.194552 
L 201.089123 63.194552 
L 245.285877 71.980331 
L 289.48263 85.786555 
L 333.679383 102.730556 
L 377.876136 121.76641 
" clip-path="url(#pa3f26a8128)" style="fill: none; stroke: #ff7f0e; stroke-width: 1.5; stroke-linecap: square"/>
    <defs>
     <path id="m855055638d" d="M 0 1.5 
C 0.397805 1.5 0.77937 1.341951 1.06066 1.06066 
C 1.341951 0.77937 1.5 0.397805 1.5 0 
C 1.5 -0.397805 1.341951 -0.77937 1.06066 -1.06066 
C 0.77937 -1.341951 0.397805 -1.5 0 -1.5 
C -0.397805 -1.5 -0.77937 -1.341951 -1.06066 -1.06066 
C -1.341951 -0.77937 -1.5 -0.397805 -1.5 0 
C -1.5 0.397805 -1.341951 0.77937 -1.06066 1.06066 
C -0.77937 1.341951 -0.397805 1.5 0 1.5 
z
" style="stroke: #ff7f0e"/>
    </defs>
    <g clip-path="url(#pa3f26a8128)">
     <use xlink:href="#m855055638d" x="68.498864" y="142.266561" style="fill: #ff7f0e; stroke: #ff7f0e"/>
     <use xlink:href="#m855055638d" x="112.695617" y="80.76611" style="fill: #ff7f0e; stroke: #ff7f0e"/>
     <use xlink:href="#m855055638d" x="156.89237" y="63.194552" style="fill: #ff7f0e; stroke: #ff7f0e"/>
     <use xlink:href="#m855055638d" x="201.089123" y="63.194552" style="fill: #ff7f0e; stroke: #ff7f0e"/>
     <use xlink:href="#m855055638d" x="245.285877" y="71.980331" style="fill: #ff7f0e; stroke: #ff7f0e"/>
     <use xlink:href="#m855055638d" x="289.48263" y="85.786555" style="fill: #ff7f0e; stroke: #ff7f0e"/>
     <use xlink:href="#m855055638d" x="333.679383" y="102.730556" style="fill: #ff7f0e; stroke: #ff7f0e"/>
     <use xlink:href="#m855055638d" x="377.876136" y="121.76641" style="fill: #ff7f0e; stroke: #ff7f0e"/>
    </g>
   </g>
   <g id="line2d_35">
    <path d="M 68.498864 122.498559 
L 112.695617 93.944778 
L 156.89237 92.846555 
L 201.089123 102.730556 
L 245.285877 118.105669 
L 289.48263 136.61856 
L 333.679383 157.092562 
L 377.876136 178.873972 
" clip-path="url(#pa3f26a8128)" style="fill: none; stroke: #2ca02c; stroke-width: 1.5; stroke-linecap: square"/>
    <defs>
     <path id="m1615417a82" d="M 0 1.5 
C 0.397805 1.5 0.77937 1.341951 1.06066 1.06066 
C 1.341951 0.77937 1.5 0.397805 1.5 0 
C 1.5 -0.397805 1.341951 -0.77937 1.06066 -1.06066 
C 0.77937 -1.341951 0.397805 -1.5 0 -1.5 
C -0.397805 -1.5 -0.77937 -1.341951 -1.06066 -1.06066 
C -1.341951 -0.77937 -1.5 -0.397805 -1.5 0 
C -1.5 0.397805 -1.341951 0.77937 -1.06066 1.06066 
C -0.77937 1.341951 -0.397805 1.5 0 1.5 
z
" style="stroke: #2ca02c"/>
    </defs>
    <g clip-path="url(#pa3f26a8128)">
     <use xlink:href="#m1615417a82" x="68.498864" y="122.498559" style="fill: #2ca02c; stroke: #2ca02c"/>
     <use xlink:href="#m1615417a82" x="112.695617" y="93.944778" style="fill: #2ca02c; stroke: #2ca02c"/>
     <use xlink:href="#m1615417a82" x="156.89237" y="92.846555" style="fill: #2ca02c; stroke: #2ca02c"/>
     <use xlink:href="#m1615417a82" x="201.089123" y="102.730556" style="fill: #2ca02c; stroke: #2ca02c"/>
     <use xlink:href="#m1615417a82" x="245.285877" y="118.105669" style="fill: #2ca02c; stroke: #2ca02c"/>
     <use xlink:href="#m1615417a82" x="289.48263" y="136.61856" style="fill: #2ca02c; stroke: #2ca02c"/>
     <use xlink:href="#m1615417a82" x="333.679383" y="157.092562" style="fill: #2ca02c; stroke: #2ca02c"/>
     <use xlink:href="#m1615417a82" x="377.876136" y="178.873972" style="fill: #2ca02c; stroke: #2ca02c"/>
    </g>
   </g>
   <g id="line2d_36">
    <path d="M 68.498864 102.730556 
L 112.695617 107.123446 
L 156.89237 122.498559 
L 201.089123 142.266561 
L 245.285877 164.231008 
L 289.48263 187.450566 
L 333.679383 211.454568 
L 377.876136 235.981534 
" clip-path="url(#pa3f26a8128)" style="fill: none; stroke: #d62728; stroke-width: 1.5; stroke-linecap: square"/>
    <defs>
     <path id="m8933ee3e31" d="M 0 1.5 
C 0.397805 1.5 0.77937 1.341951 1.06066 1.06066 
C 1.341951 0.77937 1.5 0.397805 1.5 0 
C 1.5 -0.397805 1.341951 -0.77937 1.06066 -1.06066 
C 0.77937 -1.341951 0.397805 -1.5 0 -1.5 
C -0.397805 -1.5 -0.77937 -1.341951 -1.06066 -1.06066 
C -1.341951 -0.77937 -1.5 -0.397805 -1.5 0 
C -1.5 0.397805 -1.341951 0.77937 -1.06066 1.06066 
C -0.77937 1.341951 -0.397805 1.5 0 1.5 
z
" style="stroke: #d62728"/>
    </defs>
    <g clip-path="url(#pa3f26a8128)">
     <use xlink:href="#m8933ee3e31" x="68.498864" y="102.730556" style="fill: #d62728; stroke: #d62728"/>
     <use xlink:href="#m8933ee3e31" x="112.695617" y="107.123446" style="fill: #d62728; stroke: #d62728"/>
     <use xlink:href="#m8933ee3e31" x="156.89237" y="122.498559" style="fill: #d62728; stroke: #d62728"/>
     <use xlink:href="#m8933ee3e31" x="201.089123" y="142.266561" style="fill: #d62728; stroke: #d62728"/>
     <use xlink:href="#m8933ee3e31" x="245.285877" y="164.231008" style="fill: #d62728; stroke: #d62728"/>
     <use xlink:href="#m8933ee3e31" x="289.48263" y="187.450566" style="fill: #d62728; stroke: #d62728"/>
     <use xlink:href="#m8933ee3e31" x="333.679383" y="211.454568" style="fill: #d62728; stroke: #d62728"/>
     <use xlink:href="#m8933ee3e31" x="377.876136" y="235.981534" style="fill: #d62728; stroke: #d62728"/>
    </g>
   </g>
   <g id="patch_3">
    <path d="M 53.03 245.93875 
L 53.03 26.88 
" style="fill: none; stroke: #000000; stroke-width: 0.8; stroke-linejoin: miter; stroke-linecap: square"/>
   </g>
   <g id="patch_4">
    <path d="M 393.345 245.93875 
L 393.345 26.88 
" style="fill: none; stroke: #000000; stroke-width: 0.8; stroke-linejoin: miter; stroke-linecap: square"/>
   </g>
   <g id="patch_5">
    <path d="M 53.03 245.93875 
L 393.345 245.93875 
" style="fill: none; stroke: #000000; stroke-width: 0.8; stroke-linejoin: miter; stroke-linecap: square"/>
   </g>
   <g id="patch_6">
    <path d="M 53.03 26.88 
L 393.345 26.88 
" style="fill: none; stroke: #000000; stroke-width: 0.8; stroke-linejoin: miter; stroke-linecap: square"/>
   </g>
   <g id="text_19">
    <!-- Fig. 2.1.3: Station profitability for different $N_{\max}$ -->
    <g transform="translate(53.03 20.88) scale(0.12 -0.12)">
     <defs>
      <path id="DejaVuSans-46" d="M 628 4666 
L 3309 4666 
L 3309 4134 
L 1259 4134 
L 1259 2759 
L 3109 2759 
L 3109 2228 
L 1259 2228 
L 1259 0 
L 628 0 
L 628 4666 
z
" transform="scale(0.015625)"/>
      <path id="DejaVuSans-67" d="M 2906 1791 
Q 2906 2416 2648 2759 
Q 2391 3103 1925 3103 
Q 1463 3103 1205 2759 
Q 947 2416 947 1791 
Q 947 1169 1205 825 
Q 1463 481 1925 481 
Q 2391 481 2648 825 
Q 2906 1169 2906 1791 
z
M 3481 434 
Q 3481 -459 3084 -895 
Q 2688 -1331 1869 -1331 
Q 1566 -1331 1297 -1286 
Q 1028 -1241 775 -1147 
L 775 -588 
Q 1028 -725 1275 -790 
Q 1522 -856 1778 -856 
Q 2344 -856 2625 -561 
Q 2906 -266 2906 331 
L 2906 616 
Q 2728 306 2450 153 
Q 2172 0 1784 0 
Q 1141 0 747 490 
Q 353 981 353 1791 
Q 353 2603 747 3093 
Q 1141 3584 1784 3584 
Q 2172 3584 2450 3431 
Q 2728 3278 2906 2969 
L 2906 3500 
L 3481 3500 
L 3481 434 
z
" transform="scale(0.015625)"/>
      <path id="DejaVuSans-2e" d="M 684 794 
L 1344 794 
L 1344 0 
L 684 0 
L 684 794 
z
" transform="scale(0.015625)"/>
      <path id="DejaVuSans-3a" d="M 750 794 
L 1409 794 
L 1409 0 
L 750 0 
L 750 794 
z
M 750 3309 
L 1409 3309 
L 1409 2516 
L 750 2516 
L 750 3309 
z
" transform="scale(0.015625)"/>
      <path id="DejaVuSans-53" d="M 3425 4513 
L 3425 3897 
Q 3066 4069 2747 4153 
Q 2428 4238 2131 4238 
Q 1616 4238 1336 4038 
Q 1056 3838 1056 3469 
Q 1056 3159 1242 3001 
Q 1428 2844 1947 2747 
L 2328 2669 
Q 3034 2534 3370 2195 
Q 3706 1856 3706 1288 
Q 3706 609 3251 259 
Q 2797 -91 1919 -91 
Q 1588 -91 1214 -16 
Q 841 59 441 206 
L 441 856 
Q 825 641 1194 531 
Q 1563 422 1919 422 
Q 2459 422 2753 634 
Q 3047 847 3047 1241 
Q 3047 1584 2836 1778 
Q 2625 1972 2144 2069 
L 1759 2144 
Q 1053 2284 737 2584 
Q 422 2884 422 3419 
Q 422 4038 858 4394 
Q 1294 4750 2059 4750 
Q 2388 4750 2728 4690 
Q 3069 4631 3425 4513 
z
" transform="scale(0.015625)"/>
      <path id="DejaVuSans-Oblique-4e" d="M 1081 4666 
L 1931 4666 
L 3219 666 
L 4000 4666 
L 4616 4666 
L 3706 0 
L 2853 0 
L 1569 4025 
L 788 0 
L 172 0 
L 1081 4666 
z
" transform="scale(0.015625)"/>
      <path id="DejaVuSans-6d" d="M 3328 2828 
Q 3544 3216 3844 3400 
Q 4144 3584 4550 3584 
Q 5097 3584 5394 3201 
Q 5691 2819 5691 2113 
L 5691 0 
L 5113 0 
L 5113 2094 
Q 5113 2597 4934 2840 
Q 4756 3084 4391 3084 
Q 3944 3084 3684 2787 
Q 3425 2491 3425 1978 
L 3425 0 
L 2847 0 
L 2847 2094 
Q 2847 2600 2669 2842 
Q 2491 3084 2119 3084 
Q 1678 3084 1418 2786 
Q 1159 2488 1159 1978 
L 1159 0 
L 581 0 
L 581 3500 
L 1159 3500 
L 1159 2956 
Q 1356 3278 1631 3431 
Q 1906 3584 2284 3584 
Q 2666 3584 2933 3390 
Q 3200 3197 3328 2828 
z
" transform="scale(0.015625)"/>
     </defs>
     <use xlink:href="#DejaVuSans-46" transform="translate(0 0.015625)"/>
     <use xlink:href="#DejaVuSans-69" transform="translate(57.519531 0.015625)"/>
     <use xlink:href="#DejaVuSans-67" transform="translate(85.302734 0.015625)"/>
     <use xlink:href="#DejaVuSans-2e" transform="translate(148.779297 0.015625)"/>
     <use xlink:href="#DejaVuSans-20" transform="translate(180.566406 0.015625)"/>
     <use xlink:href="#DejaVuSans-32" transform="translate(212.353516 0.015625)"/>
     <use xlink:href="#DejaVuSans-2e" transform="translate(275.976562 0.015625)"/>
     <use xlink:href="#DejaVuSans-31" transform="translate(307.763672 0.015625)"/>
     <use xlink:href="#DejaVuSans-2e" transform="translate(371.386719 0.015625)"/>
     <use xlink:href="#DejaVuSans-33" transform="translate(403.173828 0.015625)"/>
     <use xlink:href="#DejaVuSans-3a" transform="translate(466.796875 0.015625)"/>
     <use xlink:href="#DejaVuSans-20" transform="translate(500.488281 0.015625)"/>
     <use xlink:href="#DejaVuSans-53" transform="translate(532.275391 0.015625)"/>
     <use xlink:href="#DejaVuSans-74" transform="translate(595.751953 0.015625)"/>
     <use xlink:href="#DejaVuSans-61" transform="translate(634.960938 0.015625)"/>
     <use xlink:href="#DejaVuSans-74" transform="translate(696.240234 0.015625)"/>
     <use xlink:href="#DejaVuSans-69" transform="translate(735.449219 0.015625)"/>
     <use xlink:href="#DejaVuSans-6f" transform="translate(763.232422 0.015625)"/>
     <use xlink:href="#DejaVuSans-6e" transform="translate(824.414062 0.015625)"/>
     <use xlink:href="#DejaVuSans-20" transform="translate(887.792969 0.015625)"/>
     <use xlink:href="#DejaVuSans-70" transform="translate(919.580078 0.015625)"/>
     <use xlink:href="#DejaVuSans-72" transform="translate(983.056641 0.015625)"/>
     <use xlink:href="#DejaVuSans-6f" transform="translate(1024.169922 0.015625)"/>
     <use xlink:href="#DejaVuSans-66" transform="translate(1085.351562 0.015625)"/>
     <use xlink:href="#DejaVuSans-69" transform="translate(1120.556641 0.015625)"/>
     <use xlink:href="#DejaVuSans-74" transform="translate(1148.339844 0.015625)"/>
     <use xlink:href="#DejaVuSans-61" transform="translate(1187.548828 0.015625)"/>
     <use xlink:href="#DejaVuSans-62" transform="translate(1248.828125 0.015625)"/>
     <use xlink:href="#DejaVuSans-69" transform="translate(1312.304688 0.015625)"/>
     <use xlink:href="#DejaVuSans-6c" transform="translate(1340.087891 0.015625)"/>
     <use xlink:href="#DejaVuSans-69" transform="translate(1367.871094 0.015625)"/>
     <use xlink:href="#DejaVuSans-74" transform="translate(1395.654297 0.015625)"/>
     <use xlink:href="#DejaVuSans-79" transform="translate(1434.863281 0.015625)"/>
     <use xlink:href="#DejaVuSans-20" transform="translate(1494.042969 0.015625)"/>
     <use xlink:href="#DejaVuSans-66" transform="translate(1525.830078 0.015625)"/>
     <use xlink:href="#DejaVuSans-6f" transform="translate(1561.035156 0.015625)"/>
     <use xlink:href="#DejaVuSans-72" transform="translate(1622.216797 0.015625)"/>
     <use xlink:href="#DejaVuSans-20" transform="translate(1663.330078 0.015625)"/>
     <use xlink:href="#DejaVuSans-64" transform="translate(1695.117188 0.015625)"/>
     <use xlink:href="#DejaVuSans-69" transform="translate(1758.59375 0.015625)"/>
     <use xlink:href="#DejaVuSans-66" transform="translate(1786.376953 0.015625)"/>
     <use xlink:href="#DejaVuSans-66" transform="translate(1821.582031 0.015625)"/>
     <use xlink:href="#DejaVuSans-65" transform="translate(1856.787109 0.015625)"/>
     <use xlink:href="#DejaVuSans-72" transform="translate(1918.310547 0.015625)"/>
     <use xlink:href="#DejaVuSans-65" transform="translate(1959.423828 0.015625)"/>
     <use xlink:href="#DejaVuSans-6e" transform="translate(2020.947266 0.015625)"/>
     <use xlink:href="#DejaVuSans-74" transform="translate(2084.326172 0.015625)"/>
     <use xlink:href="#DejaVuSans-20" transform="translate(2123.535156 0.015625)"/>
     <use xlink:href="#DejaVuSans-Oblique-4e" transform="translate(2155.322266 0.015625)"/>
     <use xlink:href="#DejaVuSans-6d" transform="translate(2230.126953 -16.390625) scale(0.7)"/>
     <use xlink:href="#DejaVuSans-61" transform="translate(2298.31543 -16.390625) scale(0.7)"/>
     <use xlink:href="#DejaVuSans-78" transform="translate(2341.210938 -16.390625) scale(0.7)"/>
    </g>
   </g>
   <g id="legend_1">
    <g id="patch_7">
     <path d="M 60.03 240.93875 
L 125.43 240.93875 
Q 127.43 240.93875 127.43 238.93875 
L 127.43 181.22625 
Q 127.43 179.22625 125.43 179.22625 
L 60.03 179.22625 
Q 58.03 179.22625 58.03 181.22625 
L 58.03 238.93875 
Q 58.03 240.93875 60.03 240.93875 
z
" style="fill: #ffffff; opacity: 0.8; stroke: #cccccc; stroke-linejoin: miter"/>
    </g>
    <g id="line2d_37">
     <path d="M 62.03 187.324687 
L 72.03 187.324687 
L 82.03 187.324687 
" style="fill: none; stroke: #1f77b4; stroke-width: 1.5; stroke-linecap: square"/>
     <g>
      <use xlink:href="#ma5410f84bc" x="72.03" y="187.324687" style="fill: #1f77b4; stroke: #1f77b4"/>
     </g>
    </g>
    <g id="text_20">
     <!-- $\lambda$ = 10 -->
     <g transform="translate(90.03 190.824687) scale(0.1 -0.1)">
      <defs>
       <path id="DejaVuSans-Oblique-3bb" d="M 2350 4316 
L 3125 0 
L 2516 0 
L 2038 2588 
L 328 0 
L -281 0 
L 1903 3356 
L 1794 3975 
Q 1725 4369 1391 4369 
L 1091 4369 
L 1184 4863 
L 1550 4856 
Q 2253 4847 2350 4316 
z
" transform="scale(0.015625)"/>
       <path id="DejaVuSans-3d" d="M 678 2906 
L 4684 2906 
L 4684 2381 
L 678 2381 
L 678 2906 
z
M 678 1631 
L 4684 1631 
L 4684 1100 
L 678 1100 
L 678 1631 
z
" transform="scale(0.015625)"/>
      </defs>
      <use xlink:href="#DejaVuSans-Oblique-3bb" transform="translate(0 0.015625)"/>
      <use xlink:href="#DejaVuSans-20" transform="translate(59.179688 0.015625)"/>
      <use xlink:href="#DejaVuSans-3d" transform="translate(90.966797 0.015625)"/>
      <use xlink:href="#DejaVuSans-20" transform="translate(174.755859 0.015625)"/>
      <use xlink:href="#DejaVuSans-31" transform="translate(206.542969 0.015625)"/>
      <use xlink:href="#DejaVuSans-30" transform="translate(270.166016 0.015625)"/>
     </g>
    </g>
    <g id="line2d_38">
     <path d="M 62.03 202.002812 
L 72.03 202.002812 
L 82.03 202.002812 
" style="fill: none; stroke: #ff7f0e; stroke-width: 1.5; stroke-linecap: square"/>
     <g>
      <use xlink:href="#m855055638d" x="72.03" y="202.002812" style="fill: #ff7f0e; stroke: #ff7f0e"/>
     </g>
    </g>
    <g id="text_21">
     <!-- $\lambda$ = 8 -->
     <g transform="translate(90.03 205.502812) scale(0.1 -0.1)">
      <use xlink:href="#DejaVuSans-Oblique-3bb" transform="translate(0 0.015625)"/>
      <use xlink:href="#DejaVuSans-20" transform="translate(59.179688 0.015625)"/>
      <use xlink:href="#DejaVuSans-3d" transform="translate(90.966797 0.015625)"/>
      <use xlink:href="#DejaVuSans-20" transform="translate(174.755859 0.015625)"/>
      <use xlink:href="#DejaVuSans-38" transform="translate(206.542969 0.015625)"/>
     </g>
    </g>
    <g id="line2d_39">
     <path d="M 62.03 216.680937 
L 72.03 216.680937 
L 82.03 216.680937 
" style="fill: none; stroke: #2ca02c; stroke-width: 1.5; stroke-linecap: square"/>
     <g>
      <use xlink:href="#m1615417a82" x="72.03" y="216.680937" style="fill: #2ca02c; stroke: #2ca02c"/>
     </g>
    </g>
    <g id="text_22">
     <!-- $\lambda$ = 5 -->
     <g transform="translate(90.03 220.180937) scale(0.1 -0.1)">
      <use xlink:href="#DejaVuSans-Oblique-3bb" transform="translate(0 0.015625)"/>
      <use xlink:href="#DejaVuSans-20" transform="translate(59.179688 0.015625)"/>
      <use xlink:href="#DejaVuSans-3d" transform="translate(90.966797 0.015625)"/>
      <use xlink:href="#DejaVuSans-20" transform="translate(174.755859 0.015625)"/>
      <use xlink:href="#DejaVuSans-35" transform="translate(206.542969 0.015625)"/>
     </g>
    </g>
    <g id="line2d_40">
     <path d="M 62.03 231.359062 
L 72.03 231.359062 
L 82.03 231.359062 
" style="fill: none; stroke: #d62728; stroke-width: 1.5; stroke-linecap: square"/>
     <g>
      <use xlink:href="#m8933ee3e31" x="72.03" y="231.359062" style="fill: #d62728; stroke: #d62728"/>
     </g>
    </g>
    <g id="text_23">
     <!-- $\lambda$ = 2 -->
     <g transform="translate(90.03 234.859062) scale(0.1 -0.1)">
      <use xlink:href="#DejaVuSans-Oblique-3bb" transform="translate(0 0.015625)"/>
      <use xlink:href="#DejaVuSans-20" transform="translate(59.179688 0.015625)"/>
      <use xlink:href="#DejaVuSans-3d" transform="translate(90.966797 0.015625)"/>
      <use xlink:href="#DejaVuSans-20" transform="translate(174.755859 0.015625)"/>
      <use xlink:href="#DejaVuSans-32" transform="translate(206.542969 0.015625)"/>
     </g>
    </g>
   </g>
  </g>
  <g id="axes_2">
   <g id="patch_8">
    <path d="M 440.885 245.93875 
L 781.2 245.93875 
L 781.2 26.88 
L 440.885 26.88 
z
" style="fill: #ffffff"/>
   </g>
   <g id="matplotlib.axis_3">
    <g id="xtick_9">
     <g id="line2d_41">
      <path d="M 449.908504 245.93875 
L 449.908504 26.88 
" clip-path="url(#p0e865269a6)" style="fill: none; stroke: #b0b0b0; stroke-opacity: 0.1; stroke-width: 0.8; stroke-linecap: square"/>
     </g>
     <g id="line2d_42">
      <g>
       <use xlink:href="#mab4a20631a" x="449.908504" y="245.93875" style="stroke: #000000; stroke-width: 0.8"/>
      </g>
     </g>
     <g id="text_24">
      <!-- 0 -->
      <g transform="translate(446.727254 260.537188) scale(0.1 -0.1)">
       <use xlink:href="#DejaVuSans-30"/>
      </g>
     </g>
    </g>
    <g id="xtick_10">
     <g id="line2d_43">
      <path d="M 514.362102 245.93875 
L 514.362102 26.88 
" clip-path="url(#p0e865269a6)" style="fill: none; stroke: #b0b0b0; stroke-opacity: 0.1; stroke-width: 0.8; stroke-linecap: square"/>
     </g>
     <g id="line2d_44">
      <g>
       <use xlink:href="#mab4a20631a" x="514.362102" y="245.93875" style="stroke: #000000; stroke-width: 0.8"/>
      </g>
     </g>
     <g id="text_25">
      <!-- 10 -->
      <g transform="translate(507.999602 260.537188) scale(0.1 -0.1)">
       <use xlink:href="#DejaVuSans-31"/>
       <use xlink:href="#DejaVuSans-30" x="63.623047"/>
      </g>
     </g>
    </g>
    <g id="xtick_11">
     <g id="line2d_45">
      <path d="M 578.815701 245.93875 
L 578.815701 26.88 
" clip-path="url(#p0e865269a6)" style="fill: none; stroke: #b0b0b0; stroke-opacity: 0.1; stroke-width: 0.8; stroke-linecap: square"/>
     </g>
     <g id="line2d_46">
      <g>
       <use xlink:href="#mab4a20631a" x="578.815701" y="245.93875" style="stroke: #000000; stroke-width: 0.8"/>
      </g>
     </g>
     <g id="text_26">
      <!-- 20 -->
      <g transform="translate(572.453201 260.537188) scale(0.1 -0.1)">
       <use xlink:href="#DejaVuSans-32"/>
       <use xlink:href="#DejaVuSans-30" x="63.623047"/>
      </g>
     </g>
    </g>
    <g id="xtick_12">
     <g id="line2d_47">
      <path d="M 643.269299 245.93875 
L 643.269299 26.88 
" clip-path="url(#p0e865269a6)" style="fill: none; stroke: #b0b0b0; stroke-opacity: 0.1; stroke-width: 0.8; stroke-linecap: square"/>
     </g>
     <g id="line2d_48">
      <g>
       <use xlink:href="#mab4a20631a" x="643.269299" y="245.93875" style="stroke: #000000; stroke-width: 0.8"/>
      </g>
     </g>
     <g id="text_27">
      <!-- 30 -->
      <g transform="translate(636.906799 260.537188) scale(0.1 -0.1)">
       <use xlink:href="#DejaVuSans-33"/>
       <use xlink:href="#DejaVuSans-30" x="63.623047"/>
      </g>
     </g>
    </g>
    <g id="xtick_13">
     <g id="line2d_49">
      <path d="M 707.722898 245.93875 
L 707.722898 26.88 
" clip-path="url(#p0e865269a6)" style="fill: none; stroke: #b0b0b0; stroke-opacity: 0.1; stroke-width: 0.8; stroke-linecap: square"/>
     </g>
     <g id="line2d_50">
      <g>
       <use xlink:href="#mab4a20631a" x="707.722898" y="245.93875" style="stroke: #000000; stroke-width: 0.8"/>
      </g>
     </g>
     <g id="text_28">
      <!-- 40 -->
      <g transform="translate(701.360398 260.537188) scale(0.1 -0.1)">
       <use xlink:href="#DejaVuSans-34"/>
       <use xlink:href="#DejaVuSans-30" x="63.623047"/>
      </g>
     </g>
    </g>
    <g id="xtick_14">
     <g id="line2d_51">
      <path d="M 772.176496 245.93875 
L 772.176496 26.88 
" clip-path="url(#p0e865269a6)" style="fill: none; stroke: #b0b0b0; stroke-opacity: 0.1; stroke-width: 0.8; stroke-linecap: square"/>
     </g>
     <g id="line2d_52">
      <g>
       <use xlink:href="#mab4a20631a" x="772.176496" y="245.93875" style="stroke: #000000; stroke-width: 0.8"/>
      </g>
     </g>
     <g id="text_29">
      <!-- 50 -->
      <g transform="translate(765.813996 260.537188) scale(0.1 -0.1)">
       <use xlink:href="#DejaVuSans-35"/>
       <use xlink:href="#DejaVuSans-30" x="63.623047"/>
      </g>
     </g>
    </g>
    <g id="text_30">
     <!-- Rentals / day (one direction) -->
     <g transform="translate(540.176094 274.215312) scale(0.1 -0.1)">
      <defs>
       <path id="DejaVuSans-52" d="M 2841 2188 
Q 3044 2119 3236 1894 
Q 3428 1669 3622 1275 
L 4263 0 
L 3584 0 
L 2988 1197 
Q 2756 1666 2539 1819 
Q 2322 1972 1947 1972 
L 1259 1972 
L 1259 0 
L 628 0 
L 628 4666 
L 2053 4666 
Q 2853 4666 3247 4331 
Q 3641 3997 3641 3322 
Q 3641 2881 3436 2590 
Q 3231 2300 2841 2188 
z
M 1259 4147 
L 1259 2491 
L 2053 2491 
Q 2509 2491 2742 2702 
Q 2975 2913 2975 3322 
Q 2975 3731 2742 3939 
Q 2509 4147 2053 4147 
L 1259 4147 
z
" transform="scale(0.015625)"/>
       <path id="DejaVuSans-28" d="M 1984 4856 
Q 1566 4138 1362 3434 
Q 1159 2731 1159 2009 
Q 1159 1288 1364 580 
Q 1569 -128 1984 -844 
L 1484 -844 
Q 1016 -109 783 600 
Q 550 1309 550 2009 
Q 550 2706 781 3412 
Q 1013 4119 1484 4856 
L 1984 4856 
z
" transform="scale(0.015625)"/>
       <path id="DejaVuSans-29" d="M 513 4856 
L 1013 4856 
Q 1481 4119 1714 3412 
Q 1947 2706 1947 2009 
Q 1947 1309 1714 600 
Q 1481 -109 1013 -844 
L 513 -844 
Q 928 -128 1133 580 
Q 1338 1288 1338 2009 
Q 1338 2731 1133 3434 
Q 928 4138 513 4856 
z
" transform="scale(0.015625)"/>
      </defs>
      <use xlink:href="#DejaVuSans-52"/>
      <use xlink:href="#DejaVuSans-65" x="64.982422"/>
      <use xlink:href="#DejaVuSans-6e" x="126.505859"/>
      <use xlink:href="#DejaVuSans-74" x="189.884766"/>
      <use xlink:href="#DejaVuSans-61" x="229.09375"/>
      <use xlink:href="#DejaVuSans-6c" x="290.373047"/>
      <use xlink:href="#DejaVuSans-73" x="318.15625"/>
      <use xlink:href="#DejaVuSans-20" x="370.255859"/>
      <use xlink:href="#DejaVuSans-2f" x="402.042969"/>
      <use xlink:href="#DejaVuSans-20" x="435.734375"/>
      <use xlink:href="#DejaVuSans-64" x="467.521484"/>
      <use xlink:href="#DejaVuSans-61" x="530.998047"/>
      <use xlink:href="#DejaVuSans-79" x="592.277344"/>
      <use xlink:href="#DejaVuSans-20" x="651.457031"/>
      <use xlink:href="#DejaVuSans-28" x="683.244141"/>
      <use xlink:href="#DejaVuSans-6f" x="722.257812"/>
      <use xlink:href="#DejaVuSans-6e" x="783.439453"/>
      <use xlink:href="#DejaVuSans-65" x="846.818359"/>
      <use xlink:href="#DejaVuSans-20" x="908.341797"/>
      <use xlink:href="#DejaVuSans-64" x="940.128906"/>
      <use xlink:href="#DejaVuSans-69" x="1003.605469"/>
      <use xlink:href="#DejaVuSans-72" x="1031.388672"/>
      <use xlink:href="#DejaVuSans-65" x="1070.251953"/>
      <use xlink:href="#DejaVuSans-63" x="1131.775391"/>
      <use xlink:href="#DejaVuSans-74" x="1186.755859"/>
      <use xlink:href="#DejaVuSans-69" x="1225.964844"/>
      <use xlink:href="#DejaVuSans-6f" x="1253.748047"/>
      <use xlink:href="#DejaVuSans-6e" x="1314.929688"/>
      <use xlink:href="#DejaVuSans-29" x="1378.308594"/>
     </g>
    </g>
   </g>
   <g id="matplotlib.axis_4">
    <g id="ytick_9">
     <g id="line2d_53">
      <path d="M 440.885 213.854388 
L 781.2 213.854388 
" clip-path="url(#p0e865269a6)" style="fill: none; stroke: #b0b0b0; stroke-opacity: 0.1; stroke-width: 0.8; stroke-linecap: square"/>
     </g>
     <g id="line2d_54">
      <g>
       <use xlink:href="#m1ed07fc58c" x="440.885" y="213.854388" style="stroke: #000000; stroke-width: 0.8"/>
      </g>
     </g>
     <g id="text_31">
      <!-- 2 -->
      <g transform="translate(427.5225 217.653606) scale(0.1 -0.1)">
       <use xlink:href="#DejaVuSans-32"/>
      </g>
     </g>
    </g>
    <g id="ytick_10">
     <g id="line2d_55">
      <path d="M 440.885 169.600095 
L 781.2 169.600095 
" clip-path="url(#p0e865269a6)" style="fill: none; stroke: #b0b0b0; stroke-opacity: 0.1; stroke-width: 0.8; stroke-linecap: square"/>
     </g>
     <g id="line2d_56">
      <g>
       <use xlink:href="#m1ed07fc58c" x="440.885" y="169.600095" style="stroke: #000000; stroke-width: 0.8"/>
      </g>
     </g>
     <g id="text_32">
      <!-- 4 -->
      <g transform="translate(427.5225 173.399313) scale(0.1 -0.1)">
       <use xlink:href="#DejaVuSans-34"/>
      </g>
     </g>
    </g>
    <g id="ytick_11">
     <g id="line2d_57">
      <path d="M 440.885 125.345802 
L 781.2 125.345802 
" clip-path="url(#p0e865269a6)" style="fill: none; stroke: #b0b0b0; stroke-opacity: 0.1; stroke-width: 0.8; stroke-linecap: square"/>
     </g>
     <g id="line2d_58">
      <g>
       <use xlink:href="#m1ed07fc58c" x="440.885" y="125.345802" style="stroke: #000000; stroke-width: 0.8"/>
      </g>
     </g>
     <g id="text_33">
      <!-- 6 -->
      <g transform="translate(427.5225 129.145021) scale(0.1 -0.1)">
       <use xlink:href="#DejaVuSans-36"/>
      </g>
     </g>
    </g>
    <g id="ytick_12">
     <g id="line2d_59">
      <path d="M 440.885 81.091509 
L 781.2 81.091509 
" clip-path="url(#p0e865269a6)" style="fill: none; stroke: #b0b0b0; stroke-opacity: 0.1; stroke-width: 0.8; stroke-linecap: square"/>
     </g>
     <g id="line2d_60">
      <g>
       <use xlink:href="#m1ed07fc58c" x="440.885" y="81.091509" style="stroke: #000000; stroke-width: 0.8"/>
      </g>
     </g>
     <g id="text_34">
      <!-- 8 -->
      <g transform="translate(427.5225 84.890728) scale(0.1 -0.1)">
       <use xlink:href="#DejaVuSans-38"/>
      </g>
     </g>
    </g>
    <g id="ytick_13">
     <g id="line2d_61">
      <path d="M 440.885 36.837216 
L 781.2 36.837216 
" clip-path="url(#p0e865269a6)" style="fill: none; stroke: #b0b0b0; stroke-opacity: 0.1; stroke-width: 0.8; stroke-linecap: square"/>
     </g>
     <g id="line2d_62">
      <g>
       <use xlink:href="#m1ed07fc58c" x="440.885" y="36.837216" style="stroke: #000000; stroke-width: 0.8"/>
      </g>
     </g>
     <g id="text_35">
      <!-- 10 -->
      <g transform="translate(421.16 40.636435) scale(0.1 -0.1)">
       <use xlink:href="#DejaVuSans-31"/>
       <use xlink:href="#DejaVuSans-30" x="63.623047"/>
      </g>
     </g>
    </g>
    <g id="text_36">
     <!-- Optimal $N_{\max}$ -->
     <g transform="translate(415.06 169.309375) rotate(-90) scale(0.1 -0.1)">
      <defs>
       <path id="DejaVuSans-4f" d="M 2522 4238 
Q 1834 4238 1429 3725 
Q 1025 3213 1025 2328 
Q 1025 1447 1429 934 
Q 1834 422 2522 422 
Q 3209 422 3611 934 
Q 4013 1447 4013 2328 
Q 4013 3213 3611 3725 
Q 3209 4238 2522 4238 
z
M 2522 4750 
Q 3503 4750 4090 4092 
Q 4678 3434 4678 2328 
Q 4678 1225 4090 567 
Q 3503 -91 2522 -91 
Q 1538 -91 948 565 
Q 359 1222 359 2328 
Q 359 3434 948 4092 
Q 1538 4750 2522 4750 
z
" transform="scale(0.015625)"/>
      </defs>
      <use xlink:href="#DejaVuSans-4f" transform="translate(0 0.015625)"/>
      <use xlink:href="#DejaVuSans-70" transform="translate(78.710938 0.015625)"/>
      <use xlink:href="#DejaVuSans-74" transform="translate(142.1875 0.015625)"/>
      <use xlink:href="#DejaVuSans-69" transform="translate(181.396484 0.015625)"/>
      <use xlink:href="#DejaVuSans-6d" transform="translate(209.179688 0.015625)"/>
      <use xlink:href="#DejaVuSans-61" transform="translate(306.591797 0.015625)"/>
      <use xlink:href="#DejaVuSans-6c" transform="translate(367.871094 0.015625)"/>
      <use xlink:href="#DejaVuSans-20" transform="translate(395.654297 0.015625)"/>
      <use xlink:href="#DejaVuSans-Oblique-4e" transform="translate(427.441406 0.015625)"/>
      <use xlink:href="#DejaVuSans-6d" transform="translate(502.246094 -16.390625) scale(0.7)"/>
      <use xlink:href="#DejaVuSans-61" transform="translate(570.43457 -16.390625) scale(0.7)"/>
      <use xlink:href="#DejaVuSans-78" transform="translate(613.330078 -16.390625) scale(0.7)"/>
     </g>
    </g>
   </g>
   <g id="line2d_63">
    <path d="M 456.353864 235.981534 
L 462.799223 235.981534 
L 469.244583 213.854388 
L 475.689943 213.854388 
L 482.135303 191.727241 
L 488.580663 191.727241 
L 495.026023 191.727241 
L 501.471383 191.727241 
L 507.916742 169.600095 
L 514.362102 169.600095 
L 520.807462 169.600095 
L 527.252822 169.600095 
L 533.698182 147.472948 
L 540.143542 147.472948 
L 546.588902 147.472948 
L 553.034261 147.472948 
L 559.479621 125.345802 
L 565.924981 125.345802 
L 572.370341 125.345802 
L 578.815701 125.345802 
L 585.261061 125.345802 
L 591.70642 125.345802 
L 598.15178 103.218655 
L 604.59714 103.218655 
L 611.0425 103.218655 
L 617.48786 103.218655 
L 623.93322 103.218655 
L 630.37858 103.218655 
L 636.823939 81.091509 
L 643.269299 81.091509 
L 649.714659 81.091509 
L 656.160019 81.091509 
L 662.605379 81.091509 
L 669.050739 81.091509 
L 675.496098 81.091509 
L 681.941458 81.091509 
L 688.386818 58.964362 
L 694.832178 58.964362 
L 701.277538 58.964362 
L 707.722898 58.964362 
L 714.168258 58.964362 
L 720.613617 58.964362 
L 727.058977 58.964362 
L 733.504337 58.964362 
L 739.949697 36.837216 
L 746.395057 36.837216 
L 752.840417 36.837216 
L 759.285777 36.837216 
L 765.731136 36.837216 
" clip-path="url(#p0e865269a6)" style="fill: none; stroke: #1f77b4; stroke-width: 1.5; stroke-linecap: square"/>
   </g>
   <g id="patch_9">
    <path d="M 440.885 245.93875 
L 440.885 26.88 
" style="fill: none; stroke: #000000; stroke-width: 0.8; stroke-linejoin: miter; stroke-linecap: square"/>
   </g>
   <g id="patch_10">
    <path d="M 781.2 245.93875 
L 781.2 26.88 
" style="fill: none; stroke: #000000; stroke-width: 0.8; stroke-linejoin: miter; stroke-linecap: square"/>
   </g>
   <g id="patch_11">
    <path d="M 440.885 245.93875 
L 781.2 245.93875 
" style="fill: none; stroke: #000000; stroke-width: 0.8; stroke-linejoin: miter; stroke-linecap: square"/>
   </g>
   <g id="patch_12">
    <path d="M 440.885 26.88 
L 781.2 26.88 
" style="fill: none; stroke: #000000; stroke-width: 0.8; stroke-linejoin: miter; stroke-linecap: square"/>
   </g>
   <g id="text_37">
    <!-- Optimal relocation threshold -->
    <g transform="translate(440.885 20.88) scale(0.12 -0.12)">
     <use xlink:href="#DejaVuSans-4f"/>
     <use xlink:href="#DejaVuSans-70" x="78.710938"/>
     <use xlink:href="#DejaVuSans-74" x="142.1875"/>
     <use xlink:href="#DejaVuSans-69" x="181.396484"/>
     <use xlink:href="#DejaVuSans-6d" x="209.179688"/>
     <use xlink:href="#DejaVuSans-61" x="306.591797"/>
     <use xlink:href="#DejaVuSans-6c" x="367.871094"/>
     <use xlink:href="#DejaVuSans-20" x="395.654297"/>
     <use xlink:href="#DejaVuSans-72" x="427.441406"/>
     <use xlink:href="#DejaVuSans-65" x="466.304688"/>
     <use xlink:href="#DejaVuSans-6c" x="527.828125"/>
     <use xlink:href="#DejaVuSans-6f" x="555.611328"/>
     <use xlink:href="#DejaVuSans-63" x="616.792969"/>
     <use xlink:href="#DejaVuSans-61" x="671.773438"/>
     <use xlink:href="#DejaVuSans-74" x="733.052734"/>
     <use xlink:href="#DejaVuSans-69" x="772.261719"/>
     <use xlink:href="#DejaVuSans-6f" x="800.044922"/>
     <use xlink:href="#DejaVuSans-6e" x="861.226562"/>
     <use xlink:href="#DejaVuSans-20" x="924.605469"/>
     <use xlink:href="#DejaVuSans-74" x="956.392578"/>
     <use xlink:href="#DejaVuSans-68" x="995.601562"/>
     <use xlink:href="#DejaVuSans-72" x="1058.980469"/>
     <use xlink:href="#DejaVuSans-65" x="1097.84375"/>
     <use xlink:href="#DejaVuSans-73" x="1159.367188"/>
     <use xlink:href="#DejaVuSans-68" x="1211.466797"/>
     <use xlink:href="#DejaVuSans-6f" x="1274.845703"/>
     <use xlink:href="#DejaVuSans-6c" x="1336.027344"/>
     <use xlink:href="#DejaVuSans-64" x="1363.810547"/>
    </g>
   </g>
  </g>
 </g>
 <defs>
  <clipPath id="pa3f26a8128">
   <rect x="53.03" y="26.88" width="340.315" height="219.05875"/>
  </clipPath>
  <clipPath id="p0e865269a6">
   <rect x="440.885" y="26.88" width="340.315" height="219.05875"/>
  </clipPath>
 </defs>
</svg>
