<?xml version="1.0" encoding="utf-8" standalone="no"?>
<!DOCTYPE svg PUBLIC "-//W3C//DTD SVG 1.1//EN"
  "http://www.w3.org/Graphics/SVG/1.1/DTD/svg11.dtd">
<svg xmlns:xlink="http://www.w3.org/1999/xlink" width="864pt" height="648pt" viewBox="0 0 864 648" xmlns="http://www.w3.org/2000/svg" version="1.1">
 <metadata>
  <rdf:RDF xmlns:dc="http://purl.org/dc/elements/1.1/" xmlns:cc="http://creativecommons.org/ns#" xmlns:rdf="http://www.w3.org/1999/02/22-rdf-syntax-ns#">
   <cc:Work>
    <dc:type rdf:resource="http://purl.org/dc/dcmitype/StillImage"/>
    <dc:date>2024-01-29T19:11:27.734334</dc:date>
    <dc:format>image/svg+xml</dc:format>
    <dc:creator>
     <cc:Agent>
      <dc:title>Matplotlib v3.6.3, https://matplotlib.org/</dc:title>
     </cc:Agent>
    </dc:creator>
   </cc:Work>
  </rdf:RDF>
 </metadata>
 <defs>
  <style type="text/css">*{stroke-linejoin: round; stroke-linecap: butt}</style>
 </defs>
 <g id="figure_1">
  <g id="patch_1">
   <path d="M 0 648 
L 864 648 
L 864 0 
L 0 0 
z
" style="fill: #ffffff"/>
  </g>
  <g id="axes_1">
   <g id="patch_2">
    <path d="M 147.6 296.383636 
C 180.581622 296.383636 212.216842 283.279899 235.538371 259.958371 
C 258.859899 236.636842 271.963636 205.001622 271.963636 172.02 
C 271.963636 139.038378 258.859899 107.403158 235.538371 84.081629 
C 212.216842 60.760101 180.581622 47.656364 147.6 47.656364 
C 114.618378 47.656364 82.983158 60.760101 59.661629 84.081629 
C 36.340101 107.403158 23.236364 139.038378 23.236364 172.02 
C 23.236364 205.001622 36.340101 236.636842 59.661629 259.958371 
C 82.983158 283.279899 114.618378 296.383636 147.6 296.383636 
L 147.6 296.383636 
z
" clip-path="url(#p70d6b5adf9)" style="fill: none; stroke: #ff0000; stroke-linejoin: miter"/>
   </g>
   <g id="line2d_1">
    <defs>
     <path id="mf2d797549a" d="M 0 1.5 
C 0.397805 1.5 0.77937 1.341951 1.06066 1.06066 
C 1.341951 0.77937 1.5 0.397805 1.5 0 
C 1.5 -0.397805 1.341951 -0.77937 1.06066 -1.06066 
C 0.77937 -1.341951 0.397805 -1.5 0 -1.5 
C -0.397805 -1.5 -0.77937 -1.341951 -1.06066 -1.06066 
C -1.341951 -0.77937 -1.5 -0.397805 -1.5 0 
C -1.5 0.397805 -1.341951 0.77937 -1.06066 1.06066 
C -0.77937 1.341951 -0.397805 1.5 0 1.5 
z
" style="stroke: #1f77b4"/>
    </defs>
    <g clip-path="url(#p70d6b5adf9)">
     <use xlink:href="#mf2d797549a" x="163.894205" y="226.876303" style="fill: #1f77b4; stroke: #1f77b4"/>
     <use xlink:href="#mf2d797549a" x="131.306402" y="117.163421" style="fill: #1f77b4; stroke: #1f77b4"/>
    </g>
   </g>
   <g id="text_1">
    <!-- 2 Stations -->
    <g transform="translate(117.419062 19.44) scale(0.12 -0.12)">
     <defs>
      <path id="DejaVuSans-32" d="M 1228 531 
L 3431 531 
L 3431 0 
L 469 0 
L 469 531 
Q 828 903 1448 1529 
Q 2069 2156 2228 2338 
Q 2531 2678 2651 2914 
Q 2772 3150 2772 3378 
Q 2772 3750 2511 3984 
Q 2250 4219 1831 4219 
Q 1534 4219 1204 4116 
Q 875 4013 500 3803 
L 500 4441 
Q 881 4594 1212 4672 
Q 1544 4750 1819 4750 
Q 2544 4750 2975 4387 
Q 3406 4025 3406 3419 
Q 3406 3131 3298 2873 
Q 3191 2616 2906 2266 
Q 2828 2175 2409 1742 
Q 1991 1309 1228 531 
z
" transform="scale(0.015625)"/>
      <path id="DejaVuSans-20" transform="scale(0.015625)"/>
      <path id="DejaVuSans-53" d="M 3425 4513 
L 3425 3897 
Q 3066 4069 2747 4153 
Q 2428 4238 2131 4238 
Q 1616 4238 1336 4038 
Q 1056 3838 1056 3469 
Q 1056 3159 1242 3001 
Q 1428 2844 1947 2747 
L 2328 2669 
Q 3034 2534 3370 2195 
Q 3706 1856 3706 1288 
Q 3706 609 3251 259 
Q 2797 -91 1919 -91 
Q 1588 -91 1214 -16 
Q 841 59 441 206 
L 441 856 
Q 825 641 1194 531 
Q 1563 422 1919 422 
Q 2459 422 2753 634 
Q 3047 847 3047 1241 
Q 3047 1584 2836 1778 
Q 2625 1972 2144 2069 
L 1759 2144 
Q 1053 2284 737 2584 
Q 422 2884 422 3419 
Q 422 4038 858 4394 
Q 1294 4750 2059 4750 
Q 2388 4750 2728 4690 
Q 3069 4631 3425 4513 
z
" transform="scale(0.015625)"/>
      <path id="DejaVuSans-74" d="M 1172 4494 
L 1172 3500 
L 2356 3500 
L 2356 3053 
L 1172 3053 
L 1172 1153 
Q 1172 725 1289 603 
Q 1406 481 1766 481 
L 2356 481 
L 2356 0 
L 1766 0 
Q 1100 0 847 248 
Q 594 497 594 1153 
L 594 3053 
L 172 3053 
L 172 3500 
L 594 3500 
L 594 4494 
L 1172 4494 
z
" transform="scale(0.015625)"/>
      <path id="DejaVuSans-61" d="M 2194 1759 
Q 1497 1759 1228 1600 
Q 959 1441 959 1056 
Q 959 750 1161 570 
Q 1363 391 1709 391 
Q 2188 391 2477 730 
Q 2766 1069 2766 1631 
L 2766 1759 
L 2194 1759 
z
M 3341 1997 
L 3341 0 
L 2766 0 
L 2766 531 
Q 2569 213 2275 61 
Q 1981 -91 1556 -91 
Q 1019 -91 701 211 
Q 384 513 384 1019 
Q 384 1609 779 1909 
Q 1175 2209 1959 2209 
L 2766 2209 
L 2766 2266 
Q 2766 2663 2505 2880 
Q 2244 3097 1772 3097 
Q 1472 3097 1187 3025 
Q 903 2953 641 2809 
L 641 3341 
Q 956 3463 1253 3523 
Q 1550 3584 1831 3584 
Q 2591 3584 2966 3190 
Q 3341 2797 3341 1997 
z
" transform="scale(0.015625)"/>
      <path id="DejaVuSans-69" d="M 603 3500 
L 1178 3500 
L 1178 0 
L 603 0 
L 603 3500 
z
M 603 4863 
L 1178 4863 
L 1178 4134 
L 603 4134 
L 603 4863 
z
" transform="scale(0.015625)"/>
      <path id="DejaVuSans-6f" d="M 1959 3097 
Q 1497 3097 1228 2736 
Q 959 2375 959 1747 
Q 959 1119 1226 758 
Q 1494 397 1959 397 
Q 2419 397 2687 759 
Q 2956 1122 2956 1747 
Q 2956 2369 2687 2733 
Q 2419 3097 1959 3097 
z
M 1959 3584 
Q 2709 3584 3137 3096 
Q 3566 2609 3566 1747 
Q 3566 888 3137 398 
Q 2709 -91 1959 -91 
Q 1206 -91 779 398 
Q 353 888 353 1747 
Q 353 2609 779 3096 
Q 1206 3584 1959 3584 
z
" transform="scale(0.015625)"/>
      <path id="DejaVuSans-6e" d="M 3513 2113 
L 3513 0 
L 2938 0 
L 2938 2094 
Q 2938 2591 2744 2837 
Q 2550 3084 2163 3084 
Q 1697 3084 1428 2787 
Q 1159 2491 1159 1978 
L 1159 0 
L 581 0 
L 581 3500 
L 1159 3500 
L 1159 2956 
Q 1366 3272 1645 3428 
Q 1925 3584 2291 3584 
Q 2894 3584 3203 3211 
Q 3513 2838 3513 2113 
z
" transform="scale(0.015625)"/>
      <path id="DejaVuSans-73" d="M 2834 3397 
L 2834 2853 
Q 2591 2978 2328 3040 
Q 2066 3103 1784 3103 
Q 1356 3103 1142 2972 
Q 928 2841 928 2578 
Q 928 2378 1081 2264 
Q 1234 2150 1697 2047 
L 1894 2003 
Q 2506 1872 2764 1633 
Q 3022 1394 3022 966 
Q 3022 478 2636 193 
Q 2250 -91 1575 -91 
Q 1294 -91 989 -36 
Q 684 19 347 128 
L 347 722 
Q 666 556 975 473 
Q 1284 391 1588 391 
Q 1994 391 2212 530 
Q 2431 669 2431 922 
Q 2431 1156 2273 1281 
Q 2116 1406 1581 1522 
L 1381 1569 
Q 847 1681 609 1914 
Q 372 2147 372 2553 
Q 372 3047 722 3315 
Q 1072 3584 1716 3584 
Q 2034 3584 2315 3537 
Q 2597 3491 2834 3397 
z
" transform="scale(0.015625)"/>
     </defs>
     <use xlink:href="#DejaVuSans-32"/>
     <use xlink:href="#DejaVuSans-20" x="63.623047"/>
     <use xlink:href="#DejaVuSans-53" x="95.410156"/>
     <use xlink:href="#DejaVuSans-74" x="158.886719"/>
     <use xlink:href="#DejaVuSans-61" x="198.095703"/>
     <use xlink:href="#DejaVuSans-74" x="259.375"/>
     <use xlink:href="#DejaVuSans-69" x="298.583984"/>
     <use xlink:href="#DejaVuSans-6f" x="326.367188"/>
     <use xlink:href="#DejaVuSans-6e" x="387.548828"/>
     <use xlink:href="#DejaVuSans-73" x="450.927734"/>
    </g>
   </g>
  </g>
  <g id="axes_2">
   <g id="patch_3">
    <path d="M 432 296.383636 
C 464.981622 296.383636 496.616842 283.279899 519.938371 259.958371 
C 543.259899 236.636842 556.363636 205.001622 556.363636 172.02 
C 556.363636 139.038378 543.259899 107.403158 519.938371 84.081629 
C 496.616842 60.760101 464.981622 47.656364 432 47.656364 
C 399.018378 47.656364 367.383158 60.760101 344.061629 84.081629 
C 320.740101 107.403158 307.636364 139.038378 307.636364 172.02 
C 307.636364 205.001622 320.740101 236.636842 344.061629 259.958371 
C 367.383158 283.279899 399.018378 296.383636 432 296.383636 
L 432 296.383636 
z
" clip-path="url(#pe407ac0ee4)" style="fill: none; stroke: #ff0000; stroke-linejoin: miter"/>
   </g>
   <g id="line2d_2">
    <g clip-path="url(#pe407ac0ee4)">
     <use xlink:href="#mf2d797549a" x="461.232826" y="116.614525" style="fill: #1f77b4; stroke: #1f77b4"/>
     <use xlink:href="#mf2d797549a" x="369.401363" y="174.4062" style="fill: #1f77b4; stroke: #1f77b4"/>
     <use xlink:href="#mf2d797549a" x="465.366131" y="225.038964" style="fill: #1f77b4; stroke: #1f77b4"/>
    </g>
   </g>
   <g id="text_2">
    <!-- 3 Stations -->
    <g transform="translate(401.819062 19.44) scale(0.12 -0.12)">
     <defs>
      <path id="DejaVuSans-33" d="M 2597 2516 
Q 3050 2419 3304 2112 
Q 3559 1806 3559 1356 
Q 3559 666 3084 287 
Q 2609 -91 1734 -91 
Q 1441 -91 1130 -33 
Q 819 25 488 141 
L 488 750 
Q 750 597 1062 519 
Q 1375 441 1716 441 
Q 2309 441 2620 675 
Q 2931 909 2931 1356 
Q 2931 1769 2642 2001 
Q 2353 2234 1838 2234 
L 1294 2234 
L 1294 2753 
L 1863 2753 
Q 2328 2753 2575 2939 
Q 2822 3125 2822 3475 
Q 2822 3834 2567 4026 
Q 2313 4219 1838 4219 
Q 1578 4219 1281 4162 
Q 984 4106 628 3988 
L 628 4550 
Q 988 4650 1302 4700 
Q 1616 4750 1894 4750 
Q 2613 4750 3031 4423 
Q 3450 4097 3450 3541 
Q 3450 3153 3228 2886 
Q 3006 2619 2597 2516 
z
" transform="scale(0.015625)"/>
     </defs>
     <use xlink:href="#DejaVuSans-33"/>
     <use xlink:href="#DejaVuSans-20" x="63.623047"/>
     <use xlink:href="#DejaVuSans-53" x="95.410156"/>
     <use xlink:href="#DejaVuSans-74" x="158.886719"/>
     <use xlink:href="#DejaVuSans-61" x="198.095703"/>
     <use xlink:href="#DejaVuSans-74" x="259.375"/>
     <use xlink:href="#DejaVuSans-69" x="298.583984"/>
     <use xlink:href="#DejaVuSans-6f" x="326.367188"/>
     <use xlink:href="#DejaVuSans-6e" x="387.548828"/>
     <use xlink:href="#DejaVuSans-73" x="450.927734"/>
    </g>
   </g>
  </g>
  <g id="axes_3">
   <g id="patch_4">
    <path d="M 716.4 296.383636 
C 749.381622 296.383636 781.016842 283.279899 804.338371 259.958371 
C 827.659899 236.636842 840.763636 205.001622 840.763636 172.02 
C 840.763636 139.038378 827.659899 107.403158 804.338371 84.081629 
C 781.016842 60.760101 749.381622 47.656364 716.4 47.656364 
C 683.418378 47.656364 651.783158 60.760101 628.461629 84.081629 
C 605.140101 107.403158 592.036364 139.038378 592.036364 172.02 
C 592.036364 205.001622 605.140101 236.636842 628.461629 259.958371 
C 651.783158 283.279899 683.418378 296.383636 716.4 296.383636 
L 716.4 296.383636 
z
" clip-path="url(#p62fe84fe80)" style="fill: none; stroke: #ff0000; stroke-linejoin: miter"/>
   </g>
   <g id="line2d_3">
    <g clip-path="url(#p62fe84fe80)">
     <use xlink:href="#mf2d797549a" x="753.207601" y="117.465839" style="fill: #1f77b4; stroke: #1f77b4"/>
     <use xlink:href="#mf2d797549a" x="703.851199" y="107.416583" style="fill: #1f77b4; stroke: #1f77b4"/>
     <use xlink:href="#mf2d797549a" x="679.592116" y="226.574622" style="fill: #1f77b4; stroke: #1f77b4"/>
     <use xlink:href="#mf2d797549a" x="781.00324" y="159.471133" style="fill: #1f77b4; stroke: #1f77b4"/>
     <use xlink:href="#mf2d797549a" x="661.845136" y="135.212723" style="fill: #1f77b4; stroke: #1f77b4"/>
     <use xlink:href="#mf2d797549a" x="651.797569" y="184.56854" style="fill: #1f77b4; stroke: #1f77b4"/>
     <use xlink:href="#mf2d797549a" x="728.949451" y="236.623421" style="fill: #1f77b4; stroke: #1f77b4"/>
     <use xlink:href="#mf2d797549a" x="770.954024" y="208.827395" style="fill: #1f77b4; stroke: #1f77b4"/>
    </g>
   </g>
   <g id="text_3">
    <!-- 8 Stations -->
    <g transform="translate(686.219063 19.44) scale(0.12 -0.12)">
     <defs>
      <path id="DejaVuSans-38" d="M 2034 2216 
Q 1584 2216 1326 1975 
Q 1069 1734 1069 1313 
Q 1069 891 1326 650 
Q 1584 409 2034 409 
Q 2484 409 2743 651 
Q 3003 894 3003 1313 
Q 3003 1734 2745 1975 
Q 2488 2216 2034 2216 
z
M 1403 2484 
Q 997 2584 770 2862 
Q 544 3141 544 3541 
Q 544 4100 942 4425 
Q 1341 4750 2034 4750 
Q 2731 4750 3128 4425 
Q 3525 4100 3525 3541 
Q 3525 3141 3298 2862 
Q 3072 2584 2669 2484 
Q 3125 2378 3379 2068 
Q 3634 1759 3634 1313 
Q 3634 634 3220 271 
Q 2806 -91 2034 -91 
Q 1263 -91 848 271 
Q 434 634 434 1313 
Q 434 1759 690 2068 
Q 947 2378 1403 2484 
z
M 1172 3481 
Q 1172 3119 1398 2916 
Q 1625 2713 2034 2713 
Q 2441 2713 2670 2916 
Q 2900 3119 2900 3481 
Q 2900 3844 2670 4047 
Q 2441 4250 2034 4250 
Q 1625 4250 1398 4047 
Q 1172 3844 1172 3481 
z
" transform="scale(0.015625)"/>
     </defs>
     <use xlink:href="#DejaVuSans-38"/>
     <use xlink:href="#DejaVuSans-20" x="63.623047"/>
     <use xlink:href="#DejaVuSans-53" x="95.410156"/>
     <use xlink:href="#DejaVuSans-74" x="158.886719"/>
     <use xlink:href="#DejaVuSans-61" x="198.095703"/>
     <use xlink:href="#DejaVuSans-74" x="259.375"/>
     <use xlink:href="#DejaVuSans-69" x="298.583984"/>
     <use xlink:href="#DejaVuSans-6f" x="326.367188"/>
     <use xlink:href="#DejaVuSans-6e" x="387.548828"/>
     <use xlink:href="#DejaVuSans-73" x="450.927734"/>
    </g>
   </g>
  </g>
  <g id="axes_4">
   <g id="patch_5">
    <path d="M 147.6 614.983636 
C 180.581622 614.983636 212.216842 601.879899 235.538371 578.558371 
C 258.859899 555.236842 271.963636 523.601622 271.963636 490.62 
C 271.963636 457.638378 258.859899 426.003158 235.538371 402.681629 
C 212.216842 379.360101 180.581622 366.256364 147.6 366.256364 
C 114.618378 366.256364 82.983158 379.360101 59.661629 402.681629 
C 36.340101 426.003158 23.236364 457.638378 23.236364 490.62 
C 23.236364 523.601622 36.340101 555.236842 59.661629 578.558371 
C 82.983158 601.879899 114.618378 614.983636 147.6 614.983636 
L 147.6 614.983636 
z
" clip-path="url(#p6cd0673786)" style="fill: none; stroke: #ff0000; stroke-linejoin: miter"/>
   </g>
   <g id="line2d_4">
    <g clip-path="url(#p6cd0673786)">
     <use xlink:href="#mf2d797549a" x="83.415655" y="513.790538" style="fill: #1f77b4; stroke: #1f77b4"/>
     <use xlink:href="#mf2d797549a" x="196.45935" y="488.761199" style="fill: #1f77b4; stroke: #1f77b4"/>
     <use xlink:href="#mf2d797549a" x="201.887625" y="448.556703" style="fill: #1f77b4; stroke: #1f77b4"/>
     <use xlink:href="#mf2d797549a" x="217.95137" y="502.541275" style="fill: #1f77b4; stroke: #1f77b4"/>
     <use xlink:href="#mf2d797549a" x="75.657188" y="489.399149" style="fill: #1f77b4; stroke: #1f77b4"/>
     <use xlink:href="#mf2d797549a" x="215.399017" y="470.47427" style="fill: #1f77b4; stroke: #1f77b4"/>
     <use xlink:href="#mf2d797549a" x="104.564227" y="437.822705" style="fill: #1f77b4; stroke: #1f77b4"/>
     <use xlink:href="#mf2d797549a" x="191.452128" y="544.419263" style="fill: #1f77b4; stroke: #1f77b4"/>
     <use xlink:href="#mf2d797549a" x="183.236168" y="432.425689" style="fill: #1f77b4; stroke: #1f77b4"/>
     <use xlink:href="#mf2d797549a" x="160.910249" y="419.908313" style="fill: #1f77b4; stroke: #1f77b4"/>
     <use xlink:href="#mf2d797549a" x="135.928325" y="538.10053" style="fill: #1f77b4; stroke: #1f77b4"/>
     <use xlink:href="#mf2d797549a" x="169.799453" y="554.832044" style="fill: #1f77b4; stroke: #1f77b4"/>
     <use xlink:href="#mf2d797549a" x="145.090657" y="561.930207" style="fill: #1f77b4; stroke: #1f77b4"/>
     <use xlink:href="#mf2d797549a" x="114.197826" y="552.96437" style="fill: #1f77b4; stroke: #1f77b4"/>
     <use xlink:href="#mf2d797549a" x="95.454297" y="535.311573" style="fill: #1f77b4; stroke: #1f77b4"/>
     <use xlink:href="#mf2d797549a" x="206.016989" y="525.311014" style="fill: #1f77b4; stroke: #1f77b4"/>
     <use xlink:href="#mf2d797549a" x="145.411768" y="439.128347" style="fill: #1f77b4; stroke: #1f77b4"/>
     <use xlink:href="#mf2d797549a" x="85.437098" y="455.746739" style="fill: #1f77b4; stroke: #1f77b4"/>
     <use xlink:href="#mf2d797549a" x="125.976827" y="422.702633" style="fill: #1f77b4; stroke: #1f77b4"/>
     <use xlink:href="#mf2d797549a" x="97.607255" y="478.093893" style="fill: #1f77b4; stroke: #1f77b4"/>
    </g>
   </g>
   <g id="text_4">
    <!-- 20 Stations -->
    <g transform="translate(113.601562 338.04) scale(0.12 -0.12)">
     <defs>
      <path id="DejaVuSans-30" d="M 2034 4250 
Q 1547 4250 1301 3770 
Q 1056 3291 1056 2328 
Q 1056 1369 1301 889 
Q 1547 409 2034 409 
Q 2525 409 2770 889 
Q 3016 1369 3016 2328 
Q 3016 3291 2770 3770 
Q 2525 4250 2034 4250 
z
M 2034 4750 
Q 2819 4750 3233 4129 
Q 3647 3509 3647 2328 
Q 3647 1150 3233 529 
Q 2819 -91 2034 -91 
Q 1250 -91 836 529 
Q 422 1150 422 2328 
Q 422 3509 836 4129 
Q 1250 4750 2034 4750 
z
" transform="scale(0.015625)"/>
     </defs>
     <use xlink:href="#DejaVuSans-32"/>
     <use xlink:href="#DejaVuSans-30" x="63.623047"/>
     <use xlink:href="#DejaVuSans-20" x="127.246094"/>
     <use xlink:href="#DejaVuSans-53" x="159.033203"/>
     <use xlink:href="#DejaVuSans-74" x="222.509766"/>
     <use xlink:href="#DejaVuSans-61" x="261.71875"/>
     <use xlink:href="#DejaVuSans-74" x="322.998047"/>
     <use xlink:href="#DejaVuSans-69" x="362.207031"/>
     <use xlink:href="#DejaVuSans-6f" x="389.990234"/>
     <use xlink:href="#DejaVuSans-6e" x="451.171875"/>
     <use xlink:href="#DejaVuSans-73" x="514.550781"/>
    </g>
   </g>
  </g>
  <g id="axes_5">
   <g id="patch_6">
    <path d="M 432 614.983636 
C 464.981622 614.983636 496.616842 601.879899 519.938371 578.558371 
C 543.259899 555.236842 556.363636 523.601622 556.363636 490.62 
C 556.363636 457.638378 543.259899 426.003158 519.938371 402.681629 
C 496.616842 379.360101 464.981622 366.256364 432 366.256364 
C 399.018378 366.256364 367.383158 379.360101 344.061629 402.681629 
C 320.740101 426.003158 307.636364 457.638378 307.636364 490.62 
C 307.636364 523.601622 320.740101 555.236842 344.061629 578.558371 
C 367.383158 601.879899 399.018378 614.983636 432 614.983636 
L 432 614.983636 
z
" clip-path="url(#p59bedbb810)" style="fill: none; stroke: #ff0000; stroke-linejoin: miter"/>
   </g>
   <g id="line2d_5">
    <g clip-path="url(#p59bedbb810)">
     <use xlink:href="#mf2d797549a" x="449.181767" y="424.290897" style="fill: #1f77b4; stroke: #1f77b4"/>
     <use xlink:href="#mf2d797549a" x="362.062638" y="447.895555" style="fill: #1f77b4; stroke: #1f77b4"/>
     <use xlink:href="#mf2d797549a" x="443.632107" y="445.870656" style="fill: #1f77b4; stroke: #1f77b4"/>
     <use xlink:href="#mf2d797549a" x="468.027972" y="417.207393" style="fill: #1f77b4; stroke: #1f77b4"/>
     <use xlink:href="#mf2d797549a" x="465.184395" y="438.695104" style="fill: #1f77b4; stroke: #1f77b4"/>
     <use xlink:href="#mf2d797549a" x="353.613119" y="489.916875" style="fill: #1f77b4; stroke: #1f77b4"/>
     <use xlink:href="#mf2d797549a" x="418.35415" y="451.597782" style="fill: #1f77b4; stroke: #1f77b4"/>
     <use xlink:href="#mf2d797549a" x="371.171413" y="506.11198" style="fill: #1f77b4; stroke: #1f77b4"/>
     <use xlink:href="#mf2d797549a" x="500.60655" y="528.754084" style="fill: #1f77b4; stroke: #1f77b4"/>
     <use xlink:href="#mf2d797549a" x="408.834261" y="524.333024" style="fill: #1f77b4; stroke: #1f77b4"/>
     <use xlink:href="#mf2d797549a" x="392.080837" y="500.942349" style="fill: #1f77b4; stroke: #1f77b4"/>
     <use xlink:href="#mf2d797549a" x="486.24609" y="472.450747" style="fill: #1f77b4; stroke: #1f77b4"/>
     <use xlink:href="#mf2d797549a" x="486.417341" y="512.772672" style="fill: #1f77b4; stroke: #1f77b4"/>
     <use xlink:href="#mf2d797549a" x="501.313791" y="448.121132" style="fill: #1f77b4; stroke: #1f77b4"/>
     <use xlink:href="#mf2d797549a" x="375.57802" y="545.305839" style="fill: #1f77b4; stroke: #1f77b4"/>
     <use xlink:href="#mf2d797549a" x="462.936639" y="463.123891" style="fill: #1f77b4; stroke: #1f77b4"/>
     <use xlink:href="#mf2d797549a" x="414.211196" y="412.673085" style="fill: #1f77b4; stroke: #1f77b4"/>
     <use xlink:href="#mf2d797549a" x="431.053148" y="571.350765" style="fill: #1f77b4; stroke: #1f77b4"/>
     <use xlink:href="#mf2d797549a" x="395.467428" y="473.052982" style="fill: #1f77b4; stroke: #1f77b4"/>
     <use xlink:href="#mf2d797549a" x="373.756407" y="483.794816" style="fill: #1f77b4; stroke: #1f77b4"/>
     <use xlink:href="#mf2d797549a" x="514.129336" y="487.963451" style="fill: #1f77b4; stroke: #1f77b4"/>
     <use xlink:href="#mf2d797549a" x="477.94774" y="533.53531" style="fill: #1f77b4; stroke: #1f77b4"/>
     <use xlink:href="#mf2d797549a" x="436.208601" y="408.975283" style="fill: #1f77b4; stroke: #1f77b4"/>
     <use xlink:href="#mf2d797549a" x="418.436696" y="547.456514" style="fill: #1f77b4; stroke: #1f77b4"/>
     <use xlink:href="#mf2d797549a" x="491.455255" y="548.047242" style="fill: #1f77b4; stroke: #1f77b4"/>
     <use xlink:href="#mf2d797549a" x="406.987791" y="432.861159" style="fill: #1f77b4; stroke: #1f77b4"/>
     <use xlink:href="#mf2d797549a" x="438.983123" y="552.861715" style="fill: #1f77b4; stroke: #1f77b4"/>
     <use xlink:href="#mf2d797549a" x="378.341252" y="434.871653" style="fill: #1f77b4; stroke: #1f77b4"/>
     <use xlink:href="#mf2d797549a" x="481.7801" y="452.012458" style="fill: #1f77b4; stroke: #1f77b4"/>
     <use xlink:href="#mf2d797549a" x="428.147364" y="429.23229" style="fill: #1f77b4; stroke: #1f77b4"/>
     <use xlink:href="#mf2d797549a" x="376.441167" y="461.836564" style="fill: #1f77b4; stroke: #1f77b4"/>
     <use xlink:href="#mf2d797549a" x="392.364009" y="419.345954" style="fill: #1f77b4; stroke: #1f77b4"/>
     <use xlink:href="#mf2d797549a" x="397.336772" y="542.759806" style="fill: #1f77b4; stroke: #1f77b4"/>
     <use xlink:href="#mf2d797549a" x="485.622119" y="431.106434" style="fill: #1f77b4; stroke: #1f77b4"/>
     <use xlink:href="#mf2d797549a" x="494.641406" y="492.221492" style="fill: #1f77b4; stroke: #1f77b4"/>
     <use xlink:href="#mf2d797549a" x="472.637757" y="492.542052" style="fill: #1f77b4; stroke: #1f77b4"/>
     <use xlink:href="#mf2d797549a" x="393.434135" y="448.880809" style="fill: #1f77b4; stroke: #1f77b4"/>
     <use xlink:href="#mf2d797549a" x="508.518609" y="509.16773" style="fill: #1f77b4; stroke: #1f77b4"/>
     <use xlink:href="#mf2d797549a" x="363.420687" y="528.294689" style="fill: #1f77b4; stroke: #1f77b4"/>
     <use xlink:href="#mf2d797549a" x="458.181248" y="543.33029" style="fill: #1f77b4; stroke: #1f77b4"/>
     <use xlink:href="#mf2d797549a" x="384.358091" y="524.537428" style="fill: #1f77b4; stroke: #1f77b4"/>
     <use xlink:href="#mf2d797549a" x="472.808987" y="557.915559" style="fill: #1f77b4; stroke: #1f77b4"/>
     <use xlink:href="#mf2d797549a" x="462.295452" y="518.679936" style="fill: #1f77b4; stroke: #1f77b4"/>
     <use xlink:href="#mf2d797549a" x="410.585546" y="566.291586" style="fill: #1f77b4; stroke: #1f77b4"/>
     <use xlink:href="#mf2d797549a" x="453.759842" y="567.341275" style="fill: #1f77b4; stroke: #1f77b4"/>
     <use xlink:href="#mf2d797549a" x="506.438826" y="468.494699" style="fill: #1f77b4; stroke: #1f77b4"/>
     <use xlink:href="#mf2d797549a" x="436.860338" y="531.121866" style="fill: #1f77b4; stroke: #1f77b4"/>
     <use xlink:href="#mf2d797549a" x="351.772311" y="510.808213" style="fill: #1f77b4; stroke: #1f77b4"/>
     <use xlink:href="#mf2d797549a" x="390.246815" y="561.368663" style="fill: #1f77b4; stroke: #1f77b4"/>
     <use xlink:href="#mf2d797549a" x="356.163515" y="469.105441" style="fill: #1f77b4; stroke: #1f77b4"/>
    </g>
   </g>
   <g id="text_5">
    <!-- 50 Stations -->
    <g transform="translate(398.001562 338.04) scale(0.12 -0.12)">
     <defs>
      <path id="DejaVuSans-35" d="M 691 4666 
L 3169 4666 
L 3169 4134 
L 1269 4134 
L 1269 2991 
Q 1406 3038 1543 3061 
Q 1681 3084 1819 3084 
Q 2600 3084 3056 2656 
Q 3513 2228 3513 1497 
Q 3513 744 3044 326 
Q 2575 -91 1722 -91 
Q 1428 -91 1123 -41 
Q 819 9 494 109 
L 494 744 
Q 775 591 1075 516 
Q 1375 441 1709 441 
Q 2250 441 2565 725 
Q 2881 1009 2881 1497 
Q 2881 1984 2565 2268 
Q 2250 2553 1709 2553 
Q 1456 2553 1204 2497 
Q 953 2441 691 2322 
L 691 4666 
z
" transform="scale(0.015625)"/>
     </defs>
     <use xlink:href="#DejaVuSans-35"/>
     <use xlink:href="#DejaVuSans-30" x="63.623047"/>
     <use xlink:href="#DejaVuSans-20" x="127.246094"/>
     <use xlink:href="#DejaVuSans-53" x="159.033203"/>
     <use xlink:href="#DejaVuSans-74" x="222.509766"/>
     <use xlink:href="#DejaVuSans-61" x="261.71875"/>
     <use xlink:href="#DejaVuSans-74" x="322.998047"/>
     <use xlink:href="#DejaVuSans-69" x="362.207031"/>
     <use xlink:href="#DejaVuSans-6f" x="389.990234"/>
     <use xlink:href="#DejaVuSans-6e" x="451.171875"/>
     <use xlink:href="#DejaVuSans-73" x="514.550781"/>
    </g>
   </g>
  </g>
  <g id="axes_6">
   <g id="patch_7">
    <path d="M 716.4 614.983636 
C 749.381622 614.983636 781.016842 601.879899 804.338371 578.558371 
C 827.659899 555.236842 840.763636 523.601622 840.763636 490.62 
C 840.763636 457.638378 827.659899 426.003158 804.338371 402.681629 
C 781.016842 379.360101 749.381622 366.256364 716.4 366.256364 
C 683.418378 366.256364 651.783158 379.360101 628.461629 402.681629 
C 605.140101 426.003158 592.036364 457.638378 592.036364 490.62 
C 592.036364 523.601622 605.140101 555.236842 628.461629 578.558371 
C 651.783158 601.879899 683.418378 614.983636 716.4 614.983636 
L 716.4 614.983636 
z
" clip-path="url(#p19a98f108c)" style="fill: none; stroke: #ff0000; stroke-linejoin: miter"/>
   </g>
   <g id="line2d_6">
    <g clip-path="url(#p19a98f108c)">
     <use xlink:href="#mf2d797549a" x="671.754071" y="461.083577" style="fill: #1f77b4; stroke: #1f77b4"/>
     <use xlink:href="#mf2d797549a" x="701.091843" y="578.787517" style="fill: #1f77b4; stroke: #1f77b4"/>
     <use xlink:href="#mf2d797549a" x="687.959957" y="425.010635" style="fill: #1f77b4; stroke: #1f77b4"/>
     <use xlink:href="#mf2d797549a" x="649.610676" y="431.233839" style="fill: #1f77b4; stroke: #1f77b4"/>
     <use xlink:href="#mf2d797549a" x="708.192945" y="561.578782" style="fill: #1f77b4; stroke: #1f77b4"/>
     <use xlink:href="#mf2d797549a" x="660.461597" y="446.4326" style="fill: #1f77b4; stroke: #1f77b4"/>
     <use xlink:href="#mf2d797549a" x="661.883508" y="498.793021" style="fill: #1f77b4; stroke: #1f77b4"/>
     <use xlink:href="#mf2d797549a" x="741.859428" y="517.475574" style="fill: #1f77b4; stroke: #1f77b4"/>
     <use xlink:href="#mf2d797549a" x="727.072344" y="558.689383" style="fill: #1f77b4; stroke: #1f77b4"/>
     <use xlink:href="#mf2d797549a" x="730.903992" y="459.795836" style="fill: #1f77b4; stroke: #1f77b4"/>
     <use xlink:href="#mf2d797549a" x="698.89977" y="439.772719" style="fill: #1f77b4; stroke: #1f77b4"/>
     <use xlink:href="#mf2d797549a" x="800.498797" y="469.646075" style="fill: #1f77b4; stroke: #1f77b4"/>
     <use xlink:href="#mf2d797549a" x="672.816683" y="515.460831" style="fill: #1f77b4; stroke: #1f77b4"/>
     <use xlink:href="#mf2d797549a" x="645.167351" y="537.209859" style="fill: #1f77b4; stroke: #1f77b4"/>
     <use xlink:href="#mf2d797549a" x="663.924404" y="533.983262" style="fill: #1f77b4; stroke: #1f77b4"/>
     <use xlink:href="#mf2d797549a" x="762.45822" y="517.061463" style="fill: #1f77b4; stroke: #1f77b4"/>
     <use xlink:href="#mf2d797549a" x="720.787423" y="522.234107" style="fill: #1f77b4; stroke: #1f77b4"/>
     <use xlink:href="#mf2d797549a" x="630.728248" y="485.483133" style="fill: #1f77b4; stroke: #1f77b4"/>
     <use xlink:href="#mf2d797549a" x="670.089041" y="567.014285" style="fill: #1f77b4; stroke: #1f77b4"/>
     <use xlink:href="#mf2d797549a" x="656.826183" y="552.272515" style="fill: #1f77b4; stroke: #1f77b4"/>
     <use xlink:href="#mf2d797549a" x="641.198524" y="449.26303" style="fill: #1f77b4; stroke: #1f77b4"/>
     <use xlink:href="#mf2d797549a" x="792.737268" y="450.712705" style="fill: #1f77b4; stroke: #1f77b4"/>
     <use xlink:href="#mf2d797549a" x="801.273045" y="517.274893" style="fill: #1f77b4; stroke: #1f77b4"/>
     <use xlink:href="#mf2d797549a" x="688.404184" y="565.23835" style="fill: #1f77b4; stroke: #1f77b4"/>
     <use xlink:href="#mf2d797549a" x="763.774598" y="465.167826" style="fill: #1f77b4; stroke: #1f77b4"/>
     <use xlink:href="#mf2d797549a" x="680.953313" y="495.786175" style="fill: #1f77b4; stroke: #1f77b4"/>
     <use xlink:href="#mf2d797549a" x="781.751274" y="517.986544" style="fill: #1f77b4; stroke: #1f77b4"/>
     <use xlink:href="#mf2d797549a" x="682.773197" y="531.720009" style="fill: #1f77b4; stroke: #1f77b4"/>
     <use xlink:href="#mf2d797549a" x="753.711819" y="498.075881" style="fill: #1f77b4; stroke: #1f77b4"/>
     <use xlink:href="#mf2d797549a" x="667.331878" y="479.582582" style="fill: #1f77b4; stroke: #1f77b4"/>
     <use xlink:href="#mf2d797549a" x="786.558064" y="484.024022" style="fill: #1f77b4; stroke: #1f77b4"/>
     <use xlink:href="#mf2d797549a" x="721.170834" y="576.73648" style="fill: #1f77b4; stroke: #1f77b4"/>
     <use xlink:href="#mf2d797549a" x="805.261671" y="489.468781" style="fill: #1f77b4; stroke: #1f77b4"/>
     <use xlink:href="#mf2d797549a" x="717.760061" y="440.523679" style="fill: #1f77b4; stroke: #1f77b4"/>
     <use xlink:href="#mf2d797549a" x="626.921473" y="504.194137" style="fill: #1f77b4; stroke: #1f77b4"/>
     <use xlink:href="#mf2d797549a" x="781.892658" y="466.203195" style="fill: #1f77b4; stroke: #1f77b4"/>
     <use xlink:href="#mf2d797549a" x="772.443378" y="449.078742" style="fill: #1f77b4; stroke: #1f77b4"/>
     <use xlink:href="#mf2d797549a" x="715.340601" y="405.345511" style="fill: #1f77b4; stroke: #1f77b4"/>
     <use xlink:href="#mf2d797549a" x="736.7329" y="439.994019" style="fill: #1f77b4; stroke: #1f77b4"/>
     <use xlink:href="#mf2d797549a" x="790.877735" y="535.035858" style="fill: #1f77b4; stroke: #1f77b4"/>
     <use xlink:href="#mf2d797549a" x="694.593177" y="511.605037" style="fill: #1f77b4; stroke: #1f77b4"/>
     <use xlink:href="#mf2d797549a" x="707.259721" y="422.839838" style="fill: #1f77b4; stroke: #1f77b4"/>
     <use xlink:href="#mf2d797549a" x="654.257634" y="517.939612" style="fill: #1f77b4; stroke: #1f77b4"/>
     <use xlink:href="#mf2d797549a" x="758.451562" y="437.054482" style="fill: #1f77b4; stroke: #1f77b4"/>
     <use xlink:href="#mf2d797549a" x="782.295155" y="433.800192" style="fill: #1f77b4; stroke: #1f77b4"/>
     <use xlink:href="#mf2d797549a" x="648.917936" y="482.837646" style="fill: #1f77b4; stroke: #1f77b4"/>
     <use xlink:href="#mf2d797549a" x="768.040806" y="482.915854" style="fill: #1f77b4; stroke: #1f77b4"/>
     <use xlink:href="#mf2d797549a" x="744.938237" y="424.264585" style="fill: #1f77b4; stroke: #1f77b4"/>
     <use xlink:href="#mf2d797549a" x="715.036144" y="544.251016" style="fill: #1f77b4; stroke: #1f77b4"/>
     <use xlink:href="#mf2d797549a" x="676.359805" y="410.533998" style="fill: #1f77b4; stroke: #1f77b4"/>
     <use xlink:href="#mf2d797549a" x="773.617438" y="500.771754" style="fill: #1f77b4; stroke: #1f77b4"/>
     <use xlink:href="#mf2d797549a" x="653.268637" y="464.599003" style="fill: #1f77b4; stroke: #1f77b4"/>
     <use xlink:href="#mf2d797549a" x="678.526865" y="441.44486" style="fill: #1f77b4; stroke: #1f77b4"/>
     <use xlink:href="#mf2d797549a" x="744.743763" y="554.14442" style="fill: #1f77b4; stroke: #1f77b4"/>
     <use xlink:href="#mf2d797549a" x="644.538995" y="501.479876" style="fill: #1f77b4; stroke: #1f77b4"/>
     <use xlink:href="#mf2d797549a" x="733.496864" y="538.99052" style="fill: #1f77b4; stroke: #1f77b4"/>
     <use xlink:href="#mf2d797549a" x="667.562418" y="426.896834" style="fill: #1f77b4; stroke: #1f77b4"/>
     <use xlink:href="#mf2d797549a" x="734.330178" y="406.521022" style="fill: #1f77b4; stroke: #1f77b4"/>
     <use xlink:href="#mf2d797549a" x="689.984764" y="456.384534" style="fill: #1f77b4; stroke: #1f77b4"/>
     <use xlink:href="#mf2d797549a" x="676.021682" y="549.107614" style="fill: #1f77b4; stroke: #1f77b4"/>
     <use xlink:href="#mf2d797549a" x="694.903944" y="548.099781" style="fill: #1f77b4; stroke: #1f77b4"/>
     <use xlink:href="#mf2d797549a" x="689.162926" y="476.568067" style="fill: #1f77b4; stroke: #1f77b4"/>
     <use xlink:href="#mf2d797549a" x="740.619117" y="573.080323" style="fill: #1f77b4; stroke: #1f77b4"/>
     <use xlink:href="#mf2d797549a" x="767.70934" y="421.723459" style="fill: #1f77b4; stroke: #1f77b4"/>
     <use xlink:href="#mf2d797549a" x="746.744114" y="476.184406" style="fill: #1f77b4; stroke: #1f77b4"/>
     <use xlink:href="#mf2d797549a" x="636.107543" y="520.912023" style="fill: #1f77b4; stroke: #1f77b4"/>
     <use xlink:href="#mf2d797549a" x="759.997921" y="567.418305" style="fill: #1f77b4; stroke: #1f77b4"/>
     <use xlink:href="#mf2d797549a" x="752.061744" y="534.255193" style="fill: #1f77b4; stroke: #1f77b4"/>
     <use xlink:href="#mf2d797549a" x="779.907671" y="552.270049" style="fill: #1f77b4; stroke: #1f77b4"/>
     <use xlink:href="#mf2d797549a" x="709.799774" y="460.334863" style="fill: #1f77b4; stroke: #1f77b4"/>
     <use xlink:href="#mf2d797549a" x="791.738832" y="501.790677" style="fill: #1f77b4; stroke: #1f77b4"/>
     <use xlink:href="#mf2d797549a" x="771.788027" y="533.716348" style="fill: #1f77b4; stroke: #1f77b4"/>
     <use xlink:href="#mf2d797549a" x="729.993208" y="495.783599" style="fill: #1f77b4; stroke: #1f77b4"/>
     <use xlink:href="#mf2d797549a" x="762.055716" y="549.278977" style="fill: #1f77b4; stroke: #1f77b4"/>
     <use xlink:href="#mf2d797549a" x="725.808759" y="423.10438" style="fill: #1f77b4; stroke: #1f77b4"/>
     <use xlink:href="#mf2d797549a" x="701.933852" y="530.412647" style="fill: #1f77b4; stroke: #1f77b4"/>
     <use xlink:href="#mf2d797549a" x="750.231239" y="453.257172" style="fill: #1f77b4; stroke: #1f77b4"/>
     <use xlink:href="#mf2d797549a" x="696.095211" y="407.099748" style="fill: #1f77b4; stroke: #1f77b4"/>
     <use xlink:href="#mf2d797549a" x="753.68672" y="408.783373" style="fill: #1f77b4; stroke: #1f77b4"/>
     <use xlink:href="#mf2d797549a" x="634.460757" y="467.176319" style="fill: #1f77b4; stroke: #1f77b4"/>
    </g>
   </g>
   <g id="text_6">
    <!-- 80 Stations -->
    <g transform="translate(682.401563 338.04) scale(0.12 -0.12)">
     <use xlink:href="#DejaVuSans-38"/>
     <use xlink:href="#DejaVuSans-30" x="63.623047"/>
     <use xlink:href="#DejaVuSans-20" x="127.246094"/>
     <use xlink:href="#DejaVuSans-53" x="159.033203"/>
     <use xlink:href="#DejaVuSans-74" x="222.509766"/>
     <use xlink:href="#DejaVuSans-61" x="261.71875"/>
     <use xlink:href="#DejaVuSans-74" x="322.998047"/>
     <use xlink:href="#DejaVuSans-69" x="362.207031"/>
     <use xlink:href="#DejaVuSans-6f" x="389.990234"/>
     <use xlink:href="#DejaVuSans-6e" x="451.171875"/>
     <use xlink:href="#DejaVuSans-73" x="514.550781"/>
    </g>
   </g>
  </g>
 </g>
 <defs>
  <clipPath id="p70d6b5adf9">
   <rect x="10.8" y="25.44" width="273.6" height="293.16"/>
  </clipPath>
  <clipPath id="pe407ac0ee4">
   <rect x="295.2" y="25.44" width="273.6" height="293.16"/>
  </clipPath>
  <clipPath id="p62fe84fe80">
   <rect x="579.6" y="25.44" width="273.6" height="293.16"/>
  </clipPath>
  <clipPath id="p6cd0673786">
   <rect x="10.8" y="344.04" width="273.6" height="293.16"/>
  </clipPath>
  <clipPath id="p59bedbb810">
   <rect x="295.2" y="344.04" width="273.6" height="293.16"/>
  </clipPath>
  <clipPath id="p19a98f108c">
   <rect x="579.6" y="344.04" width="273.6" height="293.16"/>
  </clipPath>
 </defs>
</svg>
